%TF.GenerationSoftware,KiCad,Pcbnew,6.0.11+dfsg-1~bpo11+1*%
%TF.CreationDate,2023-04-27T20:00:31+00:00*%
%TF.ProjectId,mower_PowerDeviceCarrier,6d6f7765-725f-4506-9f77-657244657669,rev?*%
%TF.SameCoordinates,PX2b5aa20PY5837b10*%
%TF.FileFunction,Copper,L2,Bot*%
%TF.FilePolarity,Positive*%
%FSLAX46Y46*%
G04 Gerber Fmt 4.6, Leading zero omitted, Abs format (unit mm)*
G04 Created by KiCad (PCBNEW 6.0.11+dfsg-1~bpo11+1) date 2023-04-27 20:00:31*
%MOMM*%
%LPD*%
G01*
G04 APERTURE LIST*
G04 Aperture macros list*
%AMRoundRect*
0 Rectangle with rounded corners*
0 $1 Rounding radius*
0 $2 $3 $4 $5 $6 $7 $8 $9 X,Y pos of 4 corners*
0 Add a 4 corners polygon primitive as box body*
4,1,4,$2,$3,$4,$5,$6,$7,$8,$9,$2,$3,0*
0 Add four circle primitives for the rounded corners*
1,1,$1+$1,$2,$3*
1,1,$1+$1,$4,$5*
1,1,$1+$1,$6,$7*
1,1,$1+$1,$8,$9*
0 Add four rect primitives between the rounded corners*
20,1,$1+$1,$2,$3,$4,$5,0*
20,1,$1+$1,$4,$5,$6,$7,0*
20,1,$1+$1,$6,$7,$8,$9,0*
20,1,$1+$1,$8,$9,$2,$3,0*%
G04 Aperture macros list end*
%TA.AperFunction,ComponentPad*%
%ADD10C,2.350000*%
%TD*%
%TA.AperFunction,ComponentPad*%
%ADD11C,2.400000*%
%TD*%
%TA.AperFunction,ComponentPad*%
%ADD12O,2.400000X2.400000*%
%TD*%
%TA.AperFunction,ComponentPad*%
%ADD13C,4.000000*%
%TD*%
%TA.AperFunction,ComponentPad*%
%ADD14C,2.500000*%
%TD*%
%TA.AperFunction,ComponentPad*%
%ADD15RoundRect,0.250000X-1.550000X0.650000X-1.550000X-0.650000X1.550000X-0.650000X1.550000X0.650000X0*%
%TD*%
%TA.AperFunction,ComponentPad*%
%ADD16O,3.600000X1.800000*%
%TD*%
%TA.AperFunction,ComponentPad*%
%ADD17C,1.700000*%
%TD*%
%TA.AperFunction,ComponentPad*%
%ADD18O,1.700000X1.700000*%
%TD*%
%TA.AperFunction,ComponentPad*%
%ADD19RoundRect,0.249999X-1.550001X0.790001X-1.550001X-0.790001X1.550001X-0.790001X1.550001X0.790001X0*%
%TD*%
%TA.AperFunction,ComponentPad*%
%ADD20O,3.600000X2.080000*%
%TD*%
%TA.AperFunction,ComponentPad*%
%ADD21RoundRect,0.425000X0.425000X-1.075000X0.425000X1.075000X-0.425000X1.075000X-0.425000X-1.075000X0*%
%TD*%
%TA.AperFunction,Conductor*%
%ADD22C,2.500000*%
%TD*%
%TA.AperFunction,Conductor*%
%ADD23C,1.000000*%
%TD*%
G04 APERTURE END LIST*
D10*
%TO.P,F1,1*%
%TO.N,Net-(F1-Pad1)*%
X133866000Y-108708000D03*
X128866000Y-108708000D03*
%TO.P,F1,2*%
%TO.N,Net-(A1-Pad1)*%
X113866000Y-108708000D03*
X118866000Y-108708000D03*
%TD*%
D11*
%TO.P,R1,1*%
%TO.N,GND1*%
X61019400Y-109309200D03*
D12*
%TO.P,R1,2*%
%TO.N,Net-(J2-Pad2)*%
X76259400Y-109309200D03*
%TD*%
D13*
%TO.P,A1,*%
%TO.N,*%
X42959200Y-96280800D03*
X42959200Y-69680800D03*
X101319200Y-69760800D03*
X101309200Y-96310800D03*
D14*
%TO.P,A1,1,Vin+*%
%TO.N,Net-(A1-Pad1)*%
X100299200Y-90550800D03*
%TO.P,A1,2,Vin-*%
%TO.N,Net-(A1-Pad2)*%
X100299200Y-85470800D03*
%TO.P,A1,3,Vout+*%
%TO.N,+BATT*%
X100299200Y-75310800D03*
%TO.P,A1,4,Vout-*%
%TO.N,GND1*%
X100299200Y-80390800D03*
%TD*%
D15*
%TO.P,J3,1,Pin_1*%
%TO.N,+BATT*%
X138170000Y-77466000D03*
D16*
%TO.P,J3,2,Pin_2*%
%TO.N,GND1*%
X138170000Y-81276000D03*
%TO.P,J3,3,Pin_3*%
%TO.N,Net-(A1-Pad2)*%
X138170000Y-85086000D03*
%TO.P,J3,4,Pin_4*%
%TO.N,Net-(F1-Pad1)*%
X138170000Y-88896000D03*
%TD*%
D17*
%TO.P,J4,1,Pin_1*%
%TO.N,Net-(A1-Pad1)*%
X106420000Y-90420000D03*
D18*
%TO.P,J4,2,Pin_2*%
%TO.N,Net-(A1-Pad2)*%
X106420000Y-85340000D03*
%TO.P,J4,3,Pin_3*%
%TO.N,+BATT*%
X106420000Y-75180000D03*
%TO.P,J4,4,Pin_4*%
%TO.N,GND1*%
X106420000Y-80260000D03*
%TD*%
D19*
%TO.P,J1,1,Pin_1*%
%TO.N,+BATT*%
X147353500Y-75401600D03*
D20*
%TO.P,J1,2,Pin_2*%
%TO.N,GND1*%
X147353500Y-80481600D03*
%TO.P,J1,3,Pin_3*%
%TO.N,Net-(A1-Pad2)*%
X147353500Y-85561600D03*
%TO.P,J1,4,Pin_4*%
%TO.N,Net-(F1-Pad1)*%
X147353500Y-90641600D03*
%TD*%
D21*
%TO.P,J2,1,Pin_1*%
%TO.N,unconnected-(J2-Pad1)*%
X92769400Y-109309200D03*
%TO.P,J2,2,Pin_2*%
%TO.N,Net-(J2-Pad2)*%
X90229400Y-109309200D03*
%TO.P,J2,3,Pin_3*%
%TO.N,+BATT*%
X87689400Y-109309200D03*
%TO.P,J2,4,Pin_4*%
%TO.N,unconnected-(J2-Pad4)*%
X85149400Y-109309200D03*
%TD*%
D22*
%TO.N,GND1*%
X147353500Y-80481600D02*
X146305100Y-81530000D01*
X146305100Y-81530000D02*
X138424000Y-81530000D01*
X138170000Y-81276000D02*
X107436000Y-81276000D01*
X138170000Y-81276000D02*
X138424000Y-81530000D01*
D23*
X61970000Y-83816000D02*
X65395200Y-80390800D01*
X61970000Y-108358600D02*
X61970000Y-83816000D01*
D22*
X106420000Y-80260000D02*
X100430000Y-80260000D01*
D23*
X65395200Y-80390800D02*
X100299200Y-80390800D01*
D22*
X107436000Y-81276000D02*
X106420000Y-80260000D01*
D23*
X61019400Y-109309200D02*
X61970000Y-108358600D01*
D22*
X100430000Y-80260000D02*
X100299200Y-80390800D01*
D23*
%TO.N,+BATT*%
X85261800Y-116429600D02*
X59150600Y-116429600D01*
X87689400Y-109309200D02*
X87689400Y-114002000D01*
X87689400Y-114002000D02*
X85261800Y-116429600D01*
D22*
X138170000Y-77466000D02*
X108706000Y-77466000D01*
X140456000Y-75180000D02*
X147131900Y-75180000D01*
D23*
X59150600Y-116429600D02*
X56890000Y-114169000D01*
X56890000Y-81911000D02*
X63490200Y-75310800D01*
D22*
X147131900Y-75180000D02*
X147353500Y-75401600D01*
X138170000Y-77466000D02*
X140456000Y-75180000D01*
X100430000Y-75180000D02*
X100299200Y-75310800D01*
X108706000Y-77466000D02*
X106420000Y-75180000D01*
D23*
X63490200Y-75310800D02*
X100299200Y-75310800D01*
D22*
X106420000Y-75180000D02*
X100430000Y-75180000D01*
D23*
X56890000Y-114169000D02*
X56890000Y-81911000D01*
D22*
%TO.N,Net-(F1-Pad1)*%
X138170000Y-88896000D02*
X139948000Y-90674000D01*
X128866000Y-108708000D02*
X133866000Y-108708000D01*
X147321100Y-90674000D02*
X147353500Y-90641600D01*
X133866000Y-93200000D02*
X138170000Y-88896000D01*
X139948000Y-90674000D02*
X147321100Y-90674000D01*
X133866000Y-108708000D02*
X133866000Y-93200000D01*
%TO.N,Net-(A1-Pad1)*%
X106420000Y-90420000D02*
X113866000Y-97866000D01*
X100299200Y-90550800D02*
X106289200Y-90550800D01*
X113866000Y-97866000D02*
X113866000Y-108708000D01*
X113866000Y-108708000D02*
X118866000Y-108708000D01*
X106289200Y-90550800D02*
X106420000Y-90420000D01*
%TO.N,Net-(A1-Pad2)*%
X146877900Y-85086000D02*
X147353500Y-85561600D01*
X138170000Y-85086000D02*
X146877900Y-85086000D01*
X100299200Y-85470800D02*
X106289200Y-85470800D01*
X137916000Y-85340000D02*
X138170000Y-85086000D01*
X106420000Y-85340000D02*
X137916000Y-85340000D01*
X106289200Y-85470800D02*
X106420000Y-85340000D01*
D23*
%TO.N,Net-(J2-Pad2)*%
X89173400Y-104288400D02*
X90291000Y-105406000D01*
X90291000Y-105406000D02*
X90291000Y-109247600D01*
X76259400Y-109309200D02*
X76259400Y-105670800D01*
X76259400Y-105670800D02*
X77641800Y-104288400D01*
X77641800Y-104288400D02*
X89173400Y-104288400D01*
%TD*%
%TA.AperFunction,Conductor*%
%TO.N,Net-(A1-Pad2)*%
G36*
X92953179Y-51543522D02*
G01*
X159575609Y-51548454D01*
X159643729Y-51568461D01*
X159690218Y-51622120D01*
X159701600Y-51674433D01*
X159706586Y-83261873D01*
X159711400Y-113765237D01*
X159691409Y-113833361D01*
X159637760Y-113879862D01*
X159585354Y-113891257D01*
X142313849Y-113884634D01*
X134149135Y-113881503D01*
X134148414Y-113881501D01*
X134116104Y-113881304D01*
X134070279Y-113881024D01*
X134041954Y-113889119D01*
X134025160Y-113892700D01*
X133996002Y-113896865D01*
X133987832Y-113900576D01*
X133987828Y-113900577D01*
X133972511Y-113907534D01*
X133955032Y-113913962D01*
X133930229Y-113921051D01*
X133922638Y-113925840D01*
X133922637Y-113925841D01*
X133905329Y-113936762D01*
X133890200Y-113944922D01*
X133863384Y-113957102D01*
X133856581Y-113962959D01*
X133856578Y-113962961D01*
X133843834Y-113973933D01*
X133828860Y-113985009D01*
X133814638Y-113993982D01*
X133814633Y-113993986D01*
X133807042Y-113998776D01*
X133787544Y-114020854D01*
X133775322Y-114032923D01*
X133753003Y-114052139D01*
X133748120Y-114059666D01*
X133748116Y-114059671D01*
X133738964Y-114073780D01*
X133727703Y-114088611D01*
X133710622Y-114107951D01*
X133706808Y-114116075D01*
X133706807Y-114116076D01*
X133698108Y-114134605D01*
X133689764Y-114149620D01*
X133673731Y-114174336D01*
X133666327Y-114199060D01*
X133659682Y-114216449D01*
X133648719Y-114239800D01*
X133647338Y-114248667D01*
X133647338Y-114248668D01*
X133644188Y-114268897D01*
X133640392Y-114285658D01*
X133635526Y-114301908D01*
X133631943Y-114313871D01*
X133631885Y-114322847D01*
X133631719Y-114348333D01*
X133631682Y-114349218D01*
X133631500Y-114350386D01*
X133631500Y-114381723D01*
X133631497Y-114382541D01*
X133630997Y-114459526D01*
X133631404Y-114460950D01*
X133631500Y-114462368D01*
X133631500Y-118825424D01*
X133611498Y-118893545D01*
X133557842Y-118940038D01*
X133505486Y-118951424D01*
X88749822Y-118946029D01*
X51823240Y-118941577D01*
X51755121Y-118921567D01*
X51708635Y-118867905D01*
X51697255Y-118815825D01*
X51689586Y-114912287D01*
X51688514Y-114366619D01*
X51688516Y-114365608D01*
X51688586Y-114354199D01*
X51688976Y-114290279D01*
X51680677Y-114261240D01*
X51677135Y-114244727D01*
X51674086Y-114223729D01*
X51672796Y-114214845D01*
X51662379Y-114192054D01*
X51655834Y-114174319D01*
X51648949Y-114150229D01*
X51632834Y-114124688D01*
X51624800Y-114109833D01*
X51623577Y-114107157D01*
X51612247Y-114082368D01*
X51606377Y-114075582D01*
X51606374Y-114075578D01*
X51595859Y-114063423D01*
X51584588Y-114048223D01*
X51576014Y-114034634D01*
X51571224Y-114027042D01*
X51548591Y-114007053D01*
X51536708Y-113995047D01*
X51528024Y-113985009D01*
X51516952Y-113972210D01*
X51495901Y-113958624D01*
X51480819Y-113947199D01*
X51468775Y-113936562D01*
X51468774Y-113936561D01*
X51462049Y-113930622D01*
X51453929Y-113926809D01*
X51453925Y-113926807D01*
X51434714Y-113917787D01*
X51419943Y-113909601D01*
X51402113Y-113898095D01*
X51402111Y-113898094D01*
X51394568Y-113893226D01*
X51370545Y-113886093D01*
X51352878Y-113879366D01*
X51338326Y-113872534D01*
X51330200Y-113868719D01*
X51321331Y-113867338D01*
X51300362Y-113864073D01*
X51283886Y-113860361D01*
X51263543Y-113854321D01*
X51263539Y-113854320D01*
X51254936Y-113851766D01*
X51236276Y-113851689D01*
X51220707Y-113851624D01*
X51220304Y-113851608D01*
X51219614Y-113851500D01*
X51191070Y-113851500D01*
X51190548Y-113851499D01*
X51190391Y-113851498D01*
X51109279Y-113851162D01*
X51108335Y-113851434D01*
X51107376Y-113851500D01*
X25754500Y-113851500D01*
X25686379Y-113831498D01*
X25639886Y-113777842D01*
X25628500Y-113725500D01*
X25628500Y-108258141D01*
X28173088Y-108258141D01*
X28173183Y-108261770D01*
X28173183Y-108261772D01*
X28173929Y-108290243D01*
X28173929Y-108290245D01*
X28181928Y-108595711D01*
X28182170Y-108604971D01*
X28231056Y-108948460D01*
X28319097Y-109284053D01*
X28445127Y-109607303D01*
X28446824Y-109610508D01*
X28597820Y-109895690D01*
X28607475Y-109913926D01*
X28609525Y-109916909D01*
X28609527Y-109916912D01*
X28801933Y-110196864D01*
X28801939Y-110196871D01*
X28803990Y-110199856D01*
X28941459Y-110357440D01*
X29028727Y-110457477D01*
X29032066Y-110461305D01*
X29114829Y-110536613D01*
X29244468Y-110654575D01*
X29288681Y-110694806D01*
X29570433Y-110897266D01*
X29873588Y-111066000D01*
X30194128Y-111198772D01*
X30197622Y-111199767D01*
X30197624Y-111199768D01*
X30524303Y-111292825D01*
X30524308Y-111292826D01*
X30527804Y-111293822D01*
X30724504Y-111326033D01*
X30866612Y-111349304D01*
X30866619Y-111349305D01*
X30870193Y-111349890D01*
X31043476Y-111358062D01*
X31213131Y-111366063D01*
X31213132Y-111366063D01*
X31216758Y-111366234D01*
X31225615Y-111365630D01*
X31559273Y-111342884D01*
X31559281Y-111342883D01*
X31562904Y-111342636D01*
X31566479Y-111341973D01*
X31566482Y-111341973D01*
X31900479Y-111280070D01*
X31900483Y-111280069D01*
X31904044Y-111279409D01*
X32235656Y-111177392D01*
X32553345Y-111037936D01*
X32593623Y-111014400D01*
X32849760Y-110864726D01*
X32849762Y-110864725D01*
X32852900Y-110862891D01*
X32878672Y-110843541D01*
X33127444Y-110656758D01*
X33127448Y-110656755D01*
X33130351Y-110654575D01*
X33382019Y-110415750D01*
X33604570Y-110149583D01*
X33606881Y-110146066D01*
X33725679Y-109965211D01*
X33795053Y-109859599D01*
X33897818Y-109655273D01*
X33949317Y-109552880D01*
X33949320Y-109552872D01*
X33950944Y-109549644D01*
X33952189Y-109546242D01*
X34068929Y-109227237D01*
X34068930Y-109227233D01*
X34070177Y-109223826D01*
X34071022Y-109220304D01*
X34071025Y-109220296D01*
X34150324Y-108889991D01*
X34150325Y-108889987D01*
X34151171Y-108886462D01*
X34153610Y-108866308D01*
X34192516Y-108544804D01*
X34192516Y-108544797D01*
X34192852Y-108542025D01*
X34193187Y-108531382D01*
X34198313Y-108368263D01*
X34198799Y-108352800D01*
X34198407Y-108345993D01*
X34179036Y-108010046D01*
X34179035Y-108010041D01*
X34178827Y-108006426D01*
X34165640Y-107930869D01*
X34119800Y-107668215D01*
X34119798Y-107668208D01*
X34119176Y-107664642D01*
X34109211Y-107630999D01*
X34057266Y-107455637D01*
X34020637Y-107331980D01*
X34007378Y-107300895D01*
X33885940Y-107016186D01*
X33885938Y-107016183D01*
X33884516Y-107012848D01*
X33881651Y-107007824D01*
X33714408Y-106714616D01*
X33712617Y-106711476D01*
X33677020Y-106663016D01*
X33614893Y-106578441D01*
X33507218Y-106431860D01*
X33271042Y-106177704D01*
X33007219Y-105952378D01*
X32719247Y-105758869D01*
X32410941Y-105599740D01*
X32086389Y-105477102D01*
X32082868Y-105476218D01*
X32082863Y-105476216D01*
X31869952Y-105422737D01*
X31749892Y-105392580D01*
X31727676Y-105389655D01*
X31409515Y-105347768D01*
X31409507Y-105347767D01*
X31405911Y-105347294D01*
X31261245Y-105345021D01*
X31062646Y-105341901D01*
X31062642Y-105341901D01*
X31059004Y-105341844D01*
X31055390Y-105342205D01*
X31055384Y-105342205D01*
X30812043Y-105366494D01*
X30713769Y-105376303D01*
X30374783Y-105450214D01*
X30371356Y-105451387D01*
X30371350Y-105451389D01*
X30092506Y-105546859D01*
X30046539Y-105562597D01*
X29733388Y-105711963D01*
X29439479Y-105896332D01*
X29436643Y-105898604D01*
X29436636Y-105898609D01*
X29229899Y-106064237D01*
X29168709Y-106113259D01*
X28924666Y-106359871D01*
X28922425Y-106362729D01*
X28753286Y-106578441D01*
X28710586Y-106632898D01*
X28708693Y-106635987D01*
X28708691Y-106635990D01*
X28662433Y-106711476D01*
X28529305Y-106928721D01*
X28527780Y-106932006D01*
X28527778Y-106932010D01*
X28478810Y-107037504D01*
X28383227Y-107243420D01*
X28345366Y-107357902D01*
X28318382Y-107439494D01*
X28274287Y-107572823D01*
X28273551Y-107576378D01*
X28273550Y-107576381D01*
X28206983Y-107897821D01*
X28203930Y-107912564D01*
X28188056Y-108090433D01*
X28180836Y-108171332D01*
X28173088Y-108258141D01*
X25628500Y-108258141D01*
X25628500Y-96280800D01*
X40445740Y-96280800D01*
X40465559Y-96595820D01*
X40524705Y-96905872D01*
X40622244Y-97206066D01*
X40623931Y-97209652D01*
X40623933Y-97209656D01*
X40754950Y-97488083D01*
X40754954Y-97488090D01*
X40756638Y-97491669D01*
X40925768Y-97758175D01*
X41126967Y-98001382D01*
X41357060Y-98217454D01*
X41612421Y-98402984D01*
X41615890Y-98404891D01*
X41615893Y-98404893D01*
X41666990Y-98432984D01*
X41889021Y-98555047D01*
X41892690Y-98556500D01*
X41892695Y-98556502D01*
X42052573Y-98619802D01*
X42182498Y-98671243D01*
X42488225Y-98749740D01*
X42801379Y-98789300D01*
X43117021Y-98789300D01*
X43430175Y-98749740D01*
X43735902Y-98671243D01*
X43865827Y-98619802D01*
X44025705Y-98556502D01*
X44025710Y-98556500D01*
X44029379Y-98555047D01*
X44251410Y-98432984D01*
X44302507Y-98404893D01*
X44302510Y-98404891D01*
X44305979Y-98402984D01*
X44561340Y-98217454D01*
X44791433Y-98001382D01*
X44992632Y-97758175D01*
X45161762Y-97491669D01*
X45163446Y-97488090D01*
X45163450Y-97488083D01*
X45294467Y-97209656D01*
X45294469Y-97209652D01*
X45296156Y-97206066D01*
X45393695Y-96905872D01*
X45452841Y-96595820D01*
X45472660Y-96280800D01*
X45452841Y-95965780D01*
X45393695Y-95655728D01*
X45296156Y-95355534D01*
X45294467Y-95351944D01*
X45163450Y-95073517D01*
X45163446Y-95073510D01*
X45161762Y-95069931D01*
X44992632Y-94803425D01*
X44791433Y-94560218D01*
X44561340Y-94344146D01*
X44305979Y-94158616D01*
X44087418Y-94038460D01*
X44032848Y-94008460D01*
X44032847Y-94008459D01*
X44029379Y-94006553D01*
X44025710Y-94005100D01*
X44025705Y-94005098D01*
X43739572Y-93891810D01*
X43739571Y-93891810D01*
X43735902Y-93890357D01*
X43430175Y-93811860D01*
X43117021Y-93772300D01*
X42801379Y-93772300D01*
X42488225Y-93811860D01*
X42182498Y-93890357D01*
X42178829Y-93891810D01*
X42178828Y-93891810D01*
X41892695Y-94005098D01*
X41892690Y-94005100D01*
X41889021Y-94006553D01*
X41885553Y-94008459D01*
X41885552Y-94008460D01*
X41830983Y-94038460D01*
X41612421Y-94158616D01*
X41357060Y-94344146D01*
X41126967Y-94560218D01*
X40925768Y-94803425D01*
X40756638Y-95069931D01*
X40754954Y-95073510D01*
X40754950Y-95073517D01*
X40623933Y-95351944D01*
X40622244Y-95355534D01*
X40524705Y-95655728D01*
X40465559Y-95965780D01*
X40445740Y-96280800D01*
X25628500Y-96280800D01*
X25628500Y-81907462D01*
X55876626Y-81907462D01*
X55877206Y-81913593D01*
X55880941Y-81953109D01*
X55881500Y-81964967D01*
X55881500Y-114107157D01*
X55880763Y-114120764D01*
X55878387Y-114142639D01*
X55876676Y-114158388D01*
X55877213Y-114164523D01*
X55881050Y-114208388D01*
X55881379Y-114213214D01*
X55881500Y-114215686D01*
X55881500Y-114218769D01*
X55881801Y-114221837D01*
X55885690Y-114261506D01*
X55885812Y-114262819D01*
X55887460Y-114281650D01*
X55893913Y-114355413D01*
X55895400Y-114360532D01*
X55895920Y-114365833D01*
X55922791Y-114454834D01*
X55923126Y-114455967D01*
X55939567Y-114512554D01*
X55949091Y-114545336D01*
X55951544Y-114550068D01*
X55953084Y-114555169D01*
X55955978Y-114560612D01*
X55996731Y-114637260D01*
X55997343Y-114638426D01*
X56033589Y-114708350D01*
X56040108Y-114720926D01*
X56043431Y-114725089D01*
X56045934Y-114729796D01*
X56104755Y-114801918D01*
X56105446Y-114802774D01*
X56136738Y-114841973D01*
X56139242Y-114844477D01*
X56139884Y-114845195D01*
X56143585Y-114849528D01*
X56170935Y-114883062D01*
X56175682Y-114886989D01*
X56175684Y-114886991D01*
X56206262Y-114912287D01*
X56215042Y-114920277D01*
X58393745Y-117098979D01*
X58402847Y-117109122D01*
X58426568Y-117138625D01*
X58431296Y-117142592D01*
X58465021Y-117170891D01*
X58468669Y-117174072D01*
X58470481Y-117175715D01*
X58472675Y-117177909D01*
X58505949Y-117205242D01*
X58506747Y-117205904D01*
X58578074Y-117265754D01*
X58582744Y-117268322D01*
X58586861Y-117271703D01*
X58606679Y-117282329D01*
X58668686Y-117315577D01*
X58669845Y-117316206D01*
X58745981Y-117358062D01*
X58745989Y-117358065D01*
X58751387Y-117361033D01*
X58756469Y-117362645D01*
X58761163Y-117365162D01*
X58850131Y-117392362D01*
X58851159Y-117392682D01*
X58939906Y-117420835D01*
X58945202Y-117421429D01*
X58950298Y-117422987D01*
X59042857Y-117432390D01*
X59043993Y-117432511D01*
X59077608Y-117436281D01*
X59090330Y-117437708D01*
X59090334Y-117437708D01*
X59093827Y-117438100D01*
X59097354Y-117438100D01*
X59098339Y-117438155D01*
X59104019Y-117438602D01*
X59133425Y-117441589D01*
X59140937Y-117442352D01*
X59140939Y-117442352D01*
X59147062Y-117442974D01*
X59192708Y-117438659D01*
X59204567Y-117438100D01*
X85199957Y-117438100D01*
X85213564Y-117438837D01*
X85245062Y-117442259D01*
X85245067Y-117442259D01*
X85251188Y-117442924D01*
X85277438Y-117440627D01*
X85301188Y-117438550D01*
X85306014Y-117438221D01*
X85308486Y-117438100D01*
X85311569Y-117438100D01*
X85323538Y-117436926D01*
X85354306Y-117433910D01*
X85355619Y-117433788D01*
X85399884Y-117429915D01*
X85448213Y-117425687D01*
X85453332Y-117424200D01*
X85458633Y-117423680D01*
X85547634Y-117396809D01*
X85548767Y-117396474D01*
X85632214Y-117372230D01*
X85632218Y-117372228D01*
X85638136Y-117370509D01*
X85642868Y-117368056D01*
X85647969Y-117366516D01*
X85654973Y-117362792D01*
X85730060Y-117322869D01*
X85731226Y-117322257D01*
X85808253Y-117282329D01*
X85813726Y-117279492D01*
X85817889Y-117276169D01*
X85822596Y-117273666D01*
X85894718Y-117214845D01*
X85895574Y-117214154D01*
X85934773Y-117182862D01*
X85937277Y-117180358D01*
X85937995Y-117179716D01*
X85942328Y-117176015D01*
X85975862Y-117148665D01*
X86005088Y-117113337D01*
X86013077Y-117104558D01*
X88358779Y-114758855D01*
X88368922Y-114749753D01*
X88393618Y-114729897D01*
X88398425Y-114726032D01*
X88430692Y-114687578D01*
X88433872Y-114683931D01*
X88435515Y-114682119D01*
X88437709Y-114679925D01*
X88465042Y-114646651D01*
X88465748Y-114645800D01*
X88472437Y-114637829D01*
X88525554Y-114574526D01*
X88528122Y-114569856D01*
X88531503Y-114565739D01*
X88575377Y-114483914D01*
X88576006Y-114482755D01*
X88617862Y-114406619D01*
X88617865Y-114406611D01*
X88620833Y-114401213D01*
X88622445Y-114396131D01*
X88624962Y-114391437D01*
X88652147Y-114302523D01*
X88652539Y-114301265D01*
X88678772Y-114218567D01*
X88680635Y-114212694D01*
X88681229Y-114207403D01*
X88682788Y-114202302D01*
X88692190Y-114109737D01*
X88692325Y-114108470D01*
X88692384Y-114107951D01*
X88696217Y-114073780D01*
X88697508Y-114062270D01*
X88697508Y-114062265D01*
X88697900Y-114058773D01*
X88697900Y-114055248D01*
X88697955Y-114054263D01*
X88698404Y-114048559D01*
X88702152Y-114011666D01*
X88702152Y-114011661D01*
X88702774Y-114005538D01*
X88698459Y-113959891D01*
X88697900Y-113948033D01*
X88697900Y-111172979D01*
X88717902Y-111104858D01*
X88744602Y-111075062D01*
X88778120Y-111047920D01*
X88861480Y-110944979D01*
X88919894Y-110904627D01*
X88990851Y-110902261D01*
X89051823Y-110938634D01*
X89057320Y-110944979D01*
X89140680Y-111047920D01*
X89293179Y-111171411D01*
X89468021Y-111260498D01*
X89474394Y-111262206D01*
X89474395Y-111262206D01*
X89651987Y-111309792D01*
X89651991Y-111309793D01*
X89657564Y-111311286D01*
X89663320Y-111311739D01*
X89736606Y-111317507D01*
X89736615Y-111317507D01*
X89739063Y-111317700D01*
X90229201Y-111317700D01*
X90719736Y-111317699D01*
X90769620Y-111313774D01*
X90795482Y-111311739D01*
X90795485Y-111311739D01*
X90801236Y-111311286D01*
X90990779Y-111260498D01*
X91165621Y-111171411D01*
X91318120Y-111047920D01*
X91401480Y-110944979D01*
X91459894Y-110904627D01*
X91530851Y-110902261D01*
X91591823Y-110938634D01*
X91597320Y-110944979D01*
X91680680Y-111047920D01*
X91833179Y-111171411D01*
X92008021Y-111260498D01*
X92014394Y-111262206D01*
X92014395Y-111262206D01*
X92191987Y-111309792D01*
X92191991Y-111309793D01*
X92197564Y-111311286D01*
X92203320Y-111311739D01*
X92276606Y-111317507D01*
X92276615Y-111317507D01*
X92279063Y-111317700D01*
X92769201Y-111317700D01*
X93259736Y-111317699D01*
X93309620Y-111313774D01*
X93335482Y-111311739D01*
X93335485Y-111311739D01*
X93341236Y-111311286D01*
X93530779Y-111260498D01*
X93705621Y-111171411D01*
X93858120Y-111047920D01*
X93981611Y-110895421D01*
X94070698Y-110720579D01*
X94077604Y-110694806D01*
X94119992Y-110536613D01*
X94119993Y-110536609D01*
X94121486Y-110531036D01*
X94126441Y-110468081D01*
X94127707Y-110451994D01*
X94127707Y-110451985D01*
X94127900Y-110449537D01*
X94127899Y-108168864D01*
X94121486Y-108087364D01*
X94085972Y-107954826D01*
X94072406Y-107904195D01*
X94072406Y-107904194D01*
X94070698Y-107897821D01*
X93981611Y-107722979D01*
X93858120Y-107570480D01*
X93705621Y-107446989D01*
X93530779Y-107357902D01*
X93524405Y-107356194D01*
X93346813Y-107308608D01*
X93346809Y-107308607D01*
X93341236Y-107307114D01*
X93335480Y-107306661D01*
X93262194Y-107300893D01*
X93262185Y-107300893D01*
X93259737Y-107300700D01*
X92769599Y-107300700D01*
X92279064Y-107300701D01*
X92229180Y-107304626D01*
X92203318Y-107306661D01*
X92203315Y-107306661D01*
X92197564Y-107307114D01*
X92008021Y-107357902D01*
X91833179Y-107446989D01*
X91680680Y-107570480D01*
X91676525Y-107575611D01*
X91597320Y-107673421D01*
X91538906Y-107713773D01*
X91467949Y-107716139D01*
X91406977Y-107679766D01*
X91401480Y-107673421D01*
X91327580Y-107582162D01*
X91300254Y-107516635D01*
X91299500Y-107502868D01*
X91299500Y-105467842D01*
X91300237Y-105454235D01*
X91303659Y-105422737D01*
X91303659Y-105422732D01*
X91304324Y-105416611D01*
X91300766Y-105375943D01*
X91299950Y-105366609D01*
X91299621Y-105361784D01*
X91299500Y-105359313D01*
X91299500Y-105356231D01*
X91296373Y-105324343D01*
X91295309Y-105313489D01*
X91295187Y-105312174D01*
X91287623Y-105225719D01*
X91287087Y-105219587D01*
X91285600Y-105214468D01*
X91285080Y-105209167D01*
X91258209Y-105120166D01*
X91257874Y-105119033D01*
X91233630Y-105035586D01*
X91233628Y-105035582D01*
X91231909Y-105029664D01*
X91229456Y-105024932D01*
X91227916Y-105019831D01*
X91184269Y-104937740D01*
X91183657Y-104936574D01*
X91143729Y-104859547D01*
X91140892Y-104854074D01*
X91137569Y-104849911D01*
X91135066Y-104845204D01*
X91076245Y-104773082D01*
X91075554Y-104772226D01*
X91044262Y-104733027D01*
X91041758Y-104730523D01*
X91041116Y-104729805D01*
X91037415Y-104725472D01*
X91010065Y-104691938D01*
X90974737Y-104662712D01*
X90965958Y-104654723D01*
X89930255Y-103619021D01*
X89921153Y-103608878D01*
X89901297Y-103584182D01*
X89897432Y-103579375D01*
X89858978Y-103547108D01*
X89855331Y-103543928D01*
X89853519Y-103542285D01*
X89851325Y-103540091D01*
X89818051Y-103512758D01*
X89817253Y-103512096D01*
X89745926Y-103452246D01*
X89741256Y-103449678D01*
X89737139Y-103446297D01*
X89655314Y-103402423D01*
X89654155Y-103401794D01*
X89578019Y-103359938D01*
X89578011Y-103359935D01*
X89572613Y-103356967D01*
X89567531Y-103355355D01*
X89562837Y-103352838D01*
X89473869Y-103325638D01*
X89472841Y-103325318D01*
X89384094Y-103297165D01*
X89378798Y-103296571D01*
X89373702Y-103295013D01*
X89281143Y-103285610D01*
X89280007Y-103285489D01*
X89246392Y-103281719D01*
X89233670Y-103280292D01*
X89233666Y-103280292D01*
X89230173Y-103279900D01*
X89226646Y-103279900D01*
X89225661Y-103279845D01*
X89219981Y-103279398D01*
X89190575Y-103276411D01*
X89183063Y-103275648D01*
X89183061Y-103275648D01*
X89176938Y-103275026D01*
X89134659Y-103279023D01*
X89131291Y-103279341D01*
X89119433Y-103279900D01*
X77703643Y-103279900D01*
X77690036Y-103279163D01*
X77658538Y-103275741D01*
X77658533Y-103275741D01*
X77652412Y-103275076D01*
X77626162Y-103277373D01*
X77602412Y-103279450D01*
X77597586Y-103279779D01*
X77595114Y-103279900D01*
X77592031Y-103279900D01*
X77580062Y-103281074D01*
X77549294Y-103284090D01*
X77547981Y-103284212D01*
X77503716Y-103288085D01*
X77455387Y-103292313D01*
X77450268Y-103293800D01*
X77444967Y-103294320D01*
X77355966Y-103321191D01*
X77354833Y-103321526D01*
X77271386Y-103345770D01*
X77271382Y-103345772D01*
X77265464Y-103347491D01*
X77260732Y-103349944D01*
X77255631Y-103351484D01*
X77250188Y-103354378D01*
X77173540Y-103395131D01*
X77172374Y-103395743D01*
X77095347Y-103435671D01*
X77089874Y-103438508D01*
X77085711Y-103441831D01*
X77081004Y-103444334D01*
X77076229Y-103448228D01*
X77076228Y-103448229D01*
X77008902Y-103503139D01*
X77007875Y-103503967D01*
X76971592Y-103532931D01*
X76971587Y-103532936D01*
X76968828Y-103535138D01*
X76966327Y-103537639D01*
X76965609Y-103538281D01*
X76961261Y-103541994D01*
X76927738Y-103569335D01*
X76923815Y-103574077D01*
X76923813Y-103574079D01*
X76898503Y-103604673D01*
X76890513Y-103613453D01*
X75590021Y-104913945D01*
X75579878Y-104923047D01*
X75550375Y-104946768D01*
X75546408Y-104951496D01*
X75518109Y-104985221D01*
X75514928Y-104988869D01*
X75513285Y-104990681D01*
X75511091Y-104992875D01*
X75483758Y-105026149D01*
X75483096Y-105026947D01*
X75423246Y-105098274D01*
X75420678Y-105102944D01*
X75417297Y-105107061D01*
X75410201Y-105120296D01*
X75373423Y-105188886D01*
X75372794Y-105190045D01*
X75330938Y-105266181D01*
X75330935Y-105266189D01*
X75327967Y-105271587D01*
X75326355Y-105276669D01*
X75323838Y-105281363D01*
X75296638Y-105370331D01*
X75296318Y-105371359D01*
X75268165Y-105460106D01*
X75267571Y-105465402D01*
X75266013Y-105470498D01*
X75256658Y-105562597D01*
X75256618Y-105562987D01*
X75256493Y-105564156D01*
X75250900Y-105614027D01*
X75250900Y-105617554D01*
X75250845Y-105618539D01*
X75250398Y-105624219D01*
X75246026Y-105667262D01*
X75246606Y-105673393D01*
X75250341Y-105712909D01*
X75250900Y-105724767D01*
X75250900Y-107862748D01*
X75230898Y-107930869D01*
X75208802Y-107956750D01*
X75149089Y-108010046D01*
X75063789Y-108086179D01*
X75026962Y-108119048D01*
X74864583Y-108314287D01*
X74732847Y-108531382D01*
X74731038Y-108535696D01*
X74731037Y-108535698D01*
X74637897Y-108757813D01*
X74634646Y-108765565D01*
X74633495Y-108770097D01*
X74633494Y-108770100D01*
X74609064Y-108866295D01*
X74572138Y-109011690D01*
X74546696Y-109264351D01*
X74546920Y-109269017D01*
X74546920Y-109269022D01*
X74549840Y-109329810D01*
X74558880Y-109517998D01*
X74579978Y-109624066D01*
X74601454Y-109732030D01*
X74608421Y-109767057D01*
X74610000Y-109771455D01*
X74610002Y-109771462D01*
X74661152Y-109913926D01*
X74694231Y-110006058D01*
X74696448Y-110010184D01*
X74801785Y-110206226D01*
X74814425Y-110229751D01*
X74817220Y-110233494D01*
X74817222Y-110233497D01*
X74963571Y-110429482D01*
X74963576Y-110429488D01*
X74966363Y-110433220D01*
X74969672Y-110436500D01*
X74969677Y-110436506D01*
X75068259Y-110534231D01*
X75146707Y-110611997D01*
X75150469Y-110614755D01*
X75150472Y-110614758D01*
X75192163Y-110645327D01*
X75351494Y-110762153D01*
X75355629Y-110764329D01*
X75355633Y-110764331D01*
X75473689Y-110826443D01*
X75576227Y-110880391D01*
X75815968Y-110964112D01*
X76065450Y-111011478D01*
X76185932Y-111016211D01*
X76314525Y-111021264D01*
X76314530Y-111021264D01*
X76319193Y-111021447D01*
X76418174Y-111010607D01*
X76566969Y-110994312D01*
X76566975Y-110994311D01*
X76571622Y-110993802D01*
X76606931Y-110984506D01*
X76812673Y-110930338D01*
X76817193Y-110929148D01*
X77007385Y-110847436D01*
X77046207Y-110830757D01*
X77046210Y-110830755D01*
X77050510Y-110828908D01*
X77054490Y-110826445D01*
X77054494Y-110826443D01*
X77262464Y-110697747D01*
X77262466Y-110697745D01*
X77266447Y-110695282D01*
X77317487Y-110652074D01*
X77456689Y-110534231D01*
X77456691Y-110534229D01*
X77460262Y-110531206D01*
X77627695Y-110340284D01*
X77635895Y-110327537D01*
X77762541Y-110130642D01*
X77765069Y-110126712D01*
X77869367Y-109895180D01*
X77938296Y-109650775D01*
X77961068Y-109471774D01*
X77969945Y-109401998D01*
X77969945Y-109401992D01*
X77970343Y-109398867D01*
X77970433Y-109395459D01*
X77972608Y-109312360D01*
X77972691Y-109309200D01*
X77967239Y-109235836D01*
X77954218Y-109060611D01*
X77954217Y-109060607D01*
X77953872Y-109055959D01*
X77951225Y-109044258D01*
X77898859Y-108812839D01*
X77897828Y-108808282D01*
X77894717Y-108800282D01*
X77807484Y-108575962D01*
X77807483Y-108575960D01*
X77805791Y-108571609D01*
X77801441Y-108563998D01*
X77682102Y-108355197D01*
X77682100Y-108355195D01*
X77679783Y-108351140D01*
X77522571Y-108151717D01*
X77337609Y-107977723D01*
X77322080Y-107966950D01*
X77277510Y-107911687D01*
X77267900Y-107863423D01*
X77267900Y-106140726D01*
X77287902Y-106072605D01*
X77304804Y-106051631D01*
X78022629Y-105333805D01*
X78084942Y-105299780D01*
X78111725Y-105296900D01*
X88703474Y-105296900D01*
X88771595Y-105316902D01*
X88792569Y-105333804D01*
X89245595Y-105786829D01*
X89279620Y-105849142D01*
X89282500Y-105875925D01*
X89282500Y-107395538D01*
X89262498Y-107463659D01*
X89235795Y-107493457D01*
X89140680Y-107570480D01*
X89131220Y-107582162D01*
X89057320Y-107673421D01*
X88998906Y-107713773D01*
X88927949Y-107716139D01*
X88866977Y-107679766D01*
X88861480Y-107673421D01*
X88782275Y-107575611D01*
X88778120Y-107570480D01*
X88625621Y-107446989D01*
X88450779Y-107357902D01*
X88444405Y-107356194D01*
X88266813Y-107308608D01*
X88266809Y-107308607D01*
X88261236Y-107307114D01*
X88255480Y-107306661D01*
X88182194Y-107300893D01*
X88182185Y-107300893D01*
X88179737Y-107300700D01*
X87689599Y-107300700D01*
X87199064Y-107300701D01*
X87149180Y-107304626D01*
X87123318Y-107306661D01*
X87123315Y-107306661D01*
X87117564Y-107307114D01*
X86928021Y-107357902D01*
X86753179Y-107446989D01*
X86600680Y-107570480D01*
X86596525Y-107575611D01*
X86517320Y-107673421D01*
X86458906Y-107713773D01*
X86387949Y-107716139D01*
X86326977Y-107679766D01*
X86321480Y-107673421D01*
X86242275Y-107575611D01*
X86238120Y-107570480D01*
X86085621Y-107446989D01*
X85910779Y-107357902D01*
X85904405Y-107356194D01*
X85726813Y-107308608D01*
X85726809Y-107308607D01*
X85721236Y-107307114D01*
X85715480Y-107306661D01*
X85642194Y-107300893D01*
X85642185Y-107300893D01*
X85639737Y-107300700D01*
X85149599Y-107300700D01*
X84659064Y-107300701D01*
X84609180Y-107304626D01*
X84583318Y-107306661D01*
X84583315Y-107306661D01*
X84577564Y-107307114D01*
X84388021Y-107357902D01*
X84213179Y-107446989D01*
X84060680Y-107570480D01*
X83937189Y-107722979D01*
X83848102Y-107897821D01*
X83846394Y-107904194D01*
X83846394Y-107904195D01*
X83801379Y-108072195D01*
X83797314Y-108087364D01*
X83796861Y-108093118D01*
X83796861Y-108093120D01*
X83791094Y-108166404D01*
X83790900Y-108168863D01*
X83790901Y-110449536D01*
X83797314Y-110531036D01*
X83819747Y-110614758D01*
X83840542Y-110692363D01*
X83848102Y-110720579D01*
X83937189Y-110895421D01*
X84060680Y-111047920D01*
X84213179Y-111171411D01*
X84388021Y-111260498D01*
X84394394Y-111262206D01*
X84394395Y-111262206D01*
X84571987Y-111309792D01*
X84571991Y-111309793D01*
X84577564Y-111311286D01*
X84583320Y-111311739D01*
X84656606Y-111317507D01*
X84656615Y-111317507D01*
X84659063Y-111317700D01*
X85149201Y-111317700D01*
X85639736Y-111317699D01*
X85689620Y-111313774D01*
X85715482Y-111311739D01*
X85715485Y-111311739D01*
X85721236Y-111311286D01*
X85910779Y-111260498D01*
X86085621Y-111171411D01*
X86238120Y-111047920D01*
X86321480Y-110944979D01*
X86379894Y-110904627D01*
X86450851Y-110902261D01*
X86511823Y-110938634D01*
X86517320Y-110944979D01*
X86600680Y-111047920D01*
X86634196Y-111075061D01*
X86674546Y-111133473D01*
X86680900Y-111172979D01*
X86680900Y-113532075D01*
X86660898Y-113600196D01*
X86643995Y-113621170D01*
X84880971Y-115384195D01*
X84818659Y-115418220D01*
X84791876Y-115421100D01*
X59620525Y-115421100D01*
X59552404Y-115401098D01*
X59531430Y-115384195D01*
X57935405Y-113788171D01*
X57901380Y-113725859D01*
X57898500Y-113699076D01*
X57898500Y-82380925D01*
X57918502Y-82312804D01*
X57935405Y-82291830D01*
X63871029Y-76356205D01*
X63933341Y-76322179D01*
X63960124Y-76319300D01*
X98793790Y-76319300D01*
X98861911Y-76339302D01*
X98896048Y-76371685D01*
X98945590Y-76440504D01*
X98945602Y-76440518D01*
X98948333Y-76444312D01*
X98951596Y-76447661D01*
X98951599Y-76447665D01*
X98953329Y-76449440D01*
X98964042Y-76461984D01*
X98965521Y-76463965D01*
X98965527Y-76463972D01*
X98968322Y-76467715D01*
X98971640Y-76471004D01*
X98971646Y-76471011D01*
X99049468Y-76548156D01*
X99051017Y-76549719D01*
X99127447Y-76628178D01*
X99127452Y-76628182D01*
X99130715Y-76631532D01*
X99134438Y-76634363D01*
X99136419Y-76635869D01*
X99148860Y-76646684D01*
X99153943Y-76651723D01*
X99157713Y-76654487D01*
X99157715Y-76654489D01*
X99246078Y-76719280D01*
X99247838Y-76720595D01*
X99338767Y-76789738D01*
X99345054Y-76793187D01*
X99358946Y-76802038D01*
X99360948Y-76803506D01*
X99360954Y-76803510D01*
X99364724Y-76806274D01*
X99368861Y-76808450D01*
X99368868Y-76808455D01*
X99465790Y-76859448D01*
X99467703Y-76860475D01*
X99567917Y-76915454D01*
X99574439Y-76917860D01*
X99574642Y-76917935D01*
X99589698Y-76924639D01*
X99591883Y-76925789D01*
X99591893Y-76925794D01*
X99596034Y-76927972D01*
X99703910Y-76965645D01*
X99705918Y-76966366D01*
X99813132Y-77005919D01*
X99817708Y-77006871D01*
X99817716Y-77006873D01*
X99820146Y-77007378D01*
X99836025Y-77011782D01*
X99838363Y-77012599D01*
X99838377Y-77012603D01*
X99842790Y-77014144D01*
X99955026Y-77035452D01*
X99957120Y-77035869D01*
X100069026Y-77059145D01*
X100073686Y-77059410D01*
X100073688Y-77059410D01*
X100076190Y-77059552D01*
X100092524Y-77061558D01*
X100094968Y-77062022D01*
X100094985Y-77062024D01*
X100099574Y-77062895D01*
X100104242Y-77063078D01*
X100104247Y-77063079D01*
X100213750Y-77067381D01*
X100215946Y-77067487D01*
X100325301Y-77073697D01*
X100325307Y-77073697D01*
X100329976Y-77073962D01*
X100337107Y-77073307D01*
X100353587Y-77072876D01*
X100356069Y-77072974D01*
X100356079Y-77072974D01*
X100360743Y-77073157D01*
X100407957Y-77067986D01*
X100474323Y-77060718D01*
X100476511Y-77060498D01*
X100585586Y-77050476D01*
X100585592Y-77050475D01*
X100590250Y-77050047D01*
X100594802Y-77048933D01*
X100594804Y-77048933D01*
X100597217Y-77048343D01*
X100613429Y-77045484D01*
X100615917Y-77045211D01*
X100615922Y-77045210D01*
X100620560Y-77044702D01*
X100625068Y-77043515D01*
X100625074Y-77043514D01*
X100731039Y-77015616D01*
X100733169Y-77015075D01*
X100839586Y-76989035D01*
X100839587Y-76989035D01*
X100844130Y-76987923D01*
X100848459Y-76986152D01*
X100848462Y-76986151D01*
X100850759Y-76985211D01*
X100866383Y-76979983D01*
X100868789Y-76979349D01*
X100873317Y-76978157D01*
X100941806Y-76948732D01*
X100991543Y-76938500D01*
X105639415Y-76938500D01*
X105707536Y-76958502D01*
X105728510Y-76975405D01*
X106449692Y-77696586D01*
X107145253Y-78392147D01*
X107179278Y-78454459D01*
X107174214Y-78525274D01*
X107131667Y-78582110D01*
X107065147Y-78606921D01*
X107014096Y-78600014D01*
X107012925Y-78599599D01*
X107008645Y-78597716D01*
X107004138Y-78596487D01*
X107004129Y-78596484D01*
X107001729Y-78595830D01*
X106986152Y-78590467D01*
X106979545Y-78587697D01*
X106975017Y-78586547D01*
X106975014Y-78586546D01*
X106868827Y-78559578D01*
X106866701Y-78559018D01*
X106826944Y-78548179D01*
X106756479Y-78528968D01*
X106751839Y-78528419D01*
X106751834Y-78528418D01*
X106749373Y-78528127D01*
X106733157Y-78525122D01*
X106726217Y-78523359D01*
X106676656Y-78518368D01*
X106612572Y-78511915D01*
X106610387Y-78511676D01*
X106511680Y-78499994D01*
X106496920Y-78498247D01*
X106392394Y-78501441D01*
X106388546Y-78501500D01*
X100484897Y-78501500D01*
X100477754Y-78501297D01*
X100403900Y-78497103D01*
X100403893Y-78497103D01*
X100399224Y-78496838D01*
X100285497Y-78507288D01*
X100283332Y-78507469D01*
X100169348Y-78515939D01*
X100162376Y-78517517D01*
X100146089Y-78520097D01*
X100138950Y-78520753D01*
X100134416Y-78521863D01*
X100134407Y-78521864D01*
X100027930Y-78547919D01*
X100025790Y-78548423D01*
X99978968Y-78559018D01*
X99914423Y-78573623D01*
X99907750Y-78576218D01*
X99892045Y-78581169D01*
X99889614Y-78581764D01*
X99889604Y-78581767D01*
X99885069Y-78582877D01*
X99779243Y-78626172D01*
X99777252Y-78626966D01*
X99670823Y-78668353D01*
X99664774Y-78671810D01*
X99664599Y-78671910D01*
X99649794Y-78679131D01*
X99643161Y-78681845D01*
X99544925Y-78740288D01*
X99543101Y-78741352D01*
X99447964Y-78795727D01*
X99447960Y-78795729D01*
X99443902Y-78798049D01*
X99438280Y-78802481D01*
X99424709Y-78811809D01*
X99418537Y-78815481D01*
X99414929Y-78818428D01*
X99414923Y-78818433D01*
X99330035Y-78887790D01*
X99328320Y-78889166D01*
X99252102Y-78949252D01*
X99238643Y-78959862D01*
X99193844Y-79007485D01*
X99166971Y-79036052D01*
X99164291Y-79038814D01*
X99094578Y-79108527D01*
X99089384Y-79113435D01*
X99056122Y-79143123D01*
X99030694Y-79165818D01*
X98978012Y-79229162D01*
X98957655Y-79253638D01*
X98956234Y-79255317D01*
X98884517Y-79338548D01*
X98824897Y-79377097D01*
X98789064Y-79382300D01*
X65457042Y-79382300D01*
X65443435Y-79381563D01*
X65411937Y-79378141D01*
X65411932Y-79378141D01*
X65405811Y-79377476D01*
X65387811Y-79379051D01*
X65355809Y-79381850D01*
X65350984Y-79382179D01*
X65348513Y-79382300D01*
X65345431Y-79382300D01*
X65322963Y-79384503D01*
X65302689Y-79386491D01*
X65301374Y-79386613D01*
X65269113Y-79389436D01*
X65208787Y-79394713D01*
X65203668Y-79396200D01*
X65198367Y-79396720D01*
X65109394Y-79423582D01*
X65108254Y-79423920D01*
X65018863Y-79449891D01*
X65014129Y-79452345D01*
X65009031Y-79453884D01*
X65003587Y-79456778D01*
X65003586Y-79456779D01*
X64927031Y-79497484D01*
X64925863Y-79498098D01*
X64888547Y-79517441D01*
X64843274Y-79540908D01*
X64839111Y-79544231D01*
X64834404Y-79546734D01*
X64762282Y-79605555D01*
X64761426Y-79606246D01*
X64722227Y-79637538D01*
X64719723Y-79640042D01*
X64719005Y-79640684D01*
X64714672Y-79644385D01*
X64681138Y-79671735D01*
X64677211Y-79676482D01*
X64677209Y-79676484D01*
X64651913Y-79707062D01*
X64643923Y-79715842D01*
X61300621Y-83059145D01*
X61290478Y-83068247D01*
X61260975Y-83091968D01*
X61242493Y-83113994D01*
X61228709Y-83130421D01*
X61225528Y-83134069D01*
X61223885Y-83135881D01*
X61221691Y-83138075D01*
X61194358Y-83171349D01*
X61193696Y-83172147D01*
X61133846Y-83243474D01*
X61131278Y-83248144D01*
X61127897Y-83252261D01*
X61105966Y-83293162D01*
X61084023Y-83334086D01*
X61083394Y-83335245D01*
X61041538Y-83411381D01*
X61041535Y-83411389D01*
X61038567Y-83416787D01*
X61036955Y-83421869D01*
X61034438Y-83426563D01*
X61007238Y-83515531D01*
X61006918Y-83516559D01*
X60978765Y-83605306D01*
X60978171Y-83610602D01*
X60976613Y-83615698D01*
X60969689Y-83683865D01*
X60967218Y-83708187D01*
X60967089Y-83709393D01*
X60961500Y-83759227D01*
X60961500Y-83762754D01*
X60961445Y-83763739D01*
X60960998Y-83769419D01*
X60956626Y-83812462D01*
X60958739Y-83834817D01*
X60960941Y-83858109D01*
X60961500Y-83869967D01*
X60961500Y-107482737D01*
X60941498Y-107550858D01*
X60887842Y-107597351D01*
X60852493Y-107607586D01*
X60663187Y-107633349D01*
X60419393Y-107704408D01*
X60188780Y-107810722D01*
X60184871Y-107813285D01*
X59980328Y-107947389D01*
X59980323Y-107947393D01*
X59976415Y-107949955D01*
X59909089Y-108010046D01*
X59823789Y-108086179D01*
X59786962Y-108119048D01*
X59624583Y-108314287D01*
X59492847Y-108531382D01*
X59491038Y-108535696D01*
X59491037Y-108535698D01*
X59397897Y-108757813D01*
X59394646Y-108765565D01*
X59393495Y-108770097D01*
X59393494Y-108770100D01*
X59369064Y-108866295D01*
X59332138Y-109011690D01*
X59306696Y-109264351D01*
X59306920Y-109269017D01*
X59306920Y-109269022D01*
X59309840Y-109329810D01*
X59318880Y-109517998D01*
X59339978Y-109624066D01*
X59361454Y-109732030D01*
X59368421Y-109767057D01*
X59370000Y-109771455D01*
X59370002Y-109771462D01*
X59421152Y-109913926D01*
X59454231Y-110006058D01*
X59456448Y-110010184D01*
X59561785Y-110206226D01*
X59574425Y-110229751D01*
X59577220Y-110233494D01*
X59577222Y-110233497D01*
X59723571Y-110429482D01*
X59723576Y-110429488D01*
X59726363Y-110433220D01*
X59729672Y-110436500D01*
X59729677Y-110436506D01*
X59828259Y-110534231D01*
X59906707Y-110611997D01*
X59910469Y-110614755D01*
X59910472Y-110614758D01*
X59952163Y-110645327D01*
X60111494Y-110762153D01*
X60115629Y-110764329D01*
X60115633Y-110764331D01*
X60233689Y-110826443D01*
X60336227Y-110880391D01*
X60575968Y-110964112D01*
X60825450Y-111011478D01*
X60945932Y-111016211D01*
X61074525Y-111021264D01*
X61074530Y-111021264D01*
X61079193Y-111021447D01*
X61178174Y-111010607D01*
X61326969Y-110994312D01*
X61326975Y-110994311D01*
X61331622Y-110993802D01*
X61366931Y-110984506D01*
X61572673Y-110930338D01*
X61577193Y-110929148D01*
X61767385Y-110847436D01*
X61806207Y-110830757D01*
X61806210Y-110830755D01*
X61810510Y-110828908D01*
X61814490Y-110826445D01*
X61814494Y-110826443D01*
X62022464Y-110697747D01*
X62022466Y-110697745D01*
X62026447Y-110695282D01*
X62077487Y-110652074D01*
X62216689Y-110534231D01*
X62216691Y-110534229D01*
X62220262Y-110531206D01*
X62387695Y-110340284D01*
X62395895Y-110327537D01*
X62522541Y-110130642D01*
X62525069Y-110126712D01*
X62629367Y-109895180D01*
X62698296Y-109650775D01*
X62721068Y-109471774D01*
X62729945Y-109401998D01*
X62729945Y-109401992D01*
X62730343Y-109398867D01*
X62730433Y-109395459D01*
X62732608Y-109312360D01*
X62732691Y-109309200D01*
X62716655Y-109093412D01*
X62731554Y-109023997D01*
X62744962Y-109004078D01*
X62745566Y-109003343D01*
X62746391Y-109002349D01*
X62797473Y-108941471D01*
X62806154Y-108931126D01*
X62808723Y-108926452D01*
X62812102Y-108922339D01*
X62823886Y-108900363D01*
X62833275Y-108882852D01*
X62855975Y-108840515D01*
X62856584Y-108839393D01*
X62870931Y-108813297D01*
X62894678Y-108770100D01*
X62898464Y-108763214D01*
X62898465Y-108763212D01*
X62901433Y-108757813D01*
X62903045Y-108752731D01*
X62905562Y-108748037D01*
X62932762Y-108659069D01*
X62933108Y-108657958D01*
X62954335Y-108591046D01*
X62961235Y-108569294D01*
X62961829Y-108563998D01*
X62963387Y-108558902D01*
X62972790Y-108466343D01*
X62972911Y-108465207D01*
X62978500Y-108415373D01*
X62978500Y-108411846D01*
X62978555Y-108410861D01*
X62979002Y-108405181D01*
X62983374Y-108362138D01*
X62979059Y-108316491D01*
X62978500Y-108304633D01*
X62978500Y-96310800D01*
X98795740Y-96310800D01*
X98815559Y-96625820D01*
X98874705Y-96935872D01*
X98889368Y-96981000D01*
X98965170Y-97214293D01*
X98972244Y-97236066D01*
X98973931Y-97239652D01*
X98973933Y-97239656D01*
X99104950Y-97518083D01*
X99104954Y-97518090D01*
X99106638Y-97521669D01*
X99275768Y-97788175D01*
X99476967Y-98031382D01*
X99707060Y-98247454D01*
X99962421Y-98432984D01*
X99965890Y-98434891D01*
X99965893Y-98434893D01*
X100187098Y-98556502D01*
X100239021Y-98585047D01*
X100242690Y-98586500D01*
X100242695Y-98586502D01*
X100528828Y-98699790D01*
X100532498Y-98701243D01*
X100838225Y-98779740D01*
X101151379Y-98819300D01*
X101467021Y-98819300D01*
X101780175Y-98779740D01*
X102085902Y-98701243D01*
X102089572Y-98699790D01*
X102375705Y-98586502D01*
X102375710Y-98586500D01*
X102379379Y-98585047D01*
X102431302Y-98556502D01*
X102652507Y-98434893D01*
X102652510Y-98434891D01*
X102655979Y-98432984D01*
X102911340Y-98247454D01*
X103141433Y-98031382D01*
X103342632Y-97788175D01*
X103511762Y-97521669D01*
X103513446Y-97518090D01*
X103513450Y-97518083D01*
X103644467Y-97239656D01*
X103644469Y-97239652D01*
X103646156Y-97236066D01*
X103653231Y-97214293D01*
X103729032Y-96981000D01*
X103743695Y-96935872D01*
X103802841Y-96625820D01*
X103822660Y-96310800D01*
X103802841Y-95995780D01*
X103743695Y-95685728D01*
X103646156Y-95385534D01*
X103630350Y-95351944D01*
X103513450Y-95103517D01*
X103513446Y-95103510D01*
X103511762Y-95099931D01*
X103342632Y-94833425D01*
X103141433Y-94590218D01*
X102911340Y-94374146D01*
X102655979Y-94188616D01*
X102605643Y-94160943D01*
X102382848Y-94038460D01*
X102382847Y-94038459D01*
X102379379Y-94036553D01*
X102375710Y-94035100D01*
X102375705Y-94035098D01*
X102089572Y-93921810D01*
X102089571Y-93921810D01*
X102085902Y-93920357D01*
X101780175Y-93841860D01*
X101467021Y-93802300D01*
X101151379Y-93802300D01*
X100838225Y-93841860D01*
X100532498Y-93920357D01*
X100528829Y-93921810D01*
X100528828Y-93921810D01*
X100242695Y-94035098D01*
X100242690Y-94035100D01*
X100239021Y-94036553D01*
X100235553Y-94038459D01*
X100235552Y-94038460D01*
X100012758Y-94160943D01*
X99962421Y-94188616D01*
X99707060Y-94374146D01*
X99476967Y-94590218D01*
X99275768Y-94833425D01*
X99106638Y-95099931D01*
X99104954Y-95103510D01*
X99104950Y-95103517D01*
X98988050Y-95351944D01*
X98972244Y-95385534D01*
X98874705Y-95685728D01*
X98815559Y-95995780D01*
X98795740Y-96310800D01*
X62978500Y-96310800D01*
X62978500Y-90504639D01*
X98536373Y-90504639D01*
X98536597Y-90509305D01*
X98536597Y-90509310D01*
X98539881Y-90577666D01*
X98540015Y-90585347D01*
X98539058Y-90658455D01*
X98539689Y-90663088D01*
X98545585Y-90706412D01*
X98546591Y-90717358D01*
X98548913Y-90765708D01*
X98549825Y-90770292D01*
X98549825Y-90770293D01*
X98563177Y-90837415D01*
X98564447Y-90845007D01*
X98574304Y-90917438D01*
X98575612Y-90921924D01*
X98575612Y-90921926D01*
X98587847Y-90963902D01*
X98590460Y-90974579D01*
X98598991Y-91017469D01*
X98598993Y-91017476D01*
X98599904Y-91022056D01*
X98601483Y-91026455D01*
X98601484Y-91026457D01*
X98624608Y-91090862D01*
X98626986Y-91098182D01*
X98647443Y-91168367D01*
X98667714Y-91212338D01*
X98671868Y-91222493D01*
X98688226Y-91268052D01*
X98690443Y-91272178D01*
X98722823Y-91332440D01*
X98726255Y-91339322D01*
X98756868Y-91405728D01*
X98759433Y-91409640D01*
X98783408Y-91446208D01*
X98789020Y-91455640D01*
X98811937Y-91498291D01*
X98814730Y-91502032D01*
X98814735Y-91502039D01*
X98855679Y-91556868D01*
X98860094Y-91563174D01*
X98897606Y-91620390D01*
X98897610Y-91620395D01*
X98900176Y-91624309D01*
X98903289Y-91627797D01*
X98903293Y-91627802D01*
X98919023Y-91645425D01*
X98932411Y-91660425D01*
X98939361Y-91668932D01*
X98965525Y-91703971D01*
X98965534Y-91703981D01*
X98968322Y-91707715D01*
X98971631Y-91710995D01*
X98971636Y-91711001D01*
X99020241Y-91759183D01*
X99025538Y-91764765D01*
X99074218Y-91819306D01*
X99111446Y-91850269D01*
X99119567Y-91857646D01*
X99153943Y-91891723D01*
X99189408Y-91917727D01*
X99212902Y-91934954D01*
X99218963Y-91939690D01*
X99275170Y-91986437D01*
X99279163Y-91988860D01*
X99316568Y-92011558D01*
X99325693Y-92017656D01*
X99364724Y-92046274D01*
X99368860Y-92048450D01*
X99368863Y-92048452D01*
X99429411Y-92080308D01*
X99436108Y-92084097D01*
X99498619Y-92122029D01*
X99543262Y-92140749D01*
X99553197Y-92145434D01*
X99596034Y-92167972D01*
X99649653Y-92186697D01*
X99665049Y-92192074D01*
X99672230Y-92194831D01*
X99735344Y-92221296D01*
X99735352Y-92221299D01*
X99739655Y-92223103D01*
X99760997Y-92228523D01*
X99786559Y-92235015D01*
X99797086Y-92238183D01*
X99838383Y-92252605D01*
X99842790Y-92254144D01*
X99914622Y-92267782D01*
X99922123Y-92269445D01*
X99992983Y-92287441D01*
X100041152Y-92292291D01*
X100052026Y-92293868D01*
X100094975Y-92302023D01*
X100094990Y-92302025D01*
X100099574Y-92302895D01*
X100167093Y-92305548D01*
X100172617Y-92305765D01*
X100180295Y-92306302D01*
X100210067Y-92309300D01*
X100260104Y-92309300D01*
X100265051Y-92309397D01*
X100356075Y-92312974D01*
X100356081Y-92312974D01*
X100360743Y-92313157D01*
X100389122Y-92310049D01*
X100402839Y-92309300D01*
X105770215Y-92309300D01*
X105838336Y-92329302D01*
X105859310Y-92346205D01*
X112070595Y-98557490D01*
X112104621Y-98619802D01*
X112107500Y-98646585D01*
X112107500Y-108689405D01*
X112107489Y-108691054D01*
X112105955Y-108808282D01*
X112105858Y-108815655D01*
X112115003Y-108882852D01*
X112115718Y-108888105D01*
X112116519Y-108895717D01*
X112121939Y-108968652D01*
X112132249Y-109014217D01*
X112132620Y-109015855D01*
X112134575Y-109026668D01*
X112141104Y-109074638D01*
X112142409Y-109079114D01*
X112142409Y-109079116D01*
X112161566Y-109144842D01*
X112163492Y-109152291D01*
X112179623Y-109223577D01*
X112197172Y-109268704D01*
X112200690Y-109279068D01*
X112214243Y-109325567D01*
X112244855Y-109391972D01*
X112247853Y-109399034D01*
X112274353Y-109467177D01*
X112276666Y-109471224D01*
X112276668Y-109471228D01*
X112298373Y-109509203D01*
X112303406Y-109518976D01*
X112323668Y-109562928D01*
X112363765Y-109624085D01*
X112367771Y-109630624D01*
X112404049Y-109694098D01*
X112406941Y-109697767D01*
X112406942Y-109697768D01*
X112434020Y-109732117D01*
X112440440Y-109741036D01*
X112460389Y-109771462D01*
X112466976Y-109781509D01*
X112470085Y-109784992D01*
X112470094Y-109785004D01*
X112515662Y-109836057D01*
X112520588Y-109841926D01*
X112565862Y-109899357D01*
X112569265Y-109902558D01*
X112569273Y-109902567D01*
X112601117Y-109932522D01*
X112608780Y-109940386D01*
X112641018Y-109976506D01*
X112644611Y-109979494D01*
X112644616Y-109979499D01*
X112697229Y-110023257D01*
X112702983Y-110028348D01*
X112756237Y-110078443D01*
X112760082Y-110081110D01*
X112760084Y-110081112D01*
X112795996Y-110106025D01*
X112804746Y-110112678D01*
X112841970Y-110143637D01*
X112856345Y-110152360D01*
X112904474Y-110181565D01*
X112910930Y-110185757D01*
X112970991Y-110227424D01*
X112975176Y-110229488D01*
X112975178Y-110229489D01*
X112990265Y-110236929D01*
X113014410Y-110248836D01*
X113024042Y-110254121D01*
X113061423Y-110276804D01*
X113065419Y-110279229D01*
X113069722Y-110281033D01*
X113069731Y-110281038D01*
X113132838Y-110307501D01*
X113139841Y-110310692D01*
X113201216Y-110340959D01*
X113201225Y-110340963D01*
X113205407Y-110343025D01*
X113251509Y-110357782D01*
X113261821Y-110361587D01*
X113302135Y-110378492D01*
X113302141Y-110378494D01*
X113306455Y-110380303D01*
X113377312Y-110398299D01*
X113384704Y-110400418D01*
X113432601Y-110415750D01*
X113454335Y-110422707D01*
X113458954Y-110423459D01*
X113458957Y-110423460D01*
X113502098Y-110430486D01*
X113512858Y-110432724D01*
X113555249Y-110443490D01*
X113555256Y-110443491D01*
X113559783Y-110444641D01*
X113596717Y-110448360D01*
X113632529Y-110451966D01*
X113640147Y-110452968D01*
X113712307Y-110464721D01*
X113748469Y-110465195D01*
X113760703Y-110465355D01*
X113771668Y-110465977D01*
X113773330Y-110466144D01*
X113776867Y-110466500D01*
X113847405Y-110466500D01*
X113849054Y-110466511D01*
X113968978Y-110468081D01*
X113968981Y-110468081D01*
X113973655Y-110468142D01*
X113978288Y-110467511D01*
X113982954Y-110467226D01*
X113982956Y-110467265D01*
X113994254Y-110466500D01*
X118932354Y-110466500D01*
X118934679Y-110466327D01*
X118934685Y-110466327D01*
X119122000Y-110452407D01*
X119122004Y-110452406D01*
X119126652Y-110452061D01*
X119131200Y-110451032D01*
X119131206Y-110451031D01*
X119325929Y-110406969D01*
X119381577Y-110394377D01*
X119417769Y-110380303D01*
X119620824Y-110301340D01*
X119620827Y-110301339D01*
X119625177Y-110299647D01*
X119643325Y-110289275D01*
X119715938Y-110247773D01*
X119852098Y-110169951D01*
X120057357Y-110008138D01*
X120236443Y-109817763D01*
X120385424Y-109603009D01*
X120387492Y-109598816D01*
X120498960Y-109372781D01*
X120498961Y-109372778D01*
X120501025Y-109368593D01*
X120513440Y-109329810D01*
X120579280Y-109124123D01*
X120580707Y-109119665D01*
X120622721Y-108861693D01*
X120623324Y-108815655D01*
X127105858Y-108815655D01*
X127141104Y-109074638D01*
X127142412Y-109079124D01*
X127142412Y-109079126D01*
X127161567Y-109144842D01*
X127214243Y-109325567D01*
X127323668Y-109562928D01*
X127326231Y-109566837D01*
X127464410Y-109777596D01*
X127464414Y-109777601D01*
X127466976Y-109781509D01*
X127641018Y-109976506D01*
X127841970Y-110143637D01*
X127845973Y-110146066D01*
X128061422Y-110276804D01*
X128061426Y-110276806D01*
X128065419Y-110279229D01*
X128306455Y-110380303D01*
X128559783Y-110444641D01*
X128564434Y-110445109D01*
X128564438Y-110445110D01*
X128751751Y-110463971D01*
X128776867Y-110466500D01*
X133847405Y-110466500D01*
X133849054Y-110466511D01*
X133968978Y-110468081D01*
X133968981Y-110468081D01*
X133973655Y-110468142D01*
X134046113Y-110458281D01*
X134053717Y-110457481D01*
X134126652Y-110452061D01*
X134173864Y-110441378D01*
X134184668Y-110439425D01*
X134201366Y-110437152D01*
X134232638Y-110432896D01*
X134237114Y-110431591D01*
X134237116Y-110431591D01*
X134302842Y-110412434D01*
X134310291Y-110410508D01*
X134325930Y-110406969D01*
X134381577Y-110394377D01*
X134426704Y-110376828D01*
X134437068Y-110373310D01*
X134483567Y-110359757D01*
X134549972Y-110329145D01*
X134557034Y-110326147D01*
X134620829Y-110301338D01*
X134620830Y-110301337D01*
X134625177Y-110299647D01*
X134629224Y-110297334D01*
X134629228Y-110297332D01*
X134667203Y-110275627D01*
X134676976Y-110270594D01*
X134678183Y-110270038D01*
X134720928Y-110250332D01*
X134782085Y-110210235D01*
X134788629Y-110206226D01*
X134852098Y-110169951D01*
X134890117Y-110139980D01*
X134899036Y-110133560D01*
X134935596Y-110109590D01*
X134935600Y-110109587D01*
X134939509Y-110107024D01*
X134942992Y-110103915D01*
X134943004Y-110103906D01*
X134994057Y-110058338D01*
X134999926Y-110053412D01*
X135057357Y-110008138D01*
X135060558Y-110004735D01*
X135060567Y-110004727D01*
X135090522Y-109972883D01*
X135098386Y-109965220D01*
X135134506Y-109932982D01*
X135137494Y-109929389D01*
X135137502Y-109929381D01*
X135181257Y-109876771D01*
X135186348Y-109871017D01*
X135236443Y-109817763D01*
X135241118Y-109811025D01*
X135264025Y-109778004D01*
X135270678Y-109769254D01*
X135284245Y-109752941D01*
X135301637Y-109732030D01*
X135339565Y-109669526D01*
X135343757Y-109663071D01*
X135366263Y-109630629D01*
X135385424Y-109603009D01*
X135406836Y-109559590D01*
X135412121Y-109549958D01*
X135434808Y-109512571D01*
X135434809Y-109512569D01*
X135437229Y-109508581D01*
X135439033Y-109504278D01*
X135439038Y-109504269D01*
X135465501Y-109441162D01*
X135468692Y-109434159D01*
X135498959Y-109372784D01*
X135498963Y-109372775D01*
X135501025Y-109368593D01*
X135515782Y-109322491D01*
X135519587Y-109312179D01*
X135536492Y-109271865D01*
X135536494Y-109271859D01*
X135538303Y-109267545D01*
X135556299Y-109196688D01*
X135558418Y-109189296D01*
X135579280Y-109124123D01*
X135580707Y-109119665D01*
X135584983Y-109093413D01*
X135588486Y-109071902D01*
X135590724Y-109061142D01*
X135601490Y-109018751D01*
X135601491Y-109018744D01*
X135602641Y-109014217D01*
X135609966Y-108941471D01*
X135610970Y-108933841D01*
X135622721Y-108861693D01*
X135623355Y-108813297D01*
X135623977Y-108802332D01*
X135624183Y-108800282D01*
X135624500Y-108797133D01*
X135624500Y-108726595D01*
X135624511Y-108724946D01*
X135626081Y-108605022D01*
X135626081Y-108605019D01*
X135626142Y-108600345D01*
X135625511Y-108595711D01*
X135625226Y-108591046D01*
X135625265Y-108591044D01*
X135624500Y-108579746D01*
X135624500Y-108206541D01*
X151159888Y-108206541D01*
X151159983Y-108210170D01*
X151159983Y-108210172D01*
X151160729Y-108238643D01*
X151160729Y-108238645D01*
X151167395Y-108493204D01*
X151168970Y-108553371D01*
X151169481Y-108556961D01*
X151169481Y-108556962D01*
X151170988Y-108567553D01*
X151217856Y-108896860D01*
X151305897Y-109232453D01*
X151431927Y-109555703D01*
X151433624Y-109558908D01*
X151583489Y-109841954D01*
X151594275Y-109862326D01*
X151596325Y-109865309D01*
X151596327Y-109865312D01*
X151788733Y-110145264D01*
X151788739Y-110145271D01*
X151790790Y-110148256D01*
X151924332Y-110301338D01*
X152005495Y-110394377D01*
X152018866Y-110409705D01*
X152065794Y-110452406D01*
X152231268Y-110602975D01*
X152275481Y-110643206D01*
X152557233Y-110845666D01*
X152860388Y-111014400D01*
X153180928Y-111147172D01*
X153184422Y-111148167D01*
X153184424Y-111148168D01*
X153511103Y-111241225D01*
X153511108Y-111241226D01*
X153514604Y-111242222D01*
X153711304Y-111274433D01*
X153853412Y-111297704D01*
X153853419Y-111297705D01*
X153856993Y-111298290D01*
X154030276Y-111306462D01*
X154199931Y-111314463D01*
X154199932Y-111314463D01*
X154203558Y-111314634D01*
X154212415Y-111314030D01*
X154546073Y-111291284D01*
X154546081Y-111291283D01*
X154549704Y-111291036D01*
X154553279Y-111290373D01*
X154553282Y-111290373D01*
X154887279Y-111228470D01*
X154887283Y-111228469D01*
X154890844Y-111227809D01*
X155157477Y-111145782D01*
X155218978Y-111126862D01*
X155222456Y-111125792D01*
X155540145Y-110986336D01*
X155610920Y-110944979D01*
X155836560Y-110813126D01*
X155836562Y-110813125D01*
X155839700Y-110811291D01*
X155905146Y-110762153D01*
X156114244Y-110605158D01*
X156114248Y-110605155D01*
X156117151Y-110602975D01*
X156368819Y-110364150D01*
X156374144Y-110357782D01*
X156463986Y-110250332D01*
X156591370Y-110097983D01*
X156604206Y-110078443D01*
X156719734Y-109902567D01*
X156781853Y-109807999D01*
X156881181Y-109610508D01*
X156936117Y-109501280D01*
X156936120Y-109501272D01*
X156937744Y-109498044D01*
X156938989Y-109494642D01*
X157055729Y-109175637D01*
X157055730Y-109175633D01*
X157056977Y-109172226D01*
X157057822Y-109168704D01*
X157057825Y-109168696D01*
X157137124Y-108838391D01*
X157137125Y-108838387D01*
X157137971Y-108834862D01*
X157140861Y-108810978D01*
X157179316Y-108493204D01*
X157179316Y-108493197D01*
X157179652Y-108490425D01*
X157180048Y-108477847D01*
X157185511Y-108303997D01*
X157185599Y-108301200D01*
X157185438Y-108298404D01*
X157165836Y-107958446D01*
X157165835Y-107958441D01*
X157165627Y-107954826D01*
X157125163Y-107722979D01*
X157106600Y-107616615D01*
X157106598Y-107616608D01*
X157105976Y-107613042D01*
X157094889Y-107575611D01*
X157061727Y-107463659D01*
X157007437Y-107280380D01*
X157005294Y-107275355D01*
X156872740Y-106964586D01*
X156872738Y-106964583D01*
X156871316Y-106961248D01*
X156864796Y-106949816D01*
X156701208Y-106663016D01*
X156699417Y-106659876D01*
X156494018Y-106380260D01*
X156490993Y-106377004D01*
X156303603Y-106175349D01*
X156257842Y-106126104D01*
X155994019Y-105900778D01*
X155706047Y-105707269D01*
X155397741Y-105548140D01*
X155073189Y-105425502D01*
X155069668Y-105424618D01*
X155069663Y-105424616D01*
X154908378Y-105384104D01*
X154736692Y-105340980D01*
X154682185Y-105333804D01*
X154396315Y-105296168D01*
X154396307Y-105296167D01*
X154392711Y-105295694D01*
X154248045Y-105293421D01*
X154049446Y-105290301D01*
X154049442Y-105290301D01*
X154045804Y-105290244D01*
X154042190Y-105290605D01*
X154042184Y-105290605D01*
X153819421Y-105312840D01*
X153700569Y-105324703D01*
X153486205Y-105371442D01*
X153385208Y-105393463D01*
X153361583Y-105398614D01*
X153358156Y-105399787D01*
X153358150Y-105399789D01*
X153151627Y-105470498D01*
X153033339Y-105510997D01*
X152720188Y-105660363D01*
X152426279Y-105844732D01*
X152423443Y-105847004D01*
X152423436Y-105847009D01*
X152294433Y-105950360D01*
X152155509Y-106061659D01*
X151911466Y-106308271D01*
X151909225Y-106311129D01*
X151800856Y-106449338D01*
X151697386Y-106581298D01*
X151695493Y-106584387D01*
X151695491Y-106584390D01*
X151649233Y-106659876D01*
X151516105Y-106877121D01*
X151514580Y-106880406D01*
X151514578Y-106880410D01*
X151448244Y-107023316D01*
X151370027Y-107191820D01*
X151315665Y-107356194D01*
X151275825Y-107476661D01*
X151261087Y-107521223D01*
X151260351Y-107524778D01*
X151260350Y-107524781D01*
X151200665Y-107812991D01*
X151190730Y-107860964D01*
X151178066Y-108002857D01*
X151163251Y-108168864D01*
X151159888Y-108206541D01*
X135624500Y-108206541D01*
X135624500Y-93980585D01*
X135644502Y-93912464D01*
X135661405Y-93891490D01*
X138080905Y-91471990D01*
X138143217Y-91437964D01*
X138214032Y-91443029D01*
X138259095Y-91471990D01*
X138665727Y-91878622D01*
X138670635Y-91883816D01*
X138723018Y-91942506D01*
X138726612Y-91945495D01*
X138726617Y-91945500D01*
X138810873Y-92015575D01*
X138812537Y-92016983D01*
X138899072Y-92091546D01*
X138903025Y-92094040D01*
X138905125Y-92095365D01*
X138918449Y-92105045D01*
X138923970Y-92109637D01*
X138927969Y-92112063D01*
X138927975Y-92112068D01*
X139021705Y-92168946D01*
X139023574Y-92170102D01*
X139116167Y-92228523D01*
X139120120Y-92231017D01*
X139124397Y-92232899D01*
X139124401Y-92232901D01*
X139126678Y-92233903D01*
X139141286Y-92241507D01*
X139147419Y-92245229D01*
X139151721Y-92247033D01*
X139151725Y-92247035D01*
X139252778Y-92289410D01*
X139254798Y-92290278D01*
X139291216Y-92306302D01*
X139359355Y-92336284D01*
X139363862Y-92337513D01*
X139363871Y-92337516D01*
X139366271Y-92338170D01*
X139381848Y-92343533D01*
X139388455Y-92346303D01*
X139392983Y-92347453D01*
X139392986Y-92347454D01*
X139499173Y-92374422D01*
X139501291Y-92374980D01*
X139611521Y-92405032D01*
X139616161Y-92405581D01*
X139616166Y-92405582D01*
X139618627Y-92405873D01*
X139634843Y-92408878D01*
X139641783Y-92410641D01*
X139681676Y-92414658D01*
X139755428Y-92422085D01*
X139757613Y-92422324D01*
X139845310Y-92432703D01*
X139871080Y-92435753D01*
X139975619Y-92432559D01*
X139979467Y-92432500D01*
X147266203Y-92432500D01*
X147273346Y-92432703D01*
X147347200Y-92436897D01*
X147347207Y-92436897D01*
X147351876Y-92437162D01*
X147465603Y-92426712D01*
X147467768Y-92426531D01*
X147581752Y-92418061D01*
X147588724Y-92416483D01*
X147605011Y-92413903D01*
X147612150Y-92413247D01*
X147638317Y-92406844D01*
X147723151Y-92386086D01*
X147725290Y-92385582D01*
X147758202Y-92378134D01*
X147836677Y-92360377D01*
X147841026Y-92358686D01*
X147841035Y-92358683D01*
X147843351Y-92357782D01*
X147859064Y-92352828D01*
X147861475Y-92352238D01*
X147861480Y-92352236D01*
X147866030Y-92351123D01*
X147870369Y-92349348D01*
X147971783Y-92307859D01*
X147973825Y-92307044D01*
X148075919Y-92267342D01*
X148075922Y-92267341D01*
X148080277Y-92265647D01*
X148086501Y-92262090D01*
X148101306Y-92254869D01*
X148107939Y-92252155D01*
X148192748Y-92201699D01*
X148247063Y-92184392D01*
X148356841Y-92175560D01*
X148356846Y-92175559D01*
X148361882Y-92175154D01*
X148366790Y-92173949D01*
X148366793Y-92173948D01*
X148598959Y-92116922D01*
X148603873Y-92115715D01*
X148608525Y-92113740D01*
X148608529Y-92113739D01*
X148828593Y-92020327D01*
X148828594Y-92020327D01*
X148833248Y-92018351D01*
X149029948Y-91894483D01*
X149039825Y-91888263D01*
X149039826Y-91888262D01*
X149044106Y-91885567D01*
X149231022Y-91720778D01*
X149389187Y-91528225D01*
X149514531Y-91312862D01*
X149603831Y-91080228D01*
X149654788Y-90836310D01*
X149666092Y-90587382D01*
X149665413Y-90581507D01*
X149649676Y-90445506D01*
X149637451Y-90339850D01*
X149633238Y-90324959D01*
X149570981Y-90104949D01*
X149570980Y-90104947D01*
X149569603Y-90100080D01*
X149567469Y-90095505D01*
X149567467Y-90095498D01*
X149466429Y-89878824D01*
X149464293Y-89874243D01*
X149428237Y-89821187D01*
X149327078Y-89672336D01*
X149327077Y-89672335D01*
X149324231Y-89668147D01*
X149153020Y-89487096D01*
X149088320Y-89437629D01*
X148959084Y-89338821D01*
X148959080Y-89338818D01*
X148955064Y-89335748D01*
X148735457Y-89217996D01*
X148730676Y-89216350D01*
X148730672Y-89216348D01*
X148504638Y-89138518D01*
X148499849Y-89136869D01*
X148395355Y-89118820D01*
X148258211Y-89095131D01*
X148258205Y-89095130D01*
X148254301Y-89094456D01*
X148250340Y-89094276D01*
X148250339Y-89094276D01*
X148225860Y-89093164D01*
X148225841Y-89093164D01*
X148224441Y-89093100D01*
X148219434Y-89093100D01*
X148158829Y-89077568D01*
X148151680Y-89073646D01*
X148084783Y-89036945D01*
X148080397Y-89035327D01*
X148080395Y-89035326D01*
X147843957Y-88948100D01*
X147843955Y-88948099D01*
X147839568Y-88946481D01*
X147834994Y-88945530D01*
X147834992Y-88945529D01*
X147644448Y-88905896D01*
X147583674Y-88893255D01*
X147579004Y-88892990D01*
X147578998Y-88892989D01*
X147327399Y-88878702D01*
X147327393Y-88878702D01*
X147322724Y-88878437D01*
X147180245Y-88891529D01*
X147067104Y-88901924D01*
X147067099Y-88901925D01*
X147062450Y-88902352D01*
X147057913Y-88903462D01*
X147057914Y-88903462D01*
X147023476Y-88911889D01*
X146993527Y-88915500D01*
X140728585Y-88915500D01*
X140660464Y-88895498D01*
X140639490Y-88878595D01*
X140496503Y-88735608D01*
X140462283Y-88672387D01*
X140462130Y-88671655D01*
X140423970Y-88489789D01*
X140336171Y-88267467D01*
X140212168Y-88063117D01*
X140122103Y-87959326D01*
X140059007Y-87886614D01*
X140059005Y-87886612D01*
X140055507Y-87882581D01*
X140051381Y-87879198D01*
X140051377Y-87879194D01*
X139874795Y-87734407D01*
X139870667Y-87731022D01*
X139866031Y-87728383D01*
X139866028Y-87728381D01*
X139667577Y-87615416D01*
X139662934Y-87612773D01*
X139438247Y-87531216D01*
X139432998Y-87530267D01*
X139432995Y-87530266D01*
X139322112Y-87510215D01*
X139270502Y-87500883D01*
X139219250Y-87478731D01*
X139218929Y-87478454D01*
X139214980Y-87475962D01*
X139214974Y-87475958D01*
X139177992Y-87452624D01*
X139168962Y-87446360D01*
X139134150Y-87419888D01*
X139134146Y-87419885D01*
X139130433Y-87417062D01*
X139066329Y-87381894D01*
X139059701Y-87377989D01*
X139001842Y-87341482D01*
X139001840Y-87341481D01*
X138997881Y-87338983D01*
X138953577Y-87319488D01*
X138943719Y-87314627D01*
X138905384Y-87293596D01*
X138901283Y-87291346D01*
X138832694Y-87266042D01*
X138825559Y-87263159D01*
X138793960Y-87249255D01*
X138758645Y-87233716D01*
X138754141Y-87232488D01*
X138754138Y-87232487D01*
X138711939Y-87220982D01*
X138701474Y-87217632D01*
X138656068Y-87200881D01*
X138604908Y-87190240D01*
X138584494Y-87185994D01*
X138577010Y-87184197D01*
X138510988Y-87166197D01*
X138510984Y-87166196D01*
X138506479Y-87164968D01*
X138501846Y-87164420D01*
X138501843Y-87164419D01*
X138458408Y-87159278D01*
X138447560Y-87157511D01*
X138404757Y-87148608D01*
X138404754Y-87148608D01*
X138400174Y-87147655D01*
X138395503Y-87147390D01*
X138395497Y-87147389D01*
X138327205Y-87143512D01*
X138319537Y-87142842D01*
X138275323Y-87137609D01*
X138246920Y-87134247D01*
X138198533Y-87135726D01*
X138187542Y-87135582D01*
X138182629Y-87135303D01*
X138143899Y-87133103D01*
X138143892Y-87133103D01*
X138139224Y-87132838D01*
X138100178Y-87136426D01*
X138066425Y-87139527D01*
X138058745Y-87139997D01*
X137990351Y-87142087D01*
X137985671Y-87142230D01*
X137938034Y-87150844D01*
X137927185Y-87152321D01*
X137878950Y-87156753D01*
X137874414Y-87157863D01*
X137807929Y-87174132D01*
X137800399Y-87175732D01*
X137728472Y-87188738D01*
X137682620Y-87204303D01*
X137672090Y-87207371D01*
X137630157Y-87217632D01*
X137625069Y-87218877D01*
X137620736Y-87220650D01*
X137620735Y-87220650D01*
X137557401Y-87246560D01*
X137550194Y-87249255D01*
X137504664Y-87264711D01*
X137480973Y-87272753D01*
X137476820Y-87274892D01*
X137437938Y-87294918D01*
X137427954Y-87299520D01*
X137387491Y-87316073D01*
X137387485Y-87316076D01*
X137383161Y-87317845D01*
X137320318Y-87355232D01*
X137313608Y-87358952D01*
X137248610Y-87392428D01*
X137244823Y-87395155D01*
X137244817Y-87395158D01*
X137209333Y-87420704D01*
X137200142Y-87426729D01*
X137158537Y-87451481D01*
X137154917Y-87454439D01*
X137154908Y-87454445D01*
X137133585Y-87471867D01*
X137064517Y-87499843D01*
X137049777Y-87501094D01*
X137031825Y-87502617D01*
X137026659Y-87503958D01*
X137026658Y-87503958D01*
X136805625Y-87561327D01*
X136805620Y-87561329D01*
X136800460Y-87562668D01*
X136795594Y-87564860D01*
X136587381Y-87658653D01*
X136587378Y-87658654D01*
X136582520Y-87660843D01*
X136384238Y-87794334D01*
X136211282Y-87959326D01*
X136068598Y-88151100D01*
X135960267Y-88364172D01*
X135924825Y-88478312D01*
X135890968Y-88587349D01*
X135890967Y-88587355D01*
X135889384Y-88592452D01*
X135880445Y-88659894D01*
X135880134Y-88662244D01*
X135851355Y-88727146D01*
X135844321Y-88734784D01*
X132661378Y-91917727D01*
X132656184Y-91922635D01*
X132633921Y-91942506D01*
X132597494Y-91975018D01*
X132536420Y-92048452D01*
X132524455Y-92062838D01*
X132523057Y-92064490D01*
X132448454Y-92151071D01*
X132445959Y-92155026D01*
X132444635Y-92157124D01*
X132434949Y-92170455D01*
X132433352Y-92172375D01*
X132433346Y-92172383D01*
X132430363Y-92175970D01*
X132423854Y-92186697D01*
X132371071Y-92273679D01*
X132369914Y-92275548D01*
X132346185Y-92313157D01*
X132308983Y-92372119D01*
X132307101Y-92376396D01*
X132307100Y-92376398D01*
X132306099Y-92378673D01*
X132298490Y-92393290D01*
X132294771Y-92399419D01*
X132292962Y-92403733D01*
X132250603Y-92504748D01*
X132249735Y-92506769D01*
X132203716Y-92611355D01*
X132202487Y-92615862D01*
X132202484Y-92615871D01*
X132201830Y-92618271D01*
X132196467Y-92633848D01*
X132193697Y-92640455D01*
X132192547Y-92644983D01*
X132192546Y-92644986D01*
X132165578Y-92751173D01*
X132165020Y-92753291D01*
X132134968Y-92863521D01*
X132134419Y-92868161D01*
X132134418Y-92868166D01*
X132134127Y-92870627D01*
X132131122Y-92886843D01*
X132129359Y-92893783D01*
X132128891Y-92898434D01*
X132117915Y-93007428D01*
X132117676Y-93009613D01*
X132105994Y-93108320D01*
X132104247Y-93123080D01*
X132104390Y-93127751D01*
X132107441Y-93227606D01*
X132107500Y-93231454D01*
X132107500Y-106823500D01*
X132087498Y-106891621D01*
X132033842Y-106938114D01*
X131981500Y-106949500D01*
X128799646Y-106949500D01*
X128797321Y-106949673D01*
X128797315Y-106949673D01*
X128610000Y-106963593D01*
X128609996Y-106963594D01*
X128605348Y-106963939D01*
X128600800Y-106964968D01*
X128600794Y-106964969D01*
X128414399Y-107007147D01*
X128350423Y-107021623D01*
X128346071Y-107023315D01*
X128346069Y-107023316D01*
X128111176Y-107114660D01*
X128111173Y-107114661D01*
X128106823Y-107116353D01*
X127879902Y-107246049D01*
X127674643Y-107407862D01*
X127495557Y-107598237D01*
X127393335Y-107745589D01*
X127349508Y-107808765D01*
X127346576Y-107812991D01*
X127344510Y-107817181D01*
X127344508Y-107817184D01*
X127251185Y-108006426D01*
X127230975Y-108047407D01*
X127229553Y-108051850D01*
X127229552Y-108051852D01*
X127181195Y-108202920D01*
X127151293Y-108296335D01*
X127109279Y-108554307D01*
X127107906Y-108659220D01*
X127105955Y-108808282D01*
X127105858Y-108815655D01*
X120623324Y-108815655D01*
X120625388Y-108657958D01*
X120626081Y-108605022D01*
X120626081Y-108605019D01*
X120626142Y-108600345D01*
X120590896Y-108341362D01*
X120580191Y-108304633D01*
X120541337Y-108171332D01*
X120517757Y-108090433D01*
X120408332Y-107853072D01*
X120375519Y-107803024D01*
X120267590Y-107638404D01*
X120267586Y-107638399D01*
X120265024Y-107634491D01*
X120090982Y-107439494D01*
X119890030Y-107272363D01*
X119825839Y-107233411D01*
X119670578Y-107139196D01*
X119670574Y-107139194D01*
X119666581Y-107136771D01*
X119425545Y-107035697D01*
X119172217Y-106971359D01*
X119167566Y-106970891D01*
X119167562Y-106970890D01*
X118958271Y-106949816D01*
X118955133Y-106949500D01*
X115750500Y-106949500D01*
X115682379Y-106929498D01*
X115635886Y-106875842D01*
X115624500Y-106823500D01*
X115624500Y-97920897D01*
X115624703Y-97913754D01*
X115628897Y-97839900D01*
X115628897Y-97839893D01*
X115629162Y-97835224D01*
X115618712Y-97721497D01*
X115618530Y-97719319D01*
X115610407Y-97610007D01*
X115610061Y-97605348D01*
X115608483Y-97598376D01*
X115605903Y-97582089D01*
X115605247Y-97574950D01*
X115604137Y-97570416D01*
X115604136Y-97570407D01*
X115578081Y-97463930D01*
X115577577Y-97461790D01*
X115553408Y-97354980D01*
X115552377Y-97350423D01*
X115549781Y-97343748D01*
X115544831Y-97328045D01*
X115544236Y-97325614D01*
X115544233Y-97325604D01*
X115543123Y-97321069D01*
X115499828Y-97215243D01*
X115499031Y-97213244D01*
X115496240Y-97206066D01*
X115457647Y-97106823D01*
X115454090Y-97100599D01*
X115446869Y-97085794D01*
X115444155Y-97079161D01*
X115385712Y-96980925D01*
X115384648Y-96979101D01*
X115330273Y-96883964D01*
X115330271Y-96883960D01*
X115327951Y-96879902D01*
X115323518Y-96874278D01*
X115314191Y-96860709D01*
X115310519Y-96854537D01*
X115307572Y-96850929D01*
X115307567Y-96850923D01*
X115238210Y-96766035D01*
X115236834Y-96764320D01*
X115169030Y-96678311D01*
X115169027Y-96678308D01*
X115166138Y-96674643D01*
X115089948Y-96602971D01*
X115087186Y-96600291D01*
X107676650Y-89189755D01*
X107675491Y-89188582D01*
X107591747Y-89102616D01*
X107591743Y-89102613D01*
X107588485Y-89099268D01*
X107581921Y-89094276D01*
X107530286Y-89055012D01*
X107524307Y-89050170D01*
X107472468Y-89005503D01*
X107472465Y-89005501D01*
X107468929Y-89002454D01*
X107464980Y-88999962D01*
X107464974Y-88999958D01*
X107427992Y-88976624D01*
X107418962Y-88970360D01*
X107384150Y-88943888D01*
X107384146Y-88943885D01*
X107380433Y-88941062D01*
X107316329Y-88905894D01*
X107309701Y-88901989D01*
X107251842Y-88865482D01*
X107251840Y-88865481D01*
X107247881Y-88862983D01*
X107203577Y-88843488D01*
X107193719Y-88838627D01*
X107186614Y-88834729D01*
X107151283Y-88815346D01*
X107082694Y-88790042D01*
X107075559Y-88787159D01*
X107043960Y-88773255D01*
X107008645Y-88757716D01*
X107004141Y-88756488D01*
X107004138Y-88756487D01*
X106961939Y-88744982D01*
X106951474Y-88741632D01*
X106906068Y-88724881D01*
X106854908Y-88714240D01*
X106834494Y-88709994D01*
X106827010Y-88708197D01*
X106760988Y-88690197D01*
X106760984Y-88690196D01*
X106756479Y-88688968D01*
X106751846Y-88688420D01*
X106751843Y-88688419D01*
X106708408Y-88683278D01*
X106697560Y-88681511D01*
X106654757Y-88672608D01*
X106654754Y-88672608D01*
X106650174Y-88671655D01*
X106645503Y-88671390D01*
X106645497Y-88671389D01*
X106577205Y-88667512D01*
X106569537Y-88666842D01*
X106525323Y-88661609D01*
X106496920Y-88658247D01*
X106448533Y-88659726D01*
X106437542Y-88659582D01*
X106432629Y-88659303D01*
X106393899Y-88657103D01*
X106393892Y-88657103D01*
X106389224Y-88656838D01*
X106350178Y-88660426D01*
X106316425Y-88663527D01*
X106308745Y-88663997D01*
X106240351Y-88666087D01*
X106235671Y-88666230D01*
X106188034Y-88674844D01*
X106177185Y-88676321D01*
X106128950Y-88680753D01*
X106124414Y-88681863D01*
X106057929Y-88698132D01*
X106050399Y-88699732D01*
X105978472Y-88712738D01*
X105932620Y-88728303D01*
X105922090Y-88731371D01*
X105880157Y-88741632D01*
X105875069Y-88742877D01*
X105870736Y-88744650D01*
X105870735Y-88744650D01*
X105807401Y-88770560D01*
X105800195Y-88773255D01*
X105763789Y-88785613D01*
X105723288Y-88792300D01*
X100317795Y-88792300D01*
X100316146Y-88792289D01*
X100196222Y-88790719D01*
X100196219Y-88790719D01*
X100191545Y-88790658D01*
X100119087Y-88800519D01*
X100111483Y-88801319D01*
X100038548Y-88806739D01*
X99991336Y-88817422D01*
X99980532Y-88819375D01*
X99963834Y-88821648D01*
X99932562Y-88825904D01*
X99928086Y-88827209D01*
X99928084Y-88827209D01*
X99862358Y-88846366D01*
X99854907Y-88848292D01*
X99783623Y-88864423D01*
X99738496Y-88881972D01*
X99728132Y-88885490D01*
X99681633Y-88899043D01*
X99615228Y-88929655D01*
X99608166Y-88932653D01*
X99568445Y-88948100D01*
X99540023Y-88959153D01*
X99535976Y-88961466D01*
X99535972Y-88961468D01*
X99497997Y-88983173D01*
X99488224Y-88988206D01*
X99444272Y-89008468D01*
X99383115Y-89048565D01*
X99376576Y-89052571D01*
X99313102Y-89088849D01*
X99309433Y-89091741D01*
X99309432Y-89091742D01*
X99275083Y-89118820D01*
X99266164Y-89125240D01*
X99229604Y-89149210D01*
X99229600Y-89149213D01*
X99225691Y-89151776D01*
X99222208Y-89154885D01*
X99222196Y-89154894D01*
X99171143Y-89200462D01*
X99165274Y-89205388D01*
X99107843Y-89250662D01*
X99104642Y-89254065D01*
X99104633Y-89254073D01*
X99074678Y-89285917D01*
X99066814Y-89293580D01*
X99030694Y-89325818D01*
X99027705Y-89329412D01*
X99027701Y-89329416D01*
X98983943Y-89382029D01*
X98978852Y-89387783D01*
X98928757Y-89441037D01*
X98926090Y-89444882D01*
X98926088Y-89444884D01*
X98901175Y-89480796D01*
X98894522Y-89489546D01*
X98863563Y-89526770D01*
X98861134Y-89530773D01*
X98825635Y-89589274D01*
X98821443Y-89595729D01*
X98779776Y-89655791D01*
X98777712Y-89659976D01*
X98777711Y-89659978D01*
X98758366Y-89699206D01*
X98753081Y-89708838D01*
X98727971Y-89750219D01*
X98726167Y-89754522D01*
X98726162Y-89754531D01*
X98699699Y-89817638D01*
X98696508Y-89824641D01*
X98666241Y-89886016D01*
X98666237Y-89886025D01*
X98664175Y-89890207D01*
X98662753Y-89894650D01*
X98649418Y-89936309D01*
X98645613Y-89946621D01*
X98628708Y-89986935D01*
X98628706Y-89986941D01*
X98626897Y-89991255D01*
X98625746Y-89995787D01*
X98608903Y-90062107D01*
X98606782Y-90069504D01*
X98584493Y-90139135D01*
X98583741Y-90143754D01*
X98583740Y-90143757D01*
X98576714Y-90186898D01*
X98574476Y-90197658D01*
X98563710Y-90240049D01*
X98563709Y-90240056D01*
X98562559Y-90244583D01*
X98562091Y-90249234D01*
X98555234Y-90317329D01*
X98554232Y-90324947D01*
X98542479Y-90397107D01*
X98542418Y-90401780D01*
X98541845Y-90445506D01*
X98541222Y-90456478D01*
X98536373Y-90504639D01*
X62978500Y-90504639D01*
X62978500Y-86879933D01*
X99254812Y-86879933D01*
X99263525Y-86891453D01*
X99361218Y-86963084D01*
X99369128Y-86968027D01*
X99592090Y-87085333D01*
X99600653Y-87089056D01*
X99838504Y-87172118D01*
X99847513Y-87174532D01*
X100095042Y-87221527D01*
X100104298Y-87222581D01*
X100356057Y-87232473D01*
X100365371Y-87232147D01*
X100615815Y-87204720D01*
X100624992Y-87203019D01*
X100868631Y-87138874D01*
X100877451Y-87135837D01*
X101108936Y-87036383D01*
X101117208Y-87032076D01*
X101331449Y-86899500D01*
X101338388Y-86894458D01*
X101346718Y-86881819D01*
X101340656Y-86871466D01*
X100312012Y-85842822D01*
X100298068Y-85835208D01*
X100296235Y-85835339D01*
X100289620Y-85839590D01*
X99261470Y-86867740D01*
X99254812Y-86879933D01*
X62978500Y-86879933D01*
X62978500Y-85429323D01*
X98537098Y-85429323D01*
X98549187Y-85680975D01*
X98550324Y-85690235D01*
X98599474Y-85937335D01*
X98601968Y-85946328D01*
X98687100Y-86183439D01*
X98690900Y-86191974D01*
X98810146Y-86413901D01*
X98815157Y-86421768D01*
X98878646Y-86506790D01*
X98889904Y-86515239D01*
X98902323Y-86508467D01*
X99927178Y-85483612D01*
X99933556Y-85471932D01*
X100663608Y-85471932D01*
X100663739Y-85473765D01*
X100667990Y-85480380D01*
X101699113Y-86511503D01*
X101711493Y-86518263D01*
X101719834Y-86512019D01*
X101845965Y-86315927D01*
X101850412Y-86307736D01*
X101953891Y-86078022D01*
X101957082Y-86069255D01*
X102025469Y-85826776D01*
X102027329Y-85817634D01*
X102054002Y-85607966D01*
X105088257Y-85607966D01*
X105118565Y-85742446D01*
X105121645Y-85752275D01*
X105201770Y-85949603D01*
X105206413Y-85958794D01*
X105317694Y-86140388D01*
X105323777Y-86148699D01*
X105463213Y-86309667D01*
X105470580Y-86316883D01*
X105634434Y-86452916D01*
X105642881Y-86458831D01*
X105826756Y-86566279D01*
X105836042Y-86570729D01*
X106035001Y-86646703D01*
X106044899Y-86649579D01*
X106148250Y-86670606D01*
X106162299Y-86669410D01*
X106166000Y-86659065D01*
X106166000Y-86658517D01*
X106674000Y-86658517D01*
X106678064Y-86672359D01*
X106691478Y-86674393D01*
X106698184Y-86673534D01*
X106708262Y-86671392D01*
X106912255Y-86610191D01*
X106921842Y-86606433D01*
X107113095Y-86512739D01*
X107121945Y-86507464D01*
X107295328Y-86383792D01*
X107303200Y-86377139D01*
X107454052Y-86226812D01*
X107460730Y-86218965D01*
X107585003Y-86046020D01*
X107590313Y-86037183D01*
X107684670Y-85846267D01*
X107688469Y-85836672D01*
X107750377Y-85632910D01*
X107752555Y-85622837D01*
X107753986Y-85611962D01*
X107751775Y-85597778D01*
X107738617Y-85594000D01*
X106692115Y-85594000D01*
X106676876Y-85598475D01*
X106675671Y-85599865D01*
X106674000Y-85607548D01*
X106674000Y-86658517D01*
X106166000Y-86658517D01*
X106166000Y-85612115D01*
X106161525Y-85596876D01*
X106160135Y-85595671D01*
X106152452Y-85594000D01*
X105103225Y-85594000D01*
X105089694Y-85597973D01*
X105088257Y-85607966D01*
X102054002Y-85607966D01*
X102059316Y-85566196D01*
X102059797Y-85559908D01*
X102062047Y-85473960D01*
X102061896Y-85467651D01*
X102053494Y-85354580D01*
X135887662Y-85354580D01*
X135915413Y-85486840D01*
X135918473Y-85497037D01*
X136002315Y-85709340D01*
X136007049Y-85718876D01*
X136125468Y-85914025D01*
X136131734Y-85922618D01*
X136281342Y-86095027D01*
X136288972Y-86102447D01*
X136465488Y-86247180D01*
X136474255Y-86253206D01*
X136672633Y-86366129D01*
X136682297Y-86370595D01*
X136896868Y-86448481D01*
X136907135Y-86451251D01*
X137132932Y-86492081D01*
X137141162Y-86493016D01*
X137160550Y-86493930D01*
X137163526Y-86494000D01*
X137897885Y-86494000D01*
X137913124Y-86489525D01*
X137914329Y-86488135D01*
X137916000Y-86480452D01*
X137916000Y-86475885D01*
X138424000Y-86475885D01*
X138428475Y-86491124D01*
X138429865Y-86492329D01*
X138437548Y-86494000D01*
X139127340Y-86494000D01*
X139132649Y-86493775D01*
X139302771Y-86479340D01*
X139313259Y-86477548D01*
X139534211Y-86420199D01*
X139544239Y-86416667D01*
X139752363Y-86322915D01*
X139761669Y-86317735D01*
X139951024Y-86190253D01*
X139959307Y-86183594D01*
X140124478Y-86026029D01*
X140131530Y-86018058D01*
X140267790Y-85834918D01*
X140269157Y-85832714D01*
X145066507Y-85832714D01*
X145069460Y-85858231D01*
X145071419Y-85868121D01*
X145136489Y-86098076D01*
X145140003Y-86107527D01*
X145241006Y-86324128D01*
X145245985Y-86332892D01*
X145380314Y-86530551D01*
X145386638Y-86538415D01*
X145550836Y-86712051D01*
X145558343Y-86718810D01*
X145748188Y-86863957D01*
X145756667Y-86869421D01*
X145967283Y-86982352D01*
X145976529Y-86986392D01*
X146202487Y-87064196D01*
X146212268Y-87066707D01*
X146448834Y-87107569D01*
X146456706Y-87108424D01*
X146481185Y-87109536D01*
X146484018Y-87109600D01*
X147081385Y-87109600D01*
X147096624Y-87105125D01*
X147097829Y-87103735D01*
X147099500Y-87096052D01*
X147099500Y-87091485D01*
X147607500Y-87091485D01*
X147611975Y-87106724D01*
X147613365Y-87107929D01*
X147621048Y-87109600D01*
X148173572Y-87109600D01*
X148178604Y-87109398D01*
X148356759Y-87095064D01*
X148366712Y-87093452D01*
X148598800Y-87036446D01*
X148608370Y-87033263D01*
X148828360Y-86939882D01*
X148837299Y-86935208D01*
X149039524Y-86807861D01*
X149047599Y-86801820D01*
X149226868Y-86643773D01*
X149233871Y-86636521D01*
X149385562Y-86451850D01*
X149391318Y-86443567D01*
X149511531Y-86237021D01*
X149515893Y-86227916D01*
X149601534Y-86004815D01*
X149604385Y-85995126D01*
X149638185Y-85833336D01*
X149637062Y-85819275D01*
X149626954Y-85815600D01*
X147625615Y-85815600D01*
X147610376Y-85820075D01*
X147609171Y-85821465D01*
X147607500Y-85829148D01*
X147607500Y-87091485D01*
X147099500Y-87091485D01*
X147099500Y-85833715D01*
X147095025Y-85818476D01*
X147093635Y-85817271D01*
X147085952Y-85815600D01*
X145082642Y-85815600D01*
X145068556Y-85819736D01*
X145066507Y-85832714D01*
X140269157Y-85832714D01*
X140273394Y-85825881D01*
X140376851Y-85622394D01*
X140380852Y-85612541D01*
X140448544Y-85394539D01*
X140450828Y-85384152D01*
X140454300Y-85357957D01*
X140452104Y-85343793D01*
X140438919Y-85340000D01*
X138442115Y-85340000D01*
X138426876Y-85344475D01*
X138425671Y-85345865D01*
X138424000Y-85353548D01*
X138424000Y-86475885D01*
X137916000Y-86475885D01*
X137916000Y-85358115D01*
X137911525Y-85342876D01*
X137910135Y-85341671D01*
X137902452Y-85340000D01*
X135902718Y-85340000D01*
X135889187Y-85343973D01*
X135887662Y-85354580D01*
X102053494Y-85354580D01*
X102048685Y-85289864D01*
X145068815Y-85289864D01*
X145069938Y-85303925D01*
X145080046Y-85307600D01*
X147081385Y-85307600D01*
X147096624Y-85303125D01*
X147097829Y-85301735D01*
X147099500Y-85294052D01*
X147099500Y-85289485D01*
X147607500Y-85289485D01*
X147611975Y-85304724D01*
X147613365Y-85305929D01*
X147621048Y-85307600D01*
X149624358Y-85307600D01*
X149638444Y-85303464D01*
X149640493Y-85290486D01*
X149637540Y-85264969D01*
X149635581Y-85255079D01*
X149570511Y-85025124D01*
X149566997Y-85015673D01*
X149465994Y-84799072D01*
X149461015Y-84790308D01*
X149326686Y-84592649D01*
X149320362Y-84584785D01*
X149156164Y-84411149D01*
X149148657Y-84404390D01*
X148958812Y-84259243D01*
X148950333Y-84253779D01*
X148739717Y-84140848D01*
X148730471Y-84136808D01*
X148504513Y-84059004D01*
X148494732Y-84056493D01*
X148258166Y-84015631D01*
X148250294Y-84014776D01*
X148225815Y-84013664D01*
X148222982Y-84013600D01*
X147625615Y-84013600D01*
X147610376Y-84018075D01*
X147609171Y-84019465D01*
X147607500Y-84027148D01*
X147607500Y-85289485D01*
X147099500Y-85289485D01*
X147099500Y-84031715D01*
X147095025Y-84016476D01*
X147093635Y-84015271D01*
X147085952Y-84013600D01*
X146533428Y-84013600D01*
X146528396Y-84013802D01*
X146350241Y-84028136D01*
X146340288Y-84029748D01*
X146108200Y-84086754D01*
X146098630Y-84089937D01*
X145878640Y-84183318D01*
X145869701Y-84187992D01*
X145667476Y-84315339D01*
X145659401Y-84321380D01*
X145480132Y-84479427D01*
X145473129Y-84486679D01*
X145321438Y-84671350D01*
X145315682Y-84679633D01*
X145195469Y-84886179D01*
X145191107Y-84895284D01*
X145105466Y-85118385D01*
X145102615Y-85128074D01*
X145068815Y-85289864D01*
X102048685Y-85289864D01*
X102043112Y-85214874D01*
X102041736Y-85205668D01*
X102011983Y-85074183D01*
X105084389Y-85074183D01*
X105085912Y-85082607D01*
X105098292Y-85086000D01*
X106147885Y-85086000D01*
X106163124Y-85081525D01*
X106164329Y-85080135D01*
X106166000Y-85072452D01*
X106166000Y-85067885D01*
X106674000Y-85067885D01*
X106678475Y-85083124D01*
X106679865Y-85084329D01*
X106687548Y-85086000D01*
X107738344Y-85086000D01*
X107751875Y-85082027D01*
X107753180Y-85072947D01*
X107711214Y-84905875D01*
X107707894Y-84896124D01*
X107672205Y-84814043D01*
X135885700Y-84814043D01*
X135887896Y-84828207D01*
X135901081Y-84832000D01*
X137897885Y-84832000D01*
X137913124Y-84827525D01*
X137914329Y-84826135D01*
X137916000Y-84818452D01*
X137916000Y-84813885D01*
X138424000Y-84813885D01*
X138428475Y-84829124D01*
X138429865Y-84830329D01*
X138437548Y-84832000D01*
X140437282Y-84832000D01*
X140450813Y-84828027D01*
X140452338Y-84817420D01*
X140424587Y-84685160D01*
X140421527Y-84674963D01*
X140337685Y-84462660D01*
X140332951Y-84453124D01*
X140214532Y-84257975D01*
X140208266Y-84249382D01*
X140058658Y-84076973D01*
X140051028Y-84069553D01*
X139874512Y-83924820D01*
X139865745Y-83918794D01*
X139667367Y-83805871D01*
X139657703Y-83801405D01*
X139443132Y-83723519D01*
X139432865Y-83720749D01*
X139207068Y-83679919D01*
X139198838Y-83678984D01*
X139179450Y-83678070D01*
X139176474Y-83678000D01*
X138442115Y-83678000D01*
X138426876Y-83682475D01*
X138425671Y-83683865D01*
X138424000Y-83691548D01*
X138424000Y-84813885D01*
X137916000Y-84813885D01*
X137916000Y-83696115D01*
X137911525Y-83680876D01*
X137910135Y-83679671D01*
X137902452Y-83678000D01*
X137212660Y-83678000D01*
X137207351Y-83678225D01*
X137037229Y-83692660D01*
X137026741Y-83694452D01*
X136805789Y-83751801D01*
X136795761Y-83755333D01*
X136587637Y-83849085D01*
X136578331Y-83854265D01*
X136388976Y-83981747D01*
X136380693Y-83988406D01*
X136215522Y-84145971D01*
X136208470Y-84153942D01*
X136072210Y-84337082D01*
X136066606Y-84346119D01*
X135963149Y-84549606D01*
X135959148Y-84559459D01*
X135891456Y-84777461D01*
X135889172Y-84787848D01*
X135885700Y-84814043D01*
X107672205Y-84814043D01*
X107622972Y-84700814D01*
X107618105Y-84691739D01*
X107502426Y-84512926D01*
X107496136Y-84504757D01*
X107352806Y-84347240D01*
X107345273Y-84340215D01*
X107178139Y-84208222D01*
X107169552Y-84202517D01*
X106983117Y-84099599D01*
X106973705Y-84095369D01*
X106772959Y-84024280D01*
X106762988Y-84021646D01*
X106691837Y-84008972D01*
X106678540Y-84010432D01*
X106674000Y-84024989D01*
X106674000Y-85067885D01*
X106166000Y-85067885D01*
X106166000Y-84023102D01*
X106162082Y-84009758D01*
X106147806Y-84007771D01*
X106109324Y-84013660D01*
X106099288Y-84016051D01*
X105896868Y-84082212D01*
X105887359Y-84086209D01*
X105698463Y-84184542D01*
X105689738Y-84190036D01*
X105519433Y-84317905D01*
X105511726Y-84324748D01*
X105364590Y-84478717D01*
X105358104Y-84486727D01*
X105238098Y-84662649D01*
X105233000Y-84671623D01*
X105143338Y-84864783D01*
X105139775Y-84874470D01*
X105084389Y-85074183D01*
X102011983Y-85074183D01*
X101986129Y-84959926D01*
X101983405Y-84951015D01*
X101892088Y-84716192D01*
X101888077Y-84707783D01*
X101763054Y-84489040D01*
X101757843Y-84481314D01*
X101720591Y-84434061D01*
X101708666Y-84425590D01*
X101697134Y-84432076D01*
X100671222Y-85457988D01*
X100663608Y-85471932D01*
X99933556Y-85471932D01*
X99934792Y-85469668D01*
X99934661Y-85467835D01*
X99930410Y-85461220D01*
X98900521Y-84431331D01*
X98887213Y-84424064D01*
X98877174Y-84431186D01*
X98866961Y-84443466D01*
X98861546Y-84451058D01*
X98730846Y-84666446D01*
X98726608Y-84674763D01*
X98629181Y-84907099D01*
X98626220Y-84915949D01*
X98564206Y-85160131D01*
X98562584Y-85169328D01*
X98537343Y-85419998D01*
X98537098Y-85429323D01*
X62978500Y-85429323D01*
X62978500Y-84285925D01*
X62998502Y-84217804D01*
X63015405Y-84196830D01*
X63152632Y-84059603D01*
X99252416Y-84059603D01*
X99256989Y-84069379D01*
X100286388Y-85098778D01*
X100300332Y-85106392D01*
X100302165Y-85106261D01*
X100308780Y-85102010D01*
X101337619Y-84073171D01*
X101344003Y-84061481D01*
X101334591Y-84049370D01*
X101197793Y-83954470D01*
X101189765Y-83949742D01*
X100963793Y-83838305D01*
X100955160Y-83834817D01*
X100715198Y-83758005D01*
X100706138Y-83755829D01*
X100457460Y-83715329D01*
X100448173Y-83714517D01*
X100196253Y-83711219D01*
X100186942Y-83711789D01*
X99937297Y-83745764D01*
X99928178Y-83747702D01*
X99686298Y-83818204D01*
X99677567Y-83821467D01*
X99448758Y-83926951D01*
X99440606Y-83931470D01*
X99261553Y-84048862D01*
X99252416Y-84059603D01*
X63152632Y-84059603D01*
X65776029Y-81436205D01*
X65838341Y-81402179D01*
X65865124Y-81399300D01*
X98793790Y-81399300D01*
X98861911Y-81419302D01*
X98896048Y-81451685D01*
X98945590Y-81520504D01*
X98945602Y-81520518D01*
X98948333Y-81524312D01*
X98951596Y-81527661D01*
X98951599Y-81527665D01*
X98953329Y-81529440D01*
X98964042Y-81541984D01*
X98965521Y-81543965D01*
X98965527Y-81543972D01*
X98968322Y-81547715D01*
X98971640Y-81551004D01*
X98971646Y-81551011D01*
X99049468Y-81628156D01*
X99051017Y-81629719D01*
X99127447Y-81708178D01*
X99127452Y-81708182D01*
X99130715Y-81711532D01*
X99134438Y-81714363D01*
X99136419Y-81715869D01*
X99148860Y-81726684D01*
X99153943Y-81731723D01*
X99157713Y-81734487D01*
X99157715Y-81734489D01*
X99246078Y-81799280D01*
X99247838Y-81800595D01*
X99326391Y-81860327D01*
X99338767Y-81869738D01*
X99345054Y-81873187D01*
X99358946Y-81882038D01*
X99360948Y-81883506D01*
X99360954Y-81883510D01*
X99364724Y-81886274D01*
X99368861Y-81888450D01*
X99368868Y-81888455D01*
X99465790Y-81939448D01*
X99467703Y-81940475D01*
X99567917Y-81995454D01*
X99574439Y-81997860D01*
X99574642Y-81997935D01*
X99589698Y-82004639D01*
X99591883Y-82005789D01*
X99591893Y-82005794D01*
X99596034Y-82007972D01*
X99703910Y-82045645D01*
X99705918Y-82046366D01*
X99813132Y-82085919D01*
X99817708Y-82086871D01*
X99817716Y-82086873D01*
X99820146Y-82087378D01*
X99836025Y-82091782D01*
X99838363Y-82092599D01*
X99838377Y-82092603D01*
X99842790Y-82094144D01*
X99955026Y-82115452D01*
X99957120Y-82115869D01*
X100069026Y-82139145D01*
X100073686Y-82139410D01*
X100073688Y-82139410D01*
X100076190Y-82139552D01*
X100092524Y-82141558D01*
X100094968Y-82142022D01*
X100094985Y-82142024D01*
X100099574Y-82142895D01*
X100104242Y-82143078D01*
X100104247Y-82143079D01*
X100213750Y-82147381D01*
X100215946Y-82147487D01*
X100325301Y-82153697D01*
X100325307Y-82153697D01*
X100329976Y-82153962D01*
X100337107Y-82153307D01*
X100353587Y-82152876D01*
X100356069Y-82152974D01*
X100356079Y-82152974D01*
X100360743Y-82153157D01*
X100407957Y-82147986D01*
X100474323Y-82140718D01*
X100476511Y-82140498D01*
X100585586Y-82130476D01*
X100585592Y-82130475D01*
X100590250Y-82130047D01*
X100594802Y-82128933D01*
X100594804Y-82128933D01*
X100597217Y-82128343D01*
X100613429Y-82125484D01*
X100615917Y-82125211D01*
X100615922Y-82125210D01*
X100620560Y-82124702D01*
X100625068Y-82123515D01*
X100625074Y-82123514D01*
X100731039Y-82095616D01*
X100733169Y-82095075D01*
X100839586Y-82069035D01*
X100839587Y-82069035D01*
X100844130Y-82067923D01*
X100848459Y-82066152D01*
X100848462Y-82066151D01*
X100850759Y-82065211D01*
X100866383Y-82059983D01*
X100868789Y-82059349D01*
X100873317Y-82058157D01*
X100941806Y-82028732D01*
X100991543Y-82018500D01*
X105639415Y-82018500D01*
X105707536Y-82038502D01*
X105728510Y-82055405D01*
X106153727Y-82480622D01*
X106158635Y-82485816D01*
X106211018Y-82544506D01*
X106214617Y-82547499D01*
X106298838Y-82617545D01*
X106300490Y-82618943D01*
X106387071Y-82693546D01*
X106393124Y-82697365D01*
X106406455Y-82707051D01*
X106408375Y-82708648D01*
X106408383Y-82708654D01*
X106411970Y-82711637D01*
X106415960Y-82714058D01*
X106509679Y-82770929D01*
X106511548Y-82772086D01*
X106558109Y-82801463D01*
X106608119Y-82833017D01*
X106612396Y-82834899D01*
X106612398Y-82834900D01*
X106614673Y-82835901D01*
X106629290Y-82843510D01*
X106635419Y-82847229D01*
X106639733Y-82849038D01*
X106740748Y-82891397D01*
X106742769Y-82892265D01*
X106847355Y-82938284D01*
X106851862Y-82939513D01*
X106851871Y-82939516D01*
X106854271Y-82940170D01*
X106869848Y-82945533D01*
X106876455Y-82948303D01*
X106880983Y-82949453D01*
X106880986Y-82949454D01*
X106987173Y-82976422D01*
X106989291Y-82976980D01*
X107099521Y-83007032D01*
X107104161Y-83007581D01*
X107104166Y-83007582D01*
X107106627Y-83007873D01*
X107122843Y-83010878D01*
X107129783Y-83012641D01*
X107179344Y-83017632D01*
X107243428Y-83024085D01*
X107245613Y-83024324D01*
X107344320Y-83036006D01*
X107359080Y-83037753D01*
X107463606Y-83034559D01*
X107467454Y-83034500D01*
X137476458Y-83034500D01*
X137543694Y-83053938D01*
X137596119Y-83087016D01*
X137600397Y-83088898D01*
X137600404Y-83088902D01*
X137602665Y-83089897D01*
X137617290Y-83097510D01*
X137618440Y-83098207D01*
X137623419Y-83101229D01*
X137627733Y-83103038D01*
X137728796Y-83145417D01*
X137730817Y-83146285D01*
X137835355Y-83192283D01*
X137842261Y-83194166D01*
X137857853Y-83199535D01*
X137860138Y-83200493D01*
X137860142Y-83200494D01*
X137864455Y-83202303D01*
X137868983Y-83203453D01*
X137868986Y-83203454D01*
X137975196Y-83230428D01*
X137977313Y-83230986D01*
X138087521Y-83261032D01*
X138092161Y-83261581D01*
X138092166Y-83261582D01*
X138094627Y-83261873D01*
X138110843Y-83264878D01*
X138117783Y-83266641D01*
X138157676Y-83270658D01*
X138231428Y-83278085D01*
X138233613Y-83278324D01*
X138321310Y-83288703D01*
X138347080Y-83291753D01*
X138451605Y-83288559D01*
X138455453Y-83288500D01*
X146250203Y-83288500D01*
X146257346Y-83288703D01*
X146331200Y-83292897D01*
X146331207Y-83292897D01*
X146335876Y-83293162D01*
X146449603Y-83282712D01*
X146451768Y-83282531D01*
X146565752Y-83274061D01*
X146572724Y-83272483D01*
X146589011Y-83269903D01*
X146596150Y-83269247D01*
X146622317Y-83262844D01*
X146707151Y-83242086D01*
X146709290Y-83241582D01*
X146742202Y-83234134D01*
X146820677Y-83216377D01*
X146825026Y-83214686D01*
X146825035Y-83214683D01*
X146827351Y-83213782D01*
X146843064Y-83208828D01*
X146845475Y-83208238D01*
X146845480Y-83208236D01*
X146850030Y-83207123D01*
X146854369Y-83205348D01*
X146955783Y-83163859D01*
X146957825Y-83163044D01*
X147059919Y-83123342D01*
X147059922Y-83123341D01*
X147064277Y-83121647D01*
X147070501Y-83118090D01*
X147085306Y-83110869D01*
X147091939Y-83108155D01*
X147190175Y-83049712D01*
X147191999Y-83048648D01*
X147287136Y-82994273D01*
X147287140Y-82994271D01*
X147291198Y-82991951D01*
X147296822Y-82987518D01*
X147310391Y-82978191D01*
X147316563Y-82974519D01*
X147320171Y-82971572D01*
X147320177Y-82971567D01*
X147405065Y-82902210D01*
X147406780Y-82900834D01*
X147492790Y-82833029D01*
X147492791Y-82833028D01*
X147496457Y-82830138D01*
X147568115Y-82753962D01*
X147570795Y-82751199D01*
X148269243Y-82052751D01*
X148331555Y-82018725D01*
X148348235Y-82016252D01*
X148356839Y-82015560D01*
X148356842Y-82015559D01*
X148361882Y-82015154D01*
X148366790Y-82013949D01*
X148366793Y-82013948D01*
X148598959Y-81956922D01*
X148603873Y-81955715D01*
X148608525Y-81953740D01*
X148608529Y-81953739D01*
X148828593Y-81860327D01*
X148828594Y-81860327D01*
X148833248Y-81858351D01*
X149029938Y-81734489D01*
X149039825Y-81728263D01*
X149039826Y-81728262D01*
X149044106Y-81725567D01*
X149231022Y-81560778D01*
X149389187Y-81368225D01*
X149514531Y-81152862D01*
X149603831Y-80920228D01*
X149654788Y-80676310D01*
X149666092Y-80427382D01*
X149637451Y-80179850D01*
X149569603Y-79940080D01*
X149567469Y-79935505D01*
X149567467Y-79935498D01*
X149466429Y-79718824D01*
X149464293Y-79714243D01*
X149456627Y-79702962D01*
X149327078Y-79512336D01*
X149327077Y-79512335D01*
X149324231Y-79508147D01*
X149298177Y-79480595D01*
X149156500Y-79330776D01*
X149153020Y-79327096D01*
X149148993Y-79324017D01*
X148959084Y-79178821D01*
X148959080Y-79178818D01*
X148955064Y-79175748D01*
X148930732Y-79162701D01*
X148739918Y-79060388D01*
X148735457Y-79057996D01*
X148730676Y-79056350D01*
X148730672Y-79056348D01*
X148504638Y-78978518D01*
X148499849Y-78976869D01*
X148384645Y-78956970D01*
X148258211Y-78935131D01*
X148258205Y-78935130D01*
X148254301Y-78934456D01*
X148250340Y-78934276D01*
X148250339Y-78934276D01*
X148225860Y-78933164D01*
X148225841Y-78933164D01*
X148224441Y-78933100D01*
X148219431Y-78933100D01*
X148158827Y-78917568D01*
X148088883Y-78879196D01*
X148084782Y-78876946D01*
X147839568Y-78786482D01*
X147583674Y-78733256D01*
X147579004Y-78732991D01*
X147578998Y-78732990D01*
X147327399Y-78718703D01*
X147327393Y-78718703D01*
X147322724Y-78718438D01*
X147151084Y-78734209D01*
X147067106Y-78741925D01*
X147067104Y-78741925D01*
X147062450Y-78742353D01*
X146808569Y-78804477D01*
X146804236Y-78806250D01*
X146804235Y-78806250D01*
X146787499Y-78813097D01*
X146566661Y-78903445D01*
X146562648Y-78905832D01*
X146562639Y-78905837D01*
X146539766Y-78919446D01*
X146485447Y-78936756D01*
X146455468Y-78939168D01*
X146350159Y-78947640D01*
X146350154Y-78947641D01*
X146345118Y-78948046D01*
X146340210Y-78949251D01*
X146340207Y-78949252D01*
X146196102Y-78984648D01*
X146103127Y-79007485D01*
X146098475Y-79009460D01*
X146098471Y-79009461D01*
X145978495Y-79060388D01*
X145873752Y-79104849D01*
X145764963Y-79173357D01*
X145676767Y-79228897D01*
X145662894Y-79237633D01*
X145475978Y-79402422D01*
X145317813Y-79594975D01*
X145305809Y-79615600D01*
X145251518Y-79708881D01*
X145199964Y-79757694D01*
X145142619Y-79771500D01*
X139117544Y-79771500D01*
X139050309Y-79752062D01*
X139001835Y-79721477D01*
X139001827Y-79721473D01*
X138997881Y-79718983D01*
X138991327Y-79716099D01*
X138976710Y-79708490D01*
X138970581Y-79704771D01*
X138865252Y-79660603D01*
X138863231Y-79659735D01*
X138845100Y-79651757D01*
X138758645Y-79613716D01*
X138754138Y-79612487D01*
X138754129Y-79612484D01*
X138751729Y-79611830D01*
X138736152Y-79606467D01*
X138729545Y-79603697D01*
X138725017Y-79602547D01*
X138725014Y-79602546D01*
X138618827Y-79575578D01*
X138616701Y-79575018D01*
X138506479Y-79544968D01*
X138501839Y-79544419D01*
X138501834Y-79544418D01*
X138499373Y-79544127D01*
X138483157Y-79541122D01*
X138476217Y-79539359D01*
X138426656Y-79534368D01*
X138362572Y-79527915D01*
X138360387Y-79527676D01*
X138261680Y-79515994D01*
X138246920Y-79514247D01*
X138142394Y-79517441D01*
X138138546Y-79517500D01*
X108216585Y-79517500D01*
X108148464Y-79497498D01*
X108127490Y-79480595D01*
X107980747Y-79333852D01*
X107946721Y-79271540D01*
X107951786Y-79200725D01*
X107994333Y-79143889D01*
X108060853Y-79119078D01*
X108111904Y-79125985D01*
X108113074Y-79126399D01*
X108117355Y-79128283D01*
X108124261Y-79130166D01*
X108139853Y-79135535D01*
X108142138Y-79136493D01*
X108142142Y-79136494D01*
X108146455Y-79138303D01*
X108150983Y-79139453D01*
X108150986Y-79139454D01*
X108257196Y-79166428D01*
X108259313Y-79166986D01*
X108369521Y-79197032D01*
X108374161Y-79197581D01*
X108374166Y-79197582D01*
X108376627Y-79197873D01*
X108392843Y-79200878D01*
X108399783Y-79202641D01*
X108439676Y-79206658D01*
X108513428Y-79214085D01*
X108515613Y-79214324D01*
X108603310Y-79224703D01*
X108629080Y-79227753D01*
X108733605Y-79224559D01*
X108737453Y-79224500D01*
X138115103Y-79224500D01*
X138122246Y-79224703D01*
X138196100Y-79228897D01*
X138196107Y-79228897D01*
X138200776Y-79229162D01*
X138314503Y-79218712D01*
X138316668Y-79218531D01*
X138430652Y-79210061D01*
X138437624Y-79208483D01*
X138453911Y-79205903D01*
X138461050Y-79205247D01*
X138487217Y-79198844D01*
X138572051Y-79178086D01*
X138574190Y-79177582D01*
X138610272Y-79169417D01*
X138685577Y-79152377D01*
X138689926Y-79150686D01*
X138689935Y-79150683D01*
X138692251Y-79149782D01*
X138707964Y-79144828D01*
X138710375Y-79144238D01*
X138710380Y-79144236D01*
X138714930Y-79143123D01*
X138719269Y-79141348D01*
X138820683Y-79099859D01*
X138822725Y-79099044D01*
X138924819Y-79059342D01*
X138924822Y-79059341D01*
X138929177Y-79057647D01*
X138935401Y-79054090D01*
X138950206Y-79046869D01*
X138956839Y-79044155D01*
X139055075Y-78985712D01*
X139056899Y-78984648D01*
X139152036Y-78930273D01*
X139152040Y-78930271D01*
X139156098Y-78927951D01*
X139161722Y-78923518D01*
X139175291Y-78914191D01*
X139181463Y-78910519D01*
X139190756Y-78902926D01*
X139256162Y-78875316D01*
X139270476Y-78874500D01*
X139770400Y-78874500D01*
X139773646Y-78874163D01*
X139773650Y-78874163D01*
X139869308Y-78864238D01*
X139869312Y-78864237D01*
X139876166Y-78863526D01*
X139882702Y-78861345D01*
X139882704Y-78861345D01*
X140036998Y-78809868D01*
X140043946Y-78807550D01*
X140194348Y-78714478D01*
X140319305Y-78589303D01*
X140327371Y-78576218D01*
X140408275Y-78444968D01*
X140408276Y-78444966D01*
X140412115Y-78438738D01*
X140467797Y-78270861D01*
X140478500Y-78166400D01*
X140478500Y-77696586D01*
X140498502Y-77628465D01*
X140515404Y-77607491D01*
X141147489Y-76975405D01*
X141209802Y-76941380D01*
X141236585Y-76938500D01*
X145634671Y-76938500D01*
X145648579Y-76939974D01*
X145648638Y-76939397D01*
X145753099Y-76950100D01*
X146479768Y-76950100D01*
X146530514Y-76960771D01*
X146760576Y-77062002D01*
X146760586Y-77062005D01*
X146764855Y-77063884D01*
X146769359Y-77065112D01*
X146769362Y-77065113D01*
X146924320Y-77107359D01*
X147017021Y-77132632D01*
X147021653Y-77133180D01*
X147021657Y-77133181D01*
X147146800Y-77147992D01*
X147276580Y-77163353D01*
X147482470Y-77157062D01*
X147533151Y-77155514D01*
X147533152Y-77155514D01*
X147537829Y-77155371D01*
X147663578Y-77132632D01*
X147790430Y-77109694D01*
X147790437Y-77109692D01*
X147795028Y-77108862D01*
X148010692Y-77035654D01*
X148038098Y-77026351D01*
X148038101Y-77026350D01*
X148042528Y-77024847D01*
X148130867Y-76979349D01*
X148160508Y-76964083D01*
X148218200Y-76950099D01*
X148953900Y-76950099D01*
X149059667Y-76939126D01*
X149094453Y-76927520D01*
X149220502Y-76885467D01*
X149220504Y-76885466D01*
X149227446Y-76883150D01*
X149377849Y-76790079D01*
X149502806Y-76664903D01*
X149549211Y-76589621D01*
X149591775Y-76520569D01*
X149591776Y-76520567D01*
X149595615Y-76514339D01*
X149642931Y-76371685D01*
X149649132Y-76352990D01*
X149649132Y-76352988D01*
X149651297Y-76346462D01*
X149662000Y-76242001D01*
X149661999Y-74561200D01*
X149651026Y-74455433D01*
X149623819Y-74373884D01*
X149597367Y-74294598D01*
X149597366Y-74294596D01*
X149595050Y-74287654D01*
X149501979Y-74137251D01*
X149376803Y-74012294D01*
X149226239Y-73919485D01*
X149146496Y-73893036D01*
X149064890Y-73865968D01*
X149064888Y-73865968D01*
X149058362Y-73863803D01*
X149051526Y-73863103D01*
X149051523Y-73863102D01*
X149008470Y-73858691D01*
X148953901Y-73853100D01*
X148332825Y-73853100D01*
X148264704Y-73833098D01*
X148250577Y-73822553D01*
X148234237Y-73808473D01*
X148180829Y-73762454D01*
X148174774Y-73758634D01*
X148161445Y-73748949D01*
X148159525Y-73747352D01*
X148159517Y-73747346D01*
X148155930Y-73744363D01*
X148119870Y-73722481D01*
X148058221Y-73685071D01*
X148056352Y-73683914D01*
X148009791Y-73654537D01*
X147959781Y-73622983D01*
X147953227Y-73620099D01*
X147938610Y-73612490D01*
X147932481Y-73608771D01*
X147827152Y-73564603D01*
X147825131Y-73563735D01*
X147785175Y-73546154D01*
X147720545Y-73517716D01*
X147716038Y-73516487D01*
X147716029Y-73516484D01*
X147713629Y-73515830D01*
X147698052Y-73510467D01*
X147691445Y-73507697D01*
X147686917Y-73506547D01*
X147686914Y-73506546D01*
X147580727Y-73479578D01*
X147578601Y-73479018D01*
X147538844Y-73468179D01*
X147468379Y-73448968D01*
X147463739Y-73448419D01*
X147463734Y-73448418D01*
X147461273Y-73448127D01*
X147445057Y-73445122D01*
X147438117Y-73443359D01*
X147388556Y-73438368D01*
X147324472Y-73431915D01*
X147322287Y-73431676D01*
X147223580Y-73419994D01*
X147208820Y-73418247D01*
X147104294Y-73421441D01*
X147100446Y-73421500D01*
X140510897Y-73421500D01*
X140503754Y-73421297D01*
X140429900Y-73417103D01*
X140429893Y-73417103D01*
X140425224Y-73416838D01*
X140311497Y-73427288D01*
X140309332Y-73427469D01*
X140195348Y-73435939D01*
X140188376Y-73437517D01*
X140172089Y-73440097D01*
X140164950Y-73440753D01*
X140160416Y-73441863D01*
X140160407Y-73441864D01*
X140053930Y-73467919D01*
X140051790Y-73468423D01*
X140004968Y-73479018D01*
X139940423Y-73493623D01*
X139933750Y-73496218D01*
X139918045Y-73501169D01*
X139915614Y-73501764D01*
X139915604Y-73501767D01*
X139911069Y-73502877D01*
X139805243Y-73546172D01*
X139803252Y-73546966D01*
X139696823Y-73588353D01*
X139690774Y-73591810D01*
X139690599Y-73591910D01*
X139675794Y-73599131D01*
X139669161Y-73601845D01*
X139570925Y-73660288D01*
X139569101Y-73661352D01*
X139473964Y-73715727D01*
X139473960Y-73715729D01*
X139469902Y-73718049D01*
X139464280Y-73722481D01*
X139450709Y-73731809D01*
X139444537Y-73735481D01*
X139440929Y-73738428D01*
X139440923Y-73738433D01*
X139356035Y-73807790D01*
X139354320Y-73809166D01*
X139285014Y-73863803D01*
X139264643Y-73879862D01*
X139261443Y-73883264D01*
X139192971Y-73956052D01*
X139190291Y-73958814D01*
X137478510Y-75670595D01*
X137416198Y-75704621D01*
X137389415Y-75707500D01*
X109486585Y-75707500D01*
X109418464Y-75687498D01*
X109397490Y-75670595D01*
X107702273Y-73975378D01*
X107697365Y-73970184D01*
X107648099Y-73914986D01*
X107648097Y-73914984D01*
X107644982Y-73911494D01*
X107557134Y-73838432D01*
X107555483Y-73837034D01*
X107550916Y-73833098D01*
X107468929Y-73762454D01*
X107462874Y-73758634D01*
X107449545Y-73748949D01*
X107447625Y-73747352D01*
X107447617Y-73747346D01*
X107444030Y-73744363D01*
X107407970Y-73722481D01*
X107346321Y-73685071D01*
X107344452Y-73683914D01*
X107297891Y-73654537D01*
X107247881Y-73622983D01*
X107241327Y-73620099D01*
X107226710Y-73612490D01*
X107220581Y-73608771D01*
X107115252Y-73564603D01*
X107113231Y-73563735D01*
X107073275Y-73546154D01*
X107008645Y-73517716D01*
X107004138Y-73516487D01*
X107004129Y-73516484D01*
X107001729Y-73515830D01*
X106986152Y-73510467D01*
X106979545Y-73507697D01*
X106975017Y-73506547D01*
X106975014Y-73506546D01*
X106868827Y-73479578D01*
X106866701Y-73479018D01*
X106826944Y-73468179D01*
X106756479Y-73448968D01*
X106751839Y-73448419D01*
X106751834Y-73448418D01*
X106749373Y-73448127D01*
X106733157Y-73445122D01*
X106726217Y-73443359D01*
X106676656Y-73438368D01*
X106612572Y-73431915D01*
X106610387Y-73431676D01*
X106511680Y-73419994D01*
X106496920Y-73418247D01*
X106392394Y-73421441D01*
X106388546Y-73421500D01*
X100484897Y-73421500D01*
X100477754Y-73421297D01*
X100403900Y-73417103D01*
X100403893Y-73417103D01*
X100399224Y-73416838D01*
X100285497Y-73427288D01*
X100283332Y-73427469D01*
X100169348Y-73435939D01*
X100162376Y-73437517D01*
X100146089Y-73440097D01*
X100138950Y-73440753D01*
X100134416Y-73441863D01*
X100134407Y-73441864D01*
X100027930Y-73467919D01*
X100025790Y-73468423D01*
X99978968Y-73479018D01*
X99914423Y-73493623D01*
X99907750Y-73496218D01*
X99892045Y-73501169D01*
X99889614Y-73501764D01*
X99889604Y-73501767D01*
X99885069Y-73502877D01*
X99779243Y-73546172D01*
X99777252Y-73546966D01*
X99670823Y-73588353D01*
X99664774Y-73591810D01*
X99664599Y-73591910D01*
X99649794Y-73599131D01*
X99643161Y-73601845D01*
X99544925Y-73660288D01*
X99543101Y-73661352D01*
X99447964Y-73715727D01*
X99447960Y-73715729D01*
X99443902Y-73718049D01*
X99438280Y-73722481D01*
X99424709Y-73731809D01*
X99418537Y-73735481D01*
X99414929Y-73738428D01*
X99414923Y-73738433D01*
X99330035Y-73807790D01*
X99328320Y-73809166D01*
X99259014Y-73863803D01*
X99238643Y-73879862D01*
X99235443Y-73883264D01*
X99166971Y-73956052D01*
X99164291Y-73958814D01*
X99094578Y-74028527D01*
X99089384Y-74033435D01*
X99030694Y-74085818D01*
X98982741Y-74143476D01*
X98957655Y-74173638D01*
X98956234Y-74175317D01*
X98884517Y-74258548D01*
X98824897Y-74297097D01*
X98789064Y-74302300D01*
X63552040Y-74302300D01*
X63538432Y-74301563D01*
X63506936Y-74298141D01*
X63506932Y-74298141D01*
X63500811Y-74297476D01*
X63482811Y-74299051D01*
X63450809Y-74301850D01*
X63445984Y-74302179D01*
X63443513Y-74302300D01*
X63440431Y-74302300D01*
X63417963Y-74304503D01*
X63397689Y-74306491D01*
X63396374Y-74306613D01*
X63364113Y-74309436D01*
X63303787Y-74314713D01*
X63298668Y-74316200D01*
X63293367Y-74316720D01*
X63204394Y-74343582D01*
X63203254Y-74343920D01*
X63113863Y-74369891D01*
X63109129Y-74372345D01*
X63104031Y-74373884D01*
X63098587Y-74376778D01*
X63098586Y-74376779D01*
X63022031Y-74417484D01*
X63020863Y-74418098D01*
X62938274Y-74460908D01*
X62934111Y-74464231D01*
X62929404Y-74466734D01*
X62857282Y-74525555D01*
X62856426Y-74526246D01*
X62817227Y-74557538D01*
X62814723Y-74560042D01*
X62814005Y-74560684D01*
X62809672Y-74564385D01*
X62776138Y-74591735D01*
X62772211Y-74596482D01*
X62772209Y-74596484D01*
X62746913Y-74627062D01*
X62738923Y-74635842D01*
X56220621Y-81154145D01*
X56210478Y-81163247D01*
X56180975Y-81186968D01*
X56177008Y-81191696D01*
X56148709Y-81225421D01*
X56145528Y-81229069D01*
X56143885Y-81230881D01*
X56141691Y-81233075D01*
X56114358Y-81266349D01*
X56113696Y-81267147D01*
X56053846Y-81338474D01*
X56051278Y-81343144D01*
X56047897Y-81347261D01*
X56034560Y-81372135D01*
X56003981Y-81429165D01*
X56003351Y-81430324D01*
X55961535Y-81506387D01*
X55961533Y-81506392D01*
X55958567Y-81511787D01*
X55956955Y-81516869D01*
X55954438Y-81521563D01*
X55927238Y-81610531D01*
X55926918Y-81611559D01*
X55898765Y-81700306D01*
X55898171Y-81705602D01*
X55896613Y-81710698D01*
X55894197Y-81734489D01*
X55887218Y-81803187D01*
X55887089Y-81804393D01*
X55881500Y-81854227D01*
X55881500Y-81857754D01*
X55881445Y-81858739D01*
X55880998Y-81864419D01*
X55876626Y-81907462D01*
X25628500Y-81907462D01*
X25628500Y-69680800D01*
X40445740Y-69680800D01*
X40465559Y-69995820D01*
X40524705Y-70305872D01*
X40622244Y-70606066D01*
X40623931Y-70609652D01*
X40623933Y-70609656D01*
X40754950Y-70888083D01*
X40754954Y-70888090D01*
X40756638Y-70891669D01*
X40925768Y-71158175D01*
X41126967Y-71401382D01*
X41357060Y-71617454D01*
X41612421Y-71802984D01*
X41615890Y-71804891D01*
X41615893Y-71804893D01*
X41761412Y-71884893D01*
X41889021Y-71955047D01*
X41892690Y-71956500D01*
X41892695Y-71956502D01*
X42094752Y-72036502D01*
X42182498Y-72071243D01*
X42488225Y-72149740D01*
X42801379Y-72189300D01*
X43117021Y-72189300D01*
X43430175Y-72149740D01*
X43735902Y-72071243D01*
X43823648Y-72036502D01*
X44025705Y-71956502D01*
X44025710Y-71956500D01*
X44029379Y-71955047D01*
X44156988Y-71884893D01*
X44302507Y-71804893D01*
X44302510Y-71804891D01*
X44305979Y-71802984D01*
X44561340Y-71617454D01*
X44791433Y-71401382D01*
X44992632Y-71158175D01*
X45161762Y-70891669D01*
X45163446Y-70888090D01*
X45163450Y-70888083D01*
X45294467Y-70609656D01*
X45294469Y-70609652D01*
X45296156Y-70606066D01*
X45393695Y-70305872D01*
X45452841Y-69995820D01*
X45467627Y-69760800D01*
X98805740Y-69760800D01*
X98825559Y-70075820D01*
X98884705Y-70385872D01*
X98982244Y-70686066D01*
X98983931Y-70689652D01*
X98983933Y-70689656D01*
X99114950Y-70968083D01*
X99114954Y-70968090D01*
X99116638Y-70971669D01*
X99285768Y-71238175D01*
X99486967Y-71481382D01*
X99717060Y-71697454D01*
X99972421Y-71882984D01*
X99975890Y-71884891D01*
X99975893Y-71884893D01*
X100103502Y-71955047D01*
X100249021Y-72035047D01*
X100252690Y-72036500D01*
X100252695Y-72036502D01*
X100340441Y-72071243D01*
X100542498Y-72151243D01*
X100848225Y-72229740D01*
X101161379Y-72269300D01*
X101477021Y-72269300D01*
X101790175Y-72229740D01*
X102095902Y-72151243D01*
X102297959Y-72071243D01*
X102385705Y-72036502D01*
X102385710Y-72036500D01*
X102389379Y-72035047D01*
X102534898Y-71955047D01*
X102662507Y-71884893D01*
X102662510Y-71884891D01*
X102665979Y-71882984D01*
X102921340Y-71697454D01*
X103151433Y-71481382D01*
X103352632Y-71238175D01*
X103521762Y-70971669D01*
X103523446Y-70968090D01*
X103523450Y-70968083D01*
X103654467Y-70689656D01*
X103654469Y-70689652D01*
X103656156Y-70686066D01*
X103753695Y-70385872D01*
X103812841Y-70075820D01*
X103832660Y-69760800D01*
X103812841Y-69445780D01*
X103753695Y-69135728D01*
X103656156Y-68835534D01*
X103654467Y-68831944D01*
X103523450Y-68553517D01*
X103523446Y-68553510D01*
X103521762Y-68549931D01*
X103352632Y-68283425D01*
X103151433Y-68040218D01*
X102921340Y-67824146D01*
X102665979Y-67638616D01*
X102520461Y-67558616D01*
X102392848Y-67488460D01*
X102392847Y-67488459D01*
X102389379Y-67486553D01*
X102385710Y-67485100D01*
X102385705Y-67485098D01*
X102099572Y-67371810D01*
X102099571Y-67371810D01*
X102095902Y-67370357D01*
X101790175Y-67291860D01*
X101477021Y-67252300D01*
X101161379Y-67252300D01*
X100848225Y-67291860D01*
X100542498Y-67370357D01*
X100538829Y-67371810D01*
X100538828Y-67371810D01*
X100252695Y-67485098D01*
X100252690Y-67485100D01*
X100249021Y-67486553D01*
X100245553Y-67488459D01*
X100245552Y-67488460D01*
X100117940Y-67558616D01*
X99972421Y-67638616D01*
X99717060Y-67824146D01*
X99486967Y-68040218D01*
X99285768Y-68283425D01*
X99116638Y-68549931D01*
X99114954Y-68553510D01*
X99114950Y-68553517D01*
X98983933Y-68831944D01*
X98982244Y-68835534D01*
X98884705Y-69135728D01*
X98825559Y-69445780D01*
X98805740Y-69760800D01*
X45467627Y-69760800D01*
X45472660Y-69680800D01*
X45452841Y-69365780D01*
X45393695Y-69055728D01*
X45296156Y-68755534D01*
X45294467Y-68751944D01*
X45163450Y-68473517D01*
X45163446Y-68473510D01*
X45161762Y-68469931D01*
X44992632Y-68203425D01*
X44791433Y-67960218D01*
X44561340Y-67744146D01*
X44305979Y-67558616D01*
X44178367Y-67488460D01*
X44032848Y-67408460D01*
X44032847Y-67408459D01*
X44029379Y-67406553D01*
X44025710Y-67405100D01*
X44025705Y-67405098D01*
X43739572Y-67291810D01*
X43739571Y-67291810D01*
X43735902Y-67290357D01*
X43430175Y-67211860D01*
X43117021Y-67172300D01*
X42801379Y-67172300D01*
X42488225Y-67211860D01*
X42182498Y-67290357D01*
X42178829Y-67291810D01*
X42178828Y-67291810D01*
X41892695Y-67405098D01*
X41892690Y-67405100D01*
X41889021Y-67406553D01*
X41885553Y-67408459D01*
X41885552Y-67408460D01*
X41740034Y-67488460D01*
X41612421Y-67558616D01*
X41357060Y-67744146D01*
X41126967Y-67960218D01*
X40925768Y-68203425D01*
X40756638Y-68469931D01*
X40754954Y-68473510D01*
X40754950Y-68473517D01*
X40623933Y-68751944D01*
X40622244Y-68755534D01*
X40524705Y-69055728D01*
X40465559Y-69365780D01*
X40445740Y-69680800D01*
X25628500Y-69680800D01*
X25628500Y-59894449D01*
X28325488Y-59894449D01*
X28325583Y-59898078D01*
X28325583Y-59898080D01*
X28326329Y-59926551D01*
X28326329Y-59926553D01*
X28332995Y-60181112D01*
X28334570Y-60241279D01*
X28383456Y-60584768D01*
X28471497Y-60920361D01*
X28597527Y-61243611D01*
X28599224Y-61246816D01*
X28732713Y-61498933D01*
X28759875Y-61550234D01*
X28761925Y-61553217D01*
X28761927Y-61553220D01*
X28954333Y-61833172D01*
X28954339Y-61833179D01*
X28956390Y-61836164D01*
X29093859Y-61993748D01*
X29177280Y-62089375D01*
X29184466Y-62097613D01*
X29187151Y-62100056D01*
X29396868Y-62290883D01*
X29441081Y-62331114D01*
X29722833Y-62533574D01*
X30025988Y-62702308D01*
X30346528Y-62835080D01*
X30350022Y-62836075D01*
X30350024Y-62836076D01*
X30676703Y-62929133D01*
X30676708Y-62929134D01*
X30680204Y-62930130D01*
X30876904Y-62962341D01*
X31019012Y-62985612D01*
X31019019Y-62985613D01*
X31022593Y-62986198D01*
X31195875Y-62994370D01*
X31365531Y-63002371D01*
X31365532Y-63002371D01*
X31369158Y-63002542D01*
X31378015Y-63001938D01*
X31711673Y-62979192D01*
X31711681Y-62979191D01*
X31715304Y-62978944D01*
X31718879Y-62978281D01*
X31718882Y-62978281D01*
X32052879Y-62916378D01*
X32052883Y-62916377D01*
X32056444Y-62915717D01*
X32388056Y-62813700D01*
X32705745Y-62674244D01*
X32950111Y-62531449D01*
X33002160Y-62501034D01*
X33002162Y-62501033D01*
X33005300Y-62499199D01*
X33038604Y-62474194D01*
X33279844Y-62293066D01*
X33279848Y-62293063D01*
X33282751Y-62290883D01*
X33534419Y-62052058D01*
X33756970Y-61785891D01*
X33767237Y-61770262D01*
X33853295Y-61639250D01*
X33947453Y-61495907D01*
X34048801Y-61294399D01*
X34101717Y-61189188D01*
X34101720Y-61189180D01*
X34103344Y-61185952D01*
X34107897Y-61173510D01*
X34221329Y-60863545D01*
X34221330Y-60863541D01*
X34222577Y-60860134D01*
X34223422Y-60856612D01*
X34223425Y-60856604D01*
X34302724Y-60526299D01*
X34302725Y-60526295D01*
X34303571Y-60522770D01*
X34304008Y-60519160D01*
X34344916Y-60181112D01*
X34344916Y-60181105D01*
X34345252Y-60178333D01*
X34351199Y-59989108D01*
X34346790Y-59912647D01*
X34334122Y-59692941D01*
X150954996Y-59692941D01*
X150955091Y-59696570D01*
X150955091Y-59696572D01*
X150955837Y-59725043D01*
X150955837Y-59725045D01*
X150962503Y-59979604D01*
X150964078Y-60039771D01*
X151012964Y-60383260D01*
X151101005Y-60718853D01*
X151227035Y-61042103D01*
X151228732Y-61045308D01*
X151362221Y-61297425D01*
X151389383Y-61348726D01*
X151391433Y-61351709D01*
X151391435Y-61351712D01*
X151583841Y-61631664D01*
X151583847Y-61631671D01*
X151585898Y-61634656D01*
X151813974Y-61896105D01*
X151816659Y-61898548D01*
X152026376Y-62089375D01*
X152070589Y-62129606D01*
X152352341Y-62332066D01*
X152655496Y-62500800D01*
X152976036Y-62633572D01*
X152979530Y-62634567D01*
X152979532Y-62634568D01*
X153306211Y-62727625D01*
X153306216Y-62727626D01*
X153309712Y-62728622D01*
X153506412Y-62760833D01*
X153648520Y-62784104D01*
X153648527Y-62784105D01*
X153652101Y-62784690D01*
X153825383Y-62792862D01*
X153995039Y-62800863D01*
X153995040Y-62800863D01*
X153998666Y-62801034D01*
X154007523Y-62800430D01*
X154341181Y-62777684D01*
X154341189Y-62777683D01*
X154344812Y-62777436D01*
X154348387Y-62776773D01*
X154348390Y-62776773D01*
X154682387Y-62714870D01*
X154682391Y-62714869D01*
X154685952Y-62714209D01*
X155017564Y-62612192D01*
X155335253Y-62472736D01*
X155573982Y-62333235D01*
X155631668Y-62299526D01*
X155631670Y-62299525D01*
X155634808Y-62297691D01*
X155640968Y-62293066D01*
X155909352Y-62091558D01*
X155909356Y-62091555D01*
X155912259Y-62089375D01*
X156163927Y-61850550D01*
X156386478Y-61584383D01*
X156576961Y-61294399D01*
X156723588Y-61002864D01*
X156731225Y-60987680D01*
X156731228Y-60987672D01*
X156732852Y-60984444D01*
X156734097Y-60981042D01*
X156850837Y-60662037D01*
X156850838Y-60662033D01*
X156852085Y-60658626D01*
X156852930Y-60655104D01*
X156852933Y-60655096D01*
X156932232Y-60324791D01*
X156932233Y-60324787D01*
X156933079Y-60321262D01*
X156933516Y-60317652D01*
X156974424Y-59979604D01*
X156974424Y-59979597D01*
X156974760Y-59976825D01*
X156980707Y-59787600D01*
X156976146Y-59708503D01*
X156960944Y-59444846D01*
X156960943Y-59444841D01*
X156960735Y-59441226D01*
X156943734Y-59343814D01*
X156901708Y-59103015D01*
X156901706Y-59103008D01*
X156901084Y-59099442D01*
X156802545Y-58766780D01*
X156801121Y-58763441D01*
X156667848Y-58450986D01*
X156667846Y-58450983D01*
X156666424Y-58447648D01*
X156616677Y-58360431D01*
X156496316Y-58149416D01*
X156494525Y-58146276D01*
X156435199Y-58065513D01*
X156382374Y-57993601D01*
X156289126Y-57866660D01*
X156052950Y-57612504D01*
X155789127Y-57387178D01*
X155501155Y-57193669D01*
X155192849Y-57034540D01*
X154868297Y-56911902D01*
X154864776Y-56911018D01*
X154864771Y-56911016D01*
X154703486Y-56870504D01*
X154531800Y-56827380D01*
X154509584Y-56824455D01*
X154191423Y-56782568D01*
X154191415Y-56782567D01*
X154187819Y-56782094D01*
X154043153Y-56779821D01*
X153844554Y-56776701D01*
X153844550Y-56776701D01*
X153840912Y-56776644D01*
X153837298Y-56777005D01*
X153837292Y-56777005D01*
X153593951Y-56801294D01*
X153495677Y-56811103D01*
X153156691Y-56885014D01*
X153153264Y-56886187D01*
X153153258Y-56886189D01*
X152868905Y-56983545D01*
X152828447Y-56997397D01*
X152515296Y-57146763D01*
X152221387Y-57331132D01*
X152218551Y-57333404D01*
X152218544Y-57333409D01*
X152138925Y-57397196D01*
X151950617Y-57548059D01*
X151706574Y-57794671D01*
X151704333Y-57797529D01*
X151547259Y-57997854D01*
X151492494Y-58067698D01*
X151490601Y-58070787D01*
X151490599Y-58070790D01*
X151444341Y-58146276D01*
X151311213Y-58363521D01*
X151309688Y-58366806D01*
X151309686Y-58366810D01*
X151270613Y-58450986D01*
X151165135Y-58678220D01*
X151134694Y-58770266D01*
X151101803Y-58869719D01*
X151056195Y-59007623D01*
X150985838Y-59347364D01*
X150954996Y-59692941D01*
X34334122Y-59692941D01*
X34331436Y-59646354D01*
X34331435Y-59646349D01*
X34331227Y-59642734D01*
X34271576Y-59300950D01*
X34173037Y-58968288D01*
X34171613Y-58964949D01*
X34038340Y-58652494D01*
X34038338Y-58652491D01*
X34036916Y-58649156D01*
X33987169Y-58561939D01*
X33866808Y-58350924D01*
X33865017Y-58347784D01*
X33659618Y-58068168D01*
X33656527Y-58064841D01*
X33469898Y-57864005D01*
X33423442Y-57814012D01*
X33159619Y-57588686D01*
X32871647Y-57395177D01*
X32852240Y-57385160D01*
X32566561Y-57237710D01*
X32563341Y-57236048D01*
X32238789Y-57113410D01*
X32235268Y-57112526D01*
X32235263Y-57112524D01*
X32073978Y-57072012D01*
X31902292Y-57028888D01*
X31880076Y-57025963D01*
X31561915Y-56984076D01*
X31561907Y-56984075D01*
X31558311Y-56983602D01*
X31413645Y-56981329D01*
X31215046Y-56978209D01*
X31215042Y-56978209D01*
X31211404Y-56978152D01*
X31207790Y-56978513D01*
X31207784Y-56978513D01*
X30964443Y-57002802D01*
X30866169Y-57012611D01*
X30527183Y-57086522D01*
X30523756Y-57087695D01*
X30523750Y-57087697D01*
X30351233Y-57146763D01*
X30198939Y-57198905D01*
X29885788Y-57348271D01*
X29591879Y-57532640D01*
X29589043Y-57534912D01*
X29589036Y-57534917D01*
X29492192Y-57612504D01*
X29321109Y-57749567D01*
X29077066Y-57996179D01*
X29074825Y-57999037D01*
X28875597Y-58253123D01*
X28862986Y-58269206D01*
X28861093Y-58272295D01*
X28861091Y-58272298D01*
X28814833Y-58347784D01*
X28681705Y-58565029D01*
X28680180Y-58568314D01*
X28680178Y-58568318D01*
X28589605Y-58763441D01*
X28535627Y-58879728D01*
X28426687Y-59209131D01*
X28425951Y-59212686D01*
X28425950Y-59212689D01*
X28378622Y-59441226D01*
X28356330Y-59548872D01*
X28325488Y-59894449D01*
X25628500Y-59894449D01*
X25628500Y-51664547D01*
X25648502Y-51596426D01*
X25702158Y-51549933D01*
X25754507Y-51538547D01*
X92953179Y-51543522D01*
G37*
%TD.AperFunction*%
%TD*%
M02*
