%TF.GenerationSoftware,KiCad,Pcbnew,6.0.11+dfsg-1~bpo11+1*%
%TF.CreationDate,2023-03-23T17:04:10+00:00*%
%TF.ProjectId,CoverUI,436f7665-7255-4492-9e6b-696361645f70,rev?*%
%TF.SameCoordinates,Original*%
%TF.FileFunction,Soldermask,Top*%
%TF.FilePolarity,Negative*%
%FSLAX46Y46*%
G04 Gerber Fmt 4.6, Leading zero omitted, Abs format (unit mm)*
G04 Created by KiCad (PCBNEW 6.0.11+dfsg-1~bpo11+1) date 2023-03-23 17:04:10*
%MOMM*%
%LPD*%
G01*
G04 APERTURE LIST*
G04 Aperture macros list*
%AMRoundRect*
0 Rectangle with rounded corners*
0 $1 Rounding radius*
0 $2 $3 $4 $5 $6 $7 $8 $9 X,Y pos of 4 corners*
0 Add a 4 corners polygon primitive as box body*
4,1,4,$2,$3,$4,$5,$6,$7,$8,$9,$2,$3,0*
0 Add four circle primitives for the rounded corners*
1,1,$1+$1,$2,$3*
1,1,$1+$1,$4,$5*
1,1,$1+$1,$6,$7*
1,1,$1+$1,$8,$9*
0 Add four rect primitives between the rounded corners*
20,1,$1+$1,$2,$3,$4,$5,0*
20,1,$1+$1,$4,$5,$6,$7,0*
20,1,$1+$1,$6,$7,$8,$9,0*
20,1,$1+$1,$8,$9,$2,$3,0*%
%AMRotRect*
0 Rectangle, with rotation*
0 The origin of the aperture is its center*
0 $1 length*
0 $2 width*
0 $3 Rotation angle, in degrees counterclockwise*
0 Add horizontal line*
21,1,$1,$2,0,0,$3*%
G04 Aperture macros list end*
%ADD10C,1.000000*%
%ADD11C,7.000000*%
%ADD12C,6.500000*%
%ADD13RoundRect,0.250000X0.350000X0.450000X-0.350000X0.450000X-0.350000X-0.450000X0.350000X-0.450000X0*%
%ADD14O,0.600000X1.800000*%
%ADD15R,0.400000X1.700000*%
%ADD16RoundRect,0.250000X0.450000X-0.350000X0.450000X0.350000X-0.450000X0.350000X-0.450000X-0.350000X0*%
%ADD17C,1.520000*%
%ADD18RotRect,1.400000X0.900000X45.000000*%
%ADD19RoundRect,0.250000X-0.350000X-0.450000X0.350000X-0.450000X0.350000X0.450000X-0.350000X0.450000X0*%
%ADD20RoundRect,0.250000X-0.450000X0.350000X-0.450000X-0.350000X0.450000X-0.350000X0.450000X0.350000X0*%
%ADD21RoundRect,0.250000X0.475000X-0.337500X0.475000X0.337500X-0.475000X0.337500X-0.475000X-0.337500X0*%
%ADD22RoundRect,0.150000X-0.150000X0.587500X-0.150000X-0.587500X0.150000X-0.587500X0.150000X0.587500X0*%
%ADD23RoundRect,0.250000X-0.337500X-0.475000X0.337500X-0.475000X0.337500X0.475000X-0.337500X0.475000X0*%
%ADD24RoundRect,0.250000X0.600000X0.725000X-0.600000X0.725000X-0.600000X-0.725000X0.600000X-0.725000X0*%
%ADD25O,1.700000X1.950000*%
%ADD26R,2.000000X2.000000*%
%ADD27C,2.000000*%
%ADD28O,1.800000X1.800000*%
%ADD29O,1.500000X1.500000*%
%ADD30O,1.700000X1.700000*%
%ADD31R,1.700000X1.700000*%
G04 APERTURE END LIST*
D10*
%TO.C,H1001*%
X70973155Y-66833155D03*
X70973155Y-63120845D03*
X67260845Y-66833155D03*
X66492000Y-64977000D03*
X67260845Y-63120845D03*
X69117000Y-67602000D03*
D11*
X69117000Y-64977000D03*
D10*
X69117000Y-62352000D03*
X71742000Y-64977000D03*
%TD*%
%TO.C,H1006*%
X129302000Y-64287000D03*
X133783155Y-66143155D03*
X130070845Y-66143155D03*
X134552000Y-64287000D03*
D11*
X131927000Y-64287000D03*
D10*
X131927000Y-66912000D03*
X133783155Y-62430845D03*
X131927000Y-61662000D03*
X130070845Y-62430845D03*
%TD*%
%TO.C,H1002*%
X194877000Y-61952000D03*
X192252000Y-64577000D03*
X193020845Y-62720845D03*
X197502000Y-64577000D03*
X193020845Y-66433155D03*
D11*
X194877000Y-64577000D03*
D10*
X194877000Y-67202000D03*
X196733155Y-66433155D03*
X196733155Y-62720845D03*
%TD*%
%TO.C,H1003*%
X69287000Y-106762000D03*
X71143155Y-105993155D03*
X71143155Y-102280845D03*
X67430845Y-105993155D03*
X69287000Y-101512000D03*
X67430845Y-102280845D03*
X71912000Y-104137000D03*
X66662000Y-104137000D03*
D11*
X69287000Y-104137000D03*
%TD*%
D10*
%TO.C,H1004*%
X129883155Y-106343155D03*
X130652000Y-104487000D03*
X129883155Y-102630845D03*
X126170845Y-106343155D03*
X126170845Y-102630845D03*
D12*
X128027000Y-104487000D03*
D10*
X128027000Y-101862000D03*
X125402000Y-104487000D03*
X128027000Y-107112000D03*
%TD*%
D11*
%TO.C,H1005*%
X194937000Y-103507000D03*
D10*
X194937000Y-106132000D03*
X193080845Y-101650845D03*
X194937000Y-100882000D03*
X192312000Y-103507000D03*
X196793155Y-101650845D03*
X193080845Y-105363155D03*
X197562000Y-103507000D03*
X196793155Y-105363155D03*
%TD*%
D13*
%TO.C,R21*%
X84734400Y-114147600D03*
X82734400Y-114147600D03*
%TD*%
%TO.C,R15*%
X151231600Y-72796400D03*
X149231600Y-72796400D03*
%TD*%
D14*
%TO.C,U3*%
X133268800Y-128903200D03*
X134538800Y-128903200D03*
X135808800Y-128903200D03*
X137078800Y-128903200D03*
X138348800Y-128903200D03*
X139628800Y-128903200D03*
X140888800Y-128903200D03*
X142158800Y-128903200D03*
X142158800Y-122963200D03*
X140888800Y-122963200D03*
X139628800Y-122963200D03*
X138348800Y-122963200D03*
X137078800Y-122963200D03*
X135808800Y-122963200D03*
X134538800Y-122963200D03*
X133268800Y-122963200D03*
%TD*%
D15*
%TO.C,U5*%
X100801200Y-126635600D03*
X100151200Y-126635600D03*
X99501200Y-126635600D03*
X98851200Y-126635600D03*
X98201200Y-126635600D03*
X97551200Y-126635600D03*
X96901200Y-126635600D03*
X96901200Y-132235600D03*
X97551200Y-132235600D03*
X98201200Y-132235600D03*
X98851200Y-132235600D03*
X99501200Y-132235600D03*
X100151200Y-132235600D03*
X100801200Y-132235600D03*
%TD*%
D16*
%TO.C,R6*%
X105252000Y-127152400D03*
X105252000Y-125152400D03*
%TD*%
D17*
%TO.C,D1013*%
X159752000Y-93887000D03*
X162292000Y-93887000D03*
%TD*%
%TO.C,D1016*%
X93272000Y-108777000D03*
X95812000Y-108777000D03*
%TD*%
D14*
%TO.C,U2*%
X177820400Y-71600800D03*
X179090400Y-71600800D03*
X180360400Y-71600800D03*
X181630400Y-71600800D03*
X182900400Y-71600800D03*
X184180400Y-71600800D03*
X185440400Y-71600800D03*
X186710400Y-71600800D03*
X186710400Y-65660800D03*
X185440400Y-65660800D03*
X184180400Y-65660800D03*
X182900400Y-65660800D03*
X181630400Y-65660800D03*
X180360400Y-65660800D03*
X179090400Y-65660800D03*
X177820400Y-65660800D03*
%TD*%
D13*
%TO.C,R8*%
X112252000Y-127152400D03*
X110252000Y-127152400D03*
%TD*%
D16*
%TO.C,R3*%
X174056800Y-73796400D03*
X174056800Y-71796400D03*
%TD*%
D18*
%TO.C,SW12*%
X129532177Y-98330503D03*
X134340503Y-93522177D03*
X131653497Y-100451823D03*
X136461823Y-95643497D03*
%TD*%
D19*
%TO.C,R14*%
X130406400Y-72796400D03*
X132406400Y-72796400D03*
%TD*%
D20*
%TO.C,R17*%
X145288000Y-124898400D03*
X145288000Y-126898400D03*
%TD*%
D13*
%TO.C,R4*%
X144000000Y-113000000D03*
X142000000Y-113000000D03*
%TD*%
D21*
%TO.C,C3*%
X174091600Y-69414300D03*
X174091600Y-67339300D03*
%TD*%
D18*
%TO.C,SW5*%
X138872177Y-85730503D03*
X143680503Y-80922177D03*
X140993497Y-87851823D03*
X145801823Y-83043497D03*
%TD*%
D17*
%TO.C,D1005*%
X112852000Y-81577000D03*
X115392000Y-81577000D03*
%TD*%
D13*
%TO.C,R10*%
X155600400Y-108864400D03*
X153600400Y-108864400D03*
%TD*%
D19*
%TO.C,R25*%
X119564400Y-108661200D03*
X121564400Y-108661200D03*
%TD*%
D13*
%TO.C,R23*%
X84769200Y-108864400D03*
X82769200Y-108864400D03*
%TD*%
D16*
%TO.C,R30*%
X141884400Y-120160800D03*
X141884400Y-118160800D03*
%TD*%
D17*
%TO.C,D1012*%
X142742000Y-94007000D03*
X145282000Y-94007000D03*
%TD*%
D22*
%TO.C,Q1*%
X137906800Y-111990900D03*
X136006800Y-111990900D03*
X136956800Y-113865900D03*
%TD*%
D23*
%TO.C,C1001*%
X70214500Y-136152400D03*
X72289500Y-136152400D03*
%TD*%
D17*
%TO.C,D1002*%
X120632000Y-69037000D03*
X123172000Y-69037000D03*
%TD*%
%TO.C,D1006*%
X133062000Y-81527000D03*
X135602000Y-81527000D03*
%TD*%
D18*
%TO.C,SW8*%
X180662177Y-98100503D03*
X185470503Y-93292177D03*
X182783497Y-100221823D03*
X187591823Y-95413497D03*
%TD*%
D13*
%TO.C,R2*%
X137906000Y-117805200D03*
X135906000Y-117805200D03*
%TD*%
D16*
%TO.C,R22*%
X69342000Y-87648800D03*
X69342000Y-85648800D03*
%TD*%
D18*
%TO.C,SW2*%
X80582177Y-85730503D03*
X85390503Y-80922177D03*
X82703497Y-87851823D03*
X87511823Y-83043497D03*
%TD*%
%TO.C,SW9*%
X77742177Y-98560503D03*
X82550503Y-93752177D03*
X79863497Y-100681823D03*
X84671823Y-95873497D03*
%TD*%
D14*
%TO.C,U4*%
X123515200Y-142924000D03*
X124785200Y-142924000D03*
X126055200Y-142924000D03*
X127325200Y-142924000D03*
X128595200Y-142924000D03*
X129875200Y-142924000D03*
X131135200Y-142924000D03*
X132405200Y-142924000D03*
X132405200Y-136984000D03*
X131135200Y-136984000D03*
X129875200Y-136984000D03*
X128595200Y-136984000D03*
X127325200Y-136984000D03*
X126055200Y-136984000D03*
X124785200Y-136984000D03*
X123515200Y-136984000D03*
%TD*%
D18*
%TO.C,SW1*%
X81392177Y-72330503D03*
X86200503Y-67522177D03*
X83513497Y-74451823D03*
X88321823Y-69643497D03*
%TD*%
D16*
%TO.C,R29*%
X105506000Y-134464800D03*
X105506000Y-132464800D03*
%TD*%
D20*
%TO.C,R20*%
X89712800Y-107864400D03*
X89712800Y-109864400D03*
%TD*%
D18*
%TO.C,SW13*%
X146592177Y-98380503D03*
X151400503Y-93572177D03*
X148713497Y-100501823D03*
X153521823Y-95693497D03*
%TD*%
D21*
%TO.C,C1*%
X120243600Y-141020800D03*
X120243600Y-138945800D03*
%TD*%
D13*
%TO.C,R11*%
X160934400Y-108864400D03*
X158934400Y-108864400D03*
%TD*%
D17*
%TO.C,D1007*%
X153562000Y-81407000D03*
X156102000Y-81407000D03*
%TD*%
D16*
%TO.C,R27*%
X106406400Y-73796400D03*
X106406400Y-71796400D03*
%TD*%
D17*
%TO.C,D1017*%
X112392000Y-108497000D03*
X114932000Y-108497000D03*
%TD*%
%TO.C,D1014*%
X177042000Y-93947000D03*
X179582000Y-93947000D03*
%TD*%
%TO.C,D1010*%
X106892000Y-93947000D03*
X109432000Y-93947000D03*
%TD*%
D13*
%TO.C,R1*%
X117252000Y-125152400D03*
X115252000Y-125152400D03*
%TD*%
D18*
%TO.C,SW14*%
X163602177Y-98270503D03*
X168410503Y-93462177D03*
X165723497Y-100391823D03*
X170531823Y-95583497D03*
%TD*%
D16*
%TO.C,R7*%
X130708400Y-116636800D03*
X130708400Y-114636800D03*
%TD*%
D17*
%TO.C,D1018*%
X131862000Y-108317000D03*
X134402000Y-108317000D03*
%TD*%
D18*
%TO.C,SW6*%
X158002177Y-85840503D03*
X162810503Y-81032177D03*
X160123497Y-87961823D03*
X164931823Y-83153497D03*
%TD*%
D13*
%TO.C,R28*%
X113406400Y-72796400D03*
X111406400Y-72796400D03*
%TD*%
D17*
%TO.C,D1001*%
X98472000Y-69037000D03*
X101012000Y-69037000D03*
%TD*%
%TO.C,D1004*%
X166332000Y-68757000D03*
X168872000Y-68757000D03*
%TD*%
%TO.C,D1008*%
X73787000Y-93947000D03*
X76327000Y-93947000D03*
%TD*%
D19*
%TO.C,R18*%
X144000000Y-108864400D03*
X146000000Y-108864400D03*
%TD*%
D21*
%TO.C,C1003*%
X84683600Y-135077200D03*
X84683600Y-133002200D03*
%TD*%
D18*
%TO.C,SW11*%
X112012177Y-98330503D03*
X116820503Y-93522177D03*
X114133497Y-100451823D03*
X118941823Y-95643497D03*
%TD*%
D13*
%TO.C,R12*%
X155260800Y-72796400D03*
X153260800Y-72796400D03*
%TD*%
%TO.C,R19*%
X88252000Y-125152400D03*
X86252000Y-125152400D03*
%TD*%
D19*
%TO.C,R9*%
X110252000Y-132152400D03*
X112252000Y-132152400D03*
%TD*%
D21*
%TO.C,C1002*%
X91252000Y-135189900D03*
X91252000Y-133114900D03*
%TD*%
D13*
%TO.C,R26*%
X93252000Y-125152400D03*
X91252000Y-125152400D03*
%TD*%
D17*
%TO.C,D1015*%
X71932000Y-108607000D03*
X74472000Y-108607000D03*
%TD*%
%TO.C,D1011*%
X123722000Y-94007000D03*
X126262000Y-94007000D03*
%TD*%
D21*
%TO.C,C2*%
X127457200Y-127093800D03*
X127457200Y-125018800D03*
%TD*%
D13*
%TO.C,R24*%
X105276400Y-108915200D03*
X103276400Y-108915200D03*
%TD*%
D17*
%TO.C,D1009*%
X89822000Y-94067000D03*
X92362000Y-94067000D03*
%TD*%
D13*
%TO.C,R13*%
X127558800Y-72796400D03*
X125558800Y-72796400D03*
%TD*%
D18*
%TO.C,SW10*%
X95032177Y-98380503D03*
X99840503Y-93572177D03*
X97153497Y-100501823D03*
X101961823Y-95693497D03*
%TD*%
D13*
%TO.C,R16*%
X159207200Y-72796400D03*
X157207200Y-72796400D03*
%TD*%
D18*
%TO.C,SW7*%
X177412177Y-85610503D03*
X182220503Y-80802177D03*
X179533497Y-87731823D03*
X184341823Y-82923497D03*
%TD*%
%TO.C,SW3*%
X99882177Y-85730503D03*
X104690503Y-80922177D03*
X102003497Y-87851823D03*
X106811823Y-83043497D03*
%TD*%
D13*
%TO.C,R5*%
X171313600Y-72796400D03*
X169313600Y-72796400D03*
%TD*%
D17*
%TO.C,D1003*%
X143252000Y-69037000D03*
X145792000Y-69037000D03*
%TD*%
D18*
%TO.C,SW4*%
X119172177Y-85730503D03*
X123980503Y-80922177D03*
X121293497Y-87851823D03*
X126101823Y-83043497D03*
%TD*%
D24*
%TO.C,J1001*%
X84632800Y-144576800D03*
D25*
X82132800Y-144576800D03*
X79632800Y-144576800D03*
X77132800Y-144576800D03*
%TD*%
D26*
%TO.C,BZ1*%
X140929200Y-108356400D03*
D27*
X148529200Y-108356400D03*
%TD*%
D24*
%TO.C,J2*%
X105206800Y-144576800D03*
D25*
X102706800Y-144576800D03*
X100206800Y-144576800D03*
X97706800Y-144576800D03*
X95206800Y-144576800D03*
X92706800Y-144576800D03*
%TD*%
D28*
%TO.C,U1*%
X67338400Y-132671400D03*
D29*
X70368400Y-132371400D03*
D28*
X67338400Y-127221400D03*
D29*
X70368400Y-127521400D03*
D30*
X67208400Y-121056400D03*
X69748400Y-121056400D03*
D31*
X72288400Y-121056400D03*
D30*
X74828400Y-121056400D03*
X77368400Y-121056400D03*
X79908400Y-121056400D03*
X82448400Y-121056400D03*
D31*
X84988400Y-121056400D03*
D30*
X87528400Y-121056400D03*
X90068400Y-121056400D03*
X92608400Y-121056400D03*
X95148400Y-121056400D03*
D31*
X97688400Y-121056400D03*
D30*
X100228400Y-121056400D03*
X102768400Y-121056400D03*
X105308400Y-121056400D03*
X107848400Y-121056400D03*
D31*
X110388400Y-121056400D03*
D30*
X112928400Y-121056400D03*
X115468400Y-121056400D03*
X115468400Y-138836400D03*
X112928400Y-138836400D03*
D31*
X110388400Y-138836400D03*
D30*
X107848400Y-138836400D03*
X105308400Y-138836400D03*
X102768400Y-138836400D03*
X100228400Y-138836400D03*
D31*
X97688400Y-138836400D03*
D30*
X95148400Y-138836400D03*
X92608400Y-138836400D03*
X90068400Y-138836400D03*
X87528400Y-138836400D03*
D31*
X84988400Y-138836400D03*
D30*
X82448400Y-138836400D03*
X79908400Y-138836400D03*
X77368400Y-138836400D03*
X74828400Y-138836400D03*
D31*
X72288400Y-138836400D03*
D30*
X69748400Y-138836400D03*
X67208400Y-138836400D03*
X115238400Y-127406400D03*
D31*
X115238400Y-129946400D03*
D30*
X115238400Y-132486400D03*
%TD*%
M02*
