%TF.GenerationSoftware,KiCad,Pcbnew,6.0.11+dfsg-1~bpo11+1*%
%TF.CreationDate,2023-03-23T17:03:56+00:00*%
%TF.ProjectId,CoverUI,436f7665-7255-4492-9e6b-696361645f70,rev?*%
%TF.SameCoordinates,Original*%
%TF.FileFunction,Legend,Bot*%
%TF.FilePolarity,Positive*%
%FSLAX46Y46*%
G04 Gerber Fmt 4.6, Leading zero omitted, Abs format (unit mm)*
G04 Created by KiCad (PCBNEW 6.0.11+dfsg-1~bpo11+1) date 2023-03-23 17:03:56*
%MOMM*%
%LPD*%
G01*
G04 APERTURE LIST*
%ADD10C,0.150000*%
%ADD11C,0.120000*%
G04 APERTURE END LIST*
D10*
X75539023Y-65814619D02*
X75729499Y-65814619D01*
X75824737Y-65767000D01*
X75919975Y-65671761D01*
X75967594Y-65481285D01*
X75967594Y-65147952D01*
X75919975Y-64957476D01*
X75824737Y-64862238D01*
X75729499Y-64814619D01*
X75539023Y-64814619D01*
X75443785Y-64862238D01*
X75348547Y-64957476D01*
X75300928Y-65147952D01*
X75300928Y-65481285D01*
X75348547Y-65671761D01*
X75443785Y-65767000D01*
X75539023Y-65814619D01*
X76396166Y-65481285D02*
X76396166Y-64481285D01*
X76396166Y-65433666D02*
X76491404Y-65481285D01*
X76681880Y-65481285D01*
X76777118Y-65433666D01*
X76824737Y-65386047D01*
X76872356Y-65290809D01*
X76872356Y-65005095D01*
X76824737Y-64909857D01*
X76777118Y-64862238D01*
X76681880Y-64814619D01*
X76491404Y-64814619D01*
X76396166Y-64862238D01*
X77681880Y-64862238D02*
X77586642Y-64814619D01*
X77396166Y-64814619D01*
X77300928Y-64862238D01*
X77253309Y-64957476D01*
X77253309Y-65338428D01*
X77300928Y-65433666D01*
X77396166Y-65481285D01*
X77586642Y-65481285D01*
X77681880Y-65433666D01*
X77729499Y-65338428D01*
X77729499Y-65243190D01*
X77253309Y-65147952D01*
X78158071Y-65481285D02*
X78158071Y-64814619D01*
X78158071Y-65386047D02*
X78205690Y-65433666D01*
X78300928Y-65481285D01*
X78443785Y-65481285D01*
X78539023Y-65433666D01*
X78586642Y-65338428D01*
X78586642Y-64814619D01*
X79062832Y-64814619D02*
X79062832Y-65814619D01*
X79396166Y-65100333D01*
X79729499Y-65814619D01*
X79729499Y-64814619D01*
X80348547Y-64814619D02*
X80253309Y-64862238D01*
X80205690Y-64909857D01*
X80158071Y-65005095D01*
X80158071Y-65290809D01*
X80205690Y-65386047D01*
X80253309Y-65433666D01*
X80348547Y-65481285D01*
X80491404Y-65481285D01*
X80586642Y-65433666D01*
X80634261Y-65386047D01*
X80681880Y-65290809D01*
X80681880Y-65005095D01*
X80634261Y-64909857D01*
X80586642Y-64862238D01*
X80491404Y-64814619D01*
X80348547Y-64814619D01*
X81015213Y-65481285D02*
X81205690Y-64814619D01*
X81396166Y-65290809D01*
X81586642Y-64814619D01*
X81777118Y-65481285D01*
X82539023Y-64862238D02*
X82443785Y-64814619D01*
X82253309Y-64814619D01*
X82158071Y-64862238D01*
X82110452Y-64957476D01*
X82110452Y-65338428D01*
X82158071Y-65433666D01*
X82253309Y-65481285D01*
X82443785Y-65481285D01*
X82539023Y-65433666D01*
X82586642Y-65338428D01*
X82586642Y-65243190D01*
X82110452Y-65147952D01*
X83015213Y-64814619D02*
X83015213Y-65481285D01*
X83015213Y-65290809D02*
X83062832Y-65386047D01*
X83110452Y-65433666D01*
X83205690Y-65481285D01*
X83300928Y-65481285D01*
X84396166Y-65814619D02*
X84396166Y-65005095D01*
X84443785Y-64909857D01*
X84491404Y-64862238D01*
X84586642Y-64814619D01*
X84777118Y-64814619D01*
X84872356Y-64862238D01*
X84919975Y-64909857D01*
X84967594Y-65005095D01*
X84967594Y-65814619D01*
X85443785Y-64814619D02*
X85443785Y-65814619D01*
X87015213Y-65338428D02*
X87158071Y-65290809D01*
X87205690Y-65243190D01*
X87253309Y-65147952D01*
X87253309Y-65005095D01*
X87205690Y-64909857D01*
X87158071Y-64862238D01*
X87062832Y-64814619D01*
X86681880Y-64814619D01*
X86681880Y-65814619D01*
X87015213Y-65814619D01*
X87110452Y-65767000D01*
X87158071Y-65719380D01*
X87205690Y-65624142D01*
X87205690Y-65528904D01*
X87158071Y-65433666D01*
X87110452Y-65386047D01*
X87015213Y-65338428D01*
X86681880Y-65338428D01*
X87824737Y-64814619D02*
X87729499Y-64862238D01*
X87681880Y-64909857D01*
X87634261Y-65005095D01*
X87634261Y-65290809D01*
X87681880Y-65386047D01*
X87729499Y-65433666D01*
X87824737Y-65481285D01*
X87967594Y-65481285D01*
X88062832Y-65433666D01*
X88110452Y-65386047D01*
X88158071Y-65290809D01*
X88158071Y-65005095D01*
X88110452Y-64909857D01*
X88062832Y-64862238D01*
X87967594Y-64814619D01*
X87824737Y-64814619D01*
X89015213Y-64814619D02*
X89015213Y-65338428D01*
X88967594Y-65433666D01*
X88872356Y-65481285D01*
X88681880Y-65481285D01*
X88586642Y-65433666D01*
X89015213Y-64862238D02*
X88919975Y-64814619D01*
X88681880Y-64814619D01*
X88586642Y-64862238D01*
X88539023Y-64957476D01*
X88539023Y-65052714D01*
X88586642Y-65147952D01*
X88681880Y-65195571D01*
X88919975Y-65195571D01*
X89015213Y-65243190D01*
X89491404Y-64814619D02*
X89491404Y-65481285D01*
X89491404Y-65290809D02*
X89539023Y-65386047D01*
X89586642Y-65433666D01*
X89681880Y-65481285D01*
X89777118Y-65481285D01*
X90539023Y-64814619D02*
X90539023Y-65814619D01*
X90539023Y-64862238D02*
X90443785Y-64814619D01*
X90253309Y-64814619D01*
X90158071Y-64862238D01*
X90110452Y-64909857D01*
X90062832Y-65005095D01*
X90062832Y-65290809D01*
X90110452Y-65386047D01*
X90158071Y-65433666D01*
X90253309Y-65481285D01*
X90443785Y-65481285D01*
X90539023Y-65433666D01*
X91681880Y-65481285D02*
X91919975Y-64814619D01*
X92158071Y-65481285D01*
X92729499Y-65814619D02*
X92824737Y-65814619D01*
X92919975Y-65767000D01*
X92967594Y-65719380D01*
X93015213Y-65624142D01*
X93062832Y-65433666D01*
X93062832Y-65195571D01*
X93015213Y-65005095D01*
X92967594Y-64909857D01*
X92919975Y-64862238D01*
X92824737Y-64814619D01*
X92729499Y-64814619D01*
X92634261Y-64862238D01*
X92586642Y-64909857D01*
X92539023Y-65005095D01*
X92491404Y-65195571D01*
X92491404Y-65433666D01*
X92539023Y-65624142D01*
X92586642Y-65719380D01*
X92634261Y-65767000D01*
X92729499Y-65814619D01*
X93491404Y-64909857D02*
X93539023Y-64862238D01*
X93491404Y-64814619D01*
X93443785Y-64862238D01*
X93491404Y-64909857D01*
X93491404Y-64814619D01*
X94491404Y-64814619D02*
X93919975Y-64814619D01*
X94205690Y-64814619D02*
X94205690Y-65814619D01*
X94110452Y-65671761D01*
X94015213Y-65576523D01*
X93919975Y-65528904D01*
X94824737Y-65814619D02*
X95443785Y-65814619D01*
X95110452Y-65433666D01*
X95253309Y-65433666D01*
X95348547Y-65386047D01*
X95396166Y-65338428D01*
X95443785Y-65243190D01*
X95443785Y-65005095D01*
X95396166Y-64909857D01*
X95348547Y-64862238D01*
X95253309Y-64814619D01*
X94967594Y-64814619D01*
X94872356Y-64862238D01*
X94824737Y-64909857D01*
X95872356Y-64909857D02*
X95919975Y-64862238D01*
X95872356Y-64814619D01*
X95824737Y-64862238D01*
X95872356Y-64909857D01*
X95872356Y-64814619D01*
X96253309Y-64814619D02*
X96777118Y-65481285D01*
X96253309Y-65481285D02*
X96777118Y-64814619D01*
X75824737Y-63204619D02*
X75348547Y-63204619D01*
X75348547Y-64204619D01*
X76158071Y-63204619D02*
X76158071Y-63871285D01*
X76158071Y-64204619D02*
X76110452Y-64157000D01*
X76158071Y-64109380D01*
X76205690Y-64157000D01*
X76158071Y-64204619D01*
X76158071Y-64109380D01*
X77062832Y-63252238D02*
X76967594Y-63204619D01*
X76777118Y-63204619D01*
X76681880Y-63252238D01*
X76634261Y-63299857D01*
X76586642Y-63395095D01*
X76586642Y-63680809D01*
X76634261Y-63776047D01*
X76681880Y-63823666D01*
X76777118Y-63871285D01*
X76967594Y-63871285D01*
X77062832Y-63823666D01*
X77872356Y-63252238D02*
X77777118Y-63204619D01*
X77586642Y-63204619D01*
X77491404Y-63252238D01*
X77443785Y-63347476D01*
X77443785Y-63728428D01*
X77491404Y-63823666D01*
X77586642Y-63871285D01*
X77777118Y-63871285D01*
X77872356Y-63823666D01*
X77919975Y-63728428D01*
X77919975Y-63633190D01*
X77443785Y-63537952D01*
X78348547Y-63871285D02*
X78348547Y-63204619D01*
X78348547Y-63776047D02*
X78396166Y-63823666D01*
X78491404Y-63871285D01*
X78634261Y-63871285D01*
X78729499Y-63823666D01*
X78777118Y-63728428D01*
X78777118Y-63204619D01*
X79205690Y-63252238D02*
X79300928Y-63204619D01*
X79491404Y-63204619D01*
X79586642Y-63252238D01*
X79634261Y-63347476D01*
X79634261Y-63395095D01*
X79586642Y-63490333D01*
X79491404Y-63537952D01*
X79348547Y-63537952D01*
X79253309Y-63585571D01*
X79205690Y-63680809D01*
X79205690Y-63728428D01*
X79253309Y-63823666D01*
X79348547Y-63871285D01*
X79491404Y-63871285D01*
X79586642Y-63823666D01*
X80443785Y-63252238D02*
X80348547Y-63204619D01*
X80158071Y-63204619D01*
X80062832Y-63252238D01*
X80015213Y-63347476D01*
X80015213Y-63728428D01*
X80062832Y-63823666D01*
X80158071Y-63871285D01*
X80348547Y-63871285D01*
X80443785Y-63823666D01*
X80491404Y-63728428D01*
X80491404Y-63633190D01*
X80015213Y-63537952D01*
X82253309Y-63299857D02*
X82205690Y-63252238D01*
X82062832Y-63204619D01*
X81967594Y-63204619D01*
X81824737Y-63252238D01*
X81729499Y-63347476D01*
X81681880Y-63442714D01*
X81634261Y-63633190D01*
X81634261Y-63776047D01*
X81681880Y-63966523D01*
X81729499Y-64061761D01*
X81824737Y-64157000D01*
X81967594Y-64204619D01*
X82062832Y-64204619D01*
X82205690Y-64157000D01*
X82253309Y-64109380D01*
X83253309Y-63299857D02*
X83205690Y-63252238D01*
X83062832Y-63204619D01*
X82967594Y-63204619D01*
X82824737Y-63252238D01*
X82729499Y-63347476D01*
X82681880Y-63442714D01*
X82634261Y-63633190D01*
X82634261Y-63776047D01*
X82681880Y-63966523D01*
X82729499Y-64061761D01*
X82824737Y-64157000D01*
X82967594Y-64204619D01*
X83062832Y-64204619D01*
X83205690Y-64157000D01*
X83253309Y-64109380D01*
X84777118Y-63728428D02*
X84919975Y-63680809D01*
X84967594Y-63633190D01*
X85015213Y-63537952D01*
X85015213Y-63395095D01*
X84967594Y-63299857D01*
X84919975Y-63252238D01*
X84824737Y-63204619D01*
X84443785Y-63204619D01*
X84443785Y-64204619D01*
X84777118Y-64204619D01*
X84872356Y-64157000D01*
X84919975Y-64109380D01*
X84967594Y-64014142D01*
X84967594Y-63918904D01*
X84919975Y-63823666D01*
X84872356Y-63776047D01*
X84777118Y-63728428D01*
X84443785Y-63728428D01*
X85634261Y-63680809D02*
X85634261Y-63204619D01*
X85300928Y-64204619D02*
X85634261Y-63680809D01*
X85967594Y-64204619D01*
X86300928Y-63585571D02*
X87062832Y-63585571D01*
X87539023Y-63204619D02*
X87539023Y-64204619D01*
X88110452Y-63204619D01*
X88110452Y-64204619D01*
X89158071Y-63299857D02*
X89110452Y-63252238D01*
X88967594Y-63204619D01*
X88872356Y-63204619D01*
X88729499Y-63252238D01*
X88634261Y-63347476D01*
X88586642Y-63442714D01*
X88539023Y-63633190D01*
X88539023Y-63776047D01*
X88586642Y-63966523D01*
X88634261Y-64061761D01*
X88729499Y-64157000D01*
X88872356Y-64204619D01*
X88967594Y-64204619D01*
X89110452Y-64157000D01*
X89158071Y-64109380D01*
X89586642Y-63585571D02*
X90348547Y-63585571D01*
X90777118Y-63252238D02*
X90919975Y-63204619D01*
X91158071Y-63204619D01*
X91253309Y-63252238D01*
X91300928Y-63299857D01*
X91348547Y-63395095D01*
X91348547Y-63490333D01*
X91300928Y-63585571D01*
X91253309Y-63633190D01*
X91158071Y-63680809D01*
X90967594Y-63728428D01*
X90872356Y-63776047D01*
X90824737Y-63823666D01*
X90777118Y-63918904D01*
X90777118Y-64014142D01*
X90824737Y-64109380D01*
X90872356Y-64157000D01*
X90967594Y-64204619D01*
X91205690Y-64204619D01*
X91348547Y-64157000D01*
X91729499Y-63490333D02*
X92205690Y-63490333D01*
X91634261Y-63204619D02*
X91967594Y-64204619D01*
X92300928Y-63204619D01*
X93824737Y-63871285D02*
X93824737Y-63204619D01*
X93586642Y-64252238D02*
X93348547Y-63537952D01*
X93967594Y-63537952D01*
X94348547Y-63299857D02*
X94396166Y-63252238D01*
X94348547Y-63204619D01*
X94300928Y-63252238D01*
X94348547Y-63299857D01*
X94348547Y-63204619D01*
X95015213Y-64204619D02*
X95110452Y-64204619D01*
X95205690Y-64157000D01*
X95253309Y-64109380D01*
X95300928Y-64014142D01*
X95348547Y-63823666D01*
X95348547Y-63585571D01*
X95300928Y-63395095D01*
X95253309Y-63299857D01*
X95205690Y-63252238D01*
X95110452Y-63204619D01*
X95015213Y-63204619D01*
X94919975Y-63252238D01*
X94872356Y-63299857D01*
X94824737Y-63395095D01*
X94777118Y-63585571D01*
X94777118Y-63823666D01*
X94824737Y-64014142D01*
X94872356Y-64109380D01*
X94919975Y-64157000D01*
X95015213Y-64204619D01*
X75348547Y-61594619D02*
X75348547Y-62594619D01*
X75777118Y-61594619D02*
X75777118Y-62118428D01*
X75729499Y-62213666D01*
X75634261Y-62261285D01*
X75491404Y-62261285D01*
X75396166Y-62213666D01*
X75348547Y-62166047D01*
X76110452Y-62261285D02*
X76491404Y-62261285D01*
X76253309Y-62594619D02*
X76253309Y-61737476D01*
X76300928Y-61642238D01*
X76396166Y-61594619D01*
X76491404Y-61594619D01*
X76681880Y-62261285D02*
X77062832Y-62261285D01*
X76824737Y-62594619D02*
X76824737Y-61737476D01*
X76872356Y-61642238D01*
X76967594Y-61594619D01*
X77062832Y-61594619D01*
X77396166Y-62261285D02*
X77396166Y-61261285D01*
X77396166Y-62213666D02*
X77491404Y-62261285D01*
X77681880Y-62261285D01*
X77777118Y-62213666D01*
X77824737Y-62166047D01*
X77872356Y-62070809D01*
X77872356Y-61785095D01*
X77824737Y-61689857D01*
X77777118Y-61642238D01*
X77681880Y-61594619D01*
X77491404Y-61594619D01*
X77396166Y-61642238D01*
X78253309Y-61642238D02*
X78348547Y-61594619D01*
X78539023Y-61594619D01*
X78634261Y-61642238D01*
X78681880Y-61737476D01*
X78681880Y-61785095D01*
X78634261Y-61880333D01*
X78539023Y-61927952D01*
X78396166Y-61927952D01*
X78300928Y-61975571D01*
X78253309Y-62070809D01*
X78253309Y-62118428D01*
X78300928Y-62213666D01*
X78396166Y-62261285D01*
X78539023Y-62261285D01*
X78634261Y-62213666D01*
X79110452Y-61689857D02*
X79158071Y-61642238D01*
X79110452Y-61594619D01*
X79062832Y-61642238D01*
X79110452Y-61689857D01*
X79110452Y-61594619D01*
X79110452Y-62213666D02*
X79158071Y-62166047D01*
X79110452Y-62118428D01*
X79062832Y-62166047D01*
X79110452Y-62213666D01*
X79110452Y-62118428D01*
X80300928Y-62642238D02*
X79443785Y-61356523D01*
X81348547Y-62642238D02*
X80491404Y-61356523D01*
X82110452Y-62261285D02*
X82110452Y-61451761D01*
X82062832Y-61356523D01*
X82015213Y-61308904D01*
X81919975Y-61261285D01*
X81777118Y-61261285D01*
X81681880Y-61308904D01*
X82110452Y-61642238D02*
X82015213Y-61594619D01*
X81824737Y-61594619D01*
X81729499Y-61642238D01*
X81681880Y-61689857D01*
X81634261Y-61785095D01*
X81634261Y-62070809D01*
X81681880Y-62166047D01*
X81729499Y-62213666D01*
X81824737Y-62261285D01*
X82015213Y-62261285D01*
X82110452Y-62213666D01*
X82586642Y-61594619D02*
X82586642Y-62261285D01*
X82586642Y-62594619D02*
X82539023Y-62547000D01*
X82586642Y-62499380D01*
X82634261Y-62547000D01*
X82586642Y-62594619D01*
X82586642Y-62499380D01*
X82919975Y-62261285D02*
X83300928Y-62261285D01*
X83062832Y-62594619D02*
X83062832Y-61737476D01*
X83110452Y-61642238D01*
X83205690Y-61594619D01*
X83300928Y-61594619D01*
X83634261Y-61594619D02*
X83634261Y-62594619D01*
X84062832Y-61594619D02*
X84062832Y-62118428D01*
X84015213Y-62213666D01*
X83919975Y-62261285D01*
X83777118Y-62261285D01*
X83681880Y-62213666D01*
X83634261Y-62166047D01*
X84967594Y-62261285D02*
X84967594Y-61594619D01*
X84539023Y-62261285D02*
X84539023Y-61737476D01*
X84586642Y-61642238D01*
X84681880Y-61594619D01*
X84824737Y-61594619D01*
X84919975Y-61642238D01*
X84967594Y-61689857D01*
X85443785Y-61594619D02*
X85443785Y-62594619D01*
X85443785Y-62213666D02*
X85539023Y-62261285D01*
X85729499Y-62261285D01*
X85824737Y-62213666D01*
X85872356Y-62166047D01*
X85919975Y-62070809D01*
X85919975Y-61785095D01*
X85872356Y-61689857D01*
X85824737Y-61642238D01*
X85729499Y-61594619D01*
X85539023Y-61594619D01*
X85443785Y-61642238D01*
X86348547Y-61689857D02*
X86396166Y-61642238D01*
X86348547Y-61594619D01*
X86300928Y-61642238D01*
X86348547Y-61689857D01*
X86348547Y-61594619D01*
X87253309Y-61642238D02*
X87158071Y-61594619D01*
X86967594Y-61594619D01*
X86872356Y-61642238D01*
X86824737Y-61689857D01*
X86777118Y-61785095D01*
X86777118Y-62070809D01*
X86824737Y-62166047D01*
X86872356Y-62213666D01*
X86967594Y-62261285D01*
X87158071Y-62261285D01*
X87253309Y-62213666D01*
X87824737Y-61594619D02*
X87729499Y-61642238D01*
X87681880Y-61689857D01*
X87634261Y-61785095D01*
X87634261Y-62070809D01*
X87681880Y-62166047D01*
X87729499Y-62213666D01*
X87824737Y-62261285D01*
X87967594Y-62261285D01*
X88062832Y-62213666D01*
X88110452Y-62166047D01*
X88158071Y-62070809D01*
X88158071Y-61785095D01*
X88110452Y-61689857D01*
X88062832Y-61642238D01*
X87967594Y-61594619D01*
X87824737Y-61594619D01*
X88586642Y-61594619D02*
X88586642Y-62261285D01*
X88586642Y-62166047D02*
X88634261Y-62213666D01*
X88729499Y-62261285D01*
X88872356Y-62261285D01*
X88967594Y-62213666D01*
X89015213Y-62118428D01*
X89015213Y-61594619D01*
X89015213Y-62118428D02*
X89062832Y-62213666D01*
X89158071Y-62261285D01*
X89300928Y-62261285D01*
X89396166Y-62213666D01*
X89443785Y-62118428D01*
X89443785Y-61594619D01*
X90634261Y-62642238D02*
X89777118Y-61356523D01*
X91539023Y-61689857D02*
X91491404Y-61642238D01*
X91348547Y-61594619D01*
X91253309Y-61594619D01*
X91110452Y-61642238D01*
X91015213Y-61737476D01*
X90967594Y-61832714D01*
X90919975Y-62023190D01*
X90919975Y-62166047D01*
X90967594Y-62356523D01*
X91015213Y-62451761D01*
X91110452Y-62547000D01*
X91253309Y-62594619D01*
X91348547Y-62594619D01*
X91491404Y-62547000D01*
X91539023Y-62499380D01*
X92110452Y-61594619D02*
X92015213Y-61642238D01*
X91967594Y-61737476D01*
X91967594Y-62594619D01*
X92872356Y-61642238D02*
X92777118Y-61594619D01*
X92586642Y-61594619D01*
X92491404Y-61642238D01*
X92443785Y-61737476D01*
X92443785Y-62118428D01*
X92491404Y-62213666D01*
X92586642Y-62261285D01*
X92777118Y-62261285D01*
X92872356Y-62213666D01*
X92919975Y-62118428D01*
X92919975Y-62023190D01*
X92443785Y-61927952D01*
X93348547Y-61594619D02*
X93348547Y-62261285D01*
X93348547Y-62166047D02*
X93396166Y-62213666D01*
X93491404Y-62261285D01*
X93634261Y-62261285D01*
X93729499Y-62213666D01*
X93777118Y-62118428D01*
X93777118Y-61594619D01*
X93777118Y-62118428D02*
X93824737Y-62213666D01*
X93919975Y-62261285D01*
X94062832Y-62261285D01*
X94158071Y-62213666D01*
X94205690Y-62118428D01*
X94205690Y-61594619D01*
X95062832Y-61642238D02*
X94967594Y-61594619D01*
X94777118Y-61594619D01*
X94681880Y-61642238D01*
X94634261Y-61737476D01*
X94634261Y-62118428D01*
X94681880Y-62213666D01*
X94777118Y-62261285D01*
X94967594Y-62261285D01*
X95062832Y-62213666D01*
X95110452Y-62118428D01*
X95110452Y-62023190D01*
X94634261Y-61927952D01*
X95539023Y-62261285D02*
X95539023Y-61594619D01*
X95539023Y-62166047D02*
X95586642Y-62213666D01*
X95681880Y-62261285D01*
X95824737Y-62261285D01*
X95919975Y-62213666D01*
X95967594Y-62118428D01*
X95967594Y-61594619D01*
X96396166Y-61642238D02*
X96491404Y-61594619D01*
X96681880Y-61594619D01*
X96777118Y-61642238D01*
X96824737Y-61737476D01*
X96824737Y-61785095D01*
X96777118Y-61880333D01*
X96681880Y-61927952D01*
X96539023Y-61927952D01*
X96443785Y-61975571D01*
X96396166Y-62070809D01*
X96396166Y-62118428D01*
X96443785Y-62213666D01*
X96539023Y-62261285D01*
X96681880Y-62261285D01*
X96777118Y-62213666D01*
X97253309Y-62118428D02*
X97586642Y-62118428D01*
X97729499Y-61594619D02*
X97253309Y-61594619D01*
X97253309Y-62594619D01*
X97729499Y-62594619D01*
X98300928Y-61594619D02*
X98205690Y-61642238D01*
X98158071Y-61737476D01*
X98158071Y-62594619D01*
X98539023Y-62261285D02*
X98919975Y-62261285D01*
X98681880Y-61594619D02*
X98681880Y-62451761D01*
X98729499Y-62547000D01*
X98824737Y-62594619D01*
X98919975Y-62594619D01*
X99396166Y-61594619D02*
X99300928Y-61642238D01*
X99253309Y-61737476D01*
X99253309Y-62594619D01*
X100158071Y-61642238D02*
X100062832Y-61594619D01*
X99872356Y-61594619D01*
X99777118Y-61642238D01*
X99729499Y-61737476D01*
X99729499Y-62118428D01*
X99777118Y-62213666D01*
X99872356Y-62261285D01*
X100062832Y-62261285D01*
X100158071Y-62213666D01*
X100205690Y-62118428D01*
X100205690Y-62023190D01*
X99729499Y-61927952D01*
X100634261Y-61594619D02*
X100634261Y-62261285D01*
X100634261Y-62594619D02*
X100586642Y-62547000D01*
X100634261Y-62499380D01*
X100681880Y-62547000D01*
X100634261Y-62594619D01*
X100634261Y-62499380D01*
X101110452Y-62261285D02*
X101110452Y-61594619D01*
X101110452Y-62166047D02*
X101158071Y-62213666D01*
X101253309Y-62261285D01*
X101396166Y-62261285D01*
X101491404Y-62213666D01*
X101539023Y-62118428D01*
X101539023Y-61594619D01*
X102729499Y-62642238D02*
X101872356Y-61356523D01*
X103253309Y-62594619D02*
X103443785Y-62594619D01*
X103539023Y-62547000D01*
X103634261Y-62451761D01*
X103681880Y-62261285D01*
X103681880Y-61927952D01*
X103634261Y-61737476D01*
X103539023Y-61642238D01*
X103443785Y-61594619D01*
X103253309Y-61594619D01*
X103158071Y-61642238D01*
X103062832Y-61737476D01*
X103015213Y-61927952D01*
X103015213Y-62261285D01*
X103062832Y-62451761D01*
X103158071Y-62547000D01*
X103253309Y-62594619D01*
X104110452Y-62261285D02*
X104110452Y-61261285D01*
X104110452Y-62213666D02*
X104205690Y-62261285D01*
X104396166Y-62261285D01*
X104491404Y-62213666D01*
X104539023Y-62166047D01*
X104586642Y-62070809D01*
X104586642Y-61785095D01*
X104539023Y-61689857D01*
X104491404Y-61642238D01*
X104396166Y-61594619D01*
X104205690Y-61594619D01*
X104110452Y-61642238D01*
X105396166Y-61642238D02*
X105300928Y-61594619D01*
X105110452Y-61594619D01*
X105015213Y-61642238D01*
X104967594Y-61737476D01*
X104967594Y-62118428D01*
X105015213Y-62213666D01*
X105110452Y-62261285D01*
X105300928Y-62261285D01*
X105396166Y-62213666D01*
X105443785Y-62118428D01*
X105443785Y-62023190D01*
X104967594Y-61927952D01*
X105872356Y-62261285D02*
X105872356Y-61594619D01*
X105872356Y-62166047D02*
X105919975Y-62213666D01*
X106015213Y-62261285D01*
X106158071Y-62261285D01*
X106253309Y-62213666D01*
X106300928Y-62118428D01*
X106300928Y-61594619D01*
X106777118Y-61594619D02*
X106777118Y-62594619D01*
X107110452Y-61880333D01*
X107443785Y-62594619D01*
X107443785Y-61594619D01*
X108062832Y-61594619D02*
X107967594Y-61642238D01*
X107919975Y-61689857D01*
X107872356Y-61785095D01*
X107872356Y-62070809D01*
X107919975Y-62166047D01*
X107967594Y-62213666D01*
X108062832Y-62261285D01*
X108205690Y-62261285D01*
X108300928Y-62213666D01*
X108348547Y-62166047D01*
X108396166Y-62070809D01*
X108396166Y-61785095D01*
X108348547Y-61689857D01*
X108300928Y-61642238D01*
X108205690Y-61594619D01*
X108062832Y-61594619D01*
X108729499Y-62261285D02*
X108919975Y-61594619D01*
X109110452Y-62070809D01*
X109300928Y-61594619D01*
X109491404Y-62261285D01*
X110253309Y-61642238D02*
X110158071Y-61594619D01*
X109967594Y-61594619D01*
X109872356Y-61642238D01*
X109824737Y-61737476D01*
X109824737Y-62118428D01*
X109872356Y-62213666D01*
X109967594Y-62261285D01*
X110158071Y-62261285D01*
X110253309Y-62213666D01*
X110300928Y-62118428D01*
X110300928Y-62023190D01*
X109824737Y-61927952D01*
X110729499Y-61594619D02*
X110729499Y-62261285D01*
X110729499Y-62070809D02*
X110777118Y-62166047D01*
X110824737Y-62213666D01*
X110919975Y-62261285D01*
X111015213Y-62261285D01*
X139248428Y-116151285D02*
X139248428Y-116913190D01*
X139629380Y-116532238D02*
X138867476Y-116532238D01*
X138629380Y-117865571D02*
X138629380Y-117389380D01*
X139105571Y-117341761D01*
X139057952Y-117389380D01*
X139010333Y-117484619D01*
X139010333Y-117722714D01*
X139057952Y-117817952D01*
X139105571Y-117865571D01*
X139200809Y-117913190D01*
X139438904Y-117913190D01*
X139534142Y-117865571D01*
X139581761Y-117817952D01*
X139629380Y-117722714D01*
X139629380Y-117484619D01*
X139581761Y-117389380D01*
X139534142Y-117341761D01*
X138629380Y-118198904D02*
X139629380Y-118532238D01*
X138629380Y-118865571D01*
%TO.C,J1001*%
X73061580Y-143983295D02*
X73775866Y-143983295D01*
X73918723Y-143935676D01*
X74013961Y-143840438D01*
X74061580Y-143697580D01*
X74061580Y-143602342D01*
X74061580Y-144983295D02*
X74061580Y-144411866D01*
X74061580Y-144697580D02*
X73061580Y-144697580D01*
X73204438Y-144602342D01*
X73299676Y-144507104D01*
X73347295Y-144411866D01*
X73061580Y-145602342D02*
X73061580Y-145697580D01*
X73109200Y-145792819D01*
X73156819Y-145840438D01*
X73252057Y-145888057D01*
X73442533Y-145935676D01*
X73680628Y-145935676D01*
X73871104Y-145888057D01*
X73966342Y-145840438D01*
X74013961Y-145792819D01*
X74061580Y-145697580D01*
X74061580Y-145602342D01*
X74013961Y-145507104D01*
X73966342Y-145459485D01*
X73871104Y-145411866D01*
X73680628Y-145364247D01*
X73442533Y-145364247D01*
X73252057Y-145411866D01*
X73156819Y-145459485D01*
X73109200Y-145507104D01*
X73061580Y-145602342D01*
X73061580Y-146554723D02*
X73061580Y-146649961D01*
X73109200Y-146745200D01*
X73156819Y-146792819D01*
X73252057Y-146840438D01*
X73442533Y-146888057D01*
X73680628Y-146888057D01*
X73871104Y-146840438D01*
X73966342Y-146792819D01*
X74013961Y-146745200D01*
X74061580Y-146649961D01*
X74061580Y-146554723D01*
X74013961Y-146459485D01*
X73966342Y-146411866D01*
X73871104Y-146364247D01*
X73680628Y-146316628D01*
X73442533Y-146316628D01*
X73252057Y-146364247D01*
X73156819Y-146411866D01*
X73109200Y-146459485D01*
X73061580Y-146554723D01*
X74061580Y-147840438D02*
X74061580Y-147269009D01*
X74061580Y-147554723D02*
X73061580Y-147554723D01*
X73204438Y-147459485D01*
X73299676Y-147364247D01*
X73347295Y-147269009D01*
%TO.C,BZ1*%
X145610152Y-101084971D02*
X145467295Y-101132590D01*
X145419676Y-101180209D01*
X145372057Y-101275447D01*
X145372057Y-101418304D01*
X145419676Y-101513542D01*
X145467295Y-101561161D01*
X145562533Y-101608780D01*
X145943485Y-101608780D01*
X145943485Y-100608780D01*
X145610152Y-100608780D01*
X145514914Y-100656400D01*
X145467295Y-100704019D01*
X145419676Y-100799257D01*
X145419676Y-100894495D01*
X145467295Y-100989733D01*
X145514914Y-101037352D01*
X145610152Y-101084971D01*
X145943485Y-101084971D01*
X145038723Y-100608780D02*
X144372057Y-100608780D01*
X145038723Y-101608780D01*
X144372057Y-101608780D01*
X143467295Y-101608780D02*
X144038723Y-101608780D01*
X143753009Y-101608780D02*
X143753009Y-100608780D01*
X143848247Y-100751638D01*
X143943485Y-100846876D01*
X144038723Y-100894495D01*
X141300152Y-110967828D02*
X140538247Y-110967828D01*
X140919200Y-111348780D02*
X140919200Y-110586876D01*
%TO.C,J2*%
X109096133Y-145705580D02*
X109096133Y-146419866D01*
X109143752Y-146562723D01*
X109238990Y-146657961D01*
X109381847Y-146705580D01*
X109477085Y-146705580D01*
X108667561Y-145800819D02*
X108619942Y-145753200D01*
X108524704Y-145705580D01*
X108286609Y-145705580D01*
X108191371Y-145753200D01*
X108143752Y-145800819D01*
X108096133Y-145896057D01*
X108096133Y-145991295D01*
X108143752Y-146134152D01*
X108715180Y-146705580D01*
X108096133Y-146705580D01*
%TO.C,U1*%
X90790780Y-129184495D02*
X91600304Y-129184495D01*
X91695542Y-129232114D01*
X91743161Y-129279733D01*
X91790780Y-129374971D01*
X91790780Y-129565447D01*
X91743161Y-129660685D01*
X91695542Y-129708304D01*
X91600304Y-129755923D01*
X90790780Y-129755923D01*
X91790780Y-130755923D02*
X91790780Y-130184495D01*
X91790780Y-130470209D02*
X90790780Y-130470209D01*
X90933638Y-130374971D01*
X91028876Y-130279733D01*
X91076495Y-130184495D01*
X100618992Y-115936122D02*
X100645929Y-115855310D01*
X100726741Y-115774497D01*
X100834491Y-115720623D01*
X100942241Y-115720623D01*
X101023053Y-115747560D01*
X101157740Y-115828372D01*
X101238552Y-115909184D01*
X101319364Y-116043871D01*
X101346302Y-116124684D01*
X101346302Y-116232433D01*
X101292427Y-116340183D01*
X101238552Y-116394058D01*
X101130802Y-116447932D01*
X101076928Y-116447932D01*
X100888366Y-116259371D01*
X100996115Y-116151621D01*
X100888366Y-116744244D02*
X100322680Y-116178558D01*
X100107181Y-116394058D01*
X100080244Y-116474870D01*
X100080244Y-116528745D01*
X100107181Y-116609557D01*
X100187993Y-116690369D01*
X100268806Y-116717306D01*
X100322680Y-116717306D01*
X100403493Y-116690369D01*
X100618992Y-116474870D01*
X100026369Y-117606241D02*
X100349618Y-117282992D01*
X100187993Y-117444616D02*
X99622308Y-116878931D01*
X99756995Y-116905868D01*
X99864745Y-116905868D01*
X99945557Y-116878931D01*
X99110497Y-117390741D02*
X99056623Y-117444616D01*
X99029685Y-117525428D01*
X99029685Y-117579303D01*
X99056623Y-117660115D01*
X99137435Y-117794802D01*
X99272122Y-117929489D01*
X99406809Y-118010302D01*
X99487621Y-118037239D01*
X99541496Y-118037239D01*
X99622308Y-118010302D01*
X99676183Y-117956427D01*
X99703120Y-117875615D01*
X99703120Y-117821740D01*
X99676183Y-117740928D01*
X99595371Y-117606241D01*
X99460684Y-117471554D01*
X99325997Y-117390741D01*
X99245184Y-117363804D01*
X99191310Y-117363804D01*
X99110497Y-117390741D01*
X98598555Y-135430158D02*
X98625493Y-135349346D01*
X98706305Y-135268534D01*
X98814054Y-135214659D01*
X98921804Y-135214659D01*
X99002616Y-135241597D01*
X99137303Y-135322409D01*
X99218115Y-135403221D01*
X99298928Y-135537908D01*
X99325865Y-135618720D01*
X99325865Y-135726470D01*
X99271990Y-135834219D01*
X99218115Y-135888094D01*
X99110366Y-135941969D01*
X99056491Y-135941969D01*
X98867929Y-135753407D01*
X98975679Y-135645658D01*
X98867929Y-136238280D02*
X98302244Y-135672595D01*
X98544680Y-136561529D01*
X97978995Y-135995844D01*
X98275306Y-136830903D02*
X97709621Y-136265218D01*
X97574934Y-136399905D01*
X97521059Y-136507654D01*
X97521059Y-136615404D01*
X97547997Y-136696216D01*
X97628809Y-136830903D01*
X97709621Y-136911715D01*
X97844308Y-136992528D01*
X97925120Y-137019465D01*
X98032870Y-137019465D01*
X98140619Y-136965590D01*
X98275306Y-136830903D01*
X117862209Y-133851161D02*
X117900304Y-133965447D01*
X117900304Y-134155923D01*
X117862209Y-134232114D01*
X117824114Y-134270209D01*
X117747923Y-134308304D01*
X117671733Y-134308304D01*
X117595542Y-134270209D01*
X117557447Y-134232114D01*
X117519352Y-134155923D01*
X117481257Y-134003542D01*
X117443161Y-133927352D01*
X117405066Y-133889257D01*
X117328876Y-133851161D01*
X117252685Y-133851161D01*
X117176495Y-133889257D01*
X117138400Y-133927352D01*
X117100304Y-134003542D01*
X117100304Y-134194019D01*
X117138400Y-134308304D01*
X117100304Y-134574971D02*
X117900304Y-134765447D01*
X117328876Y-134917828D01*
X117900304Y-135070209D01*
X117100304Y-135260685D01*
X117900304Y-135565447D02*
X117100304Y-135565447D01*
X117100304Y-135755923D01*
X117138400Y-135870209D01*
X117214590Y-135946400D01*
X117290780Y-135984495D01*
X117443161Y-136022590D01*
X117557447Y-136022590D01*
X117709828Y-135984495D01*
X117786019Y-135946400D01*
X117862209Y-135870209D01*
X117900304Y-135755923D01*
X117900304Y-135565447D01*
X117900304Y-136365447D02*
X117100304Y-136365447D01*
X117100304Y-136898780D02*
X117100304Y-137051161D01*
X117138400Y-137127352D01*
X117214590Y-137203542D01*
X117366971Y-137241638D01*
X117633638Y-137241638D01*
X117786019Y-137203542D01*
X117862209Y-137127352D01*
X117900304Y-137051161D01*
X117900304Y-136898780D01*
X117862209Y-136822590D01*
X117786019Y-136746400D01*
X117633638Y-136708304D01*
X117366971Y-136708304D01*
X117214590Y-136746400D01*
X117138400Y-136822590D01*
X117100304Y-136898780D01*
X89188992Y-141994922D02*
X89215929Y-141914110D01*
X89296741Y-141833297D01*
X89404491Y-141779423D01*
X89512241Y-141779423D01*
X89593053Y-141806360D01*
X89727740Y-141887172D01*
X89808552Y-141967984D01*
X89889364Y-142102671D01*
X89916302Y-142183484D01*
X89916302Y-142291233D01*
X89862427Y-142398983D01*
X89808552Y-142452858D01*
X89700802Y-142506732D01*
X89646928Y-142506732D01*
X89458366Y-142318171D01*
X89566115Y-142210421D01*
X89458366Y-142803044D02*
X88892680Y-142237358D01*
X88677181Y-142452858D01*
X88650244Y-142533670D01*
X88650244Y-142587545D01*
X88677181Y-142668357D01*
X88757993Y-142749169D01*
X88838806Y-142776106D01*
X88892680Y-142776106D01*
X88973493Y-142749169D01*
X89188992Y-142533670D01*
X88407807Y-142829981D02*
X88353932Y-142829981D01*
X88273120Y-142856919D01*
X88138433Y-142991606D01*
X88111496Y-143072418D01*
X88111496Y-143126293D01*
X88138433Y-143207105D01*
X88192308Y-143260980D01*
X88300058Y-143314854D01*
X88946555Y-143314854D01*
X88596369Y-143665041D01*
X87545810Y-143584228D02*
X87653560Y-143476479D01*
X87734372Y-143449541D01*
X87788247Y-143449541D01*
X87922934Y-143476479D01*
X88057621Y-143557291D01*
X88273120Y-143772790D01*
X88300058Y-143853602D01*
X88300058Y-143907477D01*
X88273120Y-143988289D01*
X88165371Y-144096039D01*
X88084558Y-144122976D01*
X88030684Y-144122976D01*
X87949871Y-144096039D01*
X87815184Y-143961352D01*
X87788247Y-143880540D01*
X87788247Y-143826665D01*
X87815184Y-143745853D01*
X87922934Y-143638103D01*
X88003746Y-143611166D01*
X88057621Y-143611166D01*
X88138433Y-143638103D01*
X103920992Y-135441722D02*
X103947929Y-135360910D01*
X104028741Y-135280097D01*
X104136491Y-135226223D01*
X104244241Y-135226223D01*
X104325053Y-135253160D01*
X104459740Y-135333972D01*
X104540552Y-135414784D01*
X104621364Y-135549471D01*
X104648302Y-135630284D01*
X104648302Y-135738033D01*
X104594427Y-135845783D01*
X104540552Y-135899658D01*
X104432802Y-135953532D01*
X104378928Y-135953532D01*
X104190366Y-135764971D01*
X104298115Y-135657221D01*
X104190366Y-136249844D02*
X103624680Y-135684158D01*
X103409181Y-135899658D01*
X103382244Y-135980470D01*
X103382244Y-136034345D01*
X103409181Y-136115157D01*
X103489993Y-136195969D01*
X103570806Y-136222906D01*
X103624680Y-136222906D01*
X103705493Y-136195969D01*
X103920992Y-135980470D01*
X103139807Y-136276781D02*
X103085932Y-136276781D01*
X103005120Y-136303719D01*
X102870433Y-136438406D01*
X102843496Y-136519218D01*
X102843496Y-136573093D01*
X102870433Y-136653905D01*
X102924308Y-136707780D01*
X103032058Y-136761654D01*
X103678555Y-136761654D01*
X103328369Y-137111841D01*
X102412497Y-136896341D02*
X102358623Y-136950216D01*
X102331685Y-137031028D01*
X102331685Y-137084903D01*
X102358623Y-137165715D01*
X102439435Y-137300402D01*
X102574122Y-137435089D01*
X102708809Y-137515902D01*
X102789621Y-137542839D01*
X102843496Y-137542839D01*
X102924308Y-137515902D01*
X102978183Y-137462027D01*
X103005120Y-137381215D01*
X103005120Y-137327340D01*
X102978183Y-137246528D01*
X102897371Y-137111841D01*
X102762684Y-136977154D01*
X102627997Y-136896341D01*
X102547184Y-136869404D01*
X102493310Y-136869404D01*
X102412497Y-136896341D01*
X105521192Y-122741722D02*
X105548129Y-122660910D01*
X105628941Y-122580097D01*
X105736691Y-122526223D01*
X105844441Y-122526223D01*
X105925253Y-122553160D01*
X106059940Y-122633972D01*
X106140752Y-122714784D01*
X106221564Y-122849471D01*
X106248502Y-122930284D01*
X106248502Y-123038033D01*
X106194627Y-123145783D01*
X106140752Y-123199658D01*
X106033002Y-123253532D01*
X105979128Y-123253532D01*
X105790566Y-123064971D01*
X105898315Y-122957221D01*
X105790566Y-123549844D02*
X105224880Y-122984158D01*
X105009381Y-123199658D01*
X104982444Y-123280470D01*
X104982444Y-123334345D01*
X105009381Y-123415157D01*
X105090193Y-123495969D01*
X105171006Y-123522906D01*
X105224880Y-123522906D01*
X105305693Y-123495969D01*
X105521192Y-123280470D01*
X104928569Y-124411841D02*
X105251818Y-124088592D01*
X105090193Y-124250216D02*
X104524508Y-123684531D01*
X104659195Y-123711468D01*
X104766945Y-123711468D01*
X104847757Y-123684531D01*
X104201259Y-124115529D02*
X104147384Y-124115529D01*
X104066572Y-124142467D01*
X103931885Y-124277154D01*
X103904948Y-124357966D01*
X103904948Y-124411841D01*
X103931885Y-124492653D01*
X103985760Y-124546528D01*
X104093510Y-124600402D01*
X104740007Y-124600402D01*
X104389821Y-124950589D01*
X115858992Y-142044122D02*
X115885929Y-141963310D01*
X115966741Y-141882497D01*
X116074491Y-141828623D01*
X116182241Y-141828623D01*
X116263053Y-141855560D01*
X116397740Y-141936372D01*
X116478552Y-142017184D01*
X116559364Y-142151871D01*
X116586302Y-142232684D01*
X116586302Y-142340433D01*
X116532427Y-142448183D01*
X116478552Y-142502058D01*
X116370802Y-142555932D01*
X116316928Y-142555932D01*
X116128366Y-142367371D01*
X116236115Y-142259621D01*
X116128366Y-142852244D02*
X115562680Y-142286558D01*
X115347181Y-142502058D01*
X115320244Y-142582870D01*
X115320244Y-142636745D01*
X115347181Y-142717557D01*
X115427993Y-142798369D01*
X115508806Y-142825306D01*
X115562680Y-142825306D01*
X115643493Y-142798369D01*
X115858992Y-142582870D01*
X115266369Y-143714241D02*
X115589618Y-143390992D01*
X115427993Y-143552616D02*
X114862308Y-142986931D01*
X114996995Y-143013868D01*
X115104745Y-143013868D01*
X115185557Y-142986931D01*
X114215810Y-143633428D02*
X114323560Y-143525679D01*
X114404372Y-143498741D01*
X114458247Y-143498741D01*
X114592934Y-143525679D01*
X114727621Y-143606491D01*
X114943120Y-143821990D01*
X114970058Y-143902802D01*
X114970058Y-143956677D01*
X114943120Y-144037489D01*
X114835371Y-144145239D01*
X114754558Y-144172176D01*
X114700684Y-144172176D01*
X114619871Y-144145239D01*
X114485184Y-144010552D01*
X114458247Y-143929740D01*
X114458247Y-143875865D01*
X114485184Y-143795053D01*
X114592934Y-143687303D01*
X114673746Y-143660366D01*
X114727621Y-143660366D01*
X114808433Y-143687303D01*
X110536555Y-142032558D02*
X110563493Y-141951746D01*
X110644305Y-141870934D01*
X110752054Y-141817059D01*
X110859804Y-141817059D01*
X110940616Y-141843997D01*
X111075303Y-141924809D01*
X111156115Y-142005621D01*
X111236928Y-142140308D01*
X111263865Y-142221120D01*
X111263865Y-142328870D01*
X111209990Y-142436619D01*
X111156115Y-142490494D01*
X111048366Y-142544369D01*
X110994491Y-142544369D01*
X110805929Y-142355807D01*
X110913679Y-142248058D01*
X110805929Y-142840680D02*
X110240244Y-142274995D01*
X110482680Y-143163929D01*
X109916995Y-142598244D01*
X110213306Y-143433303D02*
X109647621Y-142867618D01*
X109512934Y-143002305D01*
X109459059Y-143110054D01*
X109459059Y-143217804D01*
X109485997Y-143298616D01*
X109566809Y-143433303D01*
X109647621Y-143514115D01*
X109782308Y-143594928D01*
X109863120Y-143621865D01*
X109970870Y-143621865D01*
X110078619Y-143567990D01*
X110213306Y-143433303D01*
X74949618Y-116359496D02*
X74976555Y-116278684D01*
X75057367Y-116197871D01*
X75165117Y-116143997D01*
X75272867Y-116143997D01*
X75353679Y-116170934D01*
X75488366Y-116251746D01*
X75569178Y-116332558D01*
X75649990Y-116467245D01*
X75676928Y-116548058D01*
X75676928Y-116655807D01*
X75623053Y-116763557D01*
X75569178Y-116817432D01*
X75461428Y-116871306D01*
X75407554Y-116871306D01*
X75218992Y-116682745D01*
X75326741Y-116574995D01*
X75218992Y-117167618D02*
X74653306Y-116601932D01*
X74437807Y-116817432D01*
X74410870Y-116898244D01*
X74410870Y-116952119D01*
X74437807Y-117032931D01*
X74518619Y-117113743D01*
X74599432Y-117140680D01*
X74653306Y-117140680D01*
X74734119Y-117113743D01*
X74949618Y-116898244D01*
X74168433Y-117194555D02*
X74114558Y-117194555D01*
X74033746Y-117221493D01*
X73899059Y-117356180D01*
X73872122Y-117436992D01*
X73872122Y-117490867D01*
X73899059Y-117571679D01*
X73952934Y-117625554D01*
X74060684Y-117679428D01*
X74707181Y-117679428D01*
X74356995Y-118029615D01*
X67329618Y-116459496D02*
X67356555Y-116378684D01*
X67437367Y-116297871D01*
X67545117Y-116243997D01*
X67652867Y-116243997D01*
X67733679Y-116270934D01*
X67868366Y-116351746D01*
X67949178Y-116432558D01*
X68029990Y-116567245D01*
X68056928Y-116648058D01*
X68056928Y-116755807D01*
X68003053Y-116863557D01*
X67949178Y-116917432D01*
X67841428Y-116971306D01*
X67787554Y-116971306D01*
X67598992Y-116782745D01*
X67706741Y-116674995D01*
X67598992Y-117267618D02*
X67033306Y-116701932D01*
X66817807Y-116917432D01*
X66790870Y-116998244D01*
X66790870Y-117052119D01*
X66817807Y-117132931D01*
X66898619Y-117213743D01*
X66979432Y-117240680D01*
X67033306Y-117240680D01*
X67114119Y-117213743D01*
X67329618Y-116998244D01*
X66359871Y-117375367D02*
X66305997Y-117429242D01*
X66279059Y-117510054D01*
X66279059Y-117563929D01*
X66305997Y-117644741D01*
X66386809Y-117779428D01*
X66521496Y-117914115D01*
X66656183Y-117994928D01*
X66736995Y-118021865D01*
X66790870Y-118021865D01*
X66871682Y-117994928D01*
X66925557Y-117941053D01*
X66952494Y-117860241D01*
X66952494Y-117806366D01*
X66925557Y-117725554D01*
X66844745Y-117590867D01*
X66710058Y-117456180D01*
X66575371Y-117375367D01*
X66494558Y-117348430D01*
X66440684Y-117348430D01*
X66359871Y-117375367D01*
X87649618Y-116459496D02*
X87676555Y-116378684D01*
X87757367Y-116297871D01*
X87865117Y-116243997D01*
X87972867Y-116243997D01*
X88053679Y-116270934D01*
X88188366Y-116351746D01*
X88269178Y-116432558D01*
X88349990Y-116567245D01*
X88376928Y-116648058D01*
X88376928Y-116755807D01*
X88323053Y-116863557D01*
X88269178Y-116917432D01*
X88161428Y-116971306D01*
X88107554Y-116971306D01*
X87918992Y-116782745D01*
X88026741Y-116674995D01*
X87918992Y-117267618D02*
X87353306Y-116701932D01*
X87137807Y-116917432D01*
X87110870Y-116998244D01*
X87110870Y-117052119D01*
X87137807Y-117132931D01*
X87218619Y-117213743D01*
X87299432Y-117240680D01*
X87353306Y-117240680D01*
X87434119Y-117213743D01*
X87649618Y-116998244D01*
X86545184Y-117510054D02*
X86652934Y-117402305D01*
X86733746Y-117375367D01*
X86787621Y-117375367D01*
X86922308Y-117402305D01*
X87056995Y-117483117D01*
X87272494Y-117698616D01*
X87299432Y-117779428D01*
X87299432Y-117833303D01*
X87272494Y-117914115D01*
X87164745Y-118021865D01*
X87083932Y-118048802D01*
X87030058Y-118048802D01*
X86949245Y-118021865D01*
X86814558Y-117887178D01*
X86787621Y-117806366D01*
X86787621Y-117752491D01*
X86814558Y-117671679D01*
X86922308Y-117563929D01*
X87003120Y-117536992D01*
X87056995Y-117536992D01*
X87137807Y-117563929D01*
X72436555Y-142032558D02*
X72463493Y-141951746D01*
X72544305Y-141870934D01*
X72652054Y-141817059D01*
X72759804Y-141817059D01*
X72840616Y-141843997D01*
X72975303Y-141924809D01*
X73056115Y-142005621D01*
X73136928Y-142140308D01*
X73163865Y-142221120D01*
X73163865Y-142328870D01*
X73109990Y-142436619D01*
X73056115Y-142490494D01*
X72948366Y-142544369D01*
X72894491Y-142544369D01*
X72705929Y-142355807D01*
X72813679Y-142248058D01*
X72705929Y-142840680D02*
X72140244Y-142274995D01*
X72382680Y-143163929D01*
X71816995Y-142598244D01*
X72113306Y-143433303D02*
X71547621Y-142867618D01*
X71412934Y-143002305D01*
X71359059Y-143110054D01*
X71359059Y-143217804D01*
X71385997Y-143298616D01*
X71466809Y-143433303D01*
X71547621Y-143514115D01*
X71682308Y-143594928D01*
X71763120Y-143621865D01*
X71870870Y-143621865D01*
X71978619Y-143567990D01*
X72113306Y-143433303D01*
X82569618Y-116459496D02*
X82596555Y-116378684D01*
X82677367Y-116297871D01*
X82785117Y-116243997D01*
X82892867Y-116243997D01*
X82973679Y-116270934D01*
X83108366Y-116351746D01*
X83189178Y-116432558D01*
X83269990Y-116567245D01*
X83296928Y-116648058D01*
X83296928Y-116755807D01*
X83243053Y-116863557D01*
X83189178Y-116917432D01*
X83081428Y-116971306D01*
X83027554Y-116971306D01*
X82838992Y-116782745D01*
X82946741Y-116674995D01*
X82838992Y-117267618D02*
X82273306Y-116701932D01*
X82057807Y-116917432D01*
X82030870Y-116998244D01*
X82030870Y-117052119D01*
X82057807Y-117132931D01*
X82138619Y-117213743D01*
X82219432Y-117240680D01*
X82273306Y-117240680D01*
X82354119Y-117213743D01*
X82569618Y-116998244D01*
X81438247Y-117536992D02*
X81707621Y-117267618D01*
X82003932Y-117510054D01*
X81950058Y-117510054D01*
X81869245Y-117536992D01*
X81734558Y-117671679D01*
X81707621Y-117752491D01*
X81707621Y-117806366D01*
X81734558Y-117887178D01*
X81869245Y-118021865D01*
X81950058Y-118048802D01*
X82003932Y-118048802D01*
X82084745Y-118021865D01*
X82219432Y-117887178D01*
X82246369Y-117806366D01*
X82246369Y-117752491D01*
X95269618Y-116459496D02*
X95296555Y-116378684D01*
X95377367Y-116297871D01*
X95485117Y-116243997D01*
X95592867Y-116243997D01*
X95673679Y-116270934D01*
X95808366Y-116351746D01*
X95889178Y-116432558D01*
X95969990Y-116567245D01*
X95996928Y-116648058D01*
X95996928Y-116755807D01*
X95943053Y-116863557D01*
X95889178Y-116917432D01*
X95781428Y-116971306D01*
X95727554Y-116971306D01*
X95538992Y-116782745D01*
X95646741Y-116674995D01*
X95538992Y-117267618D02*
X94973306Y-116701932D01*
X94757807Y-116917432D01*
X94730870Y-116998244D01*
X94730870Y-117052119D01*
X94757807Y-117132931D01*
X94838619Y-117213743D01*
X94919432Y-117240680D01*
X94973306Y-117240680D01*
X95054119Y-117213743D01*
X95269618Y-116998244D01*
X94946369Y-117860241D02*
X94838619Y-117967990D01*
X94757807Y-117994928D01*
X94703932Y-117994928D01*
X94569245Y-117967990D01*
X94434558Y-117887178D01*
X94219059Y-117671679D01*
X94192122Y-117590867D01*
X94192122Y-117536992D01*
X94219059Y-117456180D01*
X94326809Y-117348430D01*
X94407621Y-117321493D01*
X94461496Y-117321493D01*
X94542308Y-117348430D01*
X94676995Y-117483117D01*
X94703932Y-117563929D01*
X94703932Y-117617804D01*
X94676995Y-117698616D01*
X94569245Y-117806366D01*
X94488433Y-117833303D01*
X94434558Y-117833303D01*
X94353746Y-117806366D01*
X69859618Y-116359496D02*
X69886555Y-116278684D01*
X69967367Y-116197871D01*
X70075117Y-116143997D01*
X70182867Y-116143997D01*
X70263679Y-116170934D01*
X70398366Y-116251746D01*
X70479178Y-116332558D01*
X70559990Y-116467245D01*
X70586928Y-116548058D01*
X70586928Y-116655807D01*
X70533053Y-116763557D01*
X70479178Y-116817432D01*
X70371428Y-116871306D01*
X70317554Y-116871306D01*
X70128992Y-116682745D01*
X70236741Y-116574995D01*
X70128992Y-117167618D02*
X69563306Y-116601932D01*
X69347807Y-116817432D01*
X69320870Y-116898244D01*
X69320870Y-116952119D01*
X69347807Y-117032931D01*
X69428619Y-117113743D01*
X69509432Y-117140680D01*
X69563306Y-117140680D01*
X69644119Y-117113743D01*
X69859618Y-116898244D01*
X69266995Y-118029615D02*
X69590244Y-117706366D01*
X69428619Y-117867990D02*
X68862934Y-117302305D01*
X68997621Y-117329242D01*
X69105371Y-117329242D01*
X69186183Y-117302305D01*
X92729618Y-116459496D02*
X92756555Y-116378684D01*
X92837367Y-116297871D01*
X92945117Y-116243997D01*
X93052867Y-116243997D01*
X93133679Y-116270934D01*
X93268366Y-116351746D01*
X93349178Y-116432558D01*
X93429990Y-116567245D01*
X93456928Y-116648058D01*
X93456928Y-116755807D01*
X93403053Y-116863557D01*
X93349178Y-116917432D01*
X93241428Y-116971306D01*
X93187554Y-116971306D01*
X92998992Y-116782745D01*
X93106741Y-116674995D01*
X92998992Y-117267618D02*
X92433306Y-116701932D01*
X92217807Y-116917432D01*
X92190870Y-116998244D01*
X92190870Y-117052119D01*
X92217807Y-117132931D01*
X92298619Y-117213743D01*
X92379432Y-117240680D01*
X92433306Y-117240680D01*
X92514119Y-117213743D01*
X92729618Y-116998244D01*
X92029245Y-117590867D02*
X92056183Y-117510054D01*
X92056183Y-117456180D01*
X92029245Y-117375367D01*
X92002308Y-117348430D01*
X91921496Y-117321493D01*
X91867621Y-117321493D01*
X91786809Y-117348430D01*
X91679059Y-117456180D01*
X91652122Y-117536992D01*
X91652122Y-117590867D01*
X91679059Y-117671679D01*
X91705997Y-117698616D01*
X91786809Y-117725554D01*
X91840684Y-117725554D01*
X91921496Y-117698616D01*
X92029245Y-117590867D01*
X92110058Y-117563929D01*
X92163932Y-117563929D01*
X92244745Y-117590867D01*
X92352494Y-117698616D01*
X92379432Y-117779428D01*
X92379432Y-117833303D01*
X92352494Y-117914115D01*
X92244745Y-118021865D01*
X92163932Y-118048802D01*
X92110058Y-118048802D01*
X92029245Y-118021865D01*
X91921496Y-117914115D01*
X91894558Y-117833303D01*
X91894558Y-117779428D01*
X91921496Y-117698616D01*
X103184392Y-122944922D02*
X103211329Y-122864110D01*
X103292141Y-122783297D01*
X103399891Y-122729423D01*
X103507641Y-122729423D01*
X103588453Y-122756360D01*
X103723140Y-122837172D01*
X103803952Y-122917984D01*
X103884764Y-123052671D01*
X103911702Y-123133484D01*
X103911702Y-123241233D01*
X103857827Y-123348983D01*
X103803952Y-123402858D01*
X103696202Y-123456732D01*
X103642328Y-123456732D01*
X103453766Y-123268171D01*
X103561515Y-123160421D01*
X103453766Y-123753044D02*
X102888080Y-123187358D01*
X102672581Y-123402858D01*
X102645644Y-123483670D01*
X102645644Y-123537545D01*
X102672581Y-123618357D01*
X102753393Y-123699169D01*
X102834206Y-123726106D01*
X102888080Y-123726106D01*
X102968893Y-123699169D01*
X103184392Y-123483670D01*
X102591769Y-124615041D02*
X102915018Y-124291792D01*
X102753393Y-124453416D02*
X102187708Y-123887731D01*
X102322395Y-123914668D01*
X102430145Y-123914668D01*
X102510957Y-123887731D01*
X102053021Y-125153789D02*
X102376270Y-124830540D01*
X102214645Y-124992164D02*
X101648960Y-124426479D01*
X101783647Y-124453416D01*
X101891397Y-124453416D01*
X101972209Y-124426479D01*
X113318992Y-142044122D02*
X113345929Y-141963310D01*
X113426741Y-141882497D01*
X113534491Y-141828623D01*
X113642241Y-141828623D01*
X113723053Y-141855560D01*
X113857740Y-141936372D01*
X113938552Y-142017184D01*
X114019364Y-142151871D01*
X114046302Y-142232684D01*
X114046302Y-142340433D01*
X113992427Y-142448183D01*
X113938552Y-142502058D01*
X113830802Y-142555932D01*
X113776928Y-142555932D01*
X113588366Y-142367371D01*
X113696115Y-142259621D01*
X113588366Y-142852244D02*
X113022680Y-142286558D01*
X112807181Y-142502058D01*
X112780244Y-142582870D01*
X112780244Y-142636745D01*
X112807181Y-142717557D01*
X112887993Y-142798369D01*
X112968806Y-142825306D01*
X113022680Y-142825306D01*
X113103493Y-142798369D01*
X113318992Y-142582870D01*
X112726369Y-143714241D02*
X113049618Y-143390992D01*
X112887993Y-143552616D02*
X112322308Y-142986931D01*
X112456995Y-143013868D01*
X112564745Y-143013868D01*
X112645557Y-142986931D01*
X111972122Y-143337117D02*
X111594998Y-143714241D01*
X112403120Y-144037489D01*
X101390992Y-135441722D02*
X101417929Y-135360910D01*
X101498741Y-135280097D01*
X101606491Y-135226223D01*
X101714241Y-135226223D01*
X101795053Y-135253160D01*
X101929740Y-135333972D01*
X102010552Y-135414784D01*
X102091364Y-135549471D01*
X102118302Y-135630284D01*
X102118302Y-135738033D01*
X102064427Y-135845783D01*
X102010552Y-135899658D01*
X101902802Y-135953532D01*
X101848928Y-135953532D01*
X101660366Y-135764971D01*
X101768115Y-135657221D01*
X101660366Y-136249844D02*
X101094680Y-135684158D01*
X100879181Y-135899658D01*
X100852244Y-135980470D01*
X100852244Y-136034345D01*
X100879181Y-136115157D01*
X100959993Y-136195969D01*
X101040806Y-136222906D01*
X101094680Y-136222906D01*
X101175493Y-136195969D01*
X101390992Y-135980470D01*
X100609807Y-136276781D02*
X100555932Y-136276781D01*
X100475120Y-136303719D01*
X100340433Y-136438406D01*
X100313496Y-136519218D01*
X100313496Y-136573093D01*
X100340433Y-136653905D01*
X100394308Y-136707780D01*
X100502058Y-136761654D01*
X101148555Y-136761654D01*
X100798369Y-137111841D01*
X100259621Y-137650589D02*
X100582870Y-137327340D01*
X100421245Y-137488964D02*
X99855560Y-136923279D01*
X99990247Y-136950216D01*
X100097997Y-136950216D01*
X100178809Y-136923279D01*
X80029618Y-116459496D02*
X80056555Y-116378684D01*
X80137367Y-116297871D01*
X80245117Y-116243997D01*
X80352867Y-116243997D01*
X80433679Y-116270934D01*
X80568366Y-116351746D01*
X80649178Y-116432558D01*
X80729990Y-116567245D01*
X80756928Y-116648058D01*
X80756928Y-116755807D01*
X80703053Y-116863557D01*
X80649178Y-116917432D01*
X80541428Y-116971306D01*
X80487554Y-116971306D01*
X80298992Y-116782745D01*
X80406741Y-116674995D01*
X80298992Y-117267618D02*
X79733306Y-116701932D01*
X79517807Y-116917432D01*
X79490870Y-116998244D01*
X79490870Y-117052119D01*
X79517807Y-117132931D01*
X79598619Y-117213743D01*
X79679432Y-117240680D01*
X79733306Y-117240680D01*
X79814119Y-117213743D01*
X80029618Y-116998244D01*
X79113746Y-117698616D02*
X79490870Y-118075740D01*
X79032934Y-117348430D02*
X79571682Y-117617804D01*
X79221496Y-117967990D01*
X85136555Y-116432558D02*
X85163493Y-116351746D01*
X85244305Y-116270934D01*
X85352054Y-116217059D01*
X85459804Y-116217059D01*
X85540616Y-116243997D01*
X85675303Y-116324809D01*
X85756115Y-116405621D01*
X85836928Y-116540308D01*
X85863865Y-116621120D01*
X85863865Y-116728870D01*
X85809990Y-116836619D01*
X85756115Y-116890494D01*
X85648366Y-116944369D01*
X85594491Y-116944369D01*
X85405929Y-116755807D01*
X85513679Y-116648058D01*
X85405929Y-117240680D02*
X84840244Y-116674995D01*
X85082680Y-117563929D01*
X84516995Y-116998244D01*
X84813306Y-117833303D02*
X84247621Y-117267618D01*
X84112934Y-117402305D01*
X84059059Y-117510054D01*
X84059059Y-117617804D01*
X84085997Y-117698616D01*
X84166809Y-117833303D01*
X84247621Y-117914115D01*
X84382308Y-117994928D01*
X84463120Y-118021865D01*
X84570870Y-118021865D01*
X84678619Y-117967990D01*
X84813306Y-117833303D01*
X67865709Y-141899529D02*
X68242833Y-142653777D01*
X67488586Y-142276653D01*
X67380836Y-142923151D02*
X67326961Y-143030900D01*
X67326961Y-143084775D01*
X67353899Y-143165587D01*
X67434711Y-143246400D01*
X67515523Y-143273337D01*
X67569398Y-143273337D01*
X67650210Y-143246400D01*
X67865709Y-143030900D01*
X67300024Y-142465215D01*
X67111462Y-142653777D01*
X67084525Y-142734589D01*
X67084525Y-142788464D01*
X67111462Y-142869276D01*
X67165337Y-142923151D01*
X67246149Y-142950088D01*
X67300024Y-142950088D01*
X67380836Y-142923151D01*
X67569398Y-142734589D01*
X66734338Y-143030900D02*
X67192274Y-143488836D01*
X67219212Y-143569648D01*
X67219212Y-143623523D01*
X67192274Y-143704335D01*
X67084525Y-143812085D01*
X67003712Y-143839022D01*
X66949838Y-143839022D01*
X66869025Y-143812085D01*
X66411090Y-143354149D01*
X66707401Y-144135334D02*
X66653526Y-144243083D01*
X66518839Y-144377770D01*
X66438027Y-144404708D01*
X66384152Y-144404708D01*
X66303340Y-144377770D01*
X66249465Y-144323896D01*
X66222528Y-144243083D01*
X66222528Y-144189209D01*
X66249465Y-144108396D01*
X66330277Y-143973709D01*
X66357215Y-143892897D01*
X66357215Y-143839022D01*
X66330277Y-143758210D01*
X66276403Y-143704335D01*
X66195590Y-143677398D01*
X66141716Y-143677398D01*
X66060903Y-143704335D01*
X65926216Y-143839022D01*
X65872342Y-143946772D01*
X109000992Y-135441722D02*
X109027929Y-135360910D01*
X109108741Y-135280097D01*
X109216491Y-135226223D01*
X109324241Y-135226223D01*
X109405053Y-135253160D01*
X109539740Y-135333972D01*
X109620552Y-135414784D01*
X109701364Y-135549471D01*
X109728302Y-135630284D01*
X109728302Y-135738033D01*
X109674427Y-135845783D01*
X109620552Y-135899658D01*
X109512802Y-135953532D01*
X109458928Y-135953532D01*
X109270366Y-135764971D01*
X109378115Y-135657221D01*
X109270366Y-136249844D02*
X108704680Y-135684158D01*
X108489181Y-135899658D01*
X108462244Y-135980470D01*
X108462244Y-136034345D01*
X108489181Y-136115157D01*
X108569993Y-136195969D01*
X108650806Y-136222906D01*
X108704680Y-136222906D01*
X108785493Y-136195969D01*
X109000992Y-135980470D01*
X108408369Y-137111841D02*
X108731618Y-136788592D01*
X108569993Y-136950216D02*
X108004308Y-136384531D01*
X108138995Y-136411468D01*
X108246745Y-136411468D01*
X108327557Y-136384531D01*
X107761871Y-137111841D02*
X107788809Y-137031028D01*
X107788809Y-136977154D01*
X107761871Y-136896341D01*
X107734934Y-136869404D01*
X107654122Y-136842467D01*
X107600247Y-136842467D01*
X107519435Y-136869404D01*
X107411685Y-136977154D01*
X107384748Y-137057966D01*
X107384748Y-137111841D01*
X107411685Y-137192653D01*
X107438623Y-137219590D01*
X107519435Y-137246528D01*
X107573310Y-137246528D01*
X107654122Y-137219590D01*
X107761871Y-137111841D01*
X107842684Y-137084903D01*
X107896558Y-137084903D01*
X107977371Y-137111841D01*
X108085120Y-137219590D01*
X108112058Y-137300402D01*
X108112058Y-137354277D01*
X108085120Y-137435089D01*
X107977371Y-137542839D01*
X107896558Y-137569776D01*
X107842684Y-137569776D01*
X107761871Y-137542839D01*
X107654122Y-137435089D01*
X107627184Y-137354277D01*
X107627184Y-137300402D01*
X107654122Y-137219590D01*
X90159618Y-116559496D02*
X90186555Y-116478684D01*
X90267367Y-116397871D01*
X90375117Y-116343997D01*
X90482867Y-116343997D01*
X90563679Y-116370934D01*
X90698366Y-116451746D01*
X90779178Y-116532558D01*
X90859990Y-116667245D01*
X90886928Y-116748058D01*
X90886928Y-116855807D01*
X90833053Y-116963557D01*
X90779178Y-117017432D01*
X90671428Y-117071306D01*
X90617554Y-117071306D01*
X90428992Y-116882745D01*
X90536741Y-116774995D01*
X90428992Y-117367618D02*
X89863306Y-116801932D01*
X89647807Y-117017432D01*
X89620870Y-117098244D01*
X89620870Y-117152119D01*
X89647807Y-117232931D01*
X89728619Y-117313743D01*
X89809432Y-117340680D01*
X89863306Y-117340680D01*
X89944119Y-117313743D01*
X90159618Y-117098244D01*
X89351496Y-117313743D02*
X88974372Y-117690867D01*
X89782494Y-118014115D01*
X106460992Y-135441722D02*
X106487929Y-135360910D01*
X106568741Y-135280097D01*
X106676491Y-135226223D01*
X106784241Y-135226223D01*
X106865053Y-135253160D01*
X106999740Y-135333972D01*
X107080552Y-135414784D01*
X107161364Y-135549471D01*
X107188302Y-135630284D01*
X107188302Y-135738033D01*
X107134427Y-135845783D01*
X107080552Y-135899658D01*
X106972802Y-135953532D01*
X106918928Y-135953532D01*
X106730366Y-135764971D01*
X106838115Y-135657221D01*
X106730366Y-136249844D02*
X106164680Y-135684158D01*
X105949181Y-135899658D01*
X105922244Y-135980470D01*
X105922244Y-136034345D01*
X105949181Y-136115157D01*
X106029993Y-136195969D01*
X106110806Y-136222906D01*
X106164680Y-136222906D01*
X106245493Y-136195969D01*
X106460992Y-135980470D01*
X105868369Y-137111841D02*
X106191618Y-136788592D01*
X106029993Y-136950216D02*
X105464308Y-136384531D01*
X105598995Y-136411468D01*
X105706745Y-136411468D01*
X105787557Y-136384531D01*
X105598995Y-137381215D02*
X105491245Y-137488964D01*
X105410433Y-137515902D01*
X105356558Y-137515902D01*
X105221871Y-137488964D01*
X105087184Y-137408152D01*
X104871685Y-137192653D01*
X104844748Y-137111841D01*
X104844748Y-137057966D01*
X104871685Y-136977154D01*
X104979435Y-136869404D01*
X105060247Y-136842467D01*
X105114122Y-136842467D01*
X105194934Y-136869404D01*
X105329621Y-137004091D01*
X105356558Y-137084903D01*
X105356558Y-137138778D01*
X105329621Y-137219590D01*
X105221871Y-137327340D01*
X105141059Y-137354277D01*
X105087184Y-137354277D01*
X105006372Y-137327340D01*
X78214192Y-135400647D02*
X77864006Y-135750833D01*
X78268067Y-135777771D01*
X78187254Y-135858583D01*
X78160317Y-135939395D01*
X78160317Y-135993270D01*
X78187254Y-136074082D01*
X78321941Y-136208769D01*
X78402754Y-136235706D01*
X78456628Y-136235706D01*
X78537441Y-136208769D01*
X78699065Y-136047145D01*
X78726002Y-135966332D01*
X78726002Y-135912458D01*
X77702381Y-135912458D02*
X78079505Y-136666705D01*
X77325258Y-136289581D01*
X77190571Y-136424268D02*
X76840384Y-136774454D01*
X77244445Y-136801392D01*
X77163633Y-136882204D01*
X77136696Y-136963016D01*
X77136696Y-137016891D01*
X77163633Y-137097703D01*
X77298320Y-137232390D01*
X77379132Y-137259328D01*
X77433007Y-137259328D01*
X77513819Y-137232390D01*
X77675444Y-137070766D01*
X77702381Y-136989954D01*
X77702381Y-136936079D01*
X82970192Y-135608522D02*
X82997129Y-135527710D01*
X83077941Y-135446897D01*
X83185691Y-135393023D01*
X83293441Y-135393023D01*
X83374253Y-135419960D01*
X83508940Y-135500772D01*
X83589752Y-135581584D01*
X83670564Y-135716271D01*
X83697502Y-135797084D01*
X83697502Y-135904833D01*
X83643627Y-136012583D01*
X83589752Y-136066458D01*
X83482002Y-136120332D01*
X83428128Y-136120332D01*
X83239566Y-135931771D01*
X83347315Y-135824021D01*
X83239566Y-136416644D02*
X82673880Y-135850958D01*
X82458381Y-136066458D01*
X82431444Y-136147270D01*
X82431444Y-136201145D01*
X82458381Y-136281957D01*
X82539193Y-136362769D01*
X82620006Y-136389706D01*
X82673880Y-136389706D01*
X82754693Y-136362769D01*
X82970192Y-136147270D01*
X82189007Y-136443581D02*
X82135132Y-136443581D01*
X82054320Y-136470519D01*
X81919633Y-136605206D01*
X81892696Y-136686018D01*
X81892696Y-136739893D01*
X81919633Y-136820705D01*
X81973508Y-136874580D01*
X82081258Y-136928454D01*
X82727755Y-136928454D01*
X82377569Y-137278641D01*
X81731071Y-137278641D02*
X81758009Y-137197828D01*
X81758009Y-137143954D01*
X81731071Y-137063141D01*
X81704134Y-137036204D01*
X81623322Y-137009267D01*
X81569447Y-137009267D01*
X81488635Y-137036204D01*
X81380885Y-137143954D01*
X81353948Y-137224766D01*
X81353948Y-137278641D01*
X81380885Y-137359453D01*
X81407823Y-137386390D01*
X81488635Y-137413328D01*
X81542510Y-137413328D01*
X81623322Y-137386390D01*
X81731071Y-137278641D01*
X81811884Y-137251703D01*
X81865758Y-137251703D01*
X81946571Y-137278641D01*
X82054320Y-137386390D01*
X82081258Y-137467202D01*
X82081258Y-137521077D01*
X82054320Y-137601889D01*
X81946571Y-137709639D01*
X81865758Y-137736576D01*
X81811884Y-137736576D01*
X81731071Y-137709639D01*
X81623322Y-137601889D01*
X81596384Y-137521077D01*
X81596384Y-137467202D01*
X81623322Y-137386390D01*
X107857992Y-122640122D02*
X107884929Y-122559310D01*
X107965741Y-122478497D01*
X108073491Y-122424623D01*
X108181241Y-122424623D01*
X108262053Y-122451560D01*
X108396740Y-122532372D01*
X108477552Y-122613184D01*
X108558364Y-122747871D01*
X108585302Y-122828684D01*
X108585302Y-122936433D01*
X108531427Y-123044183D01*
X108477552Y-123098058D01*
X108369802Y-123151932D01*
X108315928Y-123151932D01*
X108127366Y-122963371D01*
X108235115Y-122855621D01*
X108127366Y-123448244D02*
X107561680Y-122882558D01*
X107346181Y-123098058D01*
X107319244Y-123178870D01*
X107319244Y-123232745D01*
X107346181Y-123313557D01*
X107426993Y-123394369D01*
X107507806Y-123421306D01*
X107561680Y-123421306D01*
X107642493Y-123394369D01*
X107857992Y-123178870D01*
X107265369Y-124310241D02*
X107588618Y-123986992D01*
X107426993Y-124148616D02*
X106861308Y-123582931D01*
X106995995Y-123609868D01*
X107103745Y-123609868D01*
X107184557Y-123582931D01*
X106511122Y-123933117D02*
X106160936Y-124283303D01*
X106564997Y-124310241D01*
X106484184Y-124391053D01*
X106457247Y-124471865D01*
X106457247Y-124525740D01*
X106484184Y-124606552D01*
X106618871Y-124741239D01*
X106699684Y-124768176D01*
X106753558Y-124768176D01*
X106834371Y-124741239D01*
X106995995Y-124579615D01*
X107022932Y-124498802D01*
X107022932Y-124444928D01*
X86464564Y-135662397D02*
X86195190Y-135931771D01*
X86680063Y-135770146D02*
X85925816Y-135393023D01*
X86302940Y-136147270D01*
X85279319Y-136093395D02*
X85306256Y-136012583D01*
X85387068Y-135931771D01*
X85494818Y-135877896D01*
X85602567Y-135877896D01*
X85683380Y-135904833D01*
X85818067Y-135985645D01*
X85898879Y-136066458D01*
X85979691Y-136201145D01*
X86006628Y-136281957D01*
X86006628Y-136389706D01*
X85952754Y-136497456D01*
X85898879Y-136551331D01*
X85791129Y-136605206D01*
X85737254Y-136605206D01*
X85548693Y-136416644D01*
X85656442Y-136308894D01*
X85548693Y-136901517D02*
X84983007Y-136335832D01*
X85225444Y-137224766D01*
X84659758Y-136659080D01*
X84956070Y-137494140D02*
X84390384Y-136928454D01*
X84255697Y-137063141D01*
X84201823Y-137170891D01*
X84201823Y-137278641D01*
X84228760Y-137359453D01*
X84309572Y-137494140D01*
X84390384Y-137574952D01*
X84525071Y-137655764D01*
X84605884Y-137682702D01*
X84713633Y-137682702D01*
X84821383Y-137628827D01*
X84956070Y-137494140D01*
X94043835Y-136182375D02*
X93963022Y-135724439D01*
X94367083Y-135859126D02*
X93801398Y-135293441D01*
X93585899Y-135508940D01*
X93558961Y-135589752D01*
X93558961Y-135643627D01*
X93585899Y-135724439D01*
X93666711Y-135805251D01*
X93747523Y-135832189D01*
X93801398Y-135832189D01*
X93882210Y-135805251D01*
X94097709Y-135589752D01*
X93235712Y-135859126D02*
X93693648Y-136317062D01*
X93720586Y-136397874D01*
X93720586Y-136451749D01*
X93693648Y-136532561D01*
X93585899Y-136640311D01*
X93505087Y-136667248D01*
X93451212Y-136667248D01*
X93370400Y-136640311D01*
X92912464Y-136182375D01*
X93208775Y-137017435D02*
X92643090Y-136451749D01*
X92885526Y-137340683D01*
X92319841Y-136774998D01*
X77256708Y-134162931D02*
X76906522Y-134513117D01*
X77310583Y-134540055D01*
X77229770Y-134620867D01*
X77202833Y-134701679D01*
X77202833Y-134755554D01*
X77229770Y-134836366D01*
X77364457Y-134971053D01*
X77445270Y-134997990D01*
X77499144Y-134997990D01*
X77579957Y-134971053D01*
X77741581Y-134809429D01*
X77768518Y-134728616D01*
X77768518Y-134674742D01*
X76744897Y-134674742D02*
X77122021Y-135428989D01*
X76367774Y-135051865D01*
X76233087Y-135186552D02*
X75882900Y-135536738D01*
X76286961Y-135563676D01*
X76206149Y-135644488D01*
X76179212Y-135725300D01*
X76179212Y-135779175D01*
X76206149Y-135859987D01*
X76340836Y-135994674D01*
X76421648Y-136021612D01*
X76475523Y-136021612D01*
X76556335Y-135994674D01*
X76717960Y-135833050D01*
X76744897Y-135752238D01*
X76744897Y-135698363D01*
X76394711Y-136264048D02*
X75963712Y-136695047D01*
X75478839Y-136479548D02*
X75290277Y-136668109D01*
X75505777Y-137045233D02*
X75775151Y-136775859D01*
X75209465Y-136210174D01*
X74940091Y-136479548D01*
X75263340Y-137287670D02*
X74697655Y-136721984D01*
X74940091Y-137610918D01*
X74374406Y-137045233D01*
X110536555Y-116432558D02*
X110563493Y-116351746D01*
X110644305Y-116270934D01*
X110752054Y-116217059D01*
X110859804Y-116217059D01*
X110940616Y-116243997D01*
X111075303Y-116324809D01*
X111156115Y-116405621D01*
X111236928Y-116540308D01*
X111263865Y-116621120D01*
X111263865Y-116728870D01*
X111209990Y-116836619D01*
X111156115Y-116890494D01*
X111048366Y-116944369D01*
X110994491Y-116944369D01*
X110805929Y-116755807D01*
X110913679Y-116648058D01*
X110805929Y-117240680D02*
X110240244Y-116674995D01*
X110482680Y-117563929D01*
X109916995Y-116998244D01*
X110213306Y-117833303D02*
X109647621Y-117267618D01*
X109512934Y-117402305D01*
X109459059Y-117510054D01*
X109459059Y-117617804D01*
X109485997Y-117698616D01*
X109566809Y-117833303D01*
X109647621Y-117914115D01*
X109782308Y-117994928D01*
X109863120Y-118021865D01*
X109970870Y-118021865D01*
X110078619Y-117967990D01*
X110213306Y-117833303D01*
X70408366Y-141866873D02*
X70785489Y-142621120D01*
X70031242Y-142243997D01*
X70408366Y-142944369D02*
X70354491Y-143052119D01*
X70219804Y-143186806D01*
X70138992Y-143213743D01*
X70085117Y-143213743D01*
X70004305Y-143186806D01*
X69950430Y-143132931D01*
X69923493Y-143052119D01*
X69923493Y-142998244D01*
X69950430Y-142917432D01*
X70031242Y-142782745D01*
X70058180Y-142701932D01*
X70058180Y-142648058D01*
X70031242Y-142567245D01*
X69977367Y-142513371D01*
X69896555Y-142486433D01*
X69842680Y-142486433D01*
X69761868Y-142513371D01*
X69627181Y-142648058D01*
X69573306Y-142755807D01*
X69492494Y-143375367D02*
X69761868Y-143644741D01*
X69384745Y-142890494D02*
X69492494Y-143375367D01*
X69007621Y-143267618D01*
X69384745Y-143967990D02*
X69330870Y-144075740D01*
X69196183Y-144210427D01*
X69115371Y-144237364D01*
X69061496Y-144237364D01*
X68980684Y-144210427D01*
X68926809Y-144156552D01*
X68899871Y-144075740D01*
X68899871Y-144021865D01*
X68926809Y-143941053D01*
X69007621Y-143806366D01*
X69034558Y-143725554D01*
X69034558Y-143671679D01*
X69007621Y-143590867D01*
X68953746Y-143536992D01*
X68872934Y-143510054D01*
X68819059Y-143510054D01*
X68738247Y-143536992D01*
X68603560Y-143671679D01*
X68549685Y-143779428D01*
X115858992Y-115936122D02*
X115885929Y-115855310D01*
X115966741Y-115774497D01*
X116074491Y-115720623D01*
X116182241Y-115720623D01*
X116263053Y-115747560D01*
X116397740Y-115828372D01*
X116478552Y-115909184D01*
X116559364Y-116043871D01*
X116586302Y-116124684D01*
X116586302Y-116232433D01*
X116532427Y-116340183D01*
X116478552Y-116394058D01*
X116370802Y-116447932D01*
X116316928Y-116447932D01*
X116128366Y-116259371D01*
X116236115Y-116151621D01*
X116128366Y-116744244D02*
X115562680Y-116178558D01*
X115347181Y-116394058D01*
X115320244Y-116474870D01*
X115320244Y-116528745D01*
X115347181Y-116609557D01*
X115427993Y-116690369D01*
X115508806Y-116717306D01*
X115562680Y-116717306D01*
X115643493Y-116690369D01*
X115858992Y-116474870D01*
X115266369Y-117606241D02*
X115589618Y-117282992D01*
X115427993Y-117444616D02*
X114862308Y-116878931D01*
X114996995Y-116905868D01*
X115104745Y-116905868D01*
X115185557Y-116878931D01*
X114188873Y-117552366D02*
X114458247Y-117282992D01*
X114754558Y-117525428D01*
X114700684Y-117525428D01*
X114619871Y-117552366D01*
X114485184Y-117687053D01*
X114458247Y-117767865D01*
X114458247Y-117821740D01*
X114485184Y-117902552D01*
X114619871Y-118037239D01*
X114700684Y-118064176D01*
X114754558Y-118064176D01*
X114835371Y-118037239D01*
X114970058Y-117902552D01*
X114996995Y-117821740D01*
X114996995Y-117767865D01*
X117862209Y-122436876D02*
X117900304Y-122551161D01*
X117900304Y-122741638D01*
X117862209Y-122817828D01*
X117824114Y-122855923D01*
X117747923Y-122894019D01*
X117671733Y-122894019D01*
X117595542Y-122855923D01*
X117557447Y-122817828D01*
X117519352Y-122741638D01*
X117481257Y-122589257D01*
X117443161Y-122513066D01*
X117405066Y-122474971D01*
X117328876Y-122436876D01*
X117252685Y-122436876D01*
X117176495Y-122474971D01*
X117138400Y-122513066D01*
X117100304Y-122589257D01*
X117100304Y-122779733D01*
X117138400Y-122894019D01*
X117100304Y-123160685D02*
X117900304Y-123351161D01*
X117328876Y-123503542D01*
X117900304Y-123655923D01*
X117100304Y-123846400D01*
X117824114Y-124608304D02*
X117862209Y-124570209D01*
X117900304Y-124455923D01*
X117900304Y-124379733D01*
X117862209Y-124265447D01*
X117786019Y-124189257D01*
X117709828Y-124151161D01*
X117557447Y-124113066D01*
X117443161Y-124113066D01*
X117290780Y-124151161D01*
X117214590Y-124189257D01*
X117138400Y-124265447D01*
X117100304Y-124379733D01*
X117100304Y-124455923D01*
X117138400Y-124570209D01*
X117176495Y-124608304D01*
X117900304Y-125332114D02*
X117900304Y-124951161D01*
X117100304Y-124951161D01*
X117900304Y-125598780D02*
X117100304Y-125598780D01*
X117900304Y-126055923D02*
X117443161Y-125713066D01*
X117100304Y-126055923D02*
X117557447Y-125598780D01*
X113318992Y-115890122D02*
X113345929Y-115809310D01*
X113426741Y-115728497D01*
X113534491Y-115674623D01*
X113642241Y-115674623D01*
X113723053Y-115701560D01*
X113857740Y-115782372D01*
X113938552Y-115863184D01*
X114019364Y-115997871D01*
X114046302Y-116078684D01*
X114046302Y-116186433D01*
X113992427Y-116294183D01*
X113938552Y-116348058D01*
X113830802Y-116401932D01*
X113776928Y-116401932D01*
X113588366Y-116213371D01*
X113696115Y-116105621D01*
X113588366Y-116698244D02*
X113022680Y-116132558D01*
X112807181Y-116348058D01*
X112780244Y-116428870D01*
X112780244Y-116482745D01*
X112807181Y-116563557D01*
X112887993Y-116644369D01*
X112968806Y-116671306D01*
X113022680Y-116671306D01*
X113103493Y-116644369D01*
X113318992Y-116428870D01*
X112726369Y-117560241D02*
X113049618Y-117236992D01*
X112887993Y-117398616D02*
X112322308Y-116832931D01*
X112456995Y-116859868D01*
X112564745Y-116859868D01*
X112645557Y-116832931D01*
X111864372Y-117667990D02*
X112241496Y-118045114D01*
X111783560Y-117317804D02*
X112322308Y-117587178D01*
X111972122Y-117937364D01*
X83262973Y-133638388D02*
X82993599Y-133907762D01*
X83478472Y-133746137D02*
X82724225Y-133369014D01*
X83101349Y-134123261D01*
X82912787Y-134311823D02*
X82347102Y-133746137D01*
X82212415Y-133880824D01*
X82158540Y-133988574D01*
X82158540Y-134096323D01*
X82185477Y-134177136D01*
X82266289Y-134311823D01*
X82347102Y-134392635D01*
X82481789Y-134473447D01*
X82562601Y-134500384D01*
X82670350Y-134500384D01*
X82778100Y-134446510D01*
X82912787Y-134311823D01*
X81969978Y-135146882D02*
X82023853Y-135146882D01*
X82131602Y-135093007D01*
X82185477Y-135039132D01*
X82239352Y-134931383D01*
X82239352Y-134823633D01*
X82212415Y-134742821D01*
X82131602Y-134608134D01*
X82050790Y-134527322D01*
X81916103Y-134446510D01*
X81835291Y-134419572D01*
X81727541Y-134419572D01*
X81619792Y-134473447D01*
X81565917Y-134527322D01*
X81512042Y-134635071D01*
X81512042Y-134688946D01*
X81969978Y-135362381D02*
X81538980Y-135793380D01*
X80865545Y-135227694D02*
X81242668Y-135981941D01*
X80488421Y-135604818D01*
X80542296Y-136682314D02*
X80461484Y-136224378D01*
X80865545Y-136359065D02*
X80299859Y-135793380D01*
X80084360Y-136008879D01*
X80057423Y-136089691D01*
X80057423Y-136143566D01*
X80084360Y-136224378D01*
X80165172Y-136305190D01*
X80245984Y-136332128D01*
X80299859Y-136332128D01*
X80380671Y-136305190D01*
X80596171Y-136089691D01*
X80003548Y-136628439D02*
X79814986Y-136817001D01*
X80030485Y-137194124D02*
X80299859Y-136924750D01*
X79734174Y-136359065D01*
X79464800Y-136628439D01*
X79303175Y-137328811D02*
X79491737Y-137140250D01*
X79788049Y-137436561D02*
X79222363Y-136870876D01*
X78952989Y-137140250D01*
X97836555Y-116432558D02*
X97863493Y-116351746D01*
X97944305Y-116270934D01*
X98052054Y-116217059D01*
X98159804Y-116217059D01*
X98240616Y-116243997D01*
X98375303Y-116324809D01*
X98456115Y-116405621D01*
X98536928Y-116540308D01*
X98563865Y-116621120D01*
X98563865Y-116728870D01*
X98509990Y-116836619D01*
X98456115Y-116890494D01*
X98348366Y-116944369D01*
X98294491Y-116944369D01*
X98105929Y-116755807D01*
X98213679Y-116648058D01*
X98105929Y-117240680D02*
X97540244Y-116674995D01*
X97782680Y-117563929D01*
X97216995Y-116998244D01*
X97513306Y-117833303D02*
X96947621Y-117267618D01*
X96812934Y-117402305D01*
X96759059Y-117510054D01*
X96759059Y-117617804D01*
X96785997Y-117698616D01*
X96866809Y-117833303D01*
X96947621Y-117914115D01*
X97082308Y-117994928D01*
X97163120Y-118021865D01*
X97270870Y-118021865D01*
X97378619Y-117967990D01*
X97513306Y-117833303D01*
X88314192Y-135608522D02*
X88341129Y-135527710D01*
X88421941Y-135446897D01*
X88529691Y-135393023D01*
X88637441Y-135393023D01*
X88718253Y-135419960D01*
X88852940Y-135500772D01*
X88933752Y-135581584D01*
X89014564Y-135716271D01*
X89041502Y-135797084D01*
X89041502Y-135904833D01*
X88987627Y-136012583D01*
X88933752Y-136066458D01*
X88826002Y-136120332D01*
X88772128Y-136120332D01*
X88583566Y-135931771D01*
X88691315Y-135824021D01*
X88583566Y-136416644D02*
X88017880Y-135850958D01*
X87802381Y-136066458D01*
X87775444Y-136147270D01*
X87775444Y-136201145D01*
X87802381Y-136281957D01*
X87883193Y-136362769D01*
X87964006Y-136389706D01*
X88017880Y-136389706D01*
X88098693Y-136362769D01*
X88314192Y-136147270D01*
X87533007Y-136443581D02*
X87479132Y-136443581D01*
X87398320Y-136470519D01*
X87263633Y-136605206D01*
X87236696Y-136686018D01*
X87236696Y-136739893D01*
X87263633Y-136820705D01*
X87317508Y-136874580D01*
X87425258Y-136928454D01*
X88071755Y-136928454D01*
X87721569Y-137278641D01*
X86967322Y-136901517D02*
X86590198Y-137278641D01*
X87398320Y-137601889D01*
X72436555Y-116432558D02*
X72463493Y-116351746D01*
X72544305Y-116270934D01*
X72652054Y-116217059D01*
X72759804Y-116217059D01*
X72840616Y-116243997D01*
X72975303Y-116324809D01*
X73056115Y-116405621D01*
X73136928Y-116540308D01*
X73163865Y-116621120D01*
X73163865Y-116728870D01*
X73109990Y-116836619D01*
X73056115Y-116890494D01*
X72948366Y-116944369D01*
X72894491Y-116944369D01*
X72705929Y-116755807D01*
X72813679Y-116648058D01*
X72705929Y-117240680D02*
X72140244Y-116674995D01*
X72382680Y-117563929D01*
X71816995Y-116998244D01*
X72113306Y-117833303D02*
X71547621Y-117267618D01*
X71412934Y-117402305D01*
X71359059Y-117510054D01*
X71359059Y-117617804D01*
X71385997Y-117698616D01*
X71466809Y-117833303D01*
X71547621Y-117914115D01*
X71682308Y-117994928D01*
X71763120Y-118021865D01*
X71870870Y-118021865D01*
X71978619Y-117967990D01*
X72113306Y-117833303D01*
X96300992Y-135441722D02*
X96327929Y-135360910D01*
X96408741Y-135280097D01*
X96516491Y-135226223D01*
X96624241Y-135226223D01*
X96705053Y-135253160D01*
X96839740Y-135333972D01*
X96920552Y-135414784D01*
X97001364Y-135549471D01*
X97028302Y-135630284D01*
X97028302Y-135738033D01*
X96974427Y-135845783D01*
X96920552Y-135899658D01*
X96812802Y-135953532D01*
X96758928Y-135953532D01*
X96570366Y-135764971D01*
X96678115Y-135657221D01*
X96570366Y-136249844D02*
X96004680Y-135684158D01*
X95789181Y-135899658D01*
X95762244Y-135980470D01*
X95762244Y-136034345D01*
X95789181Y-136115157D01*
X95869993Y-136195969D01*
X95950806Y-136222906D01*
X96004680Y-136222906D01*
X96085493Y-136195969D01*
X96300992Y-135980470D01*
X95519807Y-136276781D02*
X95465932Y-136276781D01*
X95385120Y-136303719D01*
X95250433Y-136438406D01*
X95223496Y-136519218D01*
X95223496Y-136573093D01*
X95250433Y-136653905D01*
X95304308Y-136707780D01*
X95412058Y-136761654D01*
X96058555Y-136761654D01*
X95708369Y-137111841D01*
X94981059Y-136815529D02*
X94927184Y-136815529D01*
X94846372Y-136842467D01*
X94711685Y-136977154D01*
X94684748Y-137057966D01*
X94684748Y-137111841D01*
X94711685Y-137192653D01*
X94765560Y-137246528D01*
X94873310Y-137300402D01*
X95519807Y-137300402D01*
X95169621Y-137650589D01*
X77489618Y-116459496D02*
X77516555Y-116378684D01*
X77597367Y-116297871D01*
X77705117Y-116243997D01*
X77812867Y-116243997D01*
X77893679Y-116270934D01*
X78028366Y-116351746D01*
X78109178Y-116432558D01*
X78189990Y-116567245D01*
X78216928Y-116648058D01*
X78216928Y-116755807D01*
X78163053Y-116863557D01*
X78109178Y-116917432D01*
X78001428Y-116971306D01*
X77947554Y-116971306D01*
X77758992Y-116782745D01*
X77866741Y-116674995D01*
X77758992Y-117267618D02*
X77193306Y-116701932D01*
X76977807Y-116917432D01*
X76950870Y-116998244D01*
X76950870Y-117052119D01*
X76977807Y-117132931D01*
X77058619Y-117213743D01*
X77139432Y-117240680D01*
X77193306Y-117240680D01*
X77274119Y-117213743D01*
X77489618Y-116998244D01*
X76681496Y-117213743D02*
X76331310Y-117563929D01*
X76735371Y-117590867D01*
X76654558Y-117671679D01*
X76627621Y-117752491D01*
X76627621Y-117806366D01*
X76654558Y-117887178D01*
X76789245Y-118021865D01*
X76870058Y-118048802D01*
X76923932Y-118048802D01*
X77004745Y-118021865D01*
X77166369Y-117860241D01*
X77193306Y-117779428D01*
X77193306Y-117725554D01*
D11*
%TO.C,J1001*%
X76382800Y-142126800D02*
X76382800Y-142876800D01*
X77882800Y-142876800D02*
X77882800Y-142126800D01*
X75332800Y-144376800D02*
X75332800Y-147326800D01*
X86432800Y-144376800D02*
X86432800Y-147326800D01*
X74582800Y-144376800D02*
X75332800Y-144376800D01*
X74572800Y-142116800D02*
X87192800Y-142116800D01*
X83882800Y-142126800D02*
X83882800Y-142876800D01*
X74582800Y-142126800D02*
X76382800Y-142126800D01*
X77882800Y-142126800D02*
X83882800Y-142126800D01*
X87482800Y-141826800D02*
X87482800Y-143076800D01*
X83882800Y-142876800D02*
X77882800Y-142876800D01*
X85382800Y-142126800D02*
X87182800Y-142126800D01*
X86432800Y-147326800D02*
X80882800Y-147326800D01*
X75332800Y-147326800D02*
X80882800Y-147326800D01*
X86232800Y-141826800D02*
X87482800Y-141826800D01*
X85382800Y-142876800D02*
X85382800Y-142126800D01*
X87182800Y-142876800D02*
X85382800Y-142876800D01*
X87192800Y-142116800D02*
X87192800Y-148086800D01*
X74582800Y-142876800D02*
X74582800Y-142126800D01*
X76382800Y-142876800D02*
X74582800Y-142876800D01*
X87192800Y-148086800D02*
X74572800Y-148086800D01*
X74572800Y-148086800D02*
X74572800Y-142116800D01*
X87182800Y-142126800D02*
X87182800Y-142876800D01*
X87182800Y-144376800D02*
X86432800Y-144376800D01*
%TO.C,BZ1*%
X150829200Y-108356400D02*
G75*
G03*
X150829200Y-108356400I-6100000J0D01*
G01*
%TO.C,J2*%
X104456800Y-142126800D02*
X104456800Y-142876800D01*
X107766800Y-148086800D02*
X90146800Y-148086800D01*
X107006800Y-147326800D02*
X98956800Y-147326800D01*
X105956800Y-142876800D02*
X105956800Y-142126800D01*
X90906800Y-147326800D02*
X98956800Y-147326800D01*
X107756800Y-142126800D02*
X107756800Y-142876800D01*
X90156800Y-142126800D02*
X91956800Y-142126800D01*
X107756800Y-144376800D02*
X107006800Y-144376800D01*
X93456800Y-142876800D02*
X93456800Y-142126800D01*
X90146800Y-148086800D02*
X90146800Y-142116800D01*
X107766800Y-142116800D02*
X107766800Y-148086800D01*
X91956800Y-142876800D02*
X90156800Y-142876800D01*
X105956800Y-142126800D02*
X107756800Y-142126800D01*
X107756800Y-142876800D02*
X105956800Y-142876800D01*
X108056800Y-141826800D02*
X108056800Y-143076800D01*
X90156800Y-144376800D02*
X90906800Y-144376800D01*
X106806800Y-141826800D02*
X108056800Y-141826800D01*
X91956800Y-142126800D02*
X91956800Y-142876800D01*
X90146800Y-142116800D02*
X107766800Y-142116800D01*
X90906800Y-144376800D02*
X90906800Y-147326800D01*
X104456800Y-142876800D02*
X93456800Y-142876800D01*
X107006800Y-144376800D02*
X107006800Y-147326800D01*
X93456800Y-142126800D02*
X104456800Y-142126800D01*
X90156800Y-142876800D02*
X90156800Y-142126800D01*
%TO.C,U1*%
X80938400Y-140446400D02*
X81338400Y-140446400D01*
X108938400Y-119446400D02*
X109338400Y-119446400D01*
X91138400Y-140446400D02*
X91538400Y-140446400D01*
X106438400Y-140446400D02*
X106838400Y-140446400D01*
X73338400Y-119446400D02*
X73738400Y-119446400D01*
X65838400Y-140446400D02*
X66138400Y-140446400D01*
X68505400Y-122453400D02*
X65838400Y-122453400D01*
X70838400Y-119446400D02*
X71238400Y-119446400D01*
X68505400Y-119446400D02*
X68505400Y-122453400D01*
X108938400Y-140446400D02*
X109338400Y-140446400D01*
X68238400Y-119446400D02*
X68638400Y-119446400D01*
X86038400Y-140446400D02*
X86438400Y-140446400D01*
X91138400Y-119446400D02*
X91538400Y-119446400D01*
X114038400Y-140446400D02*
X114438400Y-140446400D01*
X86038400Y-119446400D02*
X86438400Y-119446400D01*
X65838400Y-119446400D02*
X66138400Y-119446400D01*
X96238400Y-119446400D02*
X96638400Y-119446400D01*
X116838400Y-140446400D02*
X116838400Y-133646400D01*
X78438400Y-140446400D02*
X78838400Y-140446400D01*
X111438400Y-140446400D02*
X111838400Y-140446400D01*
X116838400Y-128446400D02*
X116838400Y-128846400D01*
X114038400Y-119446400D02*
X114438400Y-119446400D01*
X73338400Y-140446400D02*
X73738400Y-140446400D01*
X101338400Y-119446400D02*
X101738400Y-119446400D01*
X75938400Y-119446400D02*
X76338400Y-119446400D01*
X93638400Y-119446400D02*
X94038400Y-119446400D01*
X96238400Y-140446400D02*
X96638400Y-140446400D01*
X98738400Y-119446400D02*
X99138400Y-119446400D01*
X88638400Y-119446400D02*
X89038400Y-119446400D01*
X65838400Y-135788400D02*
X65838400Y-140446400D01*
X116838400Y-131046400D02*
X116838400Y-131446400D01*
X93638400Y-140446400D02*
X94038400Y-140446400D01*
X65838400Y-119446400D02*
X65838400Y-124104400D01*
X88638400Y-140446400D02*
X89038400Y-140446400D01*
X78438400Y-119446400D02*
X78838400Y-119446400D01*
X116838400Y-126246400D02*
X116838400Y-119446400D01*
X83538400Y-119446400D02*
X83938400Y-119446400D01*
X75938400Y-140446400D02*
X76338400Y-140446400D01*
X111438400Y-119446400D02*
X111838400Y-119446400D01*
X80938400Y-119446400D02*
X81338400Y-119446400D01*
X68238400Y-140446400D02*
X68638400Y-140446400D01*
X98738400Y-140446400D02*
X99138400Y-140446400D01*
X103838400Y-119446400D02*
X104238400Y-119446400D01*
X106438400Y-119446400D02*
X106838400Y-119446400D01*
X70838400Y-140446400D02*
X71238400Y-140446400D01*
X101338400Y-140446400D02*
X101738400Y-140446400D01*
X83538400Y-140446400D02*
X83938400Y-140446400D01*
X103838400Y-140446400D02*
X104238400Y-140446400D01*
%TD*%
M02*
