%TF.GenerationSoftware,KiCad,Pcbnew,6.0.10+dfsg-1~bpo11+1*%
%TF.CreationDate,2023-02-28T12:29:17+00:00*%
%TF.ProjectId,CoverUI,436f7665-7255-4492-9e6b-696361645f70,rev?*%
%TF.SameCoordinates,Original*%
%TF.FileFunction,Legend,Top*%
%TF.FilePolarity,Positive*%
%FSLAX46Y46*%
G04 Gerber Fmt 4.6, Leading zero omitted, Abs format (unit mm)*
G04 Created by KiCad (PCBNEW 6.0.10+dfsg-1~bpo11+1) date 2023-02-28 12:29:17*
%MOMM*%
%LPD*%
G01*
G04 APERTURE LIST*
%ADD10C,0.150000*%
%ADD11C,0.120000*%
%ADD12C,0.250000*%
%ADD13C,0.400000*%
%ADD14C,0.010000*%
G04 APERTURE END LIST*
D10*
X82048361Y-147315180D02*
X81715028Y-146838990D01*
X81476933Y-147315180D02*
X81476933Y-146315180D01*
X81857885Y-146315180D01*
X81953123Y-146362800D01*
X82000742Y-146410419D01*
X82048361Y-146505657D01*
X82048361Y-146648514D01*
X82000742Y-146743752D01*
X81953123Y-146791371D01*
X81857885Y-146838990D01*
X81476933Y-146838990D01*
X82381695Y-147315180D02*
X82905504Y-146648514D01*
X82381695Y-146648514D02*
X82905504Y-147315180D01*
X102673161Y-147264380D02*
X102339828Y-146788190D01*
X102101733Y-147264380D02*
X102101733Y-146264380D01*
X102482685Y-146264380D01*
X102577923Y-146312000D01*
X102625542Y-146359619D01*
X102673161Y-146454857D01*
X102673161Y-146597714D01*
X102625542Y-146692952D01*
X102577923Y-146740571D01*
X102482685Y-146788190D01*
X102101733Y-146788190D01*
X103006495Y-147264380D02*
X103530304Y-146597714D01*
X103006495Y-146597714D02*
X103530304Y-147264380D01*
X78913123Y-146264380D02*
X79484552Y-146264380D01*
X79198838Y-147264380D02*
X79198838Y-146264380D01*
X79722647Y-147264380D02*
X80246457Y-146597714D01*
X79722647Y-146597714D02*
X80246457Y-147264380D01*
X83448685Y-146934228D02*
X84210590Y-146934228D01*
X83829638Y-147315180D02*
X83829638Y-146553276D01*
X85162971Y-146315180D02*
X84686780Y-146315180D01*
X84639161Y-146791371D01*
X84686780Y-146743752D01*
X84782019Y-146696133D01*
X85020114Y-146696133D01*
X85115352Y-146743752D01*
X85162971Y-146791371D01*
X85210590Y-146886609D01*
X85210590Y-147124704D01*
X85162971Y-147219942D01*
X85115352Y-147267561D01*
X85020114Y-147315180D01*
X84782019Y-147315180D01*
X84686780Y-147267561D01*
X84639161Y-147219942D01*
X85496304Y-146315180D02*
X85829638Y-147315180D01*
X86162971Y-146315180D01*
X99537923Y-146213580D02*
X100109352Y-146213580D01*
X99823638Y-147213580D02*
X99823638Y-146213580D01*
X100347447Y-147213580D02*
X100871257Y-146546914D01*
X100347447Y-146546914D02*
X100871257Y-147213580D01*
X103565485Y-142667028D02*
X104327390Y-142667028D01*
X103946438Y-143047980D02*
X103946438Y-142286076D01*
X105279771Y-142047980D02*
X104803580Y-142047980D01*
X104755961Y-142524171D01*
X104803580Y-142476552D01*
X104898819Y-142428933D01*
X105136914Y-142428933D01*
X105232152Y-142476552D01*
X105279771Y-142524171D01*
X105327390Y-142619409D01*
X105327390Y-142857504D01*
X105279771Y-142952742D01*
X105232152Y-143000361D01*
X105136914Y-143047980D01*
X104898819Y-143047980D01*
X104803580Y-143000361D01*
X104755961Y-142952742D01*
X105613104Y-142047980D02*
X105946438Y-143047980D01*
X106279771Y-142047980D01*
X94284895Y-146007200D02*
X94189657Y-145959580D01*
X94046800Y-145959580D01*
X93903942Y-146007200D01*
X93808704Y-146102438D01*
X93761085Y-146197676D01*
X93713466Y-146388152D01*
X93713466Y-146531009D01*
X93761085Y-146721485D01*
X93808704Y-146816723D01*
X93903942Y-146911961D01*
X94046800Y-146959580D01*
X94142038Y-146959580D01*
X94284895Y-146911961D01*
X94332514Y-146864342D01*
X94332514Y-146531009D01*
X94142038Y-146531009D01*
X94761085Y-146959580D02*
X94761085Y-145959580D01*
X95332514Y-146959580D01*
X95332514Y-145959580D01*
X95808704Y-146959580D02*
X95808704Y-145959580D01*
X96046800Y-145959580D01*
X96189657Y-146007200D01*
X96284895Y-146102438D01*
X96332514Y-146197676D01*
X96380133Y-146388152D01*
X96380133Y-146531009D01*
X96332514Y-146721485D01*
X96284895Y-146816723D01*
X96189657Y-146911961D01*
X96046800Y-146959580D01*
X95808704Y-146959580D01*
X76149295Y-146312000D02*
X76054057Y-146264380D01*
X75911200Y-146264380D01*
X75768342Y-146312000D01*
X75673104Y-146407238D01*
X75625485Y-146502476D01*
X75577866Y-146692952D01*
X75577866Y-146835809D01*
X75625485Y-147026285D01*
X75673104Y-147121523D01*
X75768342Y-147216761D01*
X75911200Y-147264380D01*
X76006438Y-147264380D01*
X76149295Y-147216761D01*
X76196914Y-147169142D01*
X76196914Y-146835809D01*
X76006438Y-146835809D01*
X76625485Y-147264380D02*
X76625485Y-146264380D01*
X77196914Y-147264380D01*
X77196914Y-146264380D01*
X77673104Y-147264380D02*
X77673104Y-146264380D01*
X77911200Y-146264380D01*
X78054057Y-146312000D01*
X78149295Y-146407238D01*
X78196914Y-146502476D01*
X78244533Y-146692952D01*
X78244533Y-146835809D01*
X78196914Y-147026285D01*
X78149295Y-147121523D01*
X78054057Y-147216761D01*
X77911200Y-147264380D01*
X77673104Y-147264380D01*
X95359790Y-143101961D02*
X95502647Y-143149580D01*
X95740742Y-143149580D01*
X95835980Y-143101961D01*
X95883600Y-143054342D01*
X95931219Y-142959104D01*
X95931219Y-142863866D01*
X95883600Y-142768628D01*
X95835980Y-142721009D01*
X95740742Y-142673390D01*
X95550266Y-142625771D01*
X95455028Y-142578152D01*
X95407409Y-142530533D01*
X95359790Y-142435295D01*
X95359790Y-142340057D01*
X95407409Y-142244819D01*
X95455028Y-142197200D01*
X95550266Y-142149580D01*
X95788361Y-142149580D01*
X95931219Y-142197200D01*
X96264552Y-142149580D02*
X96502647Y-143149580D01*
X96693123Y-142435295D01*
X96883600Y-143149580D01*
X97121695Y-142149580D01*
X98074076Y-143054342D02*
X98026457Y-143101961D01*
X97883600Y-143149580D01*
X97788361Y-143149580D01*
X97645504Y-143101961D01*
X97550266Y-143006723D01*
X97502647Y-142911485D01*
X97455028Y-142721009D01*
X97455028Y-142578152D01*
X97502647Y-142387676D01*
X97550266Y-142292438D01*
X97645504Y-142197200D01*
X97788361Y-142149580D01*
X97883600Y-142149580D01*
X98026457Y-142197200D01*
X98074076Y-142244819D01*
X98645504Y-143149580D02*
X98550266Y-143101961D01*
X98502647Y-143006723D01*
X98502647Y-142149580D01*
X99026457Y-143149580D02*
X99026457Y-142149580D01*
X99121695Y-142768628D02*
X99407409Y-143149580D01*
X99407409Y-142482914D02*
X99026457Y-142863866D01*
X89117752Y-143152761D02*
X89260609Y-143200380D01*
X89498704Y-143200380D01*
X89593942Y-143152761D01*
X89641561Y-143105142D01*
X89689180Y-143009904D01*
X89689180Y-142914666D01*
X89641561Y-142819428D01*
X89593942Y-142771809D01*
X89498704Y-142724190D01*
X89308228Y-142676571D01*
X89212990Y-142628952D01*
X89165371Y-142581333D01*
X89117752Y-142486095D01*
X89117752Y-142390857D01*
X89165371Y-142295619D01*
X89212990Y-142248000D01*
X89308228Y-142200380D01*
X89546323Y-142200380D01*
X89689180Y-142248000D01*
X90022514Y-142200380D02*
X90260609Y-143200380D01*
X90451085Y-142486095D01*
X90641561Y-143200380D01*
X90879657Y-142200380D01*
X91260609Y-143200380D02*
X91260609Y-142200380D01*
X91498704Y-142200380D01*
X91641561Y-142248000D01*
X91736800Y-142343238D01*
X91784419Y-142438476D01*
X91832038Y-142628952D01*
X91832038Y-142771809D01*
X91784419Y-142962285D01*
X91736800Y-143057523D01*
X91641561Y-143152761D01*
X91498704Y-143200380D01*
X91260609Y-143200380D01*
X92260609Y-143200380D02*
X92260609Y-142200380D01*
X92927276Y-142200380D02*
X93117752Y-142200380D01*
X93212990Y-142248000D01*
X93308228Y-142343238D01*
X93355847Y-142533714D01*
X93355847Y-142867047D01*
X93308228Y-143057523D01*
X93212990Y-143152761D01*
X93117752Y-143200380D01*
X92927276Y-143200380D01*
X92832038Y-143152761D01*
X92736800Y-143057523D01*
X92689180Y-142867047D01*
X92689180Y-142533714D01*
X92736800Y-142343238D01*
X92832038Y-142248000D01*
X92927276Y-142200380D01*
%TO.C,R21*%
X86377542Y-114701580D02*
X86044209Y-114225390D01*
X85806114Y-114701580D02*
X85806114Y-113701580D01*
X86187066Y-113701580D01*
X86282304Y-113749200D01*
X86329923Y-113796819D01*
X86377542Y-113892057D01*
X86377542Y-114034914D01*
X86329923Y-114130152D01*
X86282304Y-114177771D01*
X86187066Y-114225390D01*
X85806114Y-114225390D01*
X86758495Y-113796819D02*
X86806114Y-113749200D01*
X86901352Y-113701580D01*
X87139447Y-113701580D01*
X87234685Y-113749200D01*
X87282304Y-113796819D01*
X87329923Y-113892057D01*
X87329923Y-113987295D01*
X87282304Y-114130152D01*
X86710876Y-114701580D01*
X87329923Y-114701580D01*
X88282304Y-114701580D02*
X87710876Y-114701580D01*
X87996590Y-114701580D02*
X87996590Y-113701580D01*
X87901352Y-113844438D01*
X87806114Y-113939676D01*
X87710876Y-113987295D01*
%TO.C,R15*%
X149588742Y-74898780D02*
X149255409Y-74422590D01*
X149017314Y-74898780D02*
X149017314Y-73898780D01*
X149398266Y-73898780D01*
X149493504Y-73946400D01*
X149541123Y-73994019D01*
X149588742Y-74089257D01*
X149588742Y-74232114D01*
X149541123Y-74327352D01*
X149493504Y-74374971D01*
X149398266Y-74422590D01*
X149017314Y-74422590D01*
X150541123Y-74898780D02*
X149969695Y-74898780D01*
X150255409Y-74898780D02*
X150255409Y-73898780D01*
X150160171Y-74041638D01*
X150064933Y-74136876D01*
X149969695Y-74184495D01*
X151445885Y-73898780D02*
X150969695Y-73898780D01*
X150922076Y-74374971D01*
X150969695Y-74327352D01*
X151064933Y-74279733D01*
X151303028Y-74279733D01*
X151398266Y-74327352D01*
X151445885Y-74374971D01*
X151493504Y-74470209D01*
X151493504Y-74708304D01*
X151445885Y-74803542D01*
X151398266Y-74851161D01*
X151303028Y-74898780D01*
X151064933Y-74898780D01*
X150969695Y-74851161D01*
X150922076Y-74803542D01*
%TO.C,U3*%
X136906095Y-125334780D02*
X136906095Y-126144304D01*
X136953714Y-126239542D01*
X137001333Y-126287161D01*
X137096571Y-126334780D01*
X137287047Y-126334780D01*
X137382285Y-126287161D01*
X137429904Y-126239542D01*
X137477523Y-126144304D01*
X137477523Y-125334780D01*
X137858476Y-125334780D02*
X138477523Y-125334780D01*
X138144190Y-125715733D01*
X138287047Y-125715733D01*
X138382285Y-125763352D01*
X138429904Y-125810971D01*
X138477523Y-125906209D01*
X138477523Y-126144304D01*
X138429904Y-126239542D01*
X138382285Y-126287161D01*
X138287047Y-126334780D01*
X138001333Y-126334780D01*
X137906095Y-126287161D01*
X137858476Y-126239542D01*
%TO.C,U5*%
X98247295Y-128687580D02*
X98247295Y-129497104D01*
X98294914Y-129592342D01*
X98342533Y-129639961D01*
X98437771Y-129687580D01*
X98628247Y-129687580D01*
X98723485Y-129639961D01*
X98771104Y-129592342D01*
X98818723Y-129497104D01*
X98818723Y-128687580D01*
X99771104Y-128687580D02*
X99294914Y-128687580D01*
X99247295Y-129163771D01*
X99294914Y-129116152D01*
X99390152Y-129068533D01*
X99628247Y-129068533D01*
X99723485Y-129116152D01*
X99771104Y-129163771D01*
X99818723Y-129259009D01*
X99818723Y-129497104D01*
X99771104Y-129592342D01*
X99723485Y-129639961D01*
X99628247Y-129687580D01*
X99390152Y-129687580D01*
X99294914Y-129639961D01*
X99247295Y-129592342D01*
%TO.C,R6*%
X104054380Y-126319066D02*
X103578190Y-126652400D01*
X104054380Y-126890495D02*
X103054380Y-126890495D01*
X103054380Y-126509542D01*
X103102000Y-126414304D01*
X103149619Y-126366685D01*
X103244857Y-126319066D01*
X103387714Y-126319066D01*
X103482952Y-126366685D01*
X103530571Y-126414304D01*
X103578190Y-126509542D01*
X103578190Y-126890495D01*
X103054380Y-125461923D02*
X103054380Y-125652400D01*
X103102000Y-125747638D01*
X103149619Y-125795257D01*
X103292476Y-125890495D01*
X103482952Y-125938114D01*
X103863904Y-125938114D01*
X103959142Y-125890495D01*
X104006761Y-125842876D01*
X104054380Y-125747638D01*
X104054380Y-125557161D01*
X104006761Y-125461923D01*
X103959142Y-125414304D01*
X103863904Y-125366685D01*
X103625809Y-125366685D01*
X103530571Y-125414304D01*
X103482952Y-125461923D01*
X103435333Y-125557161D01*
X103435333Y-125747638D01*
X103482952Y-125842876D01*
X103530571Y-125890495D01*
X103625809Y-125938114D01*
%TO.C,D1013*%
X155211733Y-91841580D02*
X155211733Y-90841580D01*
X155449828Y-90841580D01*
X155592685Y-90889200D01*
X155687923Y-90984438D01*
X155735542Y-91079676D01*
X155783161Y-91270152D01*
X155783161Y-91413009D01*
X155735542Y-91603485D01*
X155687923Y-91698723D01*
X155592685Y-91793961D01*
X155449828Y-91841580D01*
X155211733Y-91841580D01*
X156735542Y-91841580D02*
X156164114Y-91841580D01*
X156449828Y-91841580D02*
X156449828Y-90841580D01*
X156354590Y-90984438D01*
X156259352Y-91079676D01*
X156164114Y-91127295D01*
X157354590Y-90841580D02*
X157449828Y-90841580D01*
X157545066Y-90889200D01*
X157592685Y-90936819D01*
X157640304Y-91032057D01*
X157687923Y-91222533D01*
X157687923Y-91460628D01*
X157640304Y-91651104D01*
X157592685Y-91746342D01*
X157545066Y-91793961D01*
X157449828Y-91841580D01*
X157354590Y-91841580D01*
X157259352Y-91793961D01*
X157211733Y-91746342D01*
X157164114Y-91651104D01*
X157116495Y-91460628D01*
X157116495Y-91222533D01*
X157164114Y-91032057D01*
X157211733Y-90936819D01*
X157259352Y-90889200D01*
X157354590Y-90841580D01*
X158640304Y-91841580D02*
X158068876Y-91841580D01*
X158354590Y-91841580D02*
X158354590Y-90841580D01*
X158259352Y-90984438D01*
X158164114Y-91079676D01*
X158068876Y-91127295D01*
X158973638Y-90841580D02*
X159592685Y-90841580D01*
X159259352Y-91222533D01*
X159402209Y-91222533D01*
X159497447Y-91270152D01*
X159545066Y-91317771D01*
X159592685Y-91413009D01*
X159592685Y-91651104D01*
X159545066Y-91746342D01*
X159497447Y-91793961D01*
X159402209Y-91841580D01*
X159116495Y-91841580D01*
X159021257Y-91793961D01*
X158973638Y-91746342D01*
%TO.C,D1016*%
X92375333Y-105229380D02*
X92375333Y-104229380D01*
X92613428Y-104229380D01*
X92756285Y-104277000D01*
X92851523Y-104372238D01*
X92899142Y-104467476D01*
X92946761Y-104657952D01*
X92946761Y-104800809D01*
X92899142Y-104991285D01*
X92851523Y-105086523D01*
X92756285Y-105181761D01*
X92613428Y-105229380D01*
X92375333Y-105229380D01*
X93899142Y-105229380D02*
X93327714Y-105229380D01*
X93613428Y-105229380D02*
X93613428Y-104229380D01*
X93518190Y-104372238D01*
X93422952Y-104467476D01*
X93327714Y-104515095D01*
X94518190Y-104229380D02*
X94613428Y-104229380D01*
X94708666Y-104277000D01*
X94756285Y-104324619D01*
X94803904Y-104419857D01*
X94851523Y-104610333D01*
X94851523Y-104848428D01*
X94803904Y-105038904D01*
X94756285Y-105134142D01*
X94708666Y-105181761D01*
X94613428Y-105229380D01*
X94518190Y-105229380D01*
X94422952Y-105181761D01*
X94375333Y-105134142D01*
X94327714Y-105038904D01*
X94280095Y-104848428D01*
X94280095Y-104610333D01*
X94327714Y-104419857D01*
X94375333Y-104324619D01*
X94422952Y-104277000D01*
X94518190Y-104229380D01*
X95803904Y-105229380D02*
X95232476Y-105229380D01*
X95518190Y-105229380D02*
X95518190Y-104229380D01*
X95422952Y-104372238D01*
X95327714Y-104467476D01*
X95232476Y-104515095D01*
X96661047Y-104229380D02*
X96470571Y-104229380D01*
X96375333Y-104277000D01*
X96327714Y-104324619D01*
X96232476Y-104467476D01*
X96184857Y-104657952D01*
X96184857Y-105038904D01*
X96232476Y-105134142D01*
X96280095Y-105181761D01*
X96375333Y-105229380D01*
X96565809Y-105229380D01*
X96661047Y-105181761D01*
X96708666Y-105134142D01*
X96756285Y-105038904D01*
X96756285Y-104800809D01*
X96708666Y-104705571D01*
X96661047Y-104657952D01*
X96565809Y-104610333D01*
X96375333Y-104610333D01*
X96280095Y-104657952D01*
X96232476Y-104705571D01*
X96184857Y-104800809D01*
%TO.C,U2*%
X181508495Y-68032380D02*
X181508495Y-68841904D01*
X181556114Y-68937142D01*
X181603733Y-68984761D01*
X181698971Y-69032380D01*
X181889447Y-69032380D01*
X181984685Y-68984761D01*
X182032304Y-68937142D01*
X182079923Y-68841904D01*
X182079923Y-68032380D01*
X182508495Y-68127619D02*
X182556114Y-68080000D01*
X182651352Y-68032380D01*
X182889447Y-68032380D01*
X182984685Y-68080000D01*
X183032304Y-68127619D01*
X183079923Y-68222857D01*
X183079923Y-68318095D01*
X183032304Y-68460952D01*
X182460876Y-69032380D01*
X183079923Y-69032380D01*
%TO.C,R8*%
X111085333Y-129254780D02*
X110752000Y-128778590D01*
X110513904Y-129254780D02*
X110513904Y-128254780D01*
X110894857Y-128254780D01*
X110990095Y-128302400D01*
X111037714Y-128350019D01*
X111085333Y-128445257D01*
X111085333Y-128588114D01*
X111037714Y-128683352D01*
X110990095Y-128730971D01*
X110894857Y-128778590D01*
X110513904Y-128778590D01*
X111656761Y-128683352D02*
X111561523Y-128635733D01*
X111513904Y-128588114D01*
X111466285Y-128492876D01*
X111466285Y-128445257D01*
X111513904Y-128350019D01*
X111561523Y-128302400D01*
X111656761Y-128254780D01*
X111847238Y-128254780D01*
X111942476Y-128302400D01*
X111990095Y-128350019D01*
X112037714Y-128445257D01*
X112037714Y-128492876D01*
X111990095Y-128588114D01*
X111942476Y-128635733D01*
X111847238Y-128683352D01*
X111656761Y-128683352D01*
X111561523Y-128730971D01*
X111513904Y-128778590D01*
X111466285Y-128873828D01*
X111466285Y-129064304D01*
X111513904Y-129159542D01*
X111561523Y-129207161D01*
X111656761Y-129254780D01*
X111847238Y-129254780D01*
X111942476Y-129207161D01*
X111990095Y-129159542D01*
X112037714Y-129064304D01*
X112037714Y-128873828D01*
X111990095Y-128778590D01*
X111942476Y-128730971D01*
X111847238Y-128683352D01*
%TO.C,R3*%
X176118780Y-72963066D02*
X175642590Y-73296400D01*
X176118780Y-73534495D02*
X175118780Y-73534495D01*
X175118780Y-73153542D01*
X175166400Y-73058304D01*
X175214019Y-73010685D01*
X175309257Y-72963066D01*
X175452114Y-72963066D01*
X175547352Y-73010685D01*
X175594971Y-73058304D01*
X175642590Y-73153542D01*
X175642590Y-73534495D01*
X175118780Y-72629733D02*
X175118780Y-72010685D01*
X175499733Y-72344019D01*
X175499733Y-72201161D01*
X175547352Y-72105923D01*
X175594971Y-72058304D01*
X175690209Y-72010685D01*
X175928304Y-72010685D01*
X176023542Y-72058304D01*
X176071161Y-72105923D01*
X176118780Y-72201161D01*
X176118780Y-72486876D01*
X176071161Y-72582114D01*
X176023542Y-72629733D01*
%TO.C,SW12*%
X127796398Y-94345451D02*
X127931085Y-94278107D01*
X128099444Y-94109749D01*
X128133115Y-94008733D01*
X128133115Y-93941390D01*
X128099444Y-93840375D01*
X128032100Y-93773031D01*
X127931085Y-93739359D01*
X127863741Y-93739359D01*
X127762726Y-93773031D01*
X127594367Y-93874046D01*
X127493352Y-93907718D01*
X127426009Y-93907718D01*
X127324993Y-93874046D01*
X127257650Y-93806703D01*
X127223978Y-93705688D01*
X127223978Y-93638344D01*
X127257650Y-93537329D01*
X127426009Y-93368970D01*
X127560696Y-93301627D01*
X127762726Y-93032253D02*
X128638192Y-93571001D01*
X128267802Y-92931237D01*
X128907566Y-93301627D01*
X128368818Y-92426161D01*
X129715688Y-92493505D02*
X129311627Y-92897566D01*
X129513657Y-92695535D02*
X128806550Y-91988428D01*
X128840222Y-92156787D01*
X128840222Y-92291474D01*
X128806550Y-92392489D01*
X129345298Y-91584367D02*
X129345298Y-91517024D01*
X129378970Y-91416009D01*
X129547329Y-91247650D01*
X129648344Y-91213978D01*
X129715688Y-91213978D01*
X129816703Y-91247650D01*
X129884046Y-91314993D01*
X129951390Y-91449680D01*
X129951390Y-92257802D01*
X130389123Y-91820070D01*
%TO.C,R14*%
X130763542Y-71598780D02*
X130430209Y-71122590D01*
X130192114Y-71598780D02*
X130192114Y-70598780D01*
X130573066Y-70598780D01*
X130668304Y-70646400D01*
X130715923Y-70694019D01*
X130763542Y-70789257D01*
X130763542Y-70932114D01*
X130715923Y-71027352D01*
X130668304Y-71074971D01*
X130573066Y-71122590D01*
X130192114Y-71122590D01*
X131715923Y-71598780D02*
X131144495Y-71598780D01*
X131430209Y-71598780D02*
X131430209Y-70598780D01*
X131334971Y-70741638D01*
X131239733Y-70836876D01*
X131144495Y-70884495D01*
X132573066Y-70932114D02*
X132573066Y-71598780D01*
X132334971Y-70551161D02*
X132096876Y-71265447D01*
X132715923Y-71265447D01*
%TO.C,R17*%
X144140180Y-126481057D02*
X143663990Y-126814390D01*
X144140180Y-127052485D02*
X143140180Y-127052485D01*
X143140180Y-126671533D01*
X143187800Y-126576295D01*
X143235419Y-126528676D01*
X143330657Y-126481057D01*
X143473514Y-126481057D01*
X143568752Y-126528676D01*
X143616371Y-126576295D01*
X143663990Y-126671533D01*
X143663990Y-127052485D01*
X144140180Y-125528676D02*
X144140180Y-126100104D01*
X144140180Y-125814390D02*
X143140180Y-125814390D01*
X143283038Y-125909628D01*
X143378276Y-126004866D01*
X143425895Y-126100104D01*
X143140180Y-125195342D02*
X143140180Y-124528676D01*
X144140180Y-124957247D01*
%TO.C,R4*%
X142833333Y-115102380D02*
X142500000Y-114626190D01*
X142261904Y-115102380D02*
X142261904Y-114102380D01*
X142642857Y-114102380D01*
X142738095Y-114150000D01*
X142785714Y-114197619D01*
X142833333Y-114292857D01*
X142833333Y-114435714D01*
X142785714Y-114530952D01*
X142738095Y-114578571D01*
X142642857Y-114626190D01*
X142261904Y-114626190D01*
X143690476Y-114435714D02*
X143690476Y-115102380D01*
X143452380Y-114054761D02*
X143214285Y-114769047D01*
X143833333Y-114769047D01*
%TO.C,C3*%
X172768742Y-68543466D02*
X172816361Y-68591085D01*
X172863980Y-68733942D01*
X172863980Y-68829180D01*
X172816361Y-68972038D01*
X172721123Y-69067276D01*
X172625885Y-69114895D01*
X172435409Y-69162514D01*
X172292552Y-69162514D01*
X172102076Y-69114895D01*
X172006838Y-69067276D01*
X171911600Y-68972038D01*
X171863980Y-68829180D01*
X171863980Y-68733942D01*
X171911600Y-68591085D01*
X171959219Y-68543466D01*
X171863980Y-68210133D02*
X171863980Y-67591085D01*
X172244933Y-67924419D01*
X172244933Y-67781561D01*
X172292552Y-67686323D01*
X172340171Y-67638704D01*
X172435409Y-67591085D01*
X172673504Y-67591085D01*
X172768742Y-67638704D01*
X172816361Y-67686323D01*
X172863980Y-67781561D01*
X172863980Y-68067276D01*
X172816361Y-68162514D01*
X172768742Y-68210133D01*
%TO.C,SW5*%
X137473115Y-81408733D02*
X137607802Y-81341390D01*
X137776161Y-81173031D01*
X137809833Y-81072016D01*
X137809833Y-81004672D01*
X137776161Y-80903657D01*
X137708818Y-80836314D01*
X137607802Y-80802642D01*
X137540459Y-80802642D01*
X137439444Y-80836314D01*
X137271085Y-80937329D01*
X137170070Y-80971001D01*
X137102726Y-80971001D01*
X137001711Y-80937329D01*
X136934367Y-80869985D01*
X136900696Y-80768970D01*
X136900696Y-80701627D01*
X136934367Y-80600611D01*
X137102726Y-80432253D01*
X137237413Y-80364909D01*
X137439444Y-80095535D02*
X138314909Y-80634283D01*
X137944520Y-79994520D01*
X138584283Y-80364909D01*
X138045535Y-79489444D01*
X138651627Y-78883352D02*
X138314909Y-79220070D01*
X138617955Y-79590459D01*
X138617955Y-79523115D01*
X138651627Y-79422100D01*
X138819985Y-79253741D01*
X138921001Y-79220070D01*
X138988344Y-79220070D01*
X139089359Y-79253741D01*
X139257718Y-79422100D01*
X139291390Y-79523115D01*
X139291390Y-79590459D01*
X139257718Y-79691474D01*
X139089359Y-79859833D01*
X138988344Y-79893505D01*
X138921001Y-79893505D01*
%TO.C,D1005*%
X111955333Y-78029380D02*
X111955333Y-77029380D01*
X112193428Y-77029380D01*
X112336285Y-77077000D01*
X112431523Y-77172238D01*
X112479142Y-77267476D01*
X112526761Y-77457952D01*
X112526761Y-77600809D01*
X112479142Y-77791285D01*
X112431523Y-77886523D01*
X112336285Y-77981761D01*
X112193428Y-78029380D01*
X111955333Y-78029380D01*
X113479142Y-78029380D02*
X112907714Y-78029380D01*
X113193428Y-78029380D02*
X113193428Y-77029380D01*
X113098190Y-77172238D01*
X113002952Y-77267476D01*
X112907714Y-77315095D01*
X114098190Y-77029380D02*
X114193428Y-77029380D01*
X114288666Y-77077000D01*
X114336285Y-77124619D01*
X114383904Y-77219857D01*
X114431523Y-77410333D01*
X114431523Y-77648428D01*
X114383904Y-77838904D01*
X114336285Y-77934142D01*
X114288666Y-77981761D01*
X114193428Y-78029380D01*
X114098190Y-78029380D01*
X114002952Y-77981761D01*
X113955333Y-77934142D01*
X113907714Y-77838904D01*
X113860095Y-77648428D01*
X113860095Y-77410333D01*
X113907714Y-77219857D01*
X113955333Y-77124619D01*
X114002952Y-77077000D01*
X114098190Y-77029380D01*
X115050571Y-77029380D02*
X115145809Y-77029380D01*
X115241047Y-77077000D01*
X115288666Y-77124619D01*
X115336285Y-77219857D01*
X115383904Y-77410333D01*
X115383904Y-77648428D01*
X115336285Y-77838904D01*
X115288666Y-77934142D01*
X115241047Y-77981761D01*
X115145809Y-78029380D01*
X115050571Y-78029380D01*
X114955333Y-77981761D01*
X114907714Y-77934142D01*
X114860095Y-77838904D01*
X114812476Y-77648428D01*
X114812476Y-77410333D01*
X114860095Y-77219857D01*
X114907714Y-77124619D01*
X114955333Y-77077000D01*
X115050571Y-77029380D01*
X116288666Y-77029380D02*
X115812476Y-77029380D01*
X115764857Y-77505571D01*
X115812476Y-77457952D01*
X115907714Y-77410333D01*
X116145809Y-77410333D01*
X116241047Y-77457952D01*
X116288666Y-77505571D01*
X116336285Y-77600809D01*
X116336285Y-77838904D01*
X116288666Y-77934142D01*
X116241047Y-77981761D01*
X116145809Y-78029380D01*
X115907714Y-78029380D01*
X115812476Y-77981761D01*
X115764857Y-77934142D01*
%TO.C,R10*%
X153957542Y-110966780D02*
X153624209Y-110490590D01*
X153386114Y-110966780D02*
X153386114Y-109966780D01*
X153767066Y-109966780D01*
X153862304Y-110014400D01*
X153909923Y-110062019D01*
X153957542Y-110157257D01*
X153957542Y-110300114D01*
X153909923Y-110395352D01*
X153862304Y-110442971D01*
X153767066Y-110490590D01*
X153386114Y-110490590D01*
X154909923Y-110966780D02*
X154338495Y-110966780D01*
X154624209Y-110966780D02*
X154624209Y-109966780D01*
X154528971Y-110109638D01*
X154433733Y-110204876D01*
X154338495Y-110252495D01*
X155528971Y-109966780D02*
X155624209Y-109966780D01*
X155719447Y-110014400D01*
X155767066Y-110062019D01*
X155814685Y-110157257D01*
X155862304Y-110347733D01*
X155862304Y-110585828D01*
X155814685Y-110776304D01*
X155767066Y-110871542D01*
X155719447Y-110919161D01*
X155624209Y-110966780D01*
X155528971Y-110966780D01*
X155433733Y-110919161D01*
X155386114Y-110871542D01*
X155338495Y-110776304D01*
X155290876Y-110585828D01*
X155290876Y-110347733D01*
X155338495Y-110157257D01*
X155386114Y-110062019D01*
X155433733Y-110014400D01*
X155528971Y-109966780D01*
%TO.C,R25*%
X119921542Y-107463580D02*
X119588209Y-106987390D01*
X119350114Y-107463580D02*
X119350114Y-106463580D01*
X119731066Y-106463580D01*
X119826304Y-106511200D01*
X119873923Y-106558819D01*
X119921542Y-106654057D01*
X119921542Y-106796914D01*
X119873923Y-106892152D01*
X119826304Y-106939771D01*
X119731066Y-106987390D01*
X119350114Y-106987390D01*
X120302495Y-106558819D02*
X120350114Y-106511200D01*
X120445352Y-106463580D01*
X120683447Y-106463580D01*
X120778685Y-106511200D01*
X120826304Y-106558819D01*
X120873923Y-106654057D01*
X120873923Y-106749295D01*
X120826304Y-106892152D01*
X120254876Y-107463580D01*
X120873923Y-107463580D01*
X121778685Y-106463580D02*
X121302495Y-106463580D01*
X121254876Y-106939771D01*
X121302495Y-106892152D01*
X121397733Y-106844533D01*
X121635828Y-106844533D01*
X121731066Y-106892152D01*
X121778685Y-106939771D01*
X121826304Y-107035009D01*
X121826304Y-107273104D01*
X121778685Y-107368342D01*
X121731066Y-107415961D01*
X121635828Y-107463580D01*
X121397733Y-107463580D01*
X121302495Y-107415961D01*
X121254876Y-107368342D01*
%TO.C,R23*%
X83126342Y-110966780D02*
X82793009Y-110490590D01*
X82554914Y-110966780D02*
X82554914Y-109966780D01*
X82935866Y-109966780D01*
X83031104Y-110014400D01*
X83078723Y-110062019D01*
X83126342Y-110157257D01*
X83126342Y-110300114D01*
X83078723Y-110395352D01*
X83031104Y-110442971D01*
X82935866Y-110490590D01*
X82554914Y-110490590D01*
X83507295Y-110062019D02*
X83554914Y-110014400D01*
X83650152Y-109966780D01*
X83888247Y-109966780D01*
X83983485Y-110014400D01*
X84031104Y-110062019D01*
X84078723Y-110157257D01*
X84078723Y-110252495D01*
X84031104Y-110395352D01*
X83459676Y-110966780D01*
X84078723Y-110966780D01*
X84412057Y-109966780D02*
X85031104Y-109966780D01*
X84697771Y-110347733D01*
X84840628Y-110347733D01*
X84935866Y-110395352D01*
X84983485Y-110442971D01*
X85031104Y-110538209D01*
X85031104Y-110776304D01*
X84983485Y-110871542D01*
X84935866Y-110919161D01*
X84840628Y-110966780D01*
X84554914Y-110966780D01*
X84459676Y-110919161D01*
X84412057Y-110871542D01*
%TO.C,R30*%
X140686780Y-119803657D02*
X140210590Y-120136990D01*
X140686780Y-120375085D02*
X139686780Y-120375085D01*
X139686780Y-119994133D01*
X139734400Y-119898895D01*
X139782019Y-119851276D01*
X139877257Y-119803657D01*
X140020114Y-119803657D01*
X140115352Y-119851276D01*
X140162971Y-119898895D01*
X140210590Y-119994133D01*
X140210590Y-120375085D01*
X139686780Y-119470323D02*
X139686780Y-118851276D01*
X140067733Y-119184609D01*
X140067733Y-119041752D01*
X140115352Y-118946514D01*
X140162971Y-118898895D01*
X140258209Y-118851276D01*
X140496304Y-118851276D01*
X140591542Y-118898895D01*
X140639161Y-118946514D01*
X140686780Y-119041752D01*
X140686780Y-119327466D01*
X140639161Y-119422704D01*
X140591542Y-119470323D01*
X139686780Y-118232228D02*
X139686780Y-118136990D01*
X139734400Y-118041752D01*
X139782019Y-117994133D01*
X139877257Y-117946514D01*
X140067733Y-117898895D01*
X140305828Y-117898895D01*
X140496304Y-117946514D01*
X140591542Y-117994133D01*
X140639161Y-118041752D01*
X140686780Y-118136990D01*
X140686780Y-118232228D01*
X140639161Y-118327466D01*
X140591542Y-118375085D01*
X140496304Y-118422704D01*
X140305828Y-118470323D01*
X140067733Y-118470323D01*
X139877257Y-118422704D01*
X139782019Y-118375085D01*
X139734400Y-118327466D01*
X139686780Y-118232228D01*
%TO.C,D1012*%
X141845333Y-90459380D02*
X141845333Y-89459380D01*
X142083428Y-89459380D01*
X142226285Y-89507000D01*
X142321523Y-89602238D01*
X142369142Y-89697476D01*
X142416761Y-89887952D01*
X142416761Y-90030809D01*
X142369142Y-90221285D01*
X142321523Y-90316523D01*
X142226285Y-90411761D01*
X142083428Y-90459380D01*
X141845333Y-90459380D01*
X143369142Y-90459380D02*
X142797714Y-90459380D01*
X143083428Y-90459380D02*
X143083428Y-89459380D01*
X142988190Y-89602238D01*
X142892952Y-89697476D01*
X142797714Y-89745095D01*
X143988190Y-89459380D02*
X144083428Y-89459380D01*
X144178666Y-89507000D01*
X144226285Y-89554619D01*
X144273904Y-89649857D01*
X144321523Y-89840333D01*
X144321523Y-90078428D01*
X144273904Y-90268904D01*
X144226285Y-90364142D01*
X144178666Y-90411761D01*
X144083428Y-90459380D01*
X143988190Y-90459380D01*
X143892952Y-90411761D01*
X143845333Y-90364142D01*
X143797714Y-90268904D01*
X143750095Y-90078428D01*
X143750095Y-89840333D01*
X143797714Y-89649857D01*
X143845333Y-89554619D01*
X143892952Y-89507000D01*
X143988190Y-89459380D01*
X145273904Y-90459380D02*
X144702476Y-90459380D01*
X144988190Y-90459380D02*
X144988190Y-89459380D01*
X144892952Y-89602238D01*
X144797714Y-89697476D01*
X144702476Y-89745095D01*
X145654857Y-89554619D02*
X145702476Y-89507000D01*
X145797714Y-89459380D01*
X146035809Y-89459380D01*
X146131047Y-89507000D01*
X146178666Y-89554619D01*
X146226285Y-89649857D01*
X146226285Y-89745095D01*
X146178666Y-89887952D01*
X145607238Y-90459380D01*
X146226285Y-90459380D01*
%TO.C,Q1*%
X136861561Y-116276019D02*
X136766323Y-116228400D01*
X136671085Y-116133161D01*
X136528228Y-115990304D01*
X136432990Y-115942685D01*
X136337752Y-115942685D01*
X136385371Y-116180780D02*
X136290133Y-116133161D01*
X136194895Y-116037923D01*
X136147276Y-115847447D01*
X136147276Y-115514114D01*
X136194895Y-115323638D01*
X136290133Y-115228400D01*
X136385371Y-115180780D01*
X136575847Y-115180780D01*
X136671085Y-115228400D01*
X136766323Y-115323638D01*
X136813942Y-115514114D01*
X136813942Y-115847447D01*
X136766323Y-116037923D01*
X136671085Y-116133161D01*
X136575847Y-116180780D01*
X136385371Y-116180780D01*
X137766323Y-116180780D02*
X137194895Y-116180780D01*
X137480609Y-116180780D02*
X137480609Y-115180780D01*
X137385371Y-115323638D01*
X137290133Y-115418876D01*
X137194895Y-115466495D01*
%TO.C,C1001*%
X70337561Y-134672342D02*
X70289942Y-134719961D01*
X70147085Y-134767580D01*
X70051847Y-134767580D01*
X69908990Y-134719961D01*
X69813752Y-134624723D01*
X69766133Y-134529485D01*
X69718514Y-134339009D01*
X69718514Y-134196152D01*
X69766133Y-134005676D01*
X69813752Y-133910438D01*
X69908990Y-133815200D01*
X70051847Y-133767580D01*
X70147085Y-133767580D01*
X70289942Y-133815200D01*
X70337561Y-133862819D01*
X71289942Y-134767580D02*
X70718514Y-134767580D01*
X71004228Y-134767580D02*
X71004228Y-133767580D01*
X70908990Y-133910438D01*
X70813752Y-134005676D01*
X70718514Y-134053295D01*
X71908990Y-133767580D02*
X72004228Y-133767580D01*
X72099466Y-133815200D01*
X72147085Y-133862819D01*
X72194704Y-133958057D01*
X72242323Y-134148533D01*
X72242323Y-134386628D01*
X72194704Y-134577104D01*
X72147085Y-134672342D01*
X72099466Y-134719961D01*
X72004228Y-134767580D01*
X71908990Y-134767580D01*
X71813752Y-134719961D01*
X71766133Y-134672342D01*
X71718514Y-134577104D01*
X71670895Y-134386628D01*
X71670895Y-134148533D01*
X71718514Y-133958057D01*
X71766133Y-133862819D01*
X71813752Y-133815200D01*
X71908990Y-133767580D01*
X72861371Y-133767580D02*
X72956609Y-133767580D01*
X73051847Y-133815200D01*
X73099466Y-133862819D01*
X73147085Y-133958057D01*
X73194704Y-134148533D01*
X73194704Y-134386628D01*
X73147085Y-134577104D01*
X73099466Y-134672342D01*
X73051847Y-134719961D01*
X72956609Y-134767580D01*
X72861371Y-134767580D01*
X72766133Y-134719961D01*
X72718514Y-134672342D01*
X72670895Y-134577104D01*
X72623276Y-134386628D01*
X72623276Y-134148533D01*
X72670895Y-133958057D01*
X72718514Y-133862819D01*
X72766133Y-133815200D01*
X72861371Y-133767580D01*
X74147085Y-134767580D02*
X73575657Y-134767580D01*
X73861371Y-134767580D02*
X73861371Y-133767580D01*
X73766133Y-133910438D01*
X73670895Y-134005676D01*
X73575657Y-134053295D01*
%TO.C,D1002*%
X119735333Y-65489380D02*
X119735333Y-64489380D01*
X119973428Y-64489380D01*
X120116285Y-64537000D01*
X120211523Y-64632238D01*
X120259142Y-64727476D01*
X120306761Y-64917952D01*
X120306761Y-65060809D01*
X120259142Y-65251285D01*
X120211523Y-65346523D01*
X120116285Y-65441761D01*
X119973428Y-65489380D01*
X119735333Y-65489380D01*
X121259142Y-65489380D02*
X120687714Y-65489380D01*
X120973428Y-65489380D02*
X120973428Y-64489380D01*
X120878190Y-64632238D01*
X120782952Y-64727476D01*
X120687714Y-64775095D01*
X121878190Y-64489380D02*
X121973428Y-64489380D01*
X122068666Y-64537000D01*
X122116285Y-64584619D01*
X122163904Y-64679857D01*
X122211523Y-64870333D01*
X122211523Y-65108428D01*
X122163904Y-65298904D01*
X122116285Y-65394142D01*
X122068666Y-65441761D01*
X121973428Y-65489380D01*
X121878190Y-65489380D01*
X121782952Y-65441761D01*
X121735333Y-65394142D01*
X121687714Y-65298904D01*
X121640095Y-65108428D01*
X121640095Y-64870333D01*
X121687714Y-64679857D01*
X121735333Y-64584619D01*
X121782952Y-64537000D01*
X121878190Y-64489380D01*
X122830571Y-64489380D02*
X122925809Y-64489380D01*
X123021047Y-64537000D01*
X123068666Y-64584619D01*
X123116285Y-64679857D01*
X123163904Y-64870333D01*
X123163904Y-65108428D01*
X123116285Y-65298904D01*
X123068666Y-65394142D01*
X123021047Y-65441761D01*
X122925809Y-65489380D01*
X122830571Y-65489380D01*
X122735333Y-65441761D01*
X122687714Y-65394142D01*
X122640095Y-65298904D01*
X122592476Y-65108428D01*
X122592476Y-64870333D01*
X122640095Y-64679857D01*
X122687714Y-64584619D01*
X122735333Y-64537000D01*
X122830571Y-64489380D01*
X123544857Y-64584619D02*
X123592476Y-64537000D01*
X123687714Y-64489380D01*
X123925809Y-64489380D01*
X124021047Y-64537000D01*
X124068666Y-64584619D01*
X124116285Y-64679857D01*
X124116285Y-64775095D01*
X124068666Y-64917952D01*
X123497238Y-65489380D01*
X124116285Y-65489380D01*
%TO.C,D1006*%
X132165333Y-77979380D02*
X132165333Y-76979380D01*
X132403428Y-76979380D01*
X132546285Y-77027000D01*
X132641523Y-77122238D01*
X132689142Y-77217476D01*
X132736761Y-77407952D01*
X132736761Y-77550809D01*
X132689142Y-77741285D01*
X132641523Y-77836523D01*
X132546285Y-77931761D01*
X132403428Y-77979380D01*
X132165333Y-77979380D01*
X133689142Y-77979380D02*
X133117714Y-77979380D01*
X133403428Y-77979380D02*
X133403428Y-76979380D01*
X133308190Y-77122238D01*
X133212952Y-77217476D01*
X133117714Y-77265095D01*
X134308190Y-76979380D02*
X134403428Y-76979380D01*
X134498666Y-77027000D01*
X134546285Y-77074619D01*
X134593904Y-77169857D01*
X134641523Y-77360333D01*
X134641523Y-77598428D01*
X134593904Y-77788904D01*
X134546285Y-77884142D01*
X134498666Y-77931761D01*
X134403428Y-77979380D01*
X134308190Y-77979380D01*
X134212952Y-77931761D01*
X134165333Y-77884142D01*
X134117714Y-77788904D01*
X134070095Y-77598428D01*
X134070095Y-77360333D01*
X134117714Y-77169857D01*
X134165333Y-77074619D01*
X134212952Y-77027000D01*
X134308190Y-76979380D01*
X135260571Y-76979380D02*
X135355809Y-76979380D01*
X135451047Y-77027000D01*
X135498666Y-77074619D01*
X135546285Y-77169857D01*
X135593904Y-77360333D01*
X135593904Y-77598428D01*
X135546285Y-77788904D01*
X135498666Y-77884142D01*
X135451047Y-77931761D01*
X135355809Y-77979380D01*
X135260571Y-77979380D01*
X135165333Y-77931761D01*
X135117714Y-77884142D01*
X135070095Y-77788904D01*
X135022476Y-77598428D01*
X135022476Y-77360333D01*
X135070095Y-77169857D01*
X135117714Y-77074619D01*
X135165333Y-77027000D01*
X135260571Y-76979380D01*
X136451047Y-76979380D02*
X136260571Y-76979380D01*
X136165333Y-77027000D01*
X136117714Y-77074619D01*
X136022476Y-77217476D01*
X135974857Y-77407952D01*
X135974857Y-77788904D01*
X136022476Y-77884142D01*
X136070095Y-77931761D01*
X136165333Y-77979380D01*
X136355809Y-77979380D01*
X136451047Y-77931761D01*
X136498666Y-77884142D01*
X136546285Y-77788904D01*
X136546285Y-77550809D01*
X136498666Y-77455571D01*
X136451047Y-77407952D01*
X136355809Y-77360333D01*
X136165333Y-77360333D01*
X136070095Y-77407952D01*
X136022476Y-77455571D01*
X135974857Y-77550809D01*
%TO.C,SW8*%
X181715401Y-94345418D02*
X181850088Y-94278075D01*
X182018447Y-94109716D01*
X182052119Y-94008701D01*
X182052119Y-93941357D01*
X182018447Y-93840342D01*
X181951104Y-93772999D01*
X181850088Y-93739327D01*
X181782745Y-93739327D01*
X181681730Y-93772999D01*
X181513371Y-93874014D01*
X181412356Y-93907686D01*
X181345012Y-93907686D01*
X181243997Y-93874014D01*
X181176653Y-93806670D01*
X181142982Y-93705655D01*
X181142982Y-93638312D01*
X181176653Y-93537296D01*
X181345012Y-93368938D01*
X181479699Y-93301594D01*
X181681730Y-93032220D02*
X182557195Y-93570968D01*
X182186806Y-92931205D01*
X182826569Y-93301594D01*
X182287821Y-92426129D01*
X182961256Y-92358785D02*
X182860241Y-92392457D01*
X182792897Y-92392457D01*
X182691882Y-92358785D01*
X182658210Y-92325113D01*
X182624539Y-92224098D01*
X182624539Y-92156755D01*
X182658210Y-92055739D01*
X182792897Y-91921052D01*
X182893913Y-91887381D01*
X182961256Y-91887381D01*
X183062271Y-91921052D01*
X183095943Y-91954724D01*
X183129615Y-92055739D01*
X183129615Y-92123083D01*
X183095943Y-92224098D01*
X182961256Y-92358785D01*
X182927584Y-92459800D01*
X182927584Y-92527144D01*
X182961256Y-92628159D01*
X183095943Y-92762846D01*
X183196958Y-92796518D01*
X183264302Y-92796518D01*
X183365317Y-92762846D01*
X183500004Y-92628159D01*
X183533676Y-92527144D01*
X183533676Y-92459800D01*
X183500004Y-92358785D01*
X183365317Y-92224098D01*
X183264302Y-92190426D01*
X183196958Y-92190426D01*
X183095943Y-92224098D01*
%TO.C,R2*%
X134508380Y-117971866D02*
X134032190Y-118305200D01*
X134508380Y-118543295D02*
X133508380Y-118543295D01*
X133508380Y-118162342D01*
X133556000Y-118067104D01*
X133603619Y-118019485D01*
X133698857Y-117971866D01*
X133841714Y-117971866D01*
X133936952Y-118019485D01*
X133984571Y-118067104D01*
X134032190Y-118162342D01*
X134032190Y-118543295D01*
X133603619Y-117590914D02*
X133556000Y-117543295D01*
X133508380Y-117448057D01*
X133508380Y-117209961D01*
X133556000Y-117114723D01*
X133603619Y-117067104D01*
X133698857Y-117019485D01*
X133794095Y-117019485D01*
X133936952Y-117067104D01*
X134508380Y-117638533D01*
X134508380Y-117019485D01*
%TO.C,R22*%
X68144380Y-87291657D02*
X67668190Y-87624990D01*
X68144380Y-87863085D02*
X67144380Y-87863085D01*
X67144380Y-87482133D01*
X67192000Y-87386895D01*
X67239619Y-87339276D01*
X67334857Y-87291657D01*
X67477714Y-87291657D01*
X67572952Y-87339276D01*
X67620571Y-87386895D01*
X67668190Y-87482133D01*
X67668190Y-87863085D01*
X67239619Y-86910704D02*
X67192000Y-86863085D01*
X67144380Y-86767847D01*
X67144380Y-86529752D01*
X67192000Y-86434514D01*
X67239619Y-86386895D01*
X67334857Y-86339276D01*
X67430095Y-86339276D01*
X67572952Y-86386895D01*
X68144380Y-86958323D01*
X68144380Y-86339276D01*
X67239619Y-85958323D02*
X67192000Y-85910704D01*
X67144380Y-85815466D01*
X67144380Y-85577371D01*
X67192000Y-85482133D01*
X67239619Y-85434514D01*
X67334857Y-85386895D01*
X67430095Y-85386895D01*
X67572952Y-85434514D01*
X68144380Y-86005942D01*
X68144380Y-85386895D01*
%TO.C,SW2*%
X79183115Y-81408733D02*
X79317802Y-81341390D01*
X79486161Y-81173031D01*
X79519833Y-81072016D01*
X79519833Y-81004672D01*
X79486161Y-80903657D01*
X79418818Y-80836314D01*
X79317802Y-80802642D01*
X79250459Y-80802642D01*
X79149444Y-80836314D01*
X78981085Y-80937329D01*
X78880070Y-80971001D01*
X78812726Y-80971001D01*
X78711711Y-80937329D01*
X78644367Y-80869985D01*
X78610696Y-80768970D01*
X78610696Y-80701627D01*
X78644367Y-80600611D01*
X78812726Y-80432253D01*
X78947413Y-80364909D01*
X79149444Y-80095535D02*
X80024909Y-80634283D01*
X79654520Y-79994520D01*
X80294283Y-80364909D01*
X79755535Y-79489444D01*
X80058581Y-79321085D02*
X80058581Y-79253741D01*
X80092253Y-79152726D01*
X80260611Y-78984367D01*
X80361627Y-78950696D01*
X80428970Y-78950696D01*
X80529985Y-78984367D01*
X80597329Y-79051711D01*
X80664672Y-79186398D01*
X80664672Y-79994520D01*
X81102405Y-79556787D01*
%TO.C,SW9*%
X78642200Y-94751818D02*
X78776887Y-94684475D01*
X78945246Y-94516116D01*
X78978918Y-94415101D01*
X78978918Y-94347757D01*
X78945246Y-94246742D01*
X78877903Y-94179399D01*
X78776887Y-94145727D01*
X78709544Y-94145727D01*
X78608529Y-94179399D01*
X78440170Y-94280414D01*
X78339155Y-94314086D01*
X78271811Y-94314086D01*
X78170796Y-94280414D01*
X78103452Y-94213070D01*
X78069781Y-94112055D01*
X78069781Y-94044712D01*
X78103452Y-93943696D01*
X78271811Y-93775338D01*
X78406498Y-93707994D01*
X78608529Y-93438620D02*
X79483994Y-93977368D01*
X79113605Y-93337605D01*
X79753368Y-93707994D01*
X79214620Y-92832529D01*
X80224773Y-93236590D02*
X80359460Y-93101903D01*
X80393131Y-93000887D01*
X80393131Y-92933544D01*
X80359460Y-92765185D01*
X80258444Y-92596826D01*
X79989070Y-92327452D01*
X79888055Y-92293781D01*
X79820712Y-92293781D01*
X79719696Y-92327452D01*
X79585009Y-92462139D01*
X79551338Y-92563155D01*
X79551338Y-92630498D01*
X79585009Y-92731513D01*
X79753368Y-92899872D01*
X79854383Y-92933544D01*
X79921727Y-92933544D01*
X80022742Y-92899872D01*
X80157429Y-92765185D01*
X80191101Y-92664170D01*
X80191101Y-92596826D01*
X80157429Y-92495811D01*
%TO.C,U4*%
X127304895Y-139761980D02*
X127304895Y-140571504D01*
X127352514Y-140666742D01*
X127400133Y-140714361D01*
X127495371Y-140761980D01*
X127685847Y-140761980D01*
X127781085Y-140714361D01*
X127828704Y-140666742D01*
X127876323Y-140571504D01*
X127876323Y-139761980D01*
X128781085Y-140095314D02*
X128781085Y-140761980D01*
X128542990Y-139714361D02*
X128304895Y-140428647D01*
X128923942Y-140428647D01*
%TO.C,SW1*%
X79993115Y-68008733D02*
X80127802Y-67941390D01*
X80296161Y-67773031D01*
X80329833Y-67672016D01*
X80329833Y-67604672D01*
X80296161Y-67503657D01*
X80228818Y-67436314D01*
X80127802Y-67402642D01*
X80060459Y-67402642D01*
X79959444Y-67436314D01*
X79791085Y-67537329D01*
X79690070Y-67571001D01*
X79622726Y-67571001D01*
X79521711Y-67537329D01*
X79454367Y-67469985D01*
X79420696Y-67368970D01*
X79420696Y-67301627D01*
X79454367Y-67200611D01*
X79622726Y-67032253D01*
X79757413Y-66964909D01*
X79959444Y-66695535D02*
X80834909Y-67234283D01*
X80464520Y-66594520D01*
X81104283Y-66964909D01*
X80565535Y-66089444D01*
X81912405Y-66156787D02*
X81508344Y-66560848D01*
X81710375Y-66358818D02*
X81003268Y-65651711D01*
X81036940Y-65820070D01*
X81036940Y-65954757D01*
X81003268Y-66055772D01*
%TO.C,R29*%
X104308380Y-134107657D02*
X103832190Y-134440990D01*
X104308380Y-134679085D02*
X103308380Y-134679085D01*
X103308380Y-134298133D01*
X103356000Y-134202895D01*
X103403619Y-134155276D01*
X103498857Y-134107657D01*
X103641714Y-134107657D01*
X103736952Y-134155276D01*
X103784571Y-134202895D01*
X103832190Y-134298133D01*
X103832190Y-134679085D01*
X103403619Y-133726704D02*
X103356000Y-133679085D01*
X103308380Y-133583847D01*
X103308380Y-133345752D01*
X103356000Y-133250514D01*
X103403619Y-133202895D01*
X103498857Y-133155276D01*
X103594095Y-133155276D01*
X103736952Y-133202895D01*
X104308380Y-133774323D01*
X104308380Y-133155276D01*
X104308380Y-132679085D02*
X104308380Y-132488609D01*
X104260761Y-132393371D01*
X104213142Y-132345752D01*
X104070285Y-132250514D01*
X103879809Y-132202895D01*
X103498857Y-132202895D01*
X103403619Y-132250514D01*
X103356000Y-132298133D01*
X103308380Y-132393371D01*
X103308380Y-132583847D01*
X103356000Y-132679085D01*
X103403619Y-132726704D01*
X103498857Y-132774323D01*
X103736952Y-132774323D01*
X103832190Y-132726704D01*
X103879809Y-132679085D01*
X103927428Y-132583847D01*
X103927428Y-132393371D01*
X103879809Y-132298133D01*
X103832190Y-132250514D01*
X103736952Y-132202895D01*
%TO.C,R20*%
X91815180Y-109507257D02*
X91338990Y-109840590D01*
X91815180Y-110078685D02*
X90815180Y-110078685D01*
X90815180Y-109697733D01*
X90862800Y-109602495D01*
X90910419Y-109554876D01*
X91005657Y-109507257D01*
X91148514Y-109507257D01*
X91243752Y-109554876D01*
X91291371Y-109602495D01*
X91338990Y-109697733D01*
X91338990Y-110078685D01*
X90910419Y-109126304D02*
X90862800Y-109078685D01*
X90815180Y-108983447D01*
X90815180Y-108745352D01*
X90862800Y-108650114D01*
X90910419Y-108602495D01*
X91005657Y-108554876D01*
X91100895Y-108554876D01*
X91243752Y-108602495D01*
X91815180Y-109173923D01*
X91815180Y-108554876D01*
X90815180Y-107935828D02*
X90815180Y-107840590D01*
X90862800Y-107745352D01*
X90910419Y-107697733D01*
X91005657Y-107650114D01*
X91196133Y-107602495D01*
X91434228Y-107602495D01*
X91624704Y-107650114D01*
X91719942Y-107697733D01*
X91767561Y-107745352D01*
X91815180Y-107840590D01*
X91815180Y-107935828D01*
X91767561Y-108031066D01*
X91719942Y-108078685D01*
X91624704Y-108126304D01*
X91434228Y-108173923D01*
X91196133Y-108173923D01*
X91005657Y-108126304D01*
X90910419Y-108078685D01*
X90862800Y-108031066D01*
X90815180Y-107935828D01*
%TO.C,SW13*%
X147393483Y-94428136D02*
X147528170Y-94360792D01*
X147696529Y-94192434D01*
X147730200Y-94091418D01*
X147730200Y-94024075D01*
X147696529Y-93923060D01*
X147629185Y-93855716D01*
X147528170Y-93822044D01*
X147460826Y-93822044D01*
X147359811Y-93855716D01*
X147191452Y-93956731D01*
X147090437Y-93990403D01*
X147023094Y-93990403D01*
X146922078Y-93956731D01*
X146854735Y-93889388D01*
X146821063Y-93788373D01*
X146821063Y-93721029D01*
X146854735Y-93620014D01*
X147023094Y-93451655D01*
X147157781Y-93384312D01*
X147359811Y-93114938D02*
X148235277Y-93653686D01*
X147864887Y-93013922D01*
X148504651Y-93384312D01*
X147965903Y-92508846D01*
X149312773Y-92576190D02*
X148908712Y-92980251D01*
X149110742Y-92778220D02*
X148403635Y-92071113D01*
X148437307Y-92239472D01*
X148437307Y-92374159D01*
X148403635Y-92475174D01*
X148841368Y-91633381D02*
X149279101Y-91195648D01*
X149312773Y-91700724D01*
X149413788Y-91599709D01*
X149514803Y-91566037D01*
X149582147Y-91566037D01*
X149683162Y-91599709D01*
X149851521Y-91768068D01*
X149885192Y-91869083D01*
X149885192Y-91936426D01*
X149851521Y-92037442D01*
X149649490Y-92239472D01*
X149548475Y-92273144D01*
X149481131Y-92273144D01*
%TO.C,C1*%
X118920742Y-140149966D02*
X118968361Y-140197585D01*
X119015980Y-140340442D01*
X119015980Y-140435680D01*
X118968361Y-140578538D01*
X118873123Y-140673776D01*
X118777885Y-140721395D01*
X118587409Y-140769014D01*
X118444552Y-140769014D01*
X118254076Y-140721395D01*
X118158838Y-140673776D01*
X118063600Y-140578538D01*
X118015980Y-140435680D01*
X118015980Y-140340442D01*
X118063600Y-140197585D01*
X118111219Y-140149966D01*
X119015980Y-139197585D02*
X119015980Y-139769014D01*
X119015980Y-139483300D02*
X118015980Y-139483300D01*
X118158838Y-139578538D01*
X118254076Y-139673776D01*
X118301695Y-139769014D01*
%TO.C,R11*%
X159291542Y-110966780D02*
X158958209Y-110490590D01*
X158720114Y-110966780D02*
X158720114Y-109966780D01*
X159101066Y-109966780D01*
X159196304Y-110014400D01*
X159243923Y-110062019D01*
X159291542Y-110157257D01*
X159291542Y-110300114D01*
X159243923Y-110395352D01*
X159196304Y-110442971D01*
X159101066Y-110490590D01*
X158720114Y-110490590D01*
X160243923Y-110966780D02*
X159672495Y-110966780D01*
X159958209Y-110966780D02*
X159958209Y-109966780D01*
X159862971Y-110109638D01*
X159767733Y-110204876D01*
X159672495Y-110252495D01*
X161196304Y-110966780D02*
X160624876Y-110966780D01*
X160910590Y-110966780D02*
X160910590Y-109966780D01*
X160815352Y-110109638D01*
X160720114Y-110204876D01*
X160624876Y-110252495D01*
%TO.C,D1007*%
X152665333Y-77859380D02*
X152665333Y-76859380D01*
X152903428Y-76859380D01*
X153046285Y-76907000D01*
X153141523Y-77002238D01*
X153189142Y-77097476D01*
X153236761Y-77287952D01*
X153236761Y-77430809D01*
X153189142Y-77621285D01*
X153141523Y-77716523D01*
X153046285Y-77811761D01*
X152903428Y-77859380D01*
X152665333Y-77859380D01*
X154189142Y-77859380D02*
X153617714Y-77859380D01*
X153903428Y-77859380D02*
X153903428Y-76859380D01*
X153808190Y-77002238D01*
X153712952Y-77097476D01*
X153617714Y-77145095D01*
X154808190Y-76859380D02*
X154903428Y-76859380D01*
X154998666Y-76907000D01*
X155046285Y-76954619D01*
X155093904Y-77049857D01*
X155141523Y-77240333D01*
X155141523Y-77478428D01*
X155093904Y-77668904D01*
X155046285Y-77764142D01*
X154998666Y-77811761D01*
X154903428Y-77859380D01*
X154808190Y-77859380D01*
X154712952Y-77811761D01*
X154665333Y-77764142D01*
X154617714Y-77668904D01*
X154570095Y-77478428D01*
X154570095Y-77240333D01*
X154617714Y-77049857D01*
X154665333Y-76954619D01*
X154712952Y-76907000D01*
X154808190Y-76859380D01*
X155760571Y-76859380D02*
X155855809Y-76859380D01*
X155951047Y-76907000D01*
X155998666Y-76954619D01*
X156046285Y-77049857D01*
X156093904Y-77240333D01*
X156093904Y-77478428D01*
X156046285Y-77668904D01*
X155998666Y-77764142D01*
X155951047Y-77811761D01*
X155855809Y-77859380D01*
X155760571Y-77859380D01*
X155665333Y-77811761D01*
X155617714Y-77764142D01*
X155570095Y-77668904D01*
X155522476Y-77478428D01*
X155522476Y-77240333D01*
X155570095Y-77049857D01*
X155617714Y-76954619D01*
X155665333Y-76907000D01*
X155760571Y-76859380D01*
X156427238Y-76859380D02*
X157093904Y-76859380D01*
X156665333Y-77859380D01*
%TO.C,R27*%
X108408180Y-73887057D02*
X107931990Y-74220390D01*
X108408180Y-74458485D02*
X107408180Y-74458485D01*
X107408180Y-74077533D01*
X107455800Y-73982295D01*
X107503419Y-73934676D01*
X107598657Y-73887057D01*
X107741514Y-73887057D01*
X107836752Y-73934676D01*
X107884371Y-73982295D01*
X107931990Y-74077533D01*
X107931990Y-74458485D01*
X107503419Y-73506104D02*
X107455800Y-73458485D01*
X107408180Y-73363247D01*
X107408180Y-73125152D01*
X107455800Y-73029914D01*
X107503419Y-72982295D01*
X107598657Y-72934676D01*
X107693895Y-72934676D01*
X107836752Y-72982295D01*
X108408180Y-73553723D01*
X108408180Y-72934676D01*
X107408180Y-72601342D02*
X107408180Y-71934676D01*
X108408180Y-72363247D01*
%TO.C,D1017*%
X111495333Y-104949380D02*
X111495333Y-103949380D01*
X111733428Y-103949380D01*
X111876285Y-103997000D01*
X111971523Y-104092238D01*
X112019142Y-104187476D01*
X112066761Y-104377952D01*
X112066761Y-104520809D01*
X112019142Y-104711285D01*
X111971523Y-104806523D01*
X111876285Y-104901761D01*
X111733428Y-104949380D01*
X111495333Y-104949380D01*
X113019142Y-104949380D02*
X112447714Y-104949380D01*
X112733428Y-104949380D02*
X112733428Y-103949380D01*
X112638190Y-104092238D01*
X112542952Y-104187476D01*
X112447714Y-104235095D01*
X113638190Y-103949380D02*
X113733428Y-103949380D01*
X113828666Y-103997000D01*
X113876285Y-104044619D01*
X113923904Y-104139857D01*
X113971523Y-104330333D01*
X113971523Y-104568428D01*
X113923904Y-104758904D01*
X113876285Y-104854142D01*
X113828666Y-104901761D01*
X113733428Y-104949380D01*
X113638190Y-104949380D01*
X113542952Y-104901761D01*
X113495333Y-104854142D01*
X113447714Y-104758904D01*
X113400095Y-104568428D01*
X113400095Y-104330333D01*
X113447714Y-104139857D01*
X113495333Y-104044619D01*
X113542952Y-103997000D01*
X113638190Y-103949380D01*
X114923904Y-104949380D02*
X114352476Y-104949380D01*
X114638190Y-104949380D02*
X114638190Y-103949380D01*
X114542952Y-104092238D01*
X114447714Y-104187476D01*
X114352476Y-104235095D01*
X115257238Y-103949380D02*
X115923904Y-103949380D01*
X115495333Y-104949380D01*
%TO.C,D1014*%
X175074533Y-91282780D02*
X175074533Y-90282780D01*
X175312628Y-90282780D01*
X175455485Y-90330400D01*
X175550723Y-90425638D01*
X175598342Y-90520876D01*
X175645961Y-90711352D01*
X175645961Y-90854209D01*
X175598342Y-91044685D01*
X175550723Y-91139923D01*
X175455485Y-91235161D01*
X175312628Y-91282780D01*
X175074533Y-91282780D01*
X176598342Y-91282780D02*
X176026914Y-91282780D01*
X176312628Y-91282780D02*
X176312628Y-90282780D01*
X176217390Y-90425638D01*
X176122152Y-90520876D01*
X176026914Y-90568495D01*
X177217390Y-90282780D02*
X177312628Y-90282780D01*
X177407866Y-90330400D01*
X177455485Y-90378019D01*
X177503104Y-90473257D01*
X177550723Y-90663733D01*
X177550723Y-90901828D01*
X177503104Y-91092304D01*
X177455485Y-91187542D01*
X177407866Y-91235161D01*
X177312628Y-91282780D01*
X177217390Y-91282780D01*
X177122152Y-91235161D01*
X177074533Y-91187542D01*
X177026914Y-91092304D01*
X176979295Y-90901828D01*
X176979295Y-90663733D01*
X177026914Y-90473257D01*
X177074533Y-90378019D01*
X177122152Y-90330400D01*
X177217390Y-90282780D01*
X178503104Y-91282780D02*
X177931676Y-91282780D01*
X178217390Y-91282780D02*
X178217390Y-90282780D01*
X178122152Y-90425638D01*
X178026914Y-90520876D01*
X177931676Y-90568495D01*
X179360247Y-90616114D02*
X179360247Y-91282780D01*
X179122152Y-90235161D02*
X178884057Y-90949447D01*
X179503104Y-90949447D01*
%TO.C,D1010*%
X105995333Y-90399380D02*
X105995333Y-89399380D01*
X106233428Y-89399380D01*
X106376285Y-89447000D01*
X106471523Y-89542238D01*
X106519142Y-89637476D01*
X106566761Y-89827952D01*
X106566761Y-89970809D01*
X106519142Y-90161285D01*
X106471523Y-90256523D01*
X106376285Y-90351761D01*
X106233428Y-90399380D01*
X105995333Y-90399380D01*
X107519142Y-90399380D02*
X106947714Y-90399380D01*
X107233428Y-90399380D02*
X107233428Y-89399380D01*
X107138190Y-89542238D01*
X107042952Y-89637476D01*
X106947714Y-89685095D01*
X108138190Y-89399380D02*
X108233428Y-89399380D01*
X108328666Y-89447000D01*
X108376285Y-89494619D01*
X108423904Y-89589857D01*
X108471523Y-89780333D01*
X108471523Y-90018428D01*
X108423904Y-90208904D01*
X108376285Y-90304142D01*
X108328666Y-90351761D01*
X108233428Y-90399380D01*
X108138190Y-90399380D01*
X108042952Y-90351761D01*
X107995333Y-90304142D01*
X107947714Y-90208904D01*
X107900095Y-90018428D01*
X107900095Y-89780333D01*
X107947714Y-89589857D01*
X107995333Y-89494619D01*
X108042952Y-89447000D01*
X108138190Y-89399380D01*
X109423904Y-90399380D02*
X108852476Y-90399380D01*
X109138190Y-90399380D02*
X109138190Y-89399380D01*
X109042952Y-89542238D01*
X108947714Y-89637476D01*
X108852476Y-89685095D01*
X110042952Y-89399380D02*
X110138190Y-89399380D01*
X110233428Y-89447000D01*
X110281047Y-89494619D01*
X110328666Y-89589857D01*
X110376285Y-89780333D01*
X110376285Y-90018428D01*
X110328666Y-90208904D01*
X110281047Y-90304142D01*
X110233428Y-90351761D01*
X110138190Y-90399380D01*
X110042952Y-90399380D01*
X109947714Y-90351761D01*
X109900095Y-90304142D01*
X109852476Y-90208904D01*
X109804857Y-90018428D01*
X109804857Y-89780333D01*
X109852476Y-89589857D01*
X109900095Y-89494619D01*
X109947714Y-89447000D01*
X110042952Y-89399380D01*
%TO.C,R1*%
X119454380Y-125319066D02*
X118978190Y-125652400D01*
X119454380Y-125890495D02*
X118454380Y-125890495D01*
X118454380Y-125509542D01*
X118502000Y-125414304D01*
X118549619Y-125366685D01*
X118644857Y-125319066D01*
X118787714Y-125319066D01*
X118882952Y-125366685D01*
X118930571Y-125414304D01*
X118978190Y-125509542D01*
X118978190Y-125890495D01*
X119454380Y-124366685D02*
X119454380Y-124938114D01*
X119454380Y-124652400D02*
X118454380Y-124652400D01*
X118597238Y-124747638D01*
X118692476Y-124842876D01*
X118740095Y-124938114D01*
%TO.C,SW14*%
X164411483Y-94478936D02*
X164546170Y-94411592D01*
X164714529Y-94243234D01*
X164748200Y-94142218D01*
X164748200Y-94074875D01*
X164714529Y-93973860D01*
X164647185Y-93906516D01*
X164546170Y-93872844D01*
X164478826Y-93872844D01*
X164377811Y-93906516D01*
X164209452Y-94007531D01*
X164108437Y-94041203D01*
X164041094Y-94041203D01*
X163940078Y-94007531D01*
X163872735Y-93940188D01*
X163839063Y-93839173D01*
X163839063Y-93771829D01*
X163872735Y-93670814D01*
X164041094Y-93502455D01*
X164175781Y-93435112D01*
X164377811Y-93165738D02*
X165253277Y-93704486D01*
X164882887Y-93064722D01*
X165522651Y-93435112D01*
X164983903Y-92559646D01*
X166330773Y-92626990D02*
X165926712Y-93031051D01*
X166128742Y-92829020D02*
X165421635Y-92121913D01*
X165455307Y-92290272D01*
X165455307Y-92424959D01*
X165421635Y-92525974D01*
X166465460Y-91549494D02*
X166936864Y-92020898D01*
X166027727Y-91448478D02*
X166364444Y-92121913D01*
X166802177Y-91684181D01*
%TO.C,R7*%
X129510780Y-115803466D02*
X129034590Y-116136800D01*
X129510780Y-116374895D02*
X128510780Y-116374895D01*
X128510780Y-115993942D01*
X128558400Y-115898704D01*
X128606019Y-115851085D01*
X128701257Y-115803466D01*
X128844114Y-115803466D01*
X128939352Y-115851085D01*
X128986971Y-115898704D01*
X129034590Y-115993942D01*
X129034590Y-116374895D01*
X128510780Y-115470133D02*
X128510780Y-114803466D01*
X129510780Y-115232038D01*
%TO.C,D1018*%
X132453333Y-105608380D02*
X132453333Y-104608380D01*
X132691428Y-104608380D01*
X132834285Y-104656000D01*
X132929523Y-104751238D01*
X132977142Y-104846476D01*
X133024761Y-105036952D01*
X133024761Y-105179809D01*
X132977142Y-105370285D01*
X132929523Y-105465523D01*
X132834285Y-105560761D01*
X132691428Y-105608380D01*
X132453333Y-105608380D01*
X133977142Y-105608380D02*
X133405714Y-105608380D01*
X133691428Y-105608380D02*
X133691428Y-104608380D01*
X133596190Y-104751238D01*
X133500952Y-104846476D01*
X133405714Y-104894095D01*
X134596190Y-104608380D02*
X134691428Y-104608380D01*
X134786666Y-104656000D01*
X134834285Y-104703619D01*
X134881904Y-104798857D01*
X134929523Y-104989333D01*
X134929523Y-105227428D01*
X134881904Y-105417904D01*
X134834285Y-105513142D01*
X134786666Y-105560761D01*
X134691428Y-105608380D01*
X134596190Y-105608380D01*
X134500952Y-105560761D01*
X134453333Y-105513142D01*
X134405714Y-105417904D01*
X134358095Y-105227428D01*
X134358095Y-104989333D01*
X134405714Y-104798857D01*
X134453333Y-104703619D01*
X134500952Y-104656000D01*
X134596190Y-104608380D01*
X135881904Y-105608380D02*
X135310476Y-105608380D01*
X135596190Y-105608380D02*
X135596190Y-104608380D01*
X135500952Y-104751238D01*
X135405714Y-104846476D01*
X135310476Y-104894095D01*
X136453333Y-105036952D02*
X136358095Y-104989333D01*
X136310476Y-104941714D01*
X136262857Y-104846476D01*
X136262857Y-104798857D01*
X136310476Y-104703619D01*
X136358095Y-104656000D01*
X136453333Y-104608380D01*
X136643809Y-104608380D01*
X136739047Y-104656000D01*
X136786666Y-104703619D01*
X136834285Y-104798857D01*
X136834285Y-104846476D01*
X136786666Y-104941714D01*
X136739047Y-104989333D01*
X136643809Y-105036952D01*
X136453333Y-105036952D01*
X136358095Y-105084571D01*
X136310476Y-105132190D01*
X136262857Y-105227428D01*
X136262857Y-105417904D01*
X136310476Y-105513142D01*
X136358095Y-105560761D01*
X136453333Y-105608380D01*
X136643809Y-105608380D01*
X136739047Y-105560761D01*
X136786666Y-105513142D01*
X136834285Y-105417904D01*
X136834285Y-105227428D01*
X136786666Y-105132190D01*
X136739047Y-105084571D01*
X136643809Y-105036952D01*
%TO.C,SW6*%
X158601401Y-82356618D02*
X158736088Y-82289275D01*
X158904447Y-82120916D01*
X158938119Y-82019901D01*
X158938119Y-81952557D01*
X158904447Y-81851542D01*
X158837104Y-81784199D01*
X158736088Y-81750527D01*
X158668745Y-81750527D01*
X158567730Y-81784199D01*
X158399371Y-81885214D01*
X158298356Y-81918886D01*
X158231012Y-81918886D01*
X158129997Y-81885214D01*
X158062653Y-81817870D01*
X158028982Y-81716855D01*
X158028982Y-81649512D01*
X158062653Y-81548496D01*
X158231012Y-81380138D01*
X158365699Y-81312794D01*
X158567730Y-81043420D02*
X159443195Y-81582168D01*
X159072806Y-80942405D01*
X159712569Y-81312794D01*
X159173821Y-80437329D01*
X159746241Y-79864909D02*
X159611554Y-79999596D01*
X159577882Y-80100611D01*
X159577882Y-80167955D01*
X159611554Y-80336313D01*
X159712569Y-80504672D01*
X159981943Y-80774046D01*
X160082958Y-80807718D01*
X160150302Y-80807718D01*
X160251317Y-80774046D01*
X160386004Y-80639359D01*
X160419676Y-80538344D01*
X160419676Y-80471000D01*
X160386004Y-80369985D01*
X160217645Y-80201626D01*
X160116630Y-80167955D01*
X160049287Y-80167955D01*
X159948271Y-80201626D01*
X159813584Y-80336313D01*
X159779913Y-80437329D01*
X159779913Y-80504672D01*
X159813584Y-80605687D01*
%TO.C,R28*%
X111763542Y-74898780D02*
X111430209Y-74422590D01*
X111192114Y-74898780D02*
X111192114Y-73898780D01*
X111573066Y-73898780D01*
X111668304Y-73946400D01*
X111715923Y-73994019D01*
X111763542Y-74089257D01*
X111763542Y-74232114D01*
X111715923Y-74327352D01*
X111668304Y-74374971D01*
X111573066Y-74422590D01*
X111192114Y-74422590D01*
X112144495Y-73994019D02*
X112192114Y-73946400D01*
X112287352Y-73898780D01*
X112525447Y-73898780D01*
X112620685Y-73946400D01*
X112668304Y-73994019D01*
X112715923Y-74089257D01*
X112715923Y-74184495D01*
X112668304Y-74327352D01*
X112096876Y-74898780D01*
X112715923Y-74898780D01*
X113287352Y-74327352D02*
X113192114Y-74279733D01*
X113144495Y-74232114D01*
X113096876Y-74136876D01*
X113096876Y-74089257D01*
X113144495Y-73994019D01*
X113192114Y-73946400D01*
X113287352Y-73898780D01*
X113477828Y-73898780D01*
X113573066Y-73946400D01*
X113620685Y-73994019D01*
X113668304Y-74089257D01*
X113668304Y-74136876D01*
X113620685Y-74232114D01*
X113573066Y-74279733D01*
X113477828Y-74327352D01*
X113287352Y-74327352D01*
X113192114Y-74374971D01*
X113144495Y-74422590D01*
X113096876Y-74517828D01*
X113096876Y-74708304D01*
X113144495Y-74803542D01*
X113192114Y-74851161D01*
X113287352Y-74898780D01*
X113477828Y-74898780D01*
X113573066Y-74851161D01*
X113620685Y-74803542D01*
X113668304Y-74708304D01*
X113668304Y-74517828D01*
X113620685Y-74422590D01*
X113573066Y-74374971D01*
X113477828Y-74327352D01*
%TO.C,D1001*%
X97575333Y-65489380D02*
X97575333Y-64489380D01*
X97813428Y-64489380D01*
X97956285Y-64537000D01*
X98051523Y-64632238D01*
X98099142Y-64727476D01*
X98146761Y-64917952D01*
X98146761Y-65060809D01*
X98099142Y-65251285D01*
X98051523Y-65346523D01*
X97956285Y-65441761D01*
X97813428Y-65489380D01*
X97575333Y-65489380D01*
X99099142Y-65489380D02*
X98527714Y-65489380D01*
X98813428Y-65489380D02*
X98813428Y-64489380D01*
X98718190Y-64632238D01*
X98622952Y-64727476D01*
X98527714Y-64775095D01*
X99718190Y-64489380D02*
X99813428Y-64489380D01*
X99908666Y-64537000D01*
X99956285Y-64584619D01*
X100003904Y-64679857D01*
X100051523Y-64870333D01*
X100051523Y-65108428D01*
X100003904Y-65298904D01*
X99956285Y-65394142D01*
X99908666Y-65441761D01*
X99813428Y-65489380D01*
X99718190Y-65489380D01*
X99622952Y-65441761D01*
X99575333Y-65394142D01*
X99527714Y-65298904D01*
X99480095Y-65108428D01*
X99480095Y-64870333D01*
X99527714Y-64679857D01*
X99575333Y-64584619D01*
X99622952Y-64537000D01*
X99718190Y-64489380D01*
X100670571Y-64489380D02*
X100765809Y-64489380D01*
X100861047Y-64537000D01*
X100908666Y-64584619D01*
X100956285Y-64679857D01*
X101003904Y-64870333D01*
X101003904Y-65108428D01*
X100956285Y-65298904D01*
X100908666Y-65394142D01*
X100861047Y-65441761D01*
X100765809Y-65489380D01*
X100670571Y-65489380D01*
X100575333Y-65441761D01*
X100527714Y-65394142D01*
X100480095Y-65298904D01*
X100432476Y-65108428D01*
X100432476Y-64870333D01*
X100480095Y-64679857D01*
X100527714Y-64584619D01*
X100575333Y-64537000D01*
X100670571Y-64489380D01*
X101956285Y-65489380D02*
X101384857Y-65489380D01*
X101670571Y-65489380D02*
X101670571Y-64489380D01*
X101575333Y-64632238D01*
X101480095Y-64727476D01*
X101384857Y-64775095D01*
%TO.C,D1004*%
X165435333Y-65209380D02*
X165435333Y-64209380D01*
X165673428Y-64209380D01*
X165816285Y-64257000D01*
X165911523Y-64352238D01*
X165959142Y-64447476D01*
X166006761Y-64637952D01*
X166006761Y-64780809D01*
X165959142Y-64971285D01*
X165911523Y-65066523D01*
X165816285Y-65161761D01*
X165673428Y-65209380D01*
X165435333Y-65209380D01*
X166959142Y-65209380D02*
X166387714Y-65209380D01*
X166673428Y-65209380D02*
X166673428Y-64209380D01*
X166578190Y-64352238D01*
X166482952Y-64447476D01*
X166387714Y-64495095D01*
X167578190Y-64209380D02*
X167673428Y-64209380D01*
X167768666Y-64257000D01*
X167816285Y-64304619D01*
X167863904Y-64399857D01*
X167911523Y-64590333D01*
X167911523Y-64828428D01*
X167863904Y-65018904D01*
X167816285Y-65114142D01*
X167768666Y-65161761D01*
X167673428Y-65209380D01*
X167578190Y-65209380D01*
X167482952Y-65161761D01*
X167435333Y-65114142D01*
X167387714Y-65018904D01*
X167340095Y-64828428D01*
X167340095Y-64590333D01*
X167387714Y-64399857D01*
X167435333Y-64304619D01*
X167482952Y-64257000D01*
X167578190Y-64209380D01*
X168530571Y-64209380D02*
X168625809Y-64209380D01*
X168721047Y-64257000D01*
X168768666Y-64304619D01*
X168816285Y-64399857D01*
X168863904Y-64590333D01*
X168863904Y-64828428D01*
X168816285Y-65018904D01*
X168768666Y-65114142D01*
X168721047Y-65161761D01*
X168625809Y-65209380D01*
X168530571Y-65209380D01*
X168435333Y-65161761D01*
X168387714Y-65114142D01*
X168340095Y-65018904D01*
X168292476Y-64828428D01*
X168292476Y-64590333D01*
X168340095Y-64399857D01*
X168387714Y-64304619D01*
X168435333Y-64257000D01*
X168530571Y-64209380D01*
X169721047Y-64542714D02*
X169721047Y-65209380D01*
X169482952Y-64161761D02*
X169244857Y-64876047D01*
X169863904Y-64876047D01*
%TO.C,D1008*%
X72890333Y-90399380D02*
X72890333Y-89399380D01*
X73128428Y-89399380D01*
X73271285Y-89447000D01*
X73366523Y-89542238D01*
X73414142Y-89637476D01*
X73461761Y-89827952D01*
X73461761Y-89970809D01*
X73414142Y-90161285D01*
X73366523Y-90256523D01*
X73271285Y-90351761D01*
X73128428Y-90399380D01*
X72890333Y-90399380D01*
X74414142Y-90399380D02*
X73842714Y-90399380D01*
X74128428Y-90399380D02*
X74128428Y-89399380D01*
X74033190Y-89542238D01*
X73937952Y-89637476D01*
X73842714Y-89685095D01*
X75033190Y-89399380D02*
X75128428Y-89399380D01*
X75223666Y-89447000D01*
X75271285Y-89494619D01*
X75318904Y-89589857D01*
X75366523Y-89780333D01*
X75366523Y-90018428D01*
X75318904Y-90208904D01*
X75271285Y-90304142D01*
X75223666Y-90351761D01*
X75128428Y-90399380D01*
X75033190Y-90399380D01*
X74937952Y-90351761D01*
X74890333Y-90304142D01*
X74842714Y-90208904D01*
X74795095Y-90018428D01*
X74795095Y-89780333D01*
X74842714Y-89589857D01*
X74890333Y-89494619D01*
X74937952Y-89447000D01*
X75033190Y-89399380D01*
X75985571Y-89399380D02*
X76080809Y-89399380D01*
X76176047Y-89447000D01*
X76223666Y-89494619D01*
X76271285Y-89589857D01*
X76318904Y-89780333D01*
X76318904Y-90018428D01*
X76271285Y-90208904D01*
X76223666Y-90304142D01*
X76176047Y-90351761D01*
X76080809Y-90399380D01*
X75985571Y-90399380D01*
X75890333Y-90351761D01*
X75842714Y-90304142D01*
X75795095Y-90208904D01*
X75747476Y-90018428D01*
X75747476Y-89780333D01*
X75795095Y-89589857D01*
X75842714Y-89494619D01*
X75890333Y-89447000D01*
X75985571Y-89399380D01*
X76890333Y-89827952D02*
X76795095Y-89780333D01*
X76747476Y-89732714D01*
X76699857Y-89637476D01*
X76699857Y-89589857D01*
X76747476Y-89494619D01*
X76795095Y-89447000D01*
X76890333Y-89399380D01*
X77080809Y-89399380D01*
X77176047Y-89447000D01*
X77223666Y-89494619D01*
X77271285Y-89589857D01*
X77271285Y-89637476D01*
X77223666Y-89732714D01*
X77176047Y-89780333D01*
X77080809Y-89827952D01*
X76890333Y-89827952D01*
X76795095Y-89875571D01*
X76747476Y-89923190D01*
X76699857Y-90018428D01*
X76699857Y-90208904D01*
X76747476Y-90304142D01*
X76795095Y-90351761D01*
X76890333Y-90399380D01*
X77080809Y-90399380D01*
X77176047Y-90351761D01*
X77223666Y-90304142D01*
X77271285Y-90208904D01*
X77271285Y-90018428D01*
X77223666Y-89923190D01*
X77176047Y-89875571D01*
X77080809Y-89827952D01*
%TO.C,R18*%
X144357142Y-107666780D02*
X144023809Y-107190590D01*
X143785714Y-107666780D02*
X143785714Y-106666780D01*
X144166666Y-106666780D01*
X144261904Y-106714400D01*
X144309523Y-106762019D01*
X144357142Y-106857257D01*
X144357142Y-107000114D01*
X144309523Y-107095352D01*
X144261904Y-107142971D01*
X144166666Y-107190590D01*
X143785714Y-107190590D01*
X145309523Y-107666780D02*
X144738095Y-107666780D01*
X145023809Y-107666780D02*
X145023809Y-106666780D01*
X144928571Y-106809638D01*
X144833333Y-106904876D01*
X144738095Y-106952495D01*
X145880952Y-107095352D02*
X145785714Y-107047733D01*
X145738095Y-107000114D01*
X145690476Y-106904876D01*
X145690476Y-106857257D01*
X145738095Y-106762019D01*
X145785714Y-106714400D01*
X145880952Y-106666780D01*
X146071428Y-106666780D01*
X146166666Y-106714400D01*
X146214285Y-106762019D01*
X146261904Y-106857257D01*
X146261904Y-106904876D01*
X146214285Y-107000114D01*
X146166666Y-107047733D01*
X146071428Y-107095352D01*
X145880952Y-107095352D01*
X145785714Y-107142971D01*
X145738095Y-107190590D01*
X145690476Y-107285828D01*
X145690476Y-107476304D01*
X145738095Y-107571542D01*
X145785714Y-107619161D01*
X145880952Y-107666780D01*
X146071428Y-107666780D01*
X146166666Y-107619161D01*
X146214285Y-107571542D01*
X146261904Y-107476304D01*
X146261904Y-107285828D01*
X146214285Y-107190590D01*
X146166666Y-107142971D01*
X146071428Y-107095352D01*
%TO.C,C1003*%
X83364342Y-135758038D02*
X83411961Y-135805657D01*
X83459580Y-135948514D01*
X83459580Y-136043752D01*
X83411961Y-136186609D01*
X83316723Y-136281847D01*
X83221485Y-136329466D01*
X83031009Y-136377085D01*
X82888152Y-136377085D01*
X82697676Y-136329466D01*
X82602438Y-136281847D01*
X82507200Y-136186609D01*
X82459580Y-136043752D01*
X82459580Y-135948514D01*
X82507200Y-135805657D01*
X82554819Y-135758038D01*
X83459580Y-134805657D02*
X83459580Y-135377085D01*
X83459580Y-135091371D02*
X82459580Y-135091371D01*
X82602438Y-135186609D01*
X82697676Y-135281847D01*
X82745295Y-135377085D01*
X82459580Y-134186609D02*
X82459580Y-134091371D01*
X82507200Y-133996133D01*
X82554819Y-133948514D01*
X82650057Y-133900895D01*
X82840533Y-133853276D01*
X83078628Y-133853276D01*
X83269104Y-133900895D01*
X83364342Y-133948514D01*
X83411961Y-133996133D01*
X83459580Y-134091371D01*
X83459580Y-134186609D01*
X83411961Y-134281847D01*
X83364342Y-134329466D01*
X83269104Y-134377085D01*
X83078628Y-134424704D01*
X82840533Y-134424704D01*
X82650057Y-134377085D01*
X82554819Y-134329466D01*
X82507200Y-134281847D01*
X82459580Y-134186609D01*
X82459580Y-133234228D02*
X82459580Y-133138990D01*
X82507200Y-133043752D01*
X82554819Y-132996133D01*
X82650057Y-132948514D01*
X82840533Y-132900895D01*
X83078628Y-132900895D01*
X83269104Y-132948514D01*
X83364342Y-132996133D01*
X83411961Y-133043752D01*
X83459580Y-133138990D01*
X83459580Y-133234228D01*
X83411961Y-133329466D01*
X83364342Y-133377085D01*
X83269104Y-133424704D01*
X83078628Y-133472323D01*
X82840533Y-133472323D01*
X82650057Y-133424704D01*
X82554819Y-133377085D01*
X82507200Y-133329466D01*
X82459580Y-133234228D01*
X82459580Y-132567561D02*
X82459580Y-131948514D01*
X82840533Y-132281847D01*
X82840533Y-132138990D01*
X82888152Y-132043752D01*
X82935771Y-131996133D01*
X83031009Y-131948514D01*
X83269104Y-131948514D01*
X83364342Y-131996133D01*
X83411961Y-132043752D01*
X83459580Y-132138990D01*
X83459580Y-132424704D01*
X83411961Y-132519942D01*
X83364342Y-132567561D01*
%TO.C,SW11*%
X112341483Y-94936136D02*
X112476170Y-94868792D01*
X112644529Y-94700434D01*
X112678200Y-94599418D01*
X112678200Y-94532075D01*
X112644529Y-94431060D01*
X112577185Y-94363716D01*
X112476170Y-94330044D01*
X112408826Y-94330044D01*
X112307811Y-94363716D01*
X112139452Y-94464731D01*
X112038437Y-94498403D01*
X111971094Y-94498403D01*
X111870078Y-94464731D01*
X111802735Y-94397388D01*
X111769063Y-94296373D01*
X111769063Y-94229029D01*
X111802735Y-94128014D01*
X111971094Y-93959655D01*
X112105781Y-93892312D01*
X112307811Y-93622938D02*
X113183277Y-94161686D01*
X112812887Y-93521922D01*
X113452651Y-93892312D01*
X112913903Y-93016846D01*
X114260773Y-93084190D02*
X113856712Y-93488251D01*
X114058742Y-93286220D02*
X113351635Y-92579113D01*
X113385307Y-92747472D01*
X113385307Y-92882159D01*
X113351635Y-92983174D01*
X114934208Y-92410755D02*
X114530147Y-92814816D01*
X114732177Y-92612785D02*
X114025070Y-91905678D01*
X114058742Y-92074037D01*
X114058742Y-92208724D01*
X114025070Y-92309739D01*
%TO.C,R12*%
X153617942Y-74898780D02*
X153284609Y-74422590D01*
X153046514Y-74898780D02*
X153046514Y-73898780D01*
X153427466Y-73898780D01*
X153522704Y-73946400D01*
X153570323Y-73994019D01*
X153617942Y-74089257D01*
X153617942Y-74232114D01*
X153570323Y-74327352D01*
X153522704Y-74374971D01*
X153427466Y-74422590D01*
X153046514Y-74422590D01*
X154570323Y-74898780D02*
X153998895Y-74898780D01*
X154284609Y-74898780D02*
X154284609Y-73898780D01*
X154189371Y-74041638D01*
X154094133Y-74136876D01*
X153998895Y-74184495D01*
X154951276Y-73994019D02*
X154998895Y-73946400D01*
X155094133Y-73898780D01*
X155332228Y-73898780D01*
X155427466Y-73946400D01*
X155475085Y-73994019D01*
X155522704Y-74089257D01*
X155522704Y-74184495D01*
X155475085Y-74327352D01*
X154903657Y-74898780D01*
X155522704Y-74898780D01*
%TO.C,R19*%
X86609142Y-127254780D02*
X86275809Y-126778590D01*
X86037714Y-127254780D02*
X86037714Y-126254780D01*
X86418666Y-126254780D01*
X86513904Y-126302400D01*
X86561523Y-126350019D01*
X86609142Y-126445257D01*
X86609142Y-126588114D01*
X86561523Y-126683352D01*
X86513904Y-126730971D01*
X86418666Y-126778590D01*
X86037714Y-126778590D01*
X87561523Y-127254780D02*
X86990095Y-127254780D01*
X87275809Y-127254780D02*
X87275809Y-126254780D01*
X87180571Y-126397638D01*
X87085333Y-126492876D01*
X86990095Y-126540495D01*
X88037714Y-127254780D02*
X88228190Y-127254780D01*
X88323428Y-127207161D01*
X88371047Y-127159542D01*
X88466285Y-127016685D01*
X88513904Y-126826209D01*
X88513904Y-126445257D01*
X88466285Y-126350019D01*
X88418666Y-126302400D01*
X88323428Y-126254780D01*
X88132952Y-126254780D01*
X88037714Y-126302400D01*
X87990095Y-126350019D01*
X87942476Y-126445257D01*
X87942476Y-126683352D01*
X87990095Y-126778590D01*
X88037714Y-126826209D01*
X88132952Y-126873828D01*
X88323428Y-126873828D01*
X88418666Y-126826209D01*
X88466285Y-126778590D01*
X88513904Y-126683352D01*
%TO.C,R9*%
X111085333Y-130954780D02*
X110752000Y-130478590D01*
X110513904Y-130954780D02*
X110513904Y-129954780D01*
X110894857Y-129954780D01*
X110990095Y-130002400D01*
X111037714Y-130050019D01*
X111085333Y-130145257D01*
X111085333Y-130288114D01*
X111037714Y-130383352D01*
X110990095Y-130430971D01*
X110894857Y-130478590D01*
X110513904Y-130478590D01*
X111561523Y-130954780D02*
X111752000Y-130954780D01*
X111847238Y-130907161D01*
X111894857Y-130859542D01*
X111990095Y-130716685D01*
X112037714Y-130526209D01*
X112037714Y-130145257D01*
X111990095Y-130050019D01*
X111942476Y-130002400D01*
X111847238Y-129954780D01*
X111656761Y-129954780D01*
X111561523Y-130002400D01*
X111513904Y-130050019D01*
X111466285Y-130145257D01*
X111466285Y-130383352D01*
X111513904Y-130478590D01*
X111561523Y-130526209D01*
X111656761Y-130573828D01*
X111847238Y-130573828D01*
X111942476Y-130526209D01*
X111990095Y-130478590D01*
X112037714Y-130383352D01*
%TO.C,C1002*%
X89917542Y-135605638D02*
X89965161Y-135653257D01*
X90012780Y-135796114D01*
X90012780Y-135891352D01*
X89965161Y-136034209D01*
X89869923Y-136129447D01*
X89774685Y-136177066D01*
X89584209Y-136224685D01*
X89441352Y-136224685D01*
X89250876Y-136177066D01*
X89155638Y-136129447D01*
X89060400Y-136034209D01*
X89012780Y-135891352D01*
X89012780Y-135796114D01*
X89060400Y-135653257D01*
X89108019Y-135605638D01*
X90012780Y-134653257D02*
X90012780Y-135224685D01*
X90012780Y-134938971D02*
X89012780Y-134938971D01*
X89155638Y-135034209D01*
X89250876Y-135129447D01*
X89298495Y-135224685D01*
X89012780Y-134034209D02*
X89012780Y-133938971D01*
X89060400Y-133843733D01*
X89108019Y-133796114D01*
X89203257Y-133748495D01*
X89393733Y-133700876D01*
X89631828Y-133700876D01*
X89822304Y-133748495D01*
X89917542Y-133796114D01*
X89965161Y-133843733D01*
X90012780Y-133938971D01*
X90012780Y-134034209D01*
X89965161Y-134129447D01*
X89917542Y-134177066D01*
X89822304Y-134224685D01*
X89631828Y-134272304D01*
X89393733Y-134272304D01*
X89203257Y-134224685D01*
X89108019Y-134177066D01*
X89060400Y-134129447D01*
X89012780Y-134034209D01*
X89012780Y-133081828D02*
X89012780Y-132986590D01*
X89060400Y-132891352D01*
X89108019Y-132843733D01*
X89203257Y-132796114D01*
X89393733Y-132748495D01*
X89631828Y-132748495D01*
X89822304Y-132796114D01*
X89917542Y-132843733D01*
X89965161Y-132891352D01*
X90012780Y-132986590D01*
X90012780Y-133081828D01*
X89965161Y-133177066D01*
X89917542Y-133224685D01*
X89822304Y-133272304D01*
X89631828Y-133319923D01*
X89393733Y-133319923D01*
X89203257Y-133272304D01*
X89108019Y-133224685D01*
X89060400Y-133177066D01*
X89012780Y-133081828D01*
X89108019Y-132367542D02*
X89060400Y-132319923D01*
X89012780Y-132224685D01*
X89012780Y-131986590D01*
X89060400Y-131891352D01*
X89108019Y-131843733D01*
X89203257Y-131796114D01*
X89298495Y-131796114D01*
X89441352Y-131843733D01*
X90012780Y-132415161D01*
X90012780Y-131796114D01*
%TO.C,R26*%
X91609142Y-127254780D02*
X91275809Y-126778590D01*
X91037714Y-127254780D02*
X91037714Y-126254780D01*
X91418666Y-126254780D01*
X91513904Y-126302400D01*
X91561523Y-126350019D01*
X91609142Y-126445257D01*
X91609142Y-126588114D01*
X91561523Y-126683352D01*
X91513904Y-126730971D01*
X91418666Y-126778590D01*
X91037714Y-126778590D01*
X91990095Y-126350019D02*
X92037714Y-126302400D01*
X92132952Y-126254780D01*
X92371047Y-126254780D01*
X92466285Y-126302400D01*
X92513904Y-126350019D01*
X92561523Y-126445257D01*
X92561523Y-126540495D01*
X92513904Y-126683352D01*
X91942476Y-127254780D01*
X92561523Y-127254780D01*
X93418666Y-126254780D02*
X93228190Y-126254780D01*
X93132952Y-126302400D01*
X93085333Y-126350019D01*
X92990095Y-126492876D01*
X92942476Y-126683352D01*
X92942476Y-127064304D01*
X92990095Y-127159542D01*
X93037714Y-127207161D01*
X93132952Y-127254780D01*
X93323428Y-127254780D01*
X93418666Y-127207161D01*
X93466285Y-127159542D01*
X93513904Y-127064304D01*
X93513904Y-126826209D01*
X93466285Y-126730971D01*
X93418666Y-126683352D01*
X93323428Y-126635733D01*
X93132952Y-126635733D01*
X93037714Y-126683352D01*
X92990095Y-126730971D01*
X92942476Y-126826209D01*
%TO.C,D1015*%
X73322133Y-105913180D02*
X73322133Y-104913180D01*
X73560228Y-104913180D01*
X73703085Y-104960800D01*
X73798323Y-105056038D01*
X73845942Y-105151276D01*
X73893561Y-105341752D01*
X73893561Y-105484609D01*
X73845942Y-105675085D01*
X73798323Y-105770323D01*
X73703085Y-105865561D01*
X73560228Y-105913180D01*
X73322133Y-105913180D01*
X74845942Y-105913180D02*
X74274514Y-105913180D01*
X74560228Y-105913180D02*
X74560228Y-104913180D01*
X74464990Y-105056038D01*
X74369752Y-105151276D01*
X74274514Y-105198895D01*
X75464990Y-104913180D02*
X75560228Y-104913180D01*
X75655466Y-104960800D01*
X75703085Y-105008419D01*
X75750704Y-105103657D01*
X75798323Y-105294133D01*
X75798323Y-105532228D01*
X75750704Y-105722704D01*
X75703085Y-105817942D01*
X75655466Y-105865561D01*
X75560228Y-105913180D01*
X75464990Y-105913180D01*
X75369752Y-105865561D01*
X75322133Y-105817942D01*
X75274514Y-105722704D01*
X75226895Y-105532228D01*
X75226895Y-105294133D01*
X75274514Y-105103657D01*
X75322133Y-105008419D01*
X75369752Y-104960800D01*
X75464990Y-104913180D01*
X76750704Y-105913180D02*
X76179276Y-105913180D01*
X76464990Y-105913180D02*
X76464990Y-104913180D01*
X76369752Y-105056038D01*
X76274514Y-105151276D01*
X76179276Y-105198895D01*
X77655466Y-104913180D02*
X77179276Y-104913180D01*
X77131657Y-105389371D01*
X77179276Y-105341752D01*
X77274514Y-105294133D01*
X77512609Y-105294133D01*
X77607847Y-105341752D01*
X77655466Y-105389371D01*
X77703085Y-105484609D01*
X77703085Y-105722704D01*
X77655466Y-105817942D01*
X77607847Y-105865561D01*
X77512609Y-105913180D01*
X77274514Y-105913180D01*
X77179276Y-105865561D01*
X77131657Y-105817942D01*
%TO.C,D1011*%
X122825333Y-90459380D02*
X122825333Y-89459380D01*
X123063428Y-89459380D01*
X123206285Y-89507000D01*
X123301523Y-89602238D01*
X123349142Y-89697476D01*
X123396761Y-89887952D01*
X123396761Y-90030809D01*
X123349142Y-90221285D01*
X123301523Y-90316523D01*
X123206285Y-90411761D01*
X123063428Y-90459380D01*
X122825333Y-90459380D01*
X124349142Y-90459380D02*
X123777714Y-90459380D01*
X124063428Y-90459380D02*
X124063428Y-89459380D01*
X123968190Y-89602238D01*
X123872952Y-89697476D01*
X123777714Y-89745095D01*
X124968190Y-89459380D02*
X125063428Y-89459380D01*
X125158666Y-89507000D01*
X125206285Y-89554619D01*
X125253904Y-89649857D01*
X125301523Y-89840333D01*
X125301523Y-90078428D01*
X125253904Y-90268904D01*
X125206285Y-90364142D01*
X125158666Y-90411761D01*
X125063428Y-90459380D01*
X124968190Y-90459380D01*
X124872952Y-90411761D01*
X124825333Y-90364142D01*
X124777714Y-90268904D01*
X124730095Y-90078428D01*
X124730095Y-89840333D01*
X124777714Y-89649857D01*
X124825333Y-89554619D01*
X124872952Y-89507000D01*
X124968190Y-89459380D01*
X126253904Y-90459380D02*
X125682476Y-90459380D01*
X125968190Y-90459380D02*
X125968190Y-89459380D01*
X125872952Y-89602238D01*
X125777714Y-89697476D01*
X125682476Y-89745095D01*
X127206285Y-90459380D02*
X126634857Y-90459380D01*
X126920571Y-90459380D02*
X126920571Y-89459380D01*
X126825333Y-89602238D01*
X126730095Y-89697476D01*
X126634857Y-89745095D01*
%TO.C,C2*%
X126134342Y-126222966D02*
X126181961Y-126270585D01*
X126229580Y-126413442D01*
X126229580Y-126508680D01*
X126181961Y-126651538D01*
X126086723Y-126746776D01*
X125991485Y-126794395D01*
X125801009Y-126842014D01*
X125658152Y-126842014D01*
X125467676Y-126794395D01*
X125372438Y-126746776D01*
X125277200Y-126651538D01*
X125229580Y-126508680D01*
X125229580Y-126413442D01*
X125277200Y-126270585D01*
X125324819Y-126222966D01*
X125324819Y-125842014D02*
X125277200Y-125794395D01*
X125229580Y-125699157D01*
X125229580Y-125461061D01*
X125277200Y-125365823D01*
X125324819Y-125318204D01*
X125420057Y-125270585D01*
X125515295Y-125270585D01*
X125658152Y-125318204D01*
X126229580Y-125889633D01*
X126229580Y-125270585D01*
%TO.C,R24*%
X103633542Y-111017580D02*
X103300209Y-110541390D01*
X103062114Y-111017580D02*
X103062114Y-110017580D01*
X103443066Y-110017580D01*
X103538304Y-110065200D01*
X103585923Y-110112819D01*
X103633542Y-110208057D01*
X103633542Y-110350914D01*
X103585923Y-110446152D01*
X103538304Y-110493771D01*
X103443066Y-110541390D01*
X103062114Y-110541390D01*
X104014495Y-110112819D02*
X104062114Y-110065200D01*
X104157352Y-110017580D01*
X104395447Y-110017580D01*
X104490685Y-110065200D01*
X104538304Y-110112819D01*
X104585923Y-110208057D01*
X104585923Y-110303295D01*
X104538304Y-110446152D01*
X103966876Y-111017580D01*
X104585923Y-111017580D01*
X105443066Y-110350914D02*
X105443066Y-111017580D01*
X105204971Y-109969961D02*
X104966876Y-110684247D01*
X105585923Y-110684247D01*
%TO.C,D1009*%
X88925333Y-90519380D02*
X88925333Y-89519380D01*
X89163428Y-89519380D01*
X89306285Y-89567000D01*
X89401523Y-89662238D01*
X89449142Y-89757476D01*
X89496761Y-89947952D01*
X89496761Y-90090809D01*
X89449142Y-90281285D01*
X89401523Y-90376523D01*
X89306285Y-90471761D01*
X89163428Y-90519380D01*
X88925333Y-90519380D01*
X90449142Y-90519380D02*
X89877714Y-90519380D01*
X90163428Y-90519380D02*
X90163428Y-89519380D01*
X90068190Y-89662238D01*
X89972952Y-89757476D01*
X89877714Y-89805095D01*
X91068190Y-89519380D02*
X91163428Y-89519380D01*
X91258666Y-89567000D01*
X91306285Y-89614619D01*
X91353904Y-89709857D01*
X91401523Y-89900333D01*
X91401523Y-90138428D01*
X91353904Y-90328904D01*
X91306285Y-90424142D01*
X91258666Y-90471761D01*
X91163428Y-90519380D01*
X91068190Y-90519380D01*
X90972952Y-90471761D01*
X90925333Y-90424142D01*
X90877714Y-90328904D01*
X90830095Y-90138428D01*
X90830095Y-89900333D01*
X90877714Y-89709857D01*
X90925333Y-89614619D01*
X90972952Y-89567000D01*
X91068190Y-89519380D01*
X92020571Y-89519380D02*
X92115809Y-89519380D01*
X92211047Y-89567000D01*
X92258666Y-89614619D01*
X92306285Y-89709857D01*
X92353904Y-89900333D01*
X92353904Y-90138428D01*
X92306285Y-90328904D01*
X92258666Y-90424142D01*
X92211047Y-90471761D01*
X92115809Y-90519380D01*
X92020571Y-90519380D01*
X91925333Y-90471761D01*
X91877714Y-90424142D01*
X91830095Y-90328904D01*
X91782476Y-90138428D01*
X91782476Y-89900333D01*
X91830095Y-89709857D01*
X91877714Y-89614619D01*
X91925333Y-89567000D01*
X92020571Y-89519380D01*
X92830095Y-90519380D02*
X93020571Y-90519380D01*
X93115809Y-90471761D01*
X93163428Y-90424142D01*
X93258666Y-90281285D01*
X93306285Y-90090809D01*
X93306285Y-89709857D01*
X93258666Y-89614619D01*
X93211047Y-89567000D01*
X93115809Y-89519380D01*
X92925333Y-89519380D01*
X92830095Y-89567000D01*
X92782476Y-89614619D01*
X92734857Y-89709857D01*
X92734857Y-89947952D01*
X92782476Y-90043190D01*
X92830095Y-90090809D01*
X92925333Y-90138428D01*
X93115809Y-90138428D01*
X93211047Y-90090809D01*
X93258666Y-90043190D01*
X93306285Y-89947952D01*
%TO.C,R13*%
X125915942Y-74898780D02*
X125582609Y-74422590D01*
X125344514Y-74898780D02*
X125344514Y-73898780D01*
X125725466Y-73898780D01*
X125820704Y-73946400D01*
X125868323Y-73994019D01*
X125915942Y-74089257D01*
X125915942Y-74232114D01*
X125868323Y-74327352D01*
X125820704Y-74374971D01*
X125725466Y-74422590D01*
X125344514Y-74422590D01*
X126868323Y-74898780D02*
X126296895Y-74898780D01*
X126582609Y-74898780D02*
X126582609Y-73898780D01*
X126487371Y-74041638D01*
X126392133Y-74136876D01*
X126296895Y-74184495D01*
X127201657Y-73898780D02*
X127820704Y-73898780D01*
X127487371Y-74279733D01*
X127630228Y-74279733D01*
X127725466Y-74327352D01*
X127773085Y-74374971D01*
X127820704Y-74470209D01*
X127820704Y-74708304D01*
X127773085Y-74803542D01*
X127725466Y-74851161D01*
X127630228Y-74898780D01*
X127344514Y-74898780D01*
X127249276Y-74851161D01*
X127201657Y-74803542D01*
%TO.C,SW10*%
X95374283Y-94936136D02*
X95508970Y-94868792D01*
X95677329Y-94700434D01*
X95711000Y-94599418D01*
X95711000Y-94532075D01*
X95677329Y-94431060D01*
X95609985Y-94363716D01*
X95508970Y-94330044D01*
X95441626Y-94330044D01*
X95340611Y-94363716D01*
X95172252Y-94464731D01*
X95071237Y-94498403D01*
X95003894Y-94498403D01*
X94902878Y-94464731D01*
X94835535Y-94397388D01*
X94801863Y-94296373D01*
X94801863Y-94229029D01*
X94835535Y-94128014D01*
X95003894Y-93959655D01*
X95138581Y-93892312D01*
X95340611Y-93622938D02*
X96216077Y-94161686D01*
X95845687Y-93521922D01*
X96485451Y-93892312D01*
X95946703Y-93016846D01*
X97293573Y-93084190D02*
X96889512Y-93488251D01*
X97091542Y-93286220D02*
X96384435Y-92579113D01*
X96418107Y-92747472D01*
X96418107Y-92882159D01*
X96384435Y-92983174D01*
X97024199Y-91939350D02*
X97091542Y-91872007D01*
X97192557Y-91838335D01*
X97259901Y-91838335D01*
X97360916Y-91872007D01*
X97529275Y-91973022D01*
X97697634Y-92141381D01*
X97798649Y-92309739D01*
X97832321Y-92410755D01*
X97832321Y-92478098D01*
X97798649Y-92579113D01*
X97731305Y-92646457D01*
X97630290Y-92680129D01*
X97562947Y-92680129D01*
X97461931Y-92646457D01*
X97293573Y-92545442D01*
X97125214Y-92377083D01*
X97024199Y-92208724D01*
X96990527Y-92107709D01*
X96990527Y-92040365D01*
X97024199Y-91939350D01*
%TO.C,R16*%
X157564342Y-74898780D02*
X157231009Y-74422590D01*
X156992914Y-74898780D02*
X156992914Y-73898780D01*
X157373866Y-73898780D01*
X157469104Y-73946400D01*
X157516723Y-73994019D01*
X157564342Y-74089257D01*
X157564342Y-74232114D01*
X157516723Y-74327352D01*
X157469104Y-74374971D01*
X157373866Y-74422590D01*
X156992914Y-74422590D01*
X158516723Y-74898780D02*
X157945295Y-74898780D01*
X158231009Y-74898780D02*
X158231009Y-73898780D01*
X158135771Y-74041638D01*
X158040533Y-74136876D01*
X157945295Y-74184495D01*
X159373866Y-73898780D02*
X159183390Y-73898780D01*
X159088152Y-73946400D01*
X159040533Y-73994019D01*
X158945295Y-74136876D01*
X158897676Y-74327352D01*
X158897676Y-74708304D01*
X158945295Y-74803542D01*
X158992914Y-74851161D01*
X159088152Y-74898780D01*
X159278628Y-74898780D01*
X159373866Y-74851161D01*
X159421485Y-74803542D01*
X159469104Y-74708304D01*
X159469104Y-74470209D01*
X159421485Y-74374971D01*
X159373866Y-74327352D01*
X159278628Y-74279733D01*
X159088152Y-74279733D01*
X158992914Y-74327352D01*
X158945295Y-74374971D01*
X158897676Y-74470209D01*
%TO.C,SW7*%
X176013115Y-81288733D02*
X176147802Y-81221390D01*
X176316161Y-81053031D01*
X176349833Y-80952016D01*
X176349833Y-80884672D01*
X176316161Y-80783657D01*
X176248818Y-80716314D01*
X176147802Y-80682642D01*
X176080459Y-80682642D01*
X175979444Y-80716314D01*
X175811085Y-80817329D01*
X175710070Y-80851001D01*
X175642726Y-80851001D01*
X175541711Y-80817329D01*
X175474367Y-80749985D01*
X175440696Y-80648970D01*
X175440696Y-80581627D01*
X175474367Y-80480611D01*
X175642726Y-80312253D01*
X175777413Y-80244909D01*
X175979444Y-79975535D02*
X176854909Y-80514283D01*
X176484520Y-79874520D01*
X177124283Y-80244909D01*
X176585535Y-79369444D01*
X176787566Y-79167413D02*
X177258970Y-78696009D01*
X177663031Y-79706161D01*
%TO.C,SW3*%
X98483115Y-81408733D02*
X98617802Y-81341390D01*
X98786161Y-81173031D01*
X98819833Y-81072016D01*
X98819833Y-81004672D01*
X98786161Y-80903657D01*
X98718818Y-80836314D01*
X98617802Y-80802642D01*
X98550459Y-80802642D01*
X98449444Y-80836314D01*
X98281085Y-80937329D01*
X98180070Y-80971001D01*
X98112726Y-80971001D01*
X98011711Y-80937329D01*
X97944367Y-80869985D01*
X97910696Y-80768970D01*
X97910696Y-80701627D01*
X97944367Y-80600611D01*
X98112726Y-80432253D01*
X98247413Y-80364909D01*
X98449444Y-80095535D02*
X99324909Y-80634283D01*
X98954520Y-79994520D01*
X99594283Y-80364909D01*
X99055535Y-79489444D01*
X99257566Y-79287413D02*
X99695298Y-78849680D01*
X99728970Y-79354757D01*
X99829985Y-79253741D01*
X99931001Y-79220070D01*
X99998344Y-79220070D01*
X100099359Y-79253741D01*
X100267718Y-79422100D01*
X100301390Y-79523115D01*
X100301390Y-79590459D01*
X100267718Y-79691474D01*
X100065688Y-79893505D01*
X99964672Y-79927176D01*
X99897329Y-79927176D01*
%TO.C,R5*%
X170146933Y-74898780D02*
X169813600Y-74422590D01*
X169575504Y-74898780D02*
X169575504Y-73898780D01*
X169956457Y-73898780D01*
X170051695Y-73946400D01*
X170099314Y-73994019D01*
X170146933Y-74089257D01*
X170146933Y-74232114D01*
X170099314Y-74327352D01*
X170051695Y-74374971D01*
X169956457Y-74422590D01*
X169575504Y-74422590D01*
X171051695Y-73898780D02*
X170575504Y-73898780D01*
X170527885Y-74374971D01*
X170575504Y-74327352D01*
X170670742Y-74279733D01*
X170908838Y-74279733D01*
X171004076Y-74327352D01*
X171051695Y-74374971D01*
X171099314Y-74470209D01*
X171099314Y-74708304D01*
X171051695Y-74803542D01*
X171004076Y-74851161D01*
X170908838Y-74898780D01*
X170670742Y-74898780D01*
X170575504Y-74851161D01*
X170527885Y-74803542D01*
%TO.C,D1003*%
X142355333Y-65489380D02*
X142355333Y-64489380D01*
X142593428Y-64489380D01*
X142736285Y-64537000D01*
X142831523Y-64632238D01*
X142879142Y-64727476D01*
X142926761Y-64917952D01*
X142926761Y-65060809D01*
X142879142Y-65251285D01*
X142831523Y-65346523D01*
X142736285Y-65441761D01*
X142593428Y-65489380D01*
X142355333Y-65489380D01*
X143879142Y-65489380D02*
X143307714Y-65489380D01*
X143593428Y-65489380D02*
X143593428Y-64489380D01*
X143498190Y-64632238D01*
X143402952Y-64727476D01*
X143307714Y-64775095D01*
X144498190Y-64489380D02*
X144593428Y-64489380D01*
X144688666Y-64537000D01*
X144736285Y-64584619D01*
X144783904Y-64679857D01*
X144831523Y-64870333D01*
X144831523Y-65108428D01*
X144783904Y-65298904D01*
X144736285Y-65394142D01*
X144688666Y-65441761D01*
X144593428Y-65489380D01*
X144498190Y-65489380D01*
X144402952Y-65441761D01*
X144355333Y-65394142D01*
X144307714Y-65298904D01*
X144260095Y-65108428D01*
X144260095Y-64870333D01*
X144307714Y-64679857D01*
X144355333Y-64584619D01*
X144402952Y-64537000D01*
X144498190Y-64489380D01*
X145450571Y-64489380D02*
X145545809Y-64489380D01*
X145641047Y-64537000D01*
X145688666Y-64584619D01*
X145736285Y-64679857D01*
X145783904Y-64870333D01*
X145783904Y-65108428D01*
X145736285Y-65298904D01*
X145688666Y-65394142D01*
X145641047Y-65441761D01*
X145545809Y-65489380D01*
X145450571Y-65489380D01*
X145355333Y-65441761D01*
X145307714Y-65394142D01*
X145260095Y-65298904D01*
X145212476Y-65108428D01*
X145212476Y-64870333D01*
X145260095Y-64679857D01*
X145307714Y-64584619D01*
X145355333Y-64537000D01*
X145450571Y-64489380D01*
X146117238Y-64489380D02*
X146736285Y-64489380D01*
X146402952Y-64870333D01*
X146545809Y-64870333D01*
X146641047Y-64917952D01*
X146688666Y-64965571D01*
X146736285Y-65060809D01*
X146736285Y-65298904D01*
X146688666Y-65394142D01*
X146641047Y-65441761D01*
X146545809Y-65489380D01*
X146260095Y-65489380D01*
X146164857Y-65441761D01*
X146117238Y-65394142D01*
%TO.C,SW4*%
X117773115Y-81408733D02*
X117907802Y-81341390D01*
X118076161Y-81173031D01*
X118109833Y-81072016D01*
X118109833Y-81004672D01*
X118076161Y-80903657D01*
X118008818Y-80836314D01*
X117907802Y-80802642D01*
X117840459Y-80802642D01*
X117739444Y-80836314D01*
X117571085Y-80937329D01*
X117470070Y-80971001D01*
X117402726Y-80971001D01*
X117301711Y-80937329D01*
X117234367Y-80869985D01*
X117200696Y-80768970D01*
X117200696Y-80701627D01*
X117234367Y-80600611D01*
X117402726Y-80432253D01*
X117537413Y-80364909D01*
X117739444Y-80095535D02*
X118614909Y-80634283D01*
X118244520Y-79994520D01*
X118884283Y-80364909D01*
X118345535Y-79489444D01*
X119153657Y-79152726D02*
X119625062Y-79624131D01*
X118715924Y-79051711D02*
X119052642Y-79725146D01*
X119490375Y-79287413D01*
D11*
%TO.C,R21*%
X83961464Y-114882600D02*
X83507336Y-114882600D01*
X83961464Y-113412600D02*
X83507336Y-113412600D01*
%TO.C,R15*%
X150458664Y-73531400D02*
X150004536Y-73531400D01*
X150458664Y-72061400D02*
X150004536Y-72061400D01*
D12*
%TO.C,U3*%
X132748800Y-127783200D02*
X142698800Y-127783200D01*
X132748800Y-124103200D02*
X132748800Y-124533200D01*
X142698800Y-127783200D02*
X142698800Y-124103200D01*
X142698800Y-124103200D02*
X132748800Y-124103200D01*
X132748800Y-124533200D02*
X132748800Y-127783200D01*
D13*
X132408773Y-128212950D02*
G75*
G03*
X132418800Y-128213200I24J-200250D01*
G01*
D12*
%TO.C,U5*%
X101241200Y-127185600D02*
X101351200Y-127185600D01*
X96351200Y-127185600D02*
X96471200Y-127185600D01*
X101351200Y-131685600D02*
X101241200Y-131685600D01*
X101371200Y-131035600D02*
X101371200Y-131685600D01*
X101371200Y-127835600D02*
X101371200Y-128755600D01*
X96471200Y-131685600D02*
X96351200Y-131685600D01*
X96351200Y-131685600D02*
X96351200Y-127185600D01*
X101371200Y-130125600D02*
X101371200Y-131035600D01*
X101371200Y-127835600D02*
X101371200Y-127185600D01*
X101371200Y-128755600D02*
G75*
G03*
X101366688Y-130115054I80000J-680000D01*
G01*
D13*
X101801200Y-126435600D02*
G75*
G03*
X101801200Y-126435600I-200000J0D01*
G01*
D11*
%TO.C,R6*%
X104517000Y-126379464D02*
X104517000Y-125925336D01*
X105987000Y-126379464D02*
X105987000Y-125925336D01*
D12*
%TO.C,D1013*%
X162852000Y-92747000D02*
X162852000Y-93067000D01*
X162832000Y-94717000D02*
X162832000Y-95017000D01*
X162846724Y-92746529D02*
G75*
G03*
X158962000Y-93257000I-1824724J-1150471D01*
G01*
X158984567Y-94520930D02*
G75*
G03*
X162832000Y-95017000I2037433J633930D01*
G01*
X162228975Y-92988885D02*
G75*
G03*
X159872000Y-92917000I-1206975J-898114D01*
G01*
X159845138Y-94824228D02*
G75*
G03*
X162172000Y-94857000I1176862J937228D01*
G01*
%TO.C,D1016*%
X96352000Y-109607000D02*
X96352000Y-109907000D01*
X96372000Y-107637000D02*
X96372000Y-107957000D01*
X95748975Y-107878885D02*
G75*
G03*
X93392000Y-107807000I-1206975J-898114D01*
G01*
X96366724Y-107636529D02*
G75*
G03*
X92482000Y-108147000I-1824724J-1150471D01*
G01*
X92504567Y-109410930D02*
G75*
G03*
X96352000Y-109907000I2037433J633930D01*
G01*
X93365138Y-109714228D02*
G75*
G03*
X95692000Y-109747000I1176862J937228D01*
G01*
%TO.C,U2*%
X177300400Y-67230800D02*
X177300400Y-70480800D01*
X187250400Y-70480800D02*
X187250400Y-66800800D01*
X187250400Y-66800800D02*
X177300400Y-66800800D01*
X177300400Y-66800800D02*
X177300400Y-67230800D01*
X177300400Y-70480800D02*
X187250400Y-70480800D01*
D13*
X176960373Y-70910550D02*
G75*
G03*
X176970400Y-70910800I24J-200250D01*
G01*
D11*
%TO.C,R8*%
X111479064Y-126417400D02*
X111024936Y-126417400D01*
X111479064Y-127887400D02*
X111024936Y-127887400D01*
%TO.C,G\u002A\u002A\u002A*%
G36*
X199681111Y-87758222D02*
G01*
X199455333Y-87758222D01*
X199455333Y-86572889D01*
X198241778Y-86572889D01*
X198241778Y-86347111D01*
X199681111Y-86347111D01*
X199681111Y-87758222D01*
G37*
D14*
X199681111Y-87758222D02*
X199455333Y-87758222D01*
X199455333Y-86572889D01*
X198241778Y-86572889D01*
X198241778Y-86347111D01*
X199681111Y-86347111D01*
X199681111Y-87758222D01*
G36*
X195701778Y-86572889D02*
G01*
X194488222Y-86572889D01*
X194488222Y-87758222D01*
X194262444Y-87758222D01*
X194262444Y-86347111D01*
X195701778Y-86347111D01*
X195701778Y-86572889D01*
G37*
X195701778Y-86572889D02*
X194488222Y-86572889D01*
X194488222Y-87758222D01*
X194262444Y-87758222D01*
X194262444Y-86347111D01*
X195701778Y-86347111D01*
X195701778Y-86572889D01*
G36*
X199681111Y-91765778D02*
G01*
X198241778Y-91765778D01*
X198241778Y-91540000D01*
X199455333Y-91540000D01*
X199455333Y-90326444D01*
X199681111Y-90326444D01*
X199681111Y-91765778D01*
G37*
X199681111Y-91765778D02*
X198241778Y-91765778D01*
X198241778Y-91540000D01*
X199455333Y-91540000D01*
X199455333Y-90326444D01*
X199681111Y-90326444D01*
X199681111Y-91765778D01*
G36*
X198016026Y-87151470D02*
G01*
X198102215Y-87234044D01*
X197544317Y-87792467D01*
X197399079Y-87937337D01*
X197266888Y-88068231D01*
X197152946Y-88180073D01*
X197062460Y-88267786D01*
X197000633Y-88326294D01*
X196972671Y-88350521D01*
X196971771Y-88350889D01*
X196948788Y-88331717D01*
X196891281Y-88277612D01*
X196804498Y-88193692D01*
X196693689Y-88085075D01*
X196564102Y-87956878D01*
X196420987Y-87814219D01*
X196408101Y-87801324D01*
X195859078Y-87251759D01*
X195941650Y-87165572D01*
X196024223Y-87079385D01*
X196498000Y-87552548D01*
X196971778Y-88025711D01*
X197450807Y-87547303D01*
X197929837Y-87068895D01*
X198016026Y-87151470D01*
G37*
X198016026Y-87151470D02*
X198102215Y-87234044D01*
X197544317Y-87792467D01*
X197399079Y-87937337D01*
X197266888Y-88068231D01*
X197152946Y-88180073D01*
X197062460Y-88267786D01*
X197000633Y-88326294D01*
X196972671Y-88350521D01*
X196971771Y-88350889D01*
X196948788Y-88331717D01*
X196891281Y-88277612D01*
X196804498Y-88193692D01*
X196693689Y-88085075D01*
X196564102Y-87956878D01*
X196420987Y-87814219D01*
X196408101Y-87801324D01*
X195859078Y-87251759D01*
X195941650Y-87165572D01*
X196024223Y-87079385D01*
X196498000Y-87552548D01*
X196971778Y-88025711D01*
X197450807Y-87547303D01*
X197929837Y-87068895D01*
X198016026Y-87151470D01*
G36*
X197536086Y-90283975D02*
G01*
X198100388Y-90847748D01*
X198015745Y-90932392D01*
X197931102Y-91017035D01*
X197451440Y-90537995D01*
X196971778Y-90058956D01*
X196498753Y-90531367D01*
X196365205Y-90664097D01*
X196244925Y-90782414D01*
X196143623Y-90880800D01*
X196067009Y-90953738D01*
X196020792Y-90995712D01*
X196009783Y-91003778D01*
X195981372Y-90985328D01*
X195934595Y-90940705D01*
X195932475Y-90938459D01*
X195889487Y-90885016D01*
X195871120Y-90846934D01*
X195871111Y-90846465D01*
X195890329Y-90820289D01*
X195944562Y-90759813D01*
X196028678Y-90670415D01*
X196137542Y-90557471D01*
X196266024Y-90426357D01*
X196408989Y-90282450D01*
X196421448Y-90269997D01*
X196971784Y-89720203D01*
X197536086Y-90283975D01*
G37*
X197536086Y-90283975D02*
X198100388Y-90847748D01*
X198015745Y-90932392D01*
X197931102Y-91017035D01*
X197451440Y-90537995D01*
X196971778Y-90058956D01*
X196498753Y-90531367D01*
X196365205Y-90664097D01*
X196244925Y-90782414D01*
X196143623Y-90880800D01*
X196067009Y-90953738D01*
X196020792Y-90995712D01*
X196009783Y-91003778D01*
X195981372Y-90985328D01*
X195934595Y-90940705D01*
X195932475Y-90938459D01*
X195889487Y-90885016D01*
X195871120Y-90846934D01*
X195871111Y-90846465D01*
X195890329Y-90820289D01*
X195944562Y-90759813D01*
X196028678Y-90670415D01*
X196137542Y-90557471D01*
X196266024Y-90426357D01*
X196408989Y-90282450D01*
X196421448Y-90269997D01*
X196971784Y-89720203D01*
X197536086Y-90283975D01*
G36*
X194488222Y-91511778D02*
G01*
X195701778Y-91511778D01*
X195701778Y-91765778D01*
X194262444Y-91765778D01*
X194262444Y-90326444D01*
X194488222Y-90326444D01*
X194488222Y-91511778D01*
G37*
X194488222Y-91511778D02*
X195701778Y-91511778D01*
X195701778Y-91765778D01*
X194262444Y-91765778D01*
X194262444Y-90326444D01*
X194488222Y-90326444D01*
X194488222Y-91511778D01*
G36*
X198804233Y-87974700D02*
G01*
X198857436Y-88020895D01*
X198863551Y-88027275D01*
X198930719Y-88098772D01*
X197974289Y-89056444D01*
X198452504Y-89535281D01*
X198930719Y-90014117D01*
X198863551Y-90085614D01*
X198810044Y-90133941D01*
X198768753Y-90156827D01*
X198765753Y-90157111D01*
X198738524Y-90137878D01*
X198677072Y-90083604D01*
X198586817Y-89999428D01*
X198473178Y-89890489D01*
X198341575Y-89761926D01*
X198197429Y-89618878D01*
X198185333Y-89606778D01*
X197635543Y-89056444D01*
X198185333Y-88506111D01*
X198330261Y-88362112D01*
X198463085Y-88232181D01*
X198578385Y-88121456D01*
X198670742Y-88035076D01*
X198734737Y-87978181D01*
X198764948Y-87955910D01*
X198765753Y-87955778D01*
X198804233Y-87974700D01*
G37*
X198804233Y-87974700D02*
X198857436Y-88020895D01*
X198863551Y-88027275D01*
X198930719Y-88098772D01*
X197974289Y-89056444D01*
X198452504Y-89535281D01*
X198930719Y-90014117D01*
X198863551Y-90085614D01*
X198810044Y-90133941D01*
X198768753Y-90156827D01*
X198765753Y-90157111D01*
X198738524Y-90137878D01*
X198677072Y-90083604D01*
X198586817Y-89999428D01*
X198473178Y-89890489D01*
X198341575Y-89761926D01*
X198197429Y-89618878D01*
X198185333Y-89606778D01*
X197635543Y-89056444D01*
X198185333Y-88506111D01*
X198330261Y-88362112D01*
X198463085Y-88232181D01*
X198578385Y-88121456D01*
X198670742Y-88035076D01*
X198734737Y-87978181D01*
X198764948Y-87955910D01*
X198765753Y-87955778D01*
X198804233Y-87974700D01*
G36*
X195205031Y-87975011D02*
G01*
X195266483Y-88029285D01*
X195356738Y-88113461D01*
X195470377Y-88222400D01*
X195601980Y-88350963D01*
X195746126Y-88494011D01*
X195758222Y-88506111D01*
X196308012Y-89056444D01*
X195758222Y-89606778D01*
X195613294Y-89750777D01*
X195480470Y-89880708D01*
X195365170Y-89991433D01*
X195272813Y-90077812D01*
X195208818Y-90134707D01*
X195178607Y-90156979D01*
X195177802Y-90157111D01*
X195139322Y-90138189D01*
X195086119Y-90091993D01*
X195080004Y-90085614D01*
X195012836Y-90014117D01*
X195491051Y-89535281D01*
X195969266Y-89056444D01*
X195012836Y-88098772D01*
X195080004Y-88027275D01*
X195133511Y-87978948D01*
X195174802Y-87956062D01*
X195177802Y-87955778D01*
X195205031Y-87975011D01*
G37*
X195205031Y-87975011D02*
X195266483Y-88029285D01*
X195356738Y-88113461D01*
X195470377Y-88222400D01*
X195601980Y-88350963D01*
X195746126Y-88494011D01*
X195758222Y-88506111D01*
X196308012Y-89056444D01*
X195758222Y-89606778D01*
X195613294Y-89750777D01*
X195480470Y-89880708D01*
X195365170Y-89991433D01*
X195272813Y-90077812D01*
X195208818Y-90134707D01*
X195178607Y-90156979D01*
X195177802Y-90157111D01*
X195139322Y-90138189D01*
X195086119Y-90091993D01*
X195080004Y-90085614D01*
X195012836Y-90014117D01*
X195491051Y-89535281D01*
X195969266Y-89056444D01*
X195012836Y-88098772D01*
X195080004Y-88027275D01*
X195133511Y-87978948D01*
X195174802Y-87956062D01*
X195177802Y-87955778D01*
X195205031Y-87975011D01*
D11*
%TO.C,R3*%
X174791800Y-73023464D02*
X174791800Y-72569336D01*
X173321800Y-73023464D02*
X173321800Y-72569336D01*
D12*
%TO.C,SW12*%
X132997000Y-101229641D02*
X128754359Y-96987000D01*
X137239641Y-96987000D02*
X132997000Y-101229641D01*
X128754359Y-96987000D02*
X132997000Y-92744359D01*
X132997000Y-92744359D02*
X137239641Y-96987000D01*
X133377001Y-93932299D02*
G75*
G03*
X133377001Y-93932299I-380001J0D01*
G01*
X134777000Y-96987000D02*
G75*
G03*
X134777000Y-96987000I-1780000J0D01*
G01*
X136247854Y-96987000D02*
G75*
G03*
X136247854Y-96987000I-380000J0D01*
G01*
X133377001Y-99857854D02*
G75*
G03*
X133377001Y-99857854I-380001J0D01*
G01*
X134267001Y-96987000D02*
G75*
G03*
X134267001Y-96987000I-1270001J0D01*
G01*
X130322299Y-96987000D02*
G75*
G03*
X130322299Y-96987000I-380000J0D01*
G01*
D11*
%TO.C,R14*%
X131179336Y-72061400D02*
X131633464Y-72061400D01*
X131179336Y-73531400D02*
X131633464Y-73531400D01*
%TO.C,R17*%
X146023000Y-125671336D02*
X146023000Y-126125464D01*
X144553000Y-125671336D02*
X144553000Y-126125464D01*
%TO.C,R4*%
X143227064Y-113735000D02*
X142772936Y-113735000D01*
X143227064Y-112265000D02*
X142772936Y-112265000D01*
%TO.C,C3*%
X174826600Y-68638052D02*
X174826600Y-68115548D01*
X173356600Y-68638052D02*
X173356600Y-68115548D01*
D12*
%TO.C,SW5*%
X142337000Y-88629641D02*
X138094359Y-84387000D01*
X146579641Y-84387000D02*
X142337000Y-88629641D01*
X142337000Y-80144359D02*
X146579641Y-84387000D01*
X138094359Y-84387000D02*
X142337000Y-80144359D01*
X139662299Y-84387000D02*
G75*
G03*
X139662299Y-84387000I-380000J0D01*
G01*
X142717001Y-81332299D02*
G75*
G03*
X142717001Y-81332299I-380001J0D01*
G01*
X144117000Y-84387000D02*
G75*
G03*
X144117000Y-84387000I-1780000J0D01*
G01*
X145587854Y-84387000D02*
G75*
G03*
X145587854Y-84387000I-380000J0D01*
G01*
X142717001Y-87257854D02*
G75*
G03*
X142717001Y-87257854I-380001J0D01*
G01*
X143607001Y-84387000D02*
G75*
G03*
X143607001Y-84387000I-1270001J0D01*
G01*
%TO.C,D1005*%
X115952000Y-80437000D02*
X115952000Y-80757000D01*
X115932000Y-82407000D02*
X115932000Y-82707000D01*
X115328975Y-80678885D02*
G75*
G03*
X112972000Y-80607000I-1206975J-898114D01*
G01*
X115946724Y-80436529D02*
G75*
G03*
X112062000Y-80947000I-1824724J-1150471D01*
G01*
X112945138Y-82514228D02*
G75*
G03*
X115272000Y-82547000I1176862J937228D01*
G01*
X112084567Y-82210930D02*
G75*
G03*
X115932000Y-82707000I2037433J633930D01*
G01*
D11*
%TO.C,R10*%
X154827464Y-108129400D02*
X154373336Y-108129400D01*
X154827464Y-109599400D02*
X154373336Y-109599400D01*
%TO.C,R25*%
X120337336Y-109396200D02*
X120791464Y-109396200D01*
X120337336Y-107926200D02*
X120791464Y-107926200D01*
%TO.C,R23*%
X83996264Y-109599400D02*
X83542136Y-109599400D01*
X83996264Y-108129400D02*
X83542136Y-108129400D01*
%TO.C,R30*%
X142619400Y-119387864D02*
X142619400Y-118933736D01*
X141149400Y-119387864D02*
X141149400Y-118933736D01*
D12*
%TO.C,D1012*%
X145822000Y-94837000D02*
X145822000Y-95137000D01*
X145842000Y-92867000D02*
X145842000Y-93187000D01*
X145836724Y-92866529D02*
G75*
G03*
X141952000Y-93377000I-1824724J-1150471D01*
G01*
X141974567Y-94640930D02*
G75*
G03*
X145822000Y-95137000I2037433J633930D01*
G01*
X145218975Y-93108885D02*
G75*
G03*
X142862000Y-93037000I-1206975J-898114D01*
G01*
X142835138Y-94944228D02*
G75*
G03*
X145162000Y-94977000I1176862J937228D01*
G01*
D11*
%TO.C,Q1*%
X138516800Y-112928400D02*
X138516800Y-113578400D01*
X135396800Y-112928400D02*
X135396800Y-113578400D01*
X138516800Y-112928400D02*
X138516800Y-111253400D01*
X135396800Y-112928400D02*
X135396800Y-112278400D01*
%TO.C,C1001*%
X70990748Y-135417400D02*
X71513252Y-135417400D01*
X70990748Y-136887400D02*
X71513252Y-136887400D01*
D12*
%TO.C,D1002*%
X123732000Y-67897000D02*
X123732000Y-68217000D01*
X123712000Y-69867000D02*
X123712000Y-70167000D01*
X120725138Y-69974228D02*
G75*
G03*
X123052000Y-70007000I1176862J937228D01*
G01*
X119864567Y-69670930D02*
G75*
G03*
X123712000Y-70167000I2037433J633930D01*
G01*
X123108975Y-68138885D02*
G75*
G03*
X120752000Y-68067000I-1206975J-898114D01*
G01*
X123726724Y-67896529D02*
G75*
G03*
X119842000Y-68407000I-1824724J-1150471D01*
G01*
%TO.C,D1006*%
X136142000Y-82357000D02*
X136142000Y-82657000D01*
X136162000Y-80387000D02*
X136162000Y-80707000D01*
X132294567Y-82160930D02*
G75*
G03*
X136142000Y-82657000I2037433J633930D01*
G01*
X136156724Y-80386529D02*
G75*
G03*
X132272000Y-80897000I-1824724J-1150471D01*
G01*
X133155138Y-82464228D02*
G75*
G03*
X135482000Y-82497000I1176862J937228D01*
G01*
X135538975Y-80628885D02*
G75*
G03*
X133182000Y-80557000I-1206975J-898114D01*
G01*
%TO.C,SW8*%
X184127000Y-92514359D02*
X188369641Y-96757000D01*
X184127000Y-100999641D02*
X179884359Y-96757000D01*
X179884359Y-96757000D02*
X184127000Y-92514359D01*
X188369641Y-96757000D02*
X184127000Y-100999641D01*
X184507001Y-93702299D02*
G75*
G03*
X184507001Y-93702299I-380001J0D01*
G01*
X184507001Y-99627854D02*
G75*
G03*
X184507001Y-99627854I-380001J0D01*
G01*
X185907000Y-96757000D02*
G75*
G03*
X185907000Y-96757000I-1780000J0D01*
G01*
X181452299Y-96757000D02*
G75*
G03*
X181452299Y-96757000I-380000J0D01*
G01*
X185397001Y-96757000D02*
G75*
G03*
X185397001Y-96757000I-1270001J0D01*
G01*
X187377854Y-96757000D02*
G75*
G03*
X187377854Y-96757000I-380000J0D01*
G01*
D11*
%TO.C,R2*%
X137133064Y-118540200D02*
X136678936Y-118540200D01*
X137133064Y-117070200D02*
X136678936Y-117070200D01*
%TO.C,R22*%
X68607000Y-86875864D02*
X68607000Y-86421736D01*
X70077000Y-86875864D02*
X70077000Y-86421736D01*
D12*
%TO.C,SW2*%
X79804359Y-84387000D02*
X84047000Y-80144359D01*
X84047000Y-88629641D02*
X79804359Y-84387000D01*
X84047000Y-80144359D02*
X88289641Y-84387000D01*
X88289641Y-84387000D02*
X84047000Y-88629641D01*
X84427001Y-81332299D02*
G75*
G03*
X84427001Y-81332299I-380001J0D01*
G01*
X81372299Y-84387000D02*
G75*
G03*
X81372299Y-84387000I-380000J0D01*
G01*
X85827000Y-84387000D02*
G75*
G03*
X85827000Y-84387000I-1780000J0D01*
G01*
X85317001Y-84387000D02*
G75*
G03*
X85317001Y-84387000I-1270001J0D01*
G01*
X87297854Y-84387000D02*
G75*
G03*
X87297854Y-84387000I-380000J0D01*
G01*
X84427001Y-87257854D02*
G75*
G03*
X84427001Y-87257854I-380001J0D01*
G01*
%TO.C,SW9*%
X85449641Y-97217000D02*
X81207000Y-101459641D01*
X81207000Y-92974359D02*
X85449641Y-97217000D01*
X76964359Y-97217000D02*
X81207000Y-92974359D01*
X81207000Y-101459641D02*
X76964359Y-97217000D01*
X82987000Y-97217000D02*
G75*
G03*
X82987000Y-97217000I-1780000J0D01*
G01*
X78532299Y-97217000D02*
G75*
G03*
X78532299Y-97217000I-380000J0D01*
G01*
X81587001Y-100087854D02*
G75*
G03*
X81587001Y-100087854I-380001J0D01*
G01*
X84457854Y-97217000D02*
G75*
G03*
X84457854Y-97217000I-380000J0D01*
G01*
X81587001Y-94162299D02*
G75*
G03*
X81587001Y-94162299I-380001J0D01*
G01*
X82477001Y-97217000D02*
G75*
G03*
X82477001Y-97217000I-1270001J0D01*
G01*
%TO.C,U4*%
X132945200Y-138124000D02*
X122995200Y-138124000D01*
X122995200Y-138124000D02*
X122995200Y-138554000D01*
X132945200Y-141804000D02*
X132945200Y-138124000D01*
X122995200Y-141804000D02*
X132945200Y-141804000D01*
X122995200Y-138554000D02*
X122995200Y-141804000D01*
D13*
X122655173Y-142233750D02*
G75*
G03*
X122665200Y-142234000I24J-200250D01*
G01*
D12*
%TO.C,SW1*%
X84857000Y-66744359D02*
X89099641Y-70987000D01*
X89099641Y-70987000D02*
X84857000Y-75229641D01*
X80614359Y-70987000D02*
X84857000Y-66744359D01*
X84857000Y-75229641D02*
X80614359Y-70987000D01*
X86127001Y-70987000D02*
G75*
G03*
X86127001Y-70987000I-1270001J0D01*
G01*
X88107854Y-70987000D02*
G75*
G03*
X88107854Y-70987000I-380000J0D01*
G01*
X82182299Y-70987000D02*
G75*
G03*
X82182299Y-70987000I-380000J0D01*
G01*
X86637000Y-70987000D02*
G75*
G03*
X86637000Y-70987000I-1780000J0D01*
G01*
X85237001Y-67932299D02*
G75*
G03*
X85237001Y-67932299I-380001J0D01*
G01*
X85237001Y-73857854D02*
G75*
G03*
X85237001Y-73857854I-380001J0D01*
G01*
D11*
%TO.C,R29*%
X106241000Y-133691864D02*
X106241000Y-133237736D01*
X104771000Y-133691864D02*
X104771000Y-133237736D01*
%TO.C,R20*%
X88977800Y-108637336D02*
X88977800Y-109091464D01*
X90447800Y-108637336D02*
X90447800Y-109091464D01*
D12*
%TO.C,SW13*%
X150057000Y-101279641D02*
X145814359Y-97037000D01*
X154299641Y-97037000D02*
X150057000Y-101279641D01*
X150057000Y-92794359D02*
X154299641Y-97037000D01*
X145814359Y-97037000D02*
X150057000Y-92794359D01*
X153307854Y-97037000D02*
G75*
G03*
X153307854Y-97037000I-380000J0D01*
G01*
X151837000Y-97037000D02*
G75*
G03*
X151837000Y-97037000I-1780000J0D01*
G01*
X150437001Y-99907854D02*
G75*
G03*
X150437001Y-99907854I-380001J0D01*
G01*
X151327001Y-97037000D02*
G75*
G03*
X151327001Y-97037000I-1270001J0D01*
G01*
X147382299Y-97037000D02*
G75*
G03*
X147382299Y-97037000I-380000J0D01*
G01*
X150437001Y-93982299D02*
G75*
G03*
X150437001Y-93982299I-380001J0D01*
G01*
D11*
%TO.C,C1*%
X119508600Y-140244552D02*
X119508600Y-139722048D01*
X120978600Y-140244552D02*
X120978600Y-139722048D01*
%TO.C,R11*%
X160161464Y-109599400D02*
X159707336Y-109599400D01*
X160161464Y-108129400D02*
X159707336Y-108129400D01*
D12*
%TO.C,D1007*%
X156662000Y-80267000D02*
X156662000Y-80587000D01*
X156642000Y-82237000D02*
X156642000Y-82537000D01*
X156038975Y-80508885D02*
G75*
G03*
X153682000Y-80437000I-1206975J-898114D01*
G01*
X153655138Y-82344228D02*
G75*
G03*
X155982000Y-82377000I1176862J937228D01*
G01*
X156656724Y-80266529D02*
G75*
G03*
X152772000Y-80777000I-1824724J-1150471D01*
G01*
X152794567Y-82040930D02*
G75*
G03*
X156642000Y-82537000I2037433J633930D01*
G01*
D11*
%TO.C,R27*%
X105671400Y-73023464D02*
X105671400Y-72569336D01*
X107141400Y-73023464D02*
X107141400Y-72569336D01*
D12*
%TO.C,D1017*%
X115492000Y-107357000D02*
X115492000Y-107677000D01*
X115472000Y-109327000D02*
X115472000Y-109627000D01*
X111624567Y-109130930D02*
G75*
G03*
X115472000Y-109627000I2037433J633930D01*
G01*
X114868975Y-107598885D02*
G75*
G03*
X112512000Y-107527000I-1206975J-898114D01*
G01*
X112485138Y-109434228D02*
G75*
G03*
X114812000Y-109467000I1176862J937228D01*
G01*
X115486724Y-107356529D02*
G75*
G03*
X111602000Y-107867000I-1824724J-1150471D01*
G01*
%TO.C,D1014*%
X180142000Y-92807000D02*
X180142000Y-93127000D01*
X180122000Y-94777000D02*
X180122000Y-95077000D01*
X180136724Y-92806529D02*
G75*
G03*
X176252000Y-93317000I-1824724J-1150471D01*
G01*
X179518975Y-93048885D02*
G75*
G03*
X177162000Y-92977000I-1206975J-898114D01*
G01*
X176274567Y-94580930D02*
G75*
G03*
X180122000Y-95077000I2037433J633930D01*
G01*
X177135138Y-94884228D02*
G75*
G03*
X179462000Y-94917000I1176862J937228D01*
G01*
%TO.C,D1010*%
X109972000Y-94777000D02*
X109972000Y-95077000D01*
X109992000Y-92807000D02*
X109992000Y-93127000D01*
X106124567Y-94580930D02*
G75*
G03*
X109972000Y-95077000I2037433J633930D01*
G01*
X106985138Y-94884228D02*
G75*
G03*
X109312000Y-94917000I1176862J937228D01*
G01*
X109986724Y-92806529D02*
G75*
G03*
X106102000Y-93317000I-1824724J-1150471D01*
G01*
X109368975Y-93048885D02*
G75*
G03*
X107012000Y-92977000I-1206975J-898114D01*
G01*
D11*
%TO.C,R1*%
X116479064Y-124417400D02*
X116024936Y-124417400D01*
X116479064Y-125887400D02*
X116024936Y-125887400D01*
D12*
%TO.C,SW14*%
X167067000Y-101169641D02*
X162824359Y-96927000D01*
X171309641Y-96927000D02*
X167067000Y-101169641D01*
X162824359Y-96927000D02*
X167067000Y-92684359D01*
X167067000Y-92684359D02*
X171309641Y-96927000D01*
X168847000Y-96927000D02*
G75*
G03*
X168847000Y-96927000I-1780000J0D01*
G01*
X164392299Y-96927000D02*
G75*
G03*
X164392299Y-96927000I-380000J0D01*
G01*
X170317854Y-96927000D02*
G75*
G03*
X170317854Y-96927000I-380000J0D01*
G01*
X167447001Y-99797854D02*
G75*
G03*
X167447001Y-99797854I-380001J0D01*
G01*
X168337001Y-96927000D02*
G75*
G03*
X168337001Y-96927000I-1270001J0D01*
G01*
X167447001Y-93872299D02*
G75*
G03*
X167447001Y-93872299I-380001J0D01*
G01*
D11*
%TO.C,R7*%
X131443400Y-115863864D02*
X131443400Y-115409736D01*
X129973400Y-115863864D02*
X129973400Y-115409736D01*
D12*
%TO.C,D1018*%
X134942000Y-109147000D02*
X134942000Y-109447000D01*
X134962000Y-107177000D02*
X134962000Y-107497000D01*
X134956724Y-107176529D02*
G75*
G03*
X131072000Y-107687000I-1824724J-1150471D01*
G01*
X134338975Y-107418885D02*
G75*
G03*
X131982000Y-107347000I-1206975J-898114D01*
G01*
X131094567Y-108950930D02*
G75*
G03*
X134942000Y-109447000I2037433J633930D01*
G01*
X131955138Y-109254228D02*
G75*
G03*
X134282000Y-109287000I1176862J937228D01*
G01*
%TO.C,SW6*%
X165709641Y-84497000D02*
X161467000Y-88739641D01*
X161467000Y-88739641D02*
X157224359Y-84497000D01*
X161467000Y-80254359D02*
X165709641Y-84497000D01*
X157224359Y-84497000D02*
X161467000Y-80254359D01*
X161847001Y-87367854D02*
G75*
G03*
X161847001Y-87367854I-380001J0D01*
G01*
X164717854Y-84497000D02*
G75*
G03*
X164717854Y-84497000I-380000J0D01*
G01*
X161847001Y-81442299D02*
G75*
G03*
X161847001Y-81442299I-380001J0D01*
G01*
X162737001Y-84497000D02*
G75*
G03*
X162737001Y-84497000I-1270001J0D01*
G01*
X163247000Y-84497000D02*
G75*
G03*
X163247000Y-84497000I-1780000J0D01*
G01*
X158792299Y-84497000D02*
G75*
G03*
X158792299Y-84497000I-380000J0D01*
G01*
D11*
%TO.C,R28*%
X112633464Y-73531400D02*
X112179336Y-73531400D01*
X112633464Y-72061400D02*
X112179336Y-72061400D01*
D12*
%TO.C,D1001*%
X101572000Y-67897000D02*
X101572000Y-68217000D01*
X101552000Y-69867000D02*
X101552000Y-70167000D01*
X101566724Y-67896529D02*
G75*
G03*
X97682000Y-68407000I-1824724J-1150471D01*
G01*
X100948975Y-68138885D02*
G75*
G03*
X98592000Y-68067000I-1206975J-898114D01*
G01*
X97704567Y-69670930D02*
G75*
G03*
X101552000Y-70167000I2037433J633930D01*
G01*
X98565138Y-69974228D02*
G75*
G03*
X100892000Y-70007000I1176862J937228D01*
G01*
%TO.C,D1004*%
X169412000Y-69587000D02*
X169412000Y-69887000D01*
X169432000Y-67617000D02*
X169432000Y-67937000D01*
X165564567Y-69390930D02*
G75*
G03*
X169412000Y-69887000I2037433J633930D01*
G01*
X166425138Y-69694228D02*
G75*
G03*
X168752000Y-69727000I1176862J937228D01*
G01*
X169426724Y-67616529D02*
G75*
G03*
X165542000Y-68127000I-1824724J-1150471D01*
G01*
X168808975Y-67858885D02*
G75*
G03*
X166452000Y-67787000I-1206975J-898114D01*
G01*
%TO.C,D1008*%
X76887000Y-92807000D02*
X76887000Y-93127000D01*
X76867000Y-94777000D02*
X76867000Y-95077000D01*
X73880138Y-94884228D02*
G75*
G03*
X76207000Y-94917000I1176862J937228D01*
G01*
X73019567Y-94580930D02*
G75*
G03*
X76867000Y-95077000I2037433J633930D01*
G01*
X76881724Y-92806529D02*
G75*
G03*
X72997000Y-93317000I-1824724J-1150471D01*
G01*
X76263975Y-93048885D02*
G75*
G03*
X73907000Y-92977000I-1206975J-898114D01*
G01*
D11*
%TO.C,R18*%
X144772936Y-109599400D02*
X145227064Y-109599400D01*
X144772936Y-108129400D02*
X145227064Y-108129400D01*
%TO.C,C1003*%
X83948600Y-134300952D02*
X83948600Y-133778448D01*
X85418600Y-134300952D02*
X85418600Y-133778448D01*
D12*
%TO.C,SW11*%
X115477000Y-101229641D02*
X111234359Y-96987000D01*
X115477000Y-92744359D02*
X119719641Y-96987000D01*
X111234359Y-96987000D02*
X115477000Y-92744359D01*
X119719641Y-96987000D02*
X115477000Y-101229641D01*
X112802299Y-96987000D02*
G75*
G03*
X112802299Y-96987000I-380000J0D01*
G01*
X117257000Y-96987000D02*
G75*
G03*
X117257000Y-96987000I-1780000J0D01*
G01*
X118727854Y-96987000D02*
G75*
G03*
X118727854Y-96987000I-380000J0D01*
G01*
X116747001Y-96987000D02*
G75*
G03*
X116747001Y-96987000I-1270001J0D01*
G01*
X115857001Y-93932299D02*
G75*
G03*
X115857001Y-93932299I-380001J0D01*
G01*
X115857001Y-99857854D02*
G75*
G03*
X115857001Y-99857854I-380001J0D01*
G01*
D11*
%TO.C,R12*%
X154487864Y-73531400D02*
X154033736Y-73531400D01*
X154487864Y-72061400D02*
X154033736Y-72061400D01*
%TO.C,R19*%
X87479064Y-124417400D02*
X87024936Y-124417400D01*
X87479064Y-125887400D02*
X87024936Y-125887400D01*
%TO.C,R9*%
X111024936Y-132887400D02*
X111479064Y-132887400D01*
X111024936Y-131417400D02*
X111479064Y-131417400D01*
%TO.C,C1002*%
X91987000Y-134413652D02*
X91987000Y-133891148D01*
X90517000Y-134413652D02*
X90517000Y-133891148D01*
%TO.C,R26*%
X92479064Y-125887400D02*
X92024936Y-125887400D01*
X92479064Y-124417400D02*
X92024936Y-124417400D01*
D12*
%TO.C,D1015*%
X75032000Y-107467000D02*
X75032000Y-107787000D01*
X75012000Y-109437000D02*
X75012000Y-109737000D01*
X72025138Y-109544228D02*
G75*
G03*
X74352000Y-109577000I1176862J937228D01*
G01*
X74408975Y-107708885D02*
G75*
G03*
X72052000Y-107637000I-1206975J-898114D01*
G01*
X71164567Y-109240930D02*
G75*
G03*
X75012000Y-109737000I2037433J633930D01*
G01*
X75026724Y-107466529D02*
G75*
G03*
X71142000Y-107977000I-1824724J-1150471D01*
G01*
%TO.C,D1011*%
X126802000Y-94837000D02*
X126802000Y-95137000D01*
X126822000Y-92867000D02*
X126822000Y-93187000D01*
X126816724Y-92866529D02*
G75*
G03*
X122932000Y-93377000I-1824724J-1150471D01*
G01*
X126198975Y-93108885D02*
G75*
G03*
X123842000Y-93037000I-1206975J-898114D01*
G01*
X122954567Y-94640930D02*
G75*
G03*
X126802000Y-95137000I2037433J633930D01*
G01*
X123815138Y-94944228D02*
G75*
G03*
X126142000Y-94977000I1176862J937228D01*
G01*
D11*
%TO.C,C2*%
X128192200Y-126317552D02*
X128192200Y-125795048D01*
X126722200Y-126317552D02*
X126722200Y-125795048D01*
%TO.C,R24*%
X104503464Y-109650200D02*
X104049336Y-109650200D01*
X104503464Y-108180200D02*
X104049336Y-108180200D01*
D12*
%TO.C,D1009*%
X92922000Y-92927000D02*
X92922000Y-93247000D01*
X92902000Y-94897000D02*
X92902000Y-95197000D01*
X92298975Y-93168885D02*
G75*
G03*
X89942000Y-93097000I-1206975J-898114D01*
G01*
X89915138Y-95004228D02*
G75*
G03*
X92242000Y-95037000I1176862J937228D01*
G01*
X92916724Y-92926529D02*
G75*
G03*
X89032000Y-93437000I-1824724J-1150471D01*
G01*
X89054567Y-94700930D02*
G75*
G03*
X92902000Y-95197000I2037433J633930D01*
G01*
D11*
%TO.C,R13*%
X126785864Y-73531400D02*
X126331736Y-73531400D01*
X126785864Y-72061400D02*
X126331736Y-72061400D01*
D12*
%TO.C,SW10*%
X94254359Y-97037000D02*
X98497000Y-92794359D01*
X102739641Y-97037000D02*
X98497000Y-101279641D01*
X98497000Y-101279641D02*
X94254359Y-97037000D01*
X98497000Y-92794359D02*
X102739641Y-97037000D01*
X101747854Y-97037000D02*
G75*
G03*
X101747854Y-97037000I-380000J0D01*
G01*
X99767001Y-97037000D02*
G75*
G03*
X99767001Y-97037000I-1270001J0D01*
G01*
X98877001Y-99907854D02*
G75*
G03*
X98877001Y-99907854I-380001J0D01*
G01*
X95822299Y-97037000D02*
G75*
G03*
X95822299Y-97037000I-380000J0D01*
G01*
X100277000Y-97037000D02*
G75*
G03*
X100277000Y-97037000I-1780000J0D01*
G01*
X98877001Y-93982299D02*
G75*
G03*
X98877001Y-93982299I-380001J0D01*
G01*
D11*
%TO.C,R16*%
X158434264Y-73531400D02*
X157980136Y-73531400D01*
X158434264Y-72061400D02*
X157980136Y-72061400D01*
D12*
%TO.C,SW7*%
X176634359Y-84267000D02*
X180877000Y-80024359D01*
X180877000Y-80024359D02*
X185119641Y-84267000D01*
X180877000Y-88509641D02*
X176634359Y-84267000D01*
X185119641Y-84267000D02*
X180877000Y-88509641D01*
X182147001Y-84267000D02*
G75*
G03*
X182147001Y-84267000I-1270001J0D01*
G01*
X181257001Y-87137854D02*
G75*
G03*
X181257001Y-87137854I-380001J0D01*
G01*
X178202299Y-84267000D02*
G75*
G03*
X178202299Y-84267000I-380000J0D01*
G01*
X181257001Y-81212299D02*
G75*
G03*
X181257001Y-81212299I-380001J0D01*
G01*
X182657000Y-84267000D02*
G75*
G03*
X182657000Y-84267000I-1780000J0D01*
G01*
X184127854Y-84267000D02*
G75*
G03*
X184127854Y-84267000I-380000J0D01*
G01*
%TO.C,SW3*%
X103347000Y-80144359D02*
X107589641Y-84387000D01*
X107589641Y-84387000D02*
X103347000Y-88629641D01*
X99104359Y-84387000D02*
X103347000Y-80144359D01*
X103347000Y-88629641D02*
X99104359Y-84387000D01*
X103727001Y-87257854D02*
G75*
G03*
X103727001Y-87257854I-380001J0D01*
G01*
X105127000Y-84387000D02*
G75*
G03*
X105127000Y-84387000I-1780000J0D01*
G01*
X106597854Y-84387000D02*
G75*
G03*
X106597854Y-84387000I-380000J0D01*
G01*
X103727001Y-81332299D02*
G75*
G03*
X103727001Y-81332299I-380001J0D01*
G01*
X100672299Y-84387000D02*
G75*
G03*
X100672299Y-84387000I-380000J0D01*
G01*
X104617001Y-84387000D02*
G75*
G03*
X104617001Y-84387000I-1270001J0D01*
G01*
D11*
%TO.C,R5*%
X170540664Y-72061400D02*
X170086536Y-72061400D01*
X170540664Y-73531400D02*
X170086536Y-73531400D01*
D12*
%TO.C,D1003*%
X146332000Y-69867000D02*
X146332000Y-70167000D01*
X146352000Y-67897000D02*
X146352000Y-68217000D01*
X145728975Y-68138885D02*
G75*
G03*
X143372000Y-68067000I-1206975J-898114D01*
G01*
X146346724Y-67896529D02*
G75*
G03*
X142462000Y-68407000I-1824724J-1150471D01*
G01*
X143345138Y-69974228D02*
G75*
G03*
X145672000Y-70007000I1176862J937228D01*
G01*
X142484567Y-69670930D02*
G75*
G03*
X146332000Y-70167000I2037433J633930D01*
G01*
%TO.C,SW4*%
X122637000Y-80144359D02*
X126879641Y-84387000D01*
X122637000Y-88629641D02*
X118394359Y-84387000D01*
X126879641Y-84387000D02*
X122637000Y-88629641D01*
X118394359Y-84387000D02*
X122637000Y-80144359D01*
X123907001Y-84387000D02*
G75*
G03*
X123907001Y-84387000I-1270001J0D01*
G01*
X123017001Y-87257854D02*
G75*
G03*
X123017001Y-87257854I-380001J0D01*
G01*
X123017001Y-81332299D02*
G75*
G03*
X123017001Y-81332299I-380001J0D01*
G01*
X124417000Y-84387000D02*
G75*
G03*
X124417000Y-84387000I-1780000J0D01*
G01*
X125887854Y-84387000D02*
G75*
G03*
X125887854Y-84387000I-380000J0D01*
G01*
X119962299Y-84387000D02*
G75*
G03*
X119962299Y-84387000I-380000J0D01*
G01*
%TD*%
M02*
