%TF.GenerationSoftware,KiCad,Pcbnew,(6.0.1)*%
%TF.CreationDate,2022-01-31T22:39:25+01:00*%
%TF.ProjectId,OpenMowerMainboard,4f70656e-4d6f-4776-9572-4d61696e626f,rev?*%
%TF.SameCoordinates,Original*%
%TF.FileFunction,Paste,Top*%
%TF.FilePolarity,Positive*%
%FSLAX46Y46*%
G04 Gerber Fmt 4.6, Leading zero omitted, Abs format (unit mm)*
G04 Created by KiCad (PCBNEW (6.0.1)) date 2022-01-31 22:39:25*
%MOMM*%
%LPD*%
G01*
G04 APERTURE LIST*
G04 Aperture macros list*
%AMRoundRect*
0 Rectangle with rounded corners*
0 $1 Rounding radius*
0 $2 $3 $4 $5 $6 $7 $8 $9 X,Y pos of 4 corners*
0 Add a 4 corners polygon primitive as box body*
4,1,4,$2,$3,$4,$5,$6,$7,$8,$9,$2,$3,0*
0 Add four circle primitives for the rounded corners*
1,1,$1+$1,$2,$3*
1,1,$1+$1,$4,$5*
1,1,$1+$1,$6,$7*
1,1,$1+$1,$8,$9*
0 Add four rect primitives between the rounded corners*
20,1,$1+$1,$2,$3,$4,$5,0*
20,1,$1+$1,$4,$5,$6,$7,0*
20,1,$1+$1,$6,$7,$8,$9,0*
20,1,$1+$1,$8,$9,$2,$3,0*%
G04 Aperture macros list end*
%ADD10RoundRect,0.250000X-0.450000X0.350000X-0.450000X-0.350000X0.450000X-0.350000X0.450000X0.350000X0*%
%ADD11R,0.400000X1.000000*%
%ADD12RoundRect,0.150000X-0.587500X-0.150000X0.587500X-0.150000X0.587500X0.150000X-0.587500X0.150000X0*%
%ADD13RoundRect,0.250000X0.350000X0.450000X-0.350000X0.450000X-0.350000X-0.450000X0.350000X-0.450000X0*%
%ADD14RoundRect,0.250000X0.450000X-0.350000X0.450000X0.350000X-0.450000X0.350000X-0.450000X-0.350000X0*%
%ADD15R,1.100000X1.100000*%
%ADD16RoundRect,0.250000X-0.350000X-0.450000X0.350000X-0.450000X0.350000X0.450000X-0.350000X0.450000X0*%
%ADD17R,2.500000X2.300000*%
%ADD18R,0.650000X1.560000*%
%ADD19RoundRect,0.250000X-0.475000X0.337500X-0.475000X-0.337500X0.475000X-0.337500X0.475000X0.337500X0*%
%ADD20RoundRect,0.150000X0.150000X-0.587500X0.150000X0.587500X-0.150000X0.587500X-0.150000X-0.587500X0*%
%ADD21RoundRect,0.150000X0.587500X0.150000X-0.587500X0.150000X-0.587500X-0.150000X0.587500X-0.150000X0*%
%ADD22R,1.000000X3.000000*%
%ADD23R,0.300000X1.425000*%
%ADD24R,3.050000X2.750000*%
%ADD25R,2.200000X1.200000*%
%ADD26R,1.150000X0.600000*%
%ADD27R,3.500000X1.800000*%
%ADD28RoundRect,0.250000X0.337500X0.475000X-0.337500X0.475000X-0.337500X-0.475000X0.337500X-0.475000X0*%
%ADD29RoundRect,0.249999X0.450001X1.425001X-0.450001X1.425001X-0.450001X-1.425001X0.450001X-1.425001X0*%
%ADD30RoundRect,0.150000X0.150000X-0.825000X0.150000X0.825000X-0.150000X0.825000X-0.150000X-0.825000X0*%
G04 APERTURE END LIST*
D10*
X103342323Y-139050000D03*
X103342323Y-141050000D03*
X100592323Y-139050000D03*
X100592323Y-141050000D03*
D11*
X128925000Y-79900000D03*
X129575000Y-79900000D03*
X130225000Y-79900000D03*
X130875000Y-79900000D03*
X131525000Y-79900000D03*
X132175000Y-79900000D03*
X132825000Y-79900000D03*
X133475000Y-79900000D03*
X133475000Y-74100000D03*
X132825000Y-74100000D03*
X132175000Y-74100000D03*
X131525000Y-74100000D03*
X130875000Y-74100000D03*
X130225000Y-74100000D03*
X129575000Y-74100000D03*
X128925000Y-74100000D03*
D10*
X159000000Y-183000000D03*
X159000000Y-185000000D03*
D12*
X162062500Y-183050000D03*
X162062500Y-184950000D03*
X163937500Y-184000000D03*
D13*
X137000000Y-57400000D03*
X135000000Y-57400000D03*
D10*
X38342323Y-139050000D03*
X38342323Y-141050000D03*
D13*
X132800000Y-57400000D03*
X130800000Y-57400000D03*
D14*
X196320000Y-79720000D03*
X196320000Y-77720000D03*
D10*
X35592323Y-139050000D03*
X35592323Y-141050000D03*
D13*
X137000000Y-59600000D03*
X135000000Y-59600000D03*
D15*
X132800000Y-107800000D03*
X135600000Y-107800000D03*
D16*
X168216666Y-79600000D03*
X170216666Y-79600000D03*
D10*
X28092323Y-139050000D03*
X28092323Y-141050000D03*
X193320000Y-77720000D03*
X193320000Y-79720000D03*
D17*
X73175000Y-77750000D03*
X77475000Y-77750000D03*
X28545000Y-78250000D03*
X32845000Y-78250000D03*
X67100000Y-84250000D03*
X71400000Y-84250000D03*
D15*
X135600000Y-105200000D03*
X132800000Y-105200000D03*
D14*
X187320000Y-79720000D03*
X187320000Y-77720000D03*
D10*
X60592323Y-139050000D03*
X60592323Y-141050000D03*
D11*
X136325000Y-80000000D03*
X136975000Y-80000000D03*
X137625000Y-80000000D03*
X138275000Y-80000000D03*
X138925000Y-80000000D03*
X139575000Y-80000000D03*
X140225000Y-80000000D03*
X140875000Y-80000000D03*
X140875000Y-74200000D03*
X140225000Y-74200000D03*
X139575000Y-74200000D03*
X138925000Y-74200000D03*
X138275000Y-74200000D03*
X137625000Y-74200000D03*
X136975000Y-74200000D03*
X136325000Y-74200000D03*
D18*
X153010000Y-60200000D03*
X153960000Y-60200000D03*
X154910000Y-60200000D03*
X154910000Y-57500000D03*
X153960000Y-57500000D03*
X153010000Y-57500000D03*
D19*
X181320000Y-70682500D03*
X181320000Y-72757500D03*
D20*
X172499999Y-76537500D03*
X174399999Y-76537500D03*
X173449999Y-74662500D03*
D21*
X65279823Y-141000000D03*
X65279823Y-139100000D03*
X63404823Y-140050000D03*
D22*
X119970000Y-171180000D03*
X119970000Y-176220000D03*
X122510000Y-171180000D03*
X122510000Y-176220000D03*
X125050000Y-171180000D03*
X125050000Y-176220000D03*
X127590000Y-171180000D03*
X127590000Y-176220000D03*
X130130000Y-171180000D03*
X130130000Y-176220000D03*
X132670000Y-171180000D03*
X132670000Y-176220000D03*
X135210000Y-171180000D03*
X135210000Y-176220000D03*
X137750000Y-171180000D03*
X137750000Y-176220000D03*
X140290000Y-171180000D03*
X140290000Y-176220000D03*
X142830000Y-171180000D03*
X142830000Y-176220000D03*
X145370000Y-171180000D03*
X145370000Y-176220000D03*
X147910000Y-171180000D03*
X147910000Y-176220000D03*
X150450000Y-171180000D03*
X150450000Y-176220000D03*
X152990000Y-171180000D03*
X152990000Y-176220000D03*
X155530000Y-171180000D03*
X155530000Y-176220000D03*
X158070000Y-171180000D03*
X158070000Y-176220000D03*
X160610000Y-171180000D03*
X160610000Y-176220000D03*
X163150000Y-171180000D03*
X163150000Y-176220000D03*
X165690000Y-171180000D03*
X165690000Y-176220000D03*
X168230000Y-171180000D03*
X168230000Y-176220000D03*
D10*
X181320000Y-77720000D03*
X181320000Y-79720000D03*
D16*
X163983333Y-79600000D03*
X165983333Y-79600000D03*
X163983333Y-71800000D03*
X165983333Y-71800000D03*
X172449999Y-79600000D03*
X174449999Y-79600000D03*
D17*
X105675000Y-77750000D03*
X109975000Y-77750000D03*
D10*
X68092323Y-139050000D03*
X68092323Y-141050000D03*
D18*
X122430000Y-182060000D03*
X121480000Y-182060000D03*
X120530000Y-182060000D03*
X120530000Y-184760000D03*
X121480000Y-184760000D03*
X122430000Y-184760000D03*
D13*
X132800000Y-59600000D03*
X130800000Y-59600000D03*
D10*
X190320000Y-77720000D03*
X190320000Y-79720000D03*
D16*
X168216666Y-71800000D03*
X170216666Y-71800000D03*
D14*
X156000000Y-185000000D03*
X156000000Y-183000000D03*
D23*
X155950000Y-71988000D03*
X155450000Y-71988000D03*
X154950000Y-71988000D03*
X154450000Y-71988000D03*
X153950000Y-71988000D03*
X153450000Y-71988000D03*
X152950000Y-71988000D03*
X152450000Y-71988000D03*
X151950000Y-71988000D03*
X151450000Y-71988000D03*
X150950000Y-71988000D03*
X150450000Y-71988000D03*
X149950000Y-71988000D03*
X149450000Y-71988000D03*
X148950000Y-71988000D03*
X148450000Y-71988000D03*
X147950000Y-71988000D03*
X147450000Y-71988000D03*
X146950000Y-71988000D03*
X146450000Y-71988000D03*
X145950000Y-71988000D03*
X145450000Y-71988000D03*
X144950000Y-71988000D03*
X144450000Y-71988000D03*
X144450000Y-79612000D03*
X144950000Y-79612000D03*
X145450000Y-79612000D03*
X145950000Y-79612000D03*
X146450000Y-79612000D03*
X146950000Y-79612000D03*
X147450000Y-79612000D03*
X147950000Y-79612000D03*
X148450000Y-79612000D03*
X148950000Y-79612000D03*
X149450000Y-79612000D03*
X149950000Y-79612000D03*
X150450000Y-79612000D03*
X150950000Y-79612000D03*
X151450000Y-79612000D03*
X151950000Y-79612000D03*
X152450000Y-79612000D03*
X152950000Y-79612000D03*
X153450000Y-79612000D03*
X153950000Y-79612000D03*
X154450000Y-79612000D03*
X154950000Y-79612000D03*
X155450000Y-79612000D03*
X155950000Y-79612000D03*
D24*
X33767323Y-135575000D03*
X33767323Y-132525000D03*
X37117323Y-135575000D03*
X37117323Y-132525000D03*
D25*
X29142323Y-131770000D03*
X29142323Y-136330000D03*
D26*
X135500000Y-102150000D03*
X135500000Y-101200000D03*
X135500000Y-100250000D03*
X132900000Y-100250000D03*
X132900000Y-102150000D03*
D20*
X159800000Y-76537500D03*
X161700000Y-76537500D03*
X160750000Y-74662500D03*
D17*
X93545000Y-77750000D03*
X97845000Y-77750000D03*
D16*
X172449999Y-71800000D03*
X174449999Y-71800000D03*
D17*
X40675000Y-78250000D03*
X44975000Y-78250000D03*
D20*
X168266666Y-76537500D03*
X170166666Y-76537500D03*
X169216666Y-74662500D03*
D24*
X98767323Y-135575000D03*
X102117323Y-132525000D03*
X98767323Y-132525000D03*
X102117323Y-135575000D03*
D25*
X94142323Y-131770000D03*
X94142323Y-136330000D03*
D17*
X99600000Y-84250000D03*
X103900000Y-84250000D03*
D10*
X93092323Y-139050000D03*
X93092323Y-141050000D03*
D21*
X32779823Y-141000000D03*
X32779823Y-139100000D03*
X30904823Y-140050000D03*
D17*
X34600000Y-84250000D03*
X38900000Y-84250000D03*
D16*
X159750000Y-79600000D03*
X161750000Y-79600000D03*
D24*
X66267323Y-132525000D03*
X66267323Y-135575000D03*
X69617323Y-135575000D03*
X69617323Y-132525000D03*
D25*
X61642323Y-131770000D03*
X61642323Y-136330000D03*
D27*
X93100000Y-57200000D03*
X98100000Y-57200000D03*
D28*
X130637500Y-102200000D03*
X128562500Y-102200000D03*
D17*
X61045000Y-78250000D03*
X65345000Y-78250000D03*
D29*
X89050000Y-57200000D03*
X82950000Y-57200000D03*
D30*
X184510000Y-74195000D03*
X185780000Y-74195000D03*
X187050000Y-74195000D03*
X188320000Y-74195000D03*
X189590000Y-74195000D03*
X190860000Y-74195000D03*
X192130000Y-74195000D03*
X192130000Y-69245000D03*
X190860000Y-69245000D03*
X189590000Y-69245000D03*
X188320000Y-69245000D03*
X187050000Y-69245000D03*
X185780000Y-69245000D03*
X184510000Y-69245000D03*
D21*
X97779823Y-141000000D03*
X97779823Y-139100000D03*
X95904823Y-140050000D03*
D10*
X184320000Y-77720000D03*
X184320000Y-79720000D03*
D20*
X164033333Y-76537500D03*
X165933333Y-76537500D03*
X164983333Y-74662500D03*
D16*
X159750000Y-71800000D03*
X161750000Y-71800000D03*
D15*
X167000000Y-182600000D03*
X167000000Y-185400000D03*
D10*
X70842323Y-139050000D03*
X70842323Y-141050000D03*
X178320000Y-77720000D03*
X178320000Y-79720000D03*
M02*
