%FSLAX45Y45*%
G04 Gerber Fmt 4.5, Leading zero omitted, Abs format (unit mm)*
G04 Created by KiCad (PCBNEW (6.0.1)) date 2022-04-07 02:13:06*
%MOMM*%
%LPD*%
G01*
G04 APERTURE LIST*
%TA.AperFunction,Profile*%
%ADD10C,0.050000*%
%TD*%
%TA.AperFunction,Profile*%
%ADD11C,0.100000*%
%TD*%
%ADD12C,0.200000*%
%ADD13C,0.150000*%
%ADD14C,0.180000*%
%ADD15C,0.275000*%
%ADD16C,0.350000*%
G04 APERTURE END LIST*
D10*
X2000000Y-18800000D02*
X2000000Y-2200000D01*
X6700000Y-4000000D02*
X6700000Y-2700000D01*
X15300000Y-4000000D02*
X6700000Y-4000000D01*
X15300000Y-2200000D02*
X15300000Y-4000000D01*
X17700000Y-17600000D02*
X17700000Y-12200000D01*
X2000000Y-2200000D02*
X2200000Y-2000000D01*
X17700000Y-12200000D02*
X17800000Y-12100000D01*
X20000000Y-17800000D02*
X19900000Y-17700000D01*
X17800000Y-17700000D02*
X17700000Y-17600000D01*
D11*
X15710000Y-14920000D02*
G75*
G03*
X15710000Y-14920000I-1300000J0D01*
G01*
D10*
X19800000Y-2000000D02*
X20000000Y-2200000D01*
X19800000Y-19000000D02*
X2200000Y-19000000D01*
X19900000Y-12100000D02*
X20000000Y-12000000D01*
X19800000Y-2000000D02*
X15500000Y-2000000D01*
X6000000Y-2000000D02*
X6700000Y-2700000D01*
X20000000Y-12000000D02*
X20000000Y-2200000D01*
X2200000Y-2000000D02*
X6000000Y-2000000D01*
X15500000Y-2000000D02*
X15300000Y-2200000D01*
X17800000Y-12100000D02*
X19900000Y-12100000D01*
X19800000Y-19000000D02*
X20000000Y-18800000D01*
X2000000Y-18800000D02*
X2200000Y-19000000D01*
X19900000Y-17700000D02*
X17800000Y-17700000D01*
X20000000Y-18800000D02*
X20000000Y-17800000D01*
D12*
D13*
X19336500Y-9339000D02*
X19486500Y-9489000D01*
X19486500Y-9339000D02*
X19336500Y-9489000D01*
X19336500Y-9824000D02*
X19486500Y-9974000D01*
X19486500Y-9824000D02*
X19336500Y-9974000D01*
D14*
X19804500Y-9384000D02*
G75*
G03*
X19804500Y-9384000I-90000J0D01*
G01*
X19804500Y-9929000D02*
G75*
G03*
X19804500Y-9929000I-90000J0D01*
G01*
D15*
X11510000Y-12332500D02*
X11510000Y-12607500D01*
X11372500Y-12470000D02*
X11647500Y-12470000D01*
X11510000Y-17232500D02*
X11510000Y-17507500D01*
X11372500Y-17370000D02*
X11647500Y-17370000D01*
X17310000Y-12332500D02*
X17310000Y-12607500D01*
X17172500Y-12470000D02*
X17447500Y-12470000D01*
X17310000Y-17232500D02*
X17310000Y-17507500D01*
X17172500Y-17370000D02*
X17447500Y-17370000D01*
D16*
X13333745Y-13843745D02*
X13333745Y-13596255D01*
X13086255Y-13596255D01*
X13086255Y-13843745D01*
X13333745Y-13843745D01*
X13333745Y-16243745D02*
X13333745Y-15996255D01*
X13086255Y-15996255D01*
X13086255Y-16243745D01*
X13333745Y-16243745D01*
X15733745Y-13843745D02*
X15733745Y-13596255D01*
X15486255Y-13596255D01*
X15486255Y-13843745D01*
X15733745Y-13843745D01*
X15733745Y-16243745D02*
X15733745Y-15996255D01*
X15486255Y-15996255D01*
X15486255Y-16243745D01*
X15733745Y-16243745D01*
D12*
X2255119Y-19312976D02*
X2255119Y-19112976D01*
X2302738Y-19112976D01*
X2331310Y-19122500D01*
X2350357Y-19141548D01*
X2359881Y-19160595D01*
X2369405Y-19198690D01*
X2369405Y-19227262D01*
X2359881Y-19265357D01*
X2350357Y-19284405D01*
X2331310Y-19303452D01*
X2302738Y-19312976D01*
X2255119Y-19312976D01*
X2455119Y-19312976D02*
X2455119Y-19179643D01*
X2455119Y-19217738D02*
X2464643Y-19198690D01*
X2474167Y-19189167D01*
X2493214Y-19179643D01*
X2512262Y-19179643D01*
X2578929Y-19312976D02*
X2578929Y-19179643D01*
X2578929Y-19112976D02*
X2569405Y-19122500D01*
X2578929Y-19132024D01*
X2588452Y-19122500D01*
X2578929Y-19112976D01*
X2578929Y-19132024D01*
X2702738Y-19312976D02*
X2683690Y-19303452D01*
X2674167Y-19284405D01*
X2674167Y-19112976D01*
X2807500Y-19312976D02*
X2788452Y-19303452D01*
X2778929Y-19284405D01*
X2778929Y-19112976D01*
X3036071Y-19312976D02*
X3036071Y-19112976D01*
X3102738Y-19255833D01*
X3169405Y-19112976D01*
X3169405Y-19312976D01*
X3350357Y-19312976D02*
X3350357Y-19208214D01*
X3340833Y-19189167D01*
X3321786Y-19179643D01*
X3283690Y-19179643D01*
X3264643Y-19189167D01*
X3350357Y-19303452D02*
X3331309Y-19312976D01*
X3283690Y-19312976D01*
X3264643Y-19303452D01*
X3255119Y-19284405D01*
X3255119Y-19265357D01*
X3264643Y-19246310D01*
X3283690Y-19236786D01*
X3331309Y-19236786D01*
X3350357Y-19227262D01*
X3445595Y-19179643D02*
X3445595Y-19379643D01*
X3445595Y-19189167D02*
X3464643Y-19179643D01*
X3502738Y-19179643D01*
X3521786Y-19189167D01*
X3531309Y-19198690D01*
X3540833Y-19217738D01*
X3540833Y-19274881D01*
X3531309Y-19293929D01*
X3521786Y-19303452D01*
X3502738Y-19312976D01*
X3464643Y-19312976D01*
X3445595Y-19303452D01*
X3626548Y-19293929D02*
X3636071Y-19303452D01*
X3626548Y-19312976D01*
X3617024Y-19303452D01*
X3626548Y-19293929D01*
X3626548Y-19312976D01*
X3626548Y-19189167D02*
X3636071Y-19198690D01*
X3626548Y-19208214D01*
X3617024Y-19198690D01*
X3626548Y-19189167D01*
X3626548Y-19208214D01*
D13*
X1847500Y-19567500D02*
X1997500Y-19717500D01*
X1997500Y-19567500D02*
X1847500Y-19717500D01*
D12*
X2359881Y-19732976D02*
X2245595Y-19732976D01*
X2302738Y-19732976D02*
X2302738Y-19532976D01*
X2283690Y-19561548D01*
X2264643Y-19580595D01*
X2245595Y-19590119D01*
X2445595Y-19713929D02*
X2455119Y-19723452D01*
X2445595Y-19732976D01*
X2436071Y-19723452D01*
X2445595Y-19713929D01*
X2445595Y-19732976D01*
X2636071Y-19532976D02*
X2540833Y-19532976D01*
X2531310Y-19628214D01*
X2540833Y-19618690D01*
X2559881Y-19609167D01*
X2607500Y-19609167D01*
X2626548Y-19618690D01*
X2636071Y-19628214D01*
X2645595Y-19647262D01*
X2645595Y-19694881D01*
X2636071Y-19713929D01*
X2626548Y-19723452D01*
X2607500Y-19732976D01*
X2559881Y-19732976D01*
X2540833Y-19723452D01*
X2531310Y-19713929D01*
X2769405Y-19532976D02*
X2788452Y-19532976D01*
X2807500Y-19542500D01*
X2817024Y-19552024D01*
X2826548Y-19571071D01*
X2836071Y-19609167D01*
X2836071Y-19656786D01*
X2826548Y-19694881D01*
X2817024Y-19713929D01*
X2807500Y-19723452D01*
X2788452Y-19732976D01*
X2769405Y-19732976D01*
X2750357Y-19723452D01*
X2740833Y-19713929D01*
X2731310Y-19694881D01*
X2721786Y-19656786D01*
X2721786Y-19609167D01*
X2731310Y-19571071D01*
X2740833Y-19552024D01*
X2750357Y-19542500D01*
X2769405Y-19532976D01*
X2959881Y-19532976D02*
X2978928Y-19532976D01*
X2997976Y-19542500D01*
X3007500Y-19552024D01*
X3017024Y-19571071D01*
X3026548Y-19609167D01*
X3026548Y-19656786D01*
X3017024Y-19694881D01*
X3007500Y-19713929D01*
X2997976Y-19723452D01*
X2978928Y-19732976D01*
X2959881Y-19732976D01*
X2940833Y-19723452D01*
X2931309Y-19713929D01*
X2921786Y-19694881D01*
X2912262Y-19656786D01*
X2912262Y-19609167D01*
X2921786Y-19571071D01*
X2931309Y-19552024D01*
X2940833Y-19542500D01*
X2959881Y-19532976D01*
X3112262Y-19732976D02*
X3112262Y-19599643D01*
X3112262Y-19618690D02*
X3121786Y-19609167D01*
X3140833Y-19599643D01*
X3169405Y-19599643D01*
X3188452Y-19609167D01*
X3197976Y-19628214D01*
X3197976Y-19732976D01*
X3197976Y-19628214D02*
X3207500Y-19609167D01*
X3226548Y-19599643D01*
X3255119Y-19599643D01*
X3274167Y-19609167D01*
X3283690Y-19628214D01*
X3283690Y-19732976D01*
X3378928Y-19732976D02*
X3378928Y-19599643D01*
X3378928Y-19618690D02*
X3388452Y-19609167D01*
X3407500Y-19599643D01*
X3436071Y-19599643D01*
X3455119Y-19609167D01*
X3464643Y-19628214D01*
X3464643Y-19732976D01*
X3464643Y-19628214D02*
X3474167Y-19609167D01*
X3493214Y-19599643D01*
X3521786Y-19599643D01*
X3540833Y-19609167D01*
X3550357Y-19628214D01*
X3550357Y-19732976D01*
X3940833Y-19523452D02*
X3769405Y-19780595D01*
X4197976Y-19532976D02*
X4217024Y-19532976D01*
X4236071Y-19542500D01*
X4245595Y-19552024D01*
X4255119Y-19571071D01*
X4264643Y-19609167D01*
X4264643Y-19656786D01*
X4255119Y-19694881D01*
X4245595Y-19713929D01*
X4236071Y-19723452D01*
X4217024Y-19732976D01*
X4197976Y-19732976D01*
X4178928Y-19723452D01*
X4169405Y-19713929D01*
X4159881Y-19694881D01*
X4150357Y-19656786D01*
X4150357Y-19609167D01*
X4159881Y-19571071D01*
X4169405Y-19552024D01*
X4178928Y-19542500D01*
X4197976Y-19532976D01*
X4350357Y-19713929D02*
X4359881Y-19723452D01*
X4350357Y-19732976D01*
X4340833Y-19723452D01*
X4350357Y-19713929D01*
X4350357Y-19732976D01*
X4483690Y-19532976D02*
X4502738Y-19532976D01*
X4521786Y-19542500D01*
X4531310Y-19552024D01*
X4540833Y-19571071D01*
X4550357Y-19609167D01*
X4550357Y-19656786D01*
X4540833Y-19694881D01*
X4531310Y-19713929D01*
X4521786Y-19723452D01*
X4502738Y-19732976D01*
X4483690Y-19732976D01*
X4464643Y-19723452D01*
X4455119Y-19713929D01*
X4445595Y-19694881D01*
X4436071Y-19656786D01*
X4436071Y-19609167D01*
X4445595Y-19571071D01*
X4455119Y-19552024D01*
X4464643Y-19542500D01*
X4483690Y-19532976D01*
X4731310Y-19532976D02*
X4636071Y-19532976D01*
X4626548Y-19628214D01*
X4636071Y-19618690D01*
X4655119Y-19609167D01*
X4702738Y-19609167D01*
X4721786Y-19618690D01*
X4731310Y-19628214D01*
X4740833Y-19647262D01*
X4740833Y-19694881D01*
X4731310Y-19713929D01*
X4721786Y-19723452D01*
X4702738Y-19732976D01*
X4655119Y-19732976D01*
X4636071Y-19723452D01*
X4626548Y-19713929D01*
X4836071Y-19732976D02*
X4874167Y-19732976D01*
X4893214Y-19723452D01*
X4902738Y-19713929D01*
X4921786Y-19685357D01*
X4931310Y-19647262D01*
X4931310Y-19571071D01*
X4921786Y-19552024D01*
X4912262Y-19542500D01*
X4893214Y-19532976D01*
X4855119Y-19532976D01*
X4836071Y-19542500D01*
X4826548Y-19552024D01*
X4817024Y-19571071D01*
X4817024Y-19618690D01*
X4826548Y-19637738D01*
X4836071Y-19647262D01*
X4855119Y-19656786D01*
X4893214Y-19656786D01*
X4912262Y-19647262D01*
X4921786Y-19637738D01*
X4931310Y-19618690D01*
X5121786Y-19732976D02*
X5007500Y-19732976D01*
X5064643Y-19732976D02*
X5064643Y-19532976D01*
X5045595Y-19561548D01*
X5026548Y-19580595D01*
X5007500Y-19590119D01*
X5197976Y-19532976D02*
X5197976Y-19571071D01*
X5274167Y-19532976D02*
X5274167Y-19571071D01*
X5569405Y-19809167D02*
X5559881Y-19799643D01*
X5540833Y-19771071D01*
X5531310Y-19752024D01*
X5521786Y-19723452D01*
X5512262Y-19675833D01*
X5512262Y-19637738D01*
X5521786Y-19590119D01*
X5531310Y-19561548D01*
X5540833Y-19542500D01*
X5559881Y-19513929D01*
X5569405Y-19504405D01*
X5636071Y-19552024D02*
X5645595Y-19542500D01*
X5664643Y-19532976D01*
X5712262Y-19532976D01*
X5731309Y-19542500D01*
X5740833Y-19552024D01*
X5750357Y-19571071D01*
X5750357Y-19590119D01*
X5740833Y-19618690D01*
X5626548Y-19732976D01*
X5750357Y-19732976D01*
X5988452Y-19732976D02*
X5988452Y-19532976D01*
X6074167Y-19732976D02*
X6074167Y-19628214D01*
X6064643Y-19609167D01*
X6045595Y-19599643D01*
X6017024Y-19599643D01*
X5997976Y-19609167D01*
X5988452Y-19618690D01*
X6197976Y-19732976D02*
X6178928Y-19723452D01*
X6169405Y-19713929D01*
X6159881Y-19694881D01*
X6159881Y-19637738D01*
X6169405Y-19618690D01*
X6178928Y-19609167D01*
X6197976Y-19599643D01*
X6226548Y-19599643D01*
X6245595Y-19609167D01*
X6255119Y-19618690D01*
X6264643Y-19637738D01*
X6264643Y-19694881D01*
X6255119Y-19713929D01*
X6245595Y-19723452D01*
X6226548Y-19732976D01*
X6197976Y-19732976D01*
X6378928Y-19732976D02*
X6359881Y-19723452D01*
X6350357Y-19704405D01*
X6350357Y-19532976D01*
X6531309Y-19723452D02*
X6512262Y-19732976D01*
X6474167Y-19732976D01*
X6455119Y-19723452D01*
X6445595Y-19704405D01*
X6445595Y-19628214D01*
X6455119Y-19609167D01*
X6474167Y-19599643D01*
X6512262Y-19599643D01*
X6531309Y-19609167D01*
X6540833Y-19628214D01*
X6540833Y-19647262D01*
X6445595Y-19666310D01*
X6617024Y-19723452D02*
X6636071Y-19732976D01*
X6674167Y-19732976D01*
X6693214Y-19723452D01*
X6702738Y-19704405D01*
X6702738Y-19694881D01*
X6693214Y-19675833D01*
X6674167Y-19666310D01*
X6645595Y-19666310D01*
X6626548Y-19656786D01*
X6617024Y-19637738D01*
X6617024Y-19628214D01*
X6626548Y-19609167D01*
X6645595Y-19599643D01*
X6674167Y-19599643D01*
X6693214Y-19609167D01*
X6769405Y-19809167D02*
X6778928Y-19799643D01*
X6797976Y-19771071D01*
X6807500Y-19752024D01*
X6817024Y-19723452D01*
X6826548Y-19675833D01*
X6826548Y-19637738D01*
X6817024Y-19590119D01*
X6807500Y-19561548D01*
X6797976Y-19542500D01*
X6778928Y-19513929D01*
X6769405Y-19504405D01*
X7131309Y-19809167D02*
X7121786Y-19799643D01*
X7102738Y-19771071D01*
X7093214Y-19752024D01*
X7083690Y-19723452D01*
X7074167Y-19675833D01*
X7074167Y-19637738D01*
X7083690Y-19590119D01*
X7093214Y-19561548D01*
X7102738Y-19542500D01*
X7121786Y-19513929D01*
X7131309Y-19504405D01*
X7207500Y-19599643D02*
X7207500Y-19732976D01*
X7207500Y-19618690D02*
X7217024Y-19609167D01*
X7236071Y-19599643D01*
X7264643Y-19599643D01*
X7283690Y-19609167D01*
X7293214Y-19628214D01*
X7293214Y-19732976D01*
X7417024Y-19732976D02*
X7397976Y-19723452D01*
X7388452Y-19713929D01*
X7378928Y-19694881D01*
X7378928Y-19637738D01*
X7388452Y-19618690D01*
X7397976Y-19609167D01*
X7417024Y-19599643D01*
X7445595Y-19599643D01*
X7464643Y-19609167D01*
X7474167Y-19618690D01*
X7483690Y-19637738D01*
X7483690Y-19694881D01*
X7474167Y-19713929D01*
X7464643Y-19723452D01*
X7445595Y-19732976D01*
X7417024Y-19732976D01*
X7540833Y-19599643D02*
X7617024Y-19599643D01*
X7569405Y-19532976D02*
X7569405Y-19704405D01*
X7578928Y-19723452D01*
X7597976Y-19732976D01*
X7617024Y-19732976D01*
X7836071Y-19599643D02*
X7836071Y-19799643D01*
X7836071Y-19609167D02*
X7855119Y-19599643D01*
X7893214Y-19599643D01*
X7912262Y-19609167D01*
X7921786Y-19618690D01*
X7931309Y-19637738D01*
X7931309Y-19694881D01*
X7921786Y-19713929D01*
X7912262Y-19723452D01*
X7893214Y-19732976D01*
X7855119Y-19732976D01*
X7836071Y-19723452D01*
X8045595Y-19732976D02*
X8026548Y-19723452D01*
X8017024Y-19704405D01*
X8017024Y-19532976D01*
X8207500Y-19732976D02*
X8207500Y-19628214D01*
X8197976Y-19609167D01*
X8178928Y-19599643D01*
X8140833Y-19599643D01*
X8121786Y-19609167D01*
X8207500Y-19723452D02*
X8188452Y-19732976D01*
X8140833Y-19732976D01*
X8121786Y-19723452D01*
X8112262Y-19704405D01*
X8112262Y-19685357D01*
X8121786Y-19666310D01*
X8140833Y-19656786D01*
X8188452Y-19656786D01*
X8207500Y-19647262D01*
X8274167Y-19599643D02*
X8350357Y-19599643D01*
X8302738Y-19532976D02*
X8302738Y-19704405D01*
X8312262Y-19723452D01*
X8331309Y-19732976D01*
X8350357Y-19732976D01*
X8493214Y-19723452D02*
X8474167Y-19732976D01*
X8436071Y-19732976D01*
X8417024Y-19723452D01*
X8407500Y-19704405D01*
X8407500Y-19628214D01*
X8417024Y-19609167D01*
X8436071Y-19599643D01*
X8474167Y-19599643D01*
X8493214Y-19609167D01*
X8502738Y-19628214D01*
X8502738Y-19647262D01*
X8407500Y-19666310D01*
X8674167Y-19732976D02*
X8674167Y-19532976D01*
X8674167Y-19723452D02*
X8655119Y-19732976D01*
X8617024Y-19732976D01*
X8597976Y-19723452D01*
X8588452Y-19713929D01*
X8578929Y-19694881D01*
X8578929Y-19637738D01*
X8588452Y-19618690D01*
X8597976Y-19609167D01*
X8617024Y-19599643D01*
X8655119Y-19599643D01*
X8674167Y-19609167D01*
X8750357Y-19809167D02*
X8759881Y-19799643D01*
X8778929Y-19771071D01*
X8788452Y-19752024D01*
X8797976Y-19723452D01*
X8807500Y-19675833D01*
X8807500Y-19637738D01*
X8797976Y-19590119D01*
X8788452Y-19561548D01*
X8778929Y-19542500D01*
X8759881Y-19513929D01*
X8750357Y-19504405D01*
D14*
X1997500Y-19912500D02*
G75*
G03*
X1997500Y-19912500I-90000J0D01*
G01*
D12*
X2359881Y-20002976D02*
X2245595Y-20002976D01*
X2302738Y-20002976D02*
X2302738Y-19802976D01*
X2283690Y-19831548D01*
X2264643Y-19850595D01*
X2245595Y-19860119D01*
X2445595Y-19983929D02*
X2455119Y-19993452D01*
X2445595Y-20002976D01*
X2436071Y-19993452D01*
X2445595Y-19983929D01*
X2445595Y-20002976D01*
X2569405Y-19888690D02*
X2550357Y-19879167D01*
X2540833Y-19869643D01*
X2531310Y-19850595D01*
X2531310Y-19841071D01*
X2540833Y-19822024D01*
X2550357Y-19812500D01*
X2569405Y-19802976D01*
X2607500Y-19802976D01*
X2626548Y-19812500D01*
X2636071Y-19822024D01*
X2645595Y-19841071D01*
X2645595Y-19850595D01*
X2636071Y-19869643D01*
X2626548Y-19879167D01*
X2607500Y-19888690D01*
X2569405Y-19888690D01*
X2550357Y-19898214D01*
X2540833Y-19907738D01*
X2531310Y-19926786D01*
X2531310Y-19964881D01*
X2540833Y-19983929D01*
X2550357Y-19993452D01*
X2569405Y-20002976D01*
X2607500Y-20002976D01*
X2626548Y-19993452D01*
X2636071Y-19983929D01*
X2645595Y-19964881D01*
X2645595Y-19926786D01*
X2636071Y-19907738D01*
X2626548Y-19898214D01*
X2607500Y-19888690D01*
X2769405Y-19802976D02*
X2788452Y-19802976D01*
X2807500Y-19812500D01*
X2817024Y-19822024D01*
X2826548Y-19841071D01*
X2836071Y-19879167D01*
X2836071Y-19926786D01*
X2826548Y-19964881D01*
X2817024Y-19983929D01*
X2807500Y-19993452D01*
X2788452Y-20002976D01*
X2769405Y-20002976D01*
X2750357Y-19993452D01*
X2740833Y-19983929D01*
X2731310Y-19964881D01*
X2721786Y-19926786D01*
X2721786Y-19879167D01*
X2731310Y-19841071D01*
X2740833Y-19822024D01*
X2750357Y-19812500D01*
X2769405Y-19802976D01*
X2959881Y-19802976D02*
X2978928Y-19802976D01*
X2997976Y-19812500D01*
X3007500Y-19822024D01*
X3017024Y-19841071D01*
X3026548Y-19879167D01*
X3026548Y-19926786D01*
X3017024Y-19964881D01*
X3007500Y-19983929D01*
X2997976Y-19993452D01*
X2978928Y-20002976D01*
X2959881Y-20002976D01*
X2940833Y-19993452D01*
X2931309Y-19983929D01*
X2921786Y-19964881D01*
X2912262Y-19926786D01*
X2912262Y-19879167D01*
X2921786Y-19841071D01*
X2931309Y-19822024D01*
X2940833Y-19812500D01*
X2959881Y-19802976D01*
X3112262Y-20002976D02*
X3112262Y-19869643D01*
X3112262Y-19888690D02*
X3121786Y-19879167D01*
X3140833Y-19869643D01*
X3169405Y-19869643D01*
X3188452Y-19879167D01*
X3197976Y-19898214D01*
X3197976Y-20002976D01*
X3197976Y-19898214D02*
X3207500Y-19879167D01*
X3226548Y-19869643D01*
X3255119Y-19869643D01*
X3274167Y-19879167D01*
X3283690Y-19898214D01*
X3283690Y-20002976D01*
X3378928Y-20002976D02*
X3378928Y-19869643D01*
X3378928Y-19888690D02*
X3388452Y-19879167D01*
X3407500Y-19869643D01*
X3436071Y-19869643D01*
X3455119Y-19879167D01*
X3464643Y-19898214D01*
X3464643Y-20002976D01*
X3464643Y-19898214D02*
X3474167Y-19879167D01*
X3493214Y-19869643D01*
X3521786Y-19869643D01*
X3540833Y-19879167D01*
X3550357Y-19898214D01*
X3550357Y-20002976D01*
X3940833Y-19793452D02*
X3769405Y-20050595D01*
X4197976Y-19802976D02*
X4217024Y-19802976D01*
X4236071Y-19812500D01*
X4245595Y-19822024D01*
X4255119Y-19841071D01*
X4264643Y-19879167D01*
X4264643Y-19926786D01*
X4255119Y-19964881D01*
X4245595Y-19983929D01*
X4236071Y-19993452D01*
X4217024Y-20002976D01*
X4197976Y-20002976D01*
X4178928Y-19993452D01*
X4169405Y-19983929D01*
X4159881Y-19964881D01*
X4150357Y-19926786D01*
X4150357Y-19879167D01*
X4159881Y-19841071D01*
X4169405Y-19822024D01*
X4178928Y-19812500D01*
X4197976Y-19802976D01*
X4350357Y-19983929D02*
X4359881Y-19993452D01*
X4350357Y-20002976D01*
X4340833Y-19993452D01*
X4350357Y-19983929D01*
X4350357Y-20002976D01*
X4483690Y-19802976D02*
X4502738Y-19802976D01*
X4521786Y-19812500D01*
X4531310Y-19822024D01*
X4540833Y-19841071D01*
X4550357Y-19879167D01*
X4550357Y-19926786D01*
X4540833Y-19964881D01*
X4531310Y-19983929D01*
X4521786Y-19993452D01*
X4502738Y-20002976D01*
X4483690Y-20002976D01*
X4464643Y-19993452D01*
X4455119Y-19983929D01*
X4445595Y-19964881D01*
X4436071Y-19926786D01*
X4436071Y-19879167D01*
X4445595Y-19841071D01*
X4455119Y-19822024D01*
X4464643Y-19812500D01*
X4483690Y-19802976D01*
X4617024Y-19802976D02*
X4750357Y-19802976D01*
X4664643Y-20002976D01*
X4864643Y-19802976D02*
X4883690Y-19802976D01*
X4902738Y-19812500D01*
X4912262Y-19822024D01*
X4921786Y-19841071D01*
X4931310Y-19879167D01*
X4931310Y-19926786D01*
X4921786Y-19964881D01*
X4912262Y-19983929D01*
X4902738Y-19993452D01*
X4883690Y-20002976D01*
X4864643Y-20002976D01*
X4845595Y-19993452D01*
X4836071Y-19983929D01*
X4826548Y-19964881D01*
X4817024Y-19926786D01*
X4817024Y-19879167D01*
X4826548Y-19841071D01*
X4836071Y-19822024D01*
X4845595Y-19812500D01*
X4864643Y-19802976D01*
X5026548Y-20002976D02*
X5064643Y-20002976D01*
X5083690Y-19993452D01*
X5093214Y-19983929D01*
X5112262Y-19955357D01*
X5121786Y-19917262D01*
X5121786Y-19841071D01*
X5112262Y-19822024D01*
X5102738Y-19812500D01*
X5083690Y-19802976D01*
X5045595Y-19802976D01*
X5026548Y-19812500D01*
X5017024Y-19822024D01*
X5007500Y-19841071D01*
X5007500Y-19888690D01*
X5017024Y-19907738D01*
X5026548Y-19917262D01*
X5045595Y-19926786D01*
X5083690Y-19926786D01*
X5102738Y-19917262D01*
X5112262Y-19907738D01*
X5121786Y-19888690D01*
X5197976Y-19802976D02*
X5197976Y-19841071D01*
X5274167Y-19802976D02*
X5274167Y-19841071D01*
X5569405Y-20079167D02*
X5559881Y-20069643D01*
X5540833Y-20041071D01*
X5531310Y-20022024D01*
X5521786Y-19993452D01*
X5512262Y-19945833D01*
X5512262Y-19907738D01*
X5521786Y-19860119D01*
X5531310Y-19831548D01*
X5540833Y-19812500D01*
X5559881Y-19783929D01*
X5569405Y-19774405D01*
X5636071Y-19822024D02*
X5645595Y-19812500D01*
X5664643Y-19802976D01*
X5712262Y-19802976D01*
X5731309Y-19812500D01*
X5740833Y-19822024D01*
X5750357Y-19841071D01*
X5750357Y-19860119D01*
X5740833Y-19888690D01*
X5626548Y-20002976D01*
X5750357Y-20002976D01*
X5988452Y-20002976D02*
X5988452Y-19802976D01*
X6074167Y-20002976D02*
X6074167Y-19898214D01*
X6064643Y-19879167D01*
X6045595Y-19869643D01*
X6017024Y-19869643D01*
X5997976Y-19879167D01*
X5988452Y-19888690D01*
X6197976Y-20002976D02*
X6178928Y-19993452D01*
X6169405Y-19983929D01*
X6159881Y-19964881D01*
X6159881Y-19907738D01*
X6169405Y-19888690D01*
X6178928Y-19879167D01*
X6197976Y-19869643D01*
X6226548Y-19869643D01*
X6245595Y-19879167D01*
X6255119Y-19888690D01*
X6264643Y-19907738D01*
X6264643Y-19964881D01*
X6255119Y-19983929D01*
X6245595Y-19993452D01*
X6226548Y-20002976D01*
X6197976Y-20002976D01*
X6378928Y-20002976D02*
X6359881Y-19993452D01*
X6350357Y-19974405D01*
X6350357Y-19802976D01*
X6531309Y-19993452D02*
X6512262Y-20002976D01*
X6474167Y-20002976D01*
X6455119Y-19993452D01*
X6445595Y-19974405D01*
X6445595Y-19898214D01*
X6455119Y-19879167D01*
X6474167Y-19869643D01*
X6512262Y-19869643D01*
X6531309Y-19879167D01*
X6540833Y-19898214D01*
X6540833Y-19917262D01*
X6445595Y-19936310D01*
X6617024Y-19993452D02*
X6636071Y-20002976D01*
X6674167Y-20002976D01*
X6693214Y-19993452D01*
X6702738Y-19974405D01*
X6702738Y-19964881D01*
X6693214Y-19945833D01*
X6674167Y-19936310D01*
X6645595Y-19936310D01*
X6626548Y-19926786D01*
X6617024Y-19907738D01*
X6617024Y-19898214D01*
X6626548Y-19879167D01*
X6645595Y-19869643D01*
X6674167Y-19869643D01*
X6693214Y-19879167D01*
X6769405Y-20079167D02*
X6778928Y-20069643D01*
X6797976Y-20041071D01*
X6807500Y-20022024D01*
X6817024Y-19993452D01*
X6826548Y-19945833D01*
X6826548Y-19907738D01*
X6817024Y-19860119D01*
X6807500Y-19831548D01*
X6797976Y-19812500D01*
X6778928Y-19783929D01*
X6769405Y-19774405D01*
X7131309Y-20079167D02*
X7121786Y-20069643D01*
X7102738Y-20041071D01*
X7093214Y-20022024D01*
X7083690Y-19993452D01*
X7074167Y-19945833D01*
X7074167Y-19907738D01*
X7083690Y-19860119D01*
X7093214Y-19831548D01*
X7102738Y-19812500D01*
X7121786Y-19783929D01*
X7131309Y-19774405D01*
X7207500Y-19869643D02*
X7207500Y-20002976D01*
X7207500Y-19888690D02*
X7217024Y-19879167D01*
X7236071Y-19869643D01*
X7264643Y-19869643D01*
X7283690Y-19879167D01*
X7293214Y-19898214D01*
X7293214Y-20002976D01*
X7417024Y-20002976D02*
X7397976Y-19993452D01*
X7388452Y-19983929D01*
X7378928Y-19964881D01*
X7378928Y-19907738D01*
X7388452Y-19888690D01*
X7397976Y-19879167D01*
X7417024Y-19869643D01*
X7445595Y-19869643D01*
X7464643Y-19879167D01*
X7474167Y-19888690D01*
X7483690Y-19907738D01*
X7483690Y-19964881D01*
X7474167Y-19983929D01*
X7464643Y-19993452D01*
X7445595Y-20002976D01*
X7417024Y-20002976D01*
X7540833Y-19869643D02*
X7617024Y-19869643D01*
X7569405Y-19802976D02*
X7569405Y-19974405D01*
X7578928Y-19993452D01*
X7597976Y-20002976D01*
X7617024Y-20002976D01*
X7836071Y-19869643D02*
X7836071Y-20069643D01*
X7836071Y-19879167D02*
X7855119Y-19869643D01*
X7893214Y-19869643D01*
X7912262Y-19879167D01*
X7921786Y-19888690D01*
X7931309Y-19907738D01*
X7931309Y-19964881D01*
X7921786Y-19983929D01*
X7912262Y-19993452D01*
X7893214Y-20002976D01*
X7855119Y-20002976D01*
X7836071Y-19993452D01*
X8045595Y-20002976D02*
X8026548Y-19993452D01*
X8017024Y-19974405D01*
X8017024Y-19802976D01*
X8207500Y-20002976D02*
X8207500Y-19898214D01*
X8197976Y-19879167D01*
X8178928Y-19869643D01*
X8140833Y-19869643D01*
X8121786Y-19879167D01*
X8207500Y-19993452D02*
X8188452Y-20002976D01*
X8140833Y-20002976D01*
X8121786Y-19993452D01*
X8112262Y-19974405D01*
X8112262Y-19955357D01*
X8121786Y-19936310D01*
X8140833Y-19926786D01*
X8188452Y-19926786D01*
X8207500Y-19917262D01*
X8274167Y-19869643D02*
X8350357Y-19869643D01*
X8302738Y-19802976D02*
X8302738Y-19974405D01*
X8312262Y-19993452D01*
X8331309Y-20002976D01*
X8350357Y-20002976D01*
X8493214Y-19993452D02*
X8474167Y-20002976D01*
X8436071Y-20002976D01*
X8417024Y-19993452D01*
X8407500Y-19974405D01*
X8407500Y-19898214D01*
X8417024Y-19879167D01*
X8436071Y-19869643D01*
X8474167Y-19869643D01*
X8493214Y-19879167D01*
X8502738Y-19898214D01*
X8502738Y-19917262D01*
X8407500Y-19936310D01*
X8674167Y-20002976D02*
X8674167Y-19802976D01*
X8674167Y-19993452D02*
X8655119Y-20002976D01*
X8617024Y-20002976D01*
X8597976Y-19993452D01*
X8588452Y-19983929D01*
X8578929Y-19964881D01*
X8578929Y-19907738D01*
X8588452Y-19888690D01*
X8597976Y-19879167D01*
X8617024Y-19869643D01*
X8655119Y-19869643D01*
X8674167Y-19879167D01*
X8750357Y-20079167D02*
X8759881Y-20069643D01*
X8778929Y-20041071D01*
X8788452Y-20022024D01*
X8797976Y-19993452D01*
X8807500Y-19945833D01*
X8807500Y-19907738D01*
X8797976Y-19860119D01*
X8788452Y-19831548D01*
X8778929Y-19812500D01*
X8759881Y-19783929D01*
X8750357Y-19774405D01*
X1897500Y-20112500D02*
X1897500Y-20312500D01*
X1797500Y-20212500D02*
X1997500Y-20212500D01*
X2245595Y-20122024D02*
X2255119Y-20112500D01*
X2274167Y-20102976D01*
X2321786Y-20102976D01*
X2340833Y-20112500D01*
X2350357Y-20122024D01*
X2359881Y-20141071D01*
X2359881Y-20160119D01*
X2350357Y-20188690D01*
X2236071Y-20302976D01*
X2359881Y-20302976D01*
X2445595Y-20283929D02*
X2455119Y-20293452D01*
X2445595Y-20302976D01*
X2436071Y-20293452D01*
X2445595Y-20283929D01*
X2445595Y-20302976D01*
X2521786Y-20102976D02*
X2655119Y-20102976D01*
X2569405Y-20302976D01*
X2826548Y-20102976D02*
X2731310Y-20102976D01*
X2721786Y-20198214D01*
X2731310Y-20188690D01*
X2750357Y-20179167D01*
X2797976Y-20179167D01*
X2817024Y-20188690D01*
X2826548Y-20198214D01*
X2836071Y-20217262D01*
X2836071Y-20264881D01*
X2826548Y-20283929D01*
X2817024Y-20293452D01*
X2797976Y-20302976D01*
X2750357Y-20302976D01*
X2731310Y-20293452D01*
X2721786Y-20283929D01*
X2959881Y-20102976D02*
X2978928Y-20102976D01*
X2997976Y-20112500D01*
X3007500Y-20122024D01*
X3017024Y-20141071D01*
X3026548Y-20179167D01*
X3026548Y-20226786D01*
X3017024Y-20264881D01*
X3007500Y-20283929D01*
X2997976Y-20293452D01*
X2978928Y-20302976D01*
X2959881Y-20302976D01*
X2940833Y-20293452D01*
X2931309Y-20283929D01*
X2921786Y-20264881D01*
X2912262Y-20226786D01*
X2912262Y-20179167D01*
X2921786Y-20141071D01*
X2931309Y-20122024D01*
X2940833Y-20112500D01*
X2959881Y-20102976D01*
X3112262Y-20302976D02*
X3112262Y-20169643D01*
X3112262Y-20188690D02*
X3121786Y-20179167D01*
X3140833Y-20169643D01*
X3169405Y-20169643D01*
X3188452Y-20179167D01*
X3197976Y-20198214D01*
X3197976Y-20302976D01*
X3197976Y-20198214D02*
X3207500Y-20179167D01*
X3226548Y-20169643D01*
X3255119Y-20169643D01*
X3274167Y-20179167D01*
X3283690Y-20198214D01*
X3283690Y-20302976D01*
X3378928Y-20302976D02*
X3378928Y-20169643D01*
X3378928Y-20188690D02*
X3388452Y-20179167D01*
X3407500Y-20169643D01*
X3436071Y-20169643D01*
X3455119Y-20179167D01*
X3464643Y-20198214D01*
X3464643Y-20302976D01*
X3464643Y-20198214D02*
X3474167Y-20179167D01*
X3493214Y-20169643D01*
X3521786Y-20169643D01*
X3540833Y-20179167D01*
X3550357Y-20198214D01*
X3550357Y-20302976D01*
X3940833Y-20093452D02*
X3769405Y-20350595D01*
X4197976Y-20102976D02*
X4217024Y-20102976D01*
X4236071Y-20112500D01*
X4245595Y-20122024D01*
X4255119Y-20141071D01*
X4264643Y-20179167D01*
X4264643Y-20226786D01*
X4255119Y-20264881D01*
X4245595Y-20283929D01*
X4236071Y-20293452D01*
X4217024Y-20302976D01*
X4197976Y-20302976D01*
X4178928Y-20293452D01*
X4169405Y-20283929D01*
X4159881Y-20264881D01*
X4150357Y-20226786D01*
X4150357Y-20179167D01*
X4159881Y-20141071D01*
X4169405Y-20122024D01*
X4178928Y-20112500D01*
X4197976Y-20102976D01*
X4350357Y-20283929D02*
X4359881Y-20293452D01*
X4350357Y-20302976D01*
X4340833Y-20293452D01*
X4350357Y-20283929D01*
X4350357Y-20302976D01*
X4550357Y-20302976D02*
X4436071Y-20302976D01*
X4493214Y-20302976D02*
X4493214Y-20102976D01*
X4474167Y-20131548D01*
X4455119Y-20150595D01*
X4436071Y-20160119D01*
X4674167Y-20102976D02*
X4693214Y-20102976D01*
X4712262Y-20112500D01*
X4721786Y-20122024D01*
X4731310Y-20141071D01*
X4740833Y-20179167D01*
X4740833Y-20226786D01*
X4731310Y-20264881D01*
X4721786Y-20283929D01*
X4712262Y-20293452D01*
X4693214Y-20302976D01*
X4674167Y-20302976D01*
X4655119Y-20293452D01*
X4645595Y-20283929D01*
X4636071Y-20264881D01*
X4626548Y-20226786D01*
X4626548Y-20179167D01*
X4636071Y-20141071D01*
X4645595Y-20122024D01*
X4655119Y-20112500D01*
X4674167Y-20102976D01*
X4855119Y-20188690D02*
X4836071Y-20179167D01*
X4826548Y-20169643D01*
X4817024Y-20150595D01*
X4817024Y-20141071D01*
X4826548Y-20122024D01*
X4836071Y-20112500D01*
X4855119Y-20102976D01*
X4893214Y-20102976D01*
X4912262Y-20112500D01*
X4921786Y-20122024D01*
X4931310Y-20141071D01*
X4931310Y-20150595D01*
X4921786Y-20169643D01*
X4912262Y-20179167D01*
X4893214Y-20188690D01*
X4855119Y-20188690D01*
X4836071Y-20198214D01*
X4826548Y-20207738D01*
X4817024Y-20226786D01*
X4817024Y-20264881D01*
X4826548Y-20283929D01*
X4836071Y-20293452D01*
X4855119Y-20302976D01*
X4893214Y-20302976D01*
X4912262Y-20293452D01*
X4921786Y-20283929D01*
X4931310Y-20264881D01*
X4931310Y-20226786D01*
X4921786Y-20207738D01*
X4912262Y-20198214D01*
X4893214Y-20188690D01*
X4997976Y-20102976D02*
X5121786Y-20102976D01*
X5055119Y-20179167D01*
X5083690Y-20179167D01*
X5102738Y-20188690D01*
X5112262Y-20198214D01*
X5121786Y-20217262D01*
X5121786Y-20264881D01*
X5112262Y-20283929D01*
X5102738Y-20293452D01*
X5083690Y-20302976D01*
X5026548Y-20302976D01*
X5007500Y-20293452D01*
X4997976Y-20283929D01*
X5197976Y-20102976D02*
X5197976Y-20141071D01*
X5274167Y-20102976D02*
X5274167Y-20141071D01*
X5569405Y-20379167D02*
X5559881Y-20369643D01*
X5540833Y-20341071D01*
X5531310Y-20322024D01*
X5521786Y-20293452D01*
X5512262Y-20245833D01*
X5512262Y-20207738D01*
X5521786Y-20160119D01*
X5531310Y-20131548D01*
X5540833Y-20112500D01*
X5559881Y-20083929D01*
X5569405Y-20074405D01*
X5731309Y-20169643D02*
X5731309Y-20302976D01*
X5683690Y-20093452D02*
X5636071Y-20236310D01*
X5759881Y-20236310D01*
X5988452Y-20302976D02*
X5988452Y-20102976D01*
X6074167Y-20302976D02*
X6074167Y-20198214D01*
X6064643Y-20179167D01*
X6045595Y-20169643D01*
X6017024Y-20169643D01*
X5997976Y-20179167D01*
X5988452Y-20188690D01*
X6197976Y-20302976D02*
X6178928Y-20293452D01*
X6169405Y-20283929D01*
X6159881Y-20264881D01*
X6159881Y-20207738D01*
X6169405Y-20188690D01*
X6178928Y-20179167D01*
X6197976Y-20169643D01*
X6226548Y-20169643D01*
X6245595Y-20179167D01*
X6255119Y-20188690D01*
X6264643Y-20207738D01*
X6264643Y-20264881D01*
X6255119Y-20283929D01*
X6245595Y-20293452D01*
X6226548Y-20302976D01*
X6197976Y-20302976D01*
X6378928Y-20302976D02*
X6359881Y-20293452D01*
X6350357Y-20274405D01*
X6350357Y-20102976D01*
X6531309Y-20293452D02*
X6512262Y-20302976D01*
X6474167Y-20302976D01*
X6455119Y-20293452D01*
X6445595Y-20274405D01*
X6445595Y-20198214D01*
X6455119Y-20179167D01*
X6474167Y-20169643D01*
X6512262Y-20169643D01*
X6531309Y-20179167D01*
X6540833Y-20198214D01*
X6540833Y-20217262D01*
X6445595Y-20236310D01*
X6617024Y-20293452D02*
X6636071Y-20302976D01*
X6674167Y-20302976D01*
X6693214Y-20293452D01*
X6702738Y-20274405D01*
X6702738Y-20264881D01*
X6693214Y-20245833D01*
X6674167Y-20236310D01*
X6645595Y-20236310D01*
X6626548Y-20226786D01*
X6617024Y-20207738D01*
X6617024Y-20198214D01*
X6626548Y-20179167D01*
X6645595Y-20169643D01*
X6674167Y-20169643D01*
X6693214Y-20179167D01*
X6769405Y-20379167D02*
X6778928Y-20369643D01*
X6797976Y-20341071D01*
X6807500Y-20322024D01*
X6817024Y-20293452D01*
X6826548Y-20245833D01*
X6826548Y-20207738D01*
X6817024Y-20160119D01*
X6807500Y-20131548D01*
X6797976Y-20112500D01*
X6778928Y-20083929D01*
X6769405Y-20074405D01*
X7131309Y-20379167D02*
X7121786Y-20369643D01*
X7102738Y-20341071D01*
X7093214Y-20322024D01*
X7083690Y-20293452D01*
X7074167Y-20245833D01*
X7074167Y-20207738D01*
X7083690Y-20160119D01*
X7093214Y-20131548D01*
X7102738Y-20112500D01*
X7121786Y-20083929D01*
X7131309Y-20074405D01*
X7207500Y-20169643D02*
X7207500Y-20302976D01*
X7207500Y-20188690D02*
X7217024Y-20179167D01*
X7236071Y-20169643D01*
X7264643Y-20169643D01*
X7283690Y-20179167D01*
X7293214Y-20198214D01*
X7293214Y-20302976D01*
X7417024Y-20302976D02*
X7397976Y-20293452D01*
X7388452Y-20283929D01*
X7378928Y-20264881D01*
X7378928Y-20207738D01*
X7388452Y-20188690D01*
X7397976Y-20179167D01*
X7417024Y-20169643D01*
X7445595Y-20169643D01*
X7464643Y-20179167D01*
X7474167Y-20188690D01*
X7483690Y-20207738D01*
X7483690Y-20264881D01*
X7474167Y-20283929D01*
X7464643Y-20293452D01*
X7445595Y-20302976D01*
X7417024Y-20302976D01*
X7540833Y-20169643D02*
X7617024Y-20169643D01*
X7569405Y-20102976D02*
X7569405Y-20274405D01*
X7578928Y-20293452D01*
X7597976Y-20302976D01*
X7617024Y-20302976D01*
X7836071Y-20169643D02*
X7836071Y-20369643D01*
X7836071Y-20179167D02*
X7855119Y-20169643D01*
X7893214Y-20169643D01*
X7912262Y-20179167D01*
X7921786Y-20188690D01*
X7931309Y-20207738D01*
X7931309Y-20264881D01*
X7921786Y-20283929D01*
X7912262Y-20293452D01*
X7893214Y-20302976D01*
X7855119Y-20302976D01*
X7836071Y-20293452D01*
X8045595Y-20302976D02*
X8026548Y-20293452D01*
X8017024Y-20274405D01*
X8017024Y-20102976D01*
X8207500Y-20302976D02*
X8207500Y-20198214D01*
X8197976Y-20179167D01*
X8178928Y-20169643D01*
X8140833Y-20169643D01*
X8121786Y-20179167D01*
X8207500Y-20293452D02*
X8188452Y-20302976D01*
X8140833Y-20302976D01*
X8121786Y-20293452D01*
X8112262Y-20274405D01*
X8112262Y-20255357D01*
X8121786Y-20236310D01*
X8140833Y-20226786D01*
X8188452Y-20226786D01*
X8207500Y-20217262D01*
X8274167Y-20169643D02*
X8350357Y-20169643D01*
X8302738Y-20102976D02*
X8302738Y-20274405D01*
X8312262Y-20293452D01*
X8331309Y-20302976D01*
X8350357Y-20302976D01*
X8493214Y-20293452D02*
X8474167Y-20302976D01*
X8436071Y-20302976D01*
X8417024Y-20293452D01*
X8407500Y-20274405D01*
X8407500Y-20198214D01*
X8417024Y-20179167D01*
X8436071Y-20169643D01*
X8474167Y-20169643D01*
X8493214Y-20179167D01*
X8502738Y-20198214D01*
X8502738Y-20217262D01*
X8407500Y-20236310D01*
X8674167Y-20302976D02*
X8674167Y-20102976D01*
X8674167Y-20293452D02*
X8655119Y-20302976D01*
X8617024Y-20302976D01*
X8597976Y-20293452D01*
X8588452Y-20283929D01*
X8578929Y-20264881D01*
X8578929Y-20207738D01*
X8588452Y-20188690D01*
X8597976Y-20179167D01*
X8617024Y-20169643D01*
X8655119Y-20169643D01*
X8674167Y-20179167D01*
X8750357Y-20379167D02*
X8759881Y-20369643D01*
X8778929Y-20341071D01*
X8788452Y-20322024D01*
X8797976Y-20293452D01*
X8807500Y-20245833D01*
X8807500Y-20207738D01*
X8797976Y-20160119D01*
X8788452Y-20131548D01*
X8778929Y-20112500D01*
X8759881Y-20083929D01*
X8750357Y-20074405D01*
X1968211Y-20603211D02*
X1968211Y-20461789D01*
X1826789Y-20461789D01*
X1826789Y-20603211D01*
X1968211Y-20603211D01*
X2236071Y-20422976D02*
X2359881Y-20422976D01*
X2293214Y-20499167D01*
X2321786Y-20499167D01*
X2340833Y-20508690D01*
X2350357Y-20518214D01*
X2359881Y-20537262D01*
X2359881Y-20584881D01*
X2350357Y-20603929D01*
X2340833Y-20613452D01*
X2321786Y-20622976D01*
X2264643Y-20622976D01*
X2245595Y-20613452D01*
X2236071Y-20603929D01*
X2445595Y-20603929D02*
X2455119Y-20613452D01*
X2445595Y-20622976D01*
X2436071Y-20613452D01*
X2445595Y-20603929D01*
X2445595Y-20622976D01*
X2636071Y-20422976D02*
X2540833Y-20422976D01*
X2531310Y-20518214D01*
X2540833Y-20508690D01*
X2559881Y-20499167D01*
X2607500Y-20499167D01*
X2626548Y-20508690D01*
X2636071Y-20518214D01*
X2645595Y-20537262D01*
X2645595Y-20584881D01*
X2636071Y-20603929D01*
X2626548Y-20613452D01*
X2607500Y-20622976D01*
X2559881Y-20622976D01*
X2540833Y-20613452D01*
X2531310Y-20603929D01*
X2769405Y-20422976D02*
X2788452Y-20422976D01*
X2807500Y-20432500D01*
X2817024Y-20442024D01*
X2826548Y-20461071D01*
X2836071Y-20499167D01*
X2836071Y-20546786D01*
X2826548Y-20584881D01*
X2817024Y-20603929D01*
X2807500Y-20613452D01*
X2788452Y-20622976D01*
X2769405Y-20622976D01*
X2750357Y-20613452D01*
X2740833Y-20603929D01*
X2731310Y-20584881D01*
X2721786Y-20546786D01*
X2721786Y-20499167D01*
X2731310Y-20461071D01*
X2740833Y-20442024D01*
X2750357Y-20432500D01*
X2769405Y-20422976D01*
X2959881Y-20422976D02*
X2978928Y-20422976D01*
X2997976Y-20432500D01*
X3007500Y-20442024D01*
X3017024Y-20461071D01*
X3026548Y-20499167D01*
X3026548Y-20546786D01*
X3017024Y-20584881D01*
X3007500Y-20603929D01*
X2997976Y-20613452D01*
X2978928Y-20622976D01*
X2959881Y-20622976D01*
X2940833Y-20613452D01*
X2931309Y-20603929D01*
X2921786Y-20584881D01*
X2912262Y-20546786D01*
X2912262Y-20499167D01*
X2921786Y-20461071D01*
X2931309Y-20442024D01*
X2940833Y-20432500D01*
X2959881Y-20422976D01*
X3112262Y-20622976D02*
X3112262Y-20489643D01*
X3112262Y-20508690D02*
X3121786Y-20499167D01*
X3140833Y-20489643D01*
X3169405Y-20489643D01*
X3188452Y-20499167D01*
X3197976Y-20518214D01*
X3197976Y-20622976D01*
X3197976Y-20518214D02*
X3207500Y-20499167D01*
X3226548Y-20489643D01*
X3255119Y-20489643D01*
X3274167Y-20499167D01*
X3283690Y-20518214D01*
X3283690Y-20622976D01*
X3378928Y-20622976D02*
X3378928Y-20489643D01*
X3378928Y-20508690D02*
X3388452Y-20499167D01*
X3407500Y-20489643D01*
X3436071Y-20489643D01*
X3455119Y-20499167D01*
X3464643Y-20518214D01*
X3464643Y-20622976D01*
X3464643Y-20518214D02*
X3474167Y-20499167D01*
X3493214Y-20489643D01*
X3521786Y-20489643D01*
X3540833Y-20499167D01*
X3550357Y-20518214D01*
X3550357Y-20622976D01*
X3940833Y-20413452D02*
X3769405Y-20670595D01*
X4197976Y-20422976D02*
X4217024Y-20422976D01*
X4236071Y-20432500D01*
X4245595Y-20442024D01*
X4255119Y-20461071D01*
X4264643Y-20499167D01*
X4264643Y-20546786D01*
X4255119Y-20584881D01*
X4245595Y-20603929D01*
X4236071Y-20613452D01*
X4217024Y-20622976D01*
X4197976Y-20622976D01*
X4178928Y-20613452D01*
X4169405Y-20603929D01*
X4159881Y-20584881D01*
X4150357Y-20546786D01*
X4150357Y-20499167D01*
X4159881Y-20461071D01*
X4169405Y-20442024D01*
X4178928Y-20432500D01*
X4197976Y-20422976D01*
X4350357Y-20603929D02*
X4359881Y-20613452D01*
X4350357Y-20622976D01*
X4340833Y-20613452D01*
X4350357Y-20603929D01*
X4350357Y-20622976D01*
X4550357Y-20622976D02*
X4436071Y-20622976D01*
X4493214Y-20622976D02*
X4493214Y-20422976D01*
X4474167Y-20451548D01*
X4455119Y-20470595D01*
X4436071Y-20480119D01*
X4617024Y-20422976D02*
X4740833Y-20422976D01*
X4674167Y-20499167D01*
X4702738Y-20499167D01*
X4721786Y-20508690D01*
X4731310Y-20518214D01*
X4740833Y-20537262D01*
X4740833Y-20584881D01*
X4731310Y-20603929D01*
X4721786Y-20613452D01*
X4702738Y-20622976D01*
X4645595Y-20622976D01*
X4626548Y-20613452D01*
X4617024Y-20603929D01*
X4807500Y-20422976D02*
X4940833Y-20422976D01*
X4855119Y-20622976D01*
X5045595Y-20508690D02*
X5026548Y-20499167D01*
X5017024Y-20489643D01*
X5007500Y-20470595D01*
X5007500Y-20461071D01*
X5017024Y-20442024D01*
X5026548Y-20432500D01*
X5045595Y-20422976D01*
X5083690Y-20422976D01*
X5102738Y-20432500D01*
X5112262Y-20442024D01*
X5121786Y-20461071D01*
X5121786Y-20470595D01*
X5112262Y-20489643D01*
X5102738Y-20499167D01*
X5083690Y-20508690D01*
X5045595Y-20508690D01*
X5026548Y-20518214D01*
X5017024Y-20527738D01*
X5007500Y-20546786D01*
X5007500Y-20584881D01*
X5017024Y-20603929D01*
X5026548Y-20613452D01*
X5045595Y-20622976D01*
X5083690Y-20622976D01*
X5102738Y-20613452D01*
X5112262Y-20603929D01*
X5121786Y-20584881D01*
X5121786Y-20546786D01*
X5112262Y-20527738D01*
X5102738Y-20518214D01*
X5083690Y-20508690D01*
X5197976Y-20422976D02*
X5197976Y-20461071D01*
X5274167Y-20422976D02*
X5274167Y-20461071D01*
X5569405Y-20699167D02*
X5559881Y-20689643D01*
X5540833Y-20661071D01*
X5531310Y-20642024D01*
X5521786Y-20613452D01*
X5512262Y-20565833D01*
X5512262Y-20527738D01*
X5521786Y-20480119D01*
X5531310Y-20451548D01*
X5540833Y-20432500D01*
X5559881Y-20403929D01*
X5569405Y-20394405D01*
X5731309Y-20489643D02*
X5731309Y-20622976D01*
X5683690Y-20413452D02*
X5636071Y-20556310D01*
X5759881Y-20556310D01*
X5988452Y-20622976D02*
X5988452Y-20422976D01*
X6074167Y-20622976D02*
X6074167Y-20518214D01*
X6064643Y-20499167D01*
X6045595Y-20489643D01*
X6017024Y-20489643D01*
X5997976Y-20499167D01*
X5988452Y-20508690D01*
X6197976Y-20622976D02*
X6178928Y-20613452D01*
X6169405Y-20603929D01*
X6159881Y-20584881D01*
X6159881Y-20527738D01*
X6169405Y-20508690D01*
X6178928Y-20499167D01*
X6197976Y-20489643D01*
X6226548Y-20489643D01*
X6245595Y-20499167D01*
X6255119Y-20508690D01*
X6264643Y-20527738D01*
X6264643Y-20584881D01*
X6255119Y-20603929D01*
X6245595Y-20613452D01*
X6226548Y-20622976D01*
X6197976Y-20622976D01*
X6378928Y-20622976D02*
X6359881Y-20613452D01*
X6350357Y-20594405D01*
X6350357Y-20422976D01*
X6531309Y-20613452D02*
X6512262Y-20622976D01*
X6474167Y-20622976D01*
X6455119Y-20613452D01*
X6445595Y-20594405D01*
X6445595Y-20518214D01*
X6455119Y-20499167D01*
X6474167Y-20489643D01*
X6512262Y-20489643D01*
X6531309Y-20499167D01*
X6540833Y-20518214D01*
X6540833Y-20537262D01*
X6445595Y-20556310D01*
X6617024Y-20613452D02*
X6636071Y-20622976D01*
X6674167Y-20622976D01*
X6693214Y-20613452D01*
X6702738Y-20594405D01*
X6702738Y-20584881D01*
X6693214Y-20565833D01*
X6674167Y-20556310D01*
X6645595Y-20556310D01*
X6626548Y-20546786D01*
X6617024Y-20527738D01*
X6617024Y-20518214D01*
X6626548Y-20499167D01*
X6645595Y-20489643D01*
X6674167Y-20489643D01*
X6693214Y-20499167D01*
X6769405Y-20699167D02*
X6778928Y-20689643D01*
X6797976Y-20661071D01*
X6807500Y-20642024D01*
X6817024Y-20613452D01*
X6826548Y-20565833D01*
X6826548Y-20527738D01*
X6817024Y-20480119D01*
X6807500Y-20451548D01*
X6797976Y-20432500D01*
X6778928Y-20403929D01*
X6769405Y-20394405D01*
X7131309Y-20699167D02*
X7121786Y-20689643D01*
X7102738Y-20661071D01*
X7093214Y-20642024D01*
X7083690Y-20613452D01*
X7074167Y-20565833D01*
X7074167Y-20527738D01*
X7083690Y-20480119D01*
X7093214Y-20451548D01*
X7102738Y-20432500D01*
X7121786Y-20403929D01*
X7131309Y-20394405D01*
X7207500Y-20489643D02*
X7207500Y-20622976D01*
X7207500Y-20508690D02*
X7217024Y-20499167D01*
X7236071Y-20489643D01*
X7264643Y-20489643D01*
X7283690Y-20499167D01*
X7293214Y-20518214D01*
X7293214Y-20622976D01*
X7417024Y-20622976D02*
X7397976Y-20613452D01*
X7388452Y-20603929D01*
X7378928Y-20584881D01*
X7378928Y-20527738D01*
X7388452Y-20508690D01*
X7397976Y-20499167D01*
X7417024Y-20489643D01*
X7445595Y-20489643D01*
X7464643Y-20499167D01*
X7474167Y-20508690D01*
X7483690Y-20527738D01*
X7483690Y-20584881D01*
X7474167Y-20603929D01*
X7464643Y-20613452D01*
X7445595Y-20622976D01*
X7417024Y-20622976D01*
X7540833Y-20489643D02*
X7617024Y-20489643D01*
X7569405Y-20422976D02*
X7569405Y-20594405D01*
X7578928Y-20613452D01*
X7597976Y-20622976D01*
X7617024Y-20622976D01*
X7836071Y-20489643D02*
X7836071Y-20689643D01*
X7836071Y-20499167D02*
X7855119Y-20489643D01*
X7893214Y-20489643D01*
X7912262Y-20499167D01*
X7921786Y-20508690D01*
X7931309Y-20527738D01*
X7931309Y-20584881D01*
X7921786Y-20603929D01*
X7912262Y-20613452D01*
X7893214Y-20622976D01*
X7855119Y-20622976D01*
X7836071Y-20613452D01*
X8045595Y-20622976D02*
X8026548Y-20613452D01*
X8017024Y-20594405D01*
X8017024Y-20422976D01*
X8207500Y-20622976D02*
X8207500Y-20518214D01*
X8197976Y-20499167D01*
X8178928Y-20489643D01*
X8140833Y-20489643D01*
X8121786Y-20499167D01*
X8207500Y-20613452D02*
X8188452Y-20622976D01*
X8140833Y-20622976D01*
X8121786Y-20613452D01*
X8112262Y-20594405D01*
X8112262Y-20575357D01*
X8121786Y-20556310D01*
X8140833Y-20546786D01*
X8188452Y-20546786D01*
X8207500Y-20537262D01*
X8274167Y-20489643D02*
X8350357Y-20489643D01*
X8302738Y-20422976D02*
X8302738Y-20594405D01*
X8312262Y-20613452D01*
X8331309Y-20622976D01*
X8350357Y-20622976D01*
X8493214Y-20613452D02*
X8474167Y-20622976D01*
X8436071Y-20622976D01*
X8417024Y-20613452D01*
X8407500Y-20594405D01*
X8407500Y-20518214D01*
X8417024Y-20499167D01*
X8436071Y-20489643D01*
X8474167Y-20489643D01*
X8493214Y-20499167D01*
X8502738Y-20518214D01*
X8502738Y-20537262D01*
X8407500Y-20556310D01*
X8674167Y-20622976D02*
X8674167Y-20422976D01*
X8674167Y-20613452D02*
X8655119Y-20622976D01*
X8617024Y-20622976D01*
X8597976Y-20613452D01*
X8588452Y-20603929D01*
X8578929Y-20584881D01*
X8578929Y-20527738D01*
X8588452Y-20508690D01*
X8597976Y-20499167D01*
X8617024Y-20489643D01*
X8655119Y-20489643D01*
X8674167Y-20499167D01*
X8750357Y-20699167D02*
X8759881Y-20689643D01*
X8778929Y-20661071D01*
X8788452Y-20642024D01*
X8797976Y-20613452D01*
X8807500Y-20565833D01*
X8807500Y-20527738D01*
X8797976Y-20480119D01*
X8788452Y-20451548D01*
X8778929Y-20432500D01*
X8759881Y-20403929D01*
X8750357Y-20394405D01*
M02*
