%TF.GenerationSoftware,KiCad,Pcbnew,(6.0.1)*%
%TF.CreationDate,2022-04-09T13:05:06+02:00*%
%TF.ProjectId,OpenMowerMainboard,4f70656e-4d6f-4776-9572-4d61696e626f,rev?*%
%TF.SameCoordinates,Original*%
%TF.FileFunction,Paste,Top*%
%TF.FilePolarity,Positive*%
%FSLAX46Y46*%
G04 Gerber Fmt 4.6, Leading zero omitted, Abs format (unit mm)*
G04 Created by KiCad (PCBNEW (6.0.1)) date 2022-04-09 13:05:06*
%MOMM*%
%LPD*%
G01*
G04 APERTURE LIST*
G04 Aperture macros list*
%AMRoundRect*
0 Rectangle with rounded corners*
0 $1 Rounding radius*
0 $2 $3 $4 $5 $6 $7 $8 $9 X,Y pos of 4 corners*
0 Add a 4 corners polygon primitive as box body*
4,1,4,$2,$3,$4,$5,$6,$7,$8,$9,$2,$3,0*
0 Add four circle primitives for the rounded corners*
1,1,$1+$1,$2,$3*
1,1,$1+$1,$4,$5*
1,1,$1+$1,$6,$7*
1,1,$1+$1,$8,$9*
0 Add four rect primitives between the rounded corners*
20,1,$1+$1,$2,$3,$4,$5,0*
20,1,$1+$1,$4,$5,$6,$7,0*
20,1,$1+$1,$6,$7,$8,$9,0*
20,1,$1+$1,$8,$9,$2,$3,0*%
G04 Aperture macros list end*
%ADD10R,1.800000X3.500000*%
%ADD11R,0.400000X1.000000*%
%ADD12RoundRect,0.250000X-0.450000X0.350000X-0.450000X-0.350000X0.450000X-0.350000X0.450000X0.350000X0*%
%ADD13RoundRect,0.225000X-0.250000X0.225000X-0.250000X-0.225000X0.250000X-0.225000X0.250000X0.225000X0*%
%ADD14RoundRect,0.150000X-0.587500X-0.150000X0.587500X-0.150000X0.587500X0.150000X-0.587500X0.150000X0*%
%ADD15RoundRect,0.250000X0.350000X0.450000X-0.350000X0.450000X-0.350000X-0.450000X0.350000X-0.450000X0*%
%ADD16RoundRect,0.250000X-0.350000X-0.450000X0.350000X-0.450000X0.350000X0.450000X-0.350000X0.450000X0*%
%ADD17RoundRect,0.250000X-0.337500X-0.475000X0.337500X-0.475000X0.337500X0.475000X-0.337500X0.475000X0*%
%ADD18RoundRect,0.243750X-0.456250X0.243750X-0.456250X-0.243750X0.456250X-0.243750X0.456250X0.243750X0*%
%ADD19RoundRect,0.150000X0.512500X0.150000X-0.512500X0.150000X-0.512500X-0.150000X0.512500X-0.150000X0*%
%ADD20RoundRect,0.250000X1.950000X1.000000X-1.950000X1.000000X-1.950000X-1.000000X1.950000X-1.000000X0*%
%ADD21RoundRect,0.250000X-1.950000X-1.000000X1.950000X-1.000000X1.950000X1.000000X-1.950000X1.000000X0*%
%ADD22RoundRect,0.250000X0.450000X-0.350000X0.450000X0.350000X-0.450000X0.350000X-0.450000X-0.350000X0*%
%ADD23R,1.100000X1.100000*%
%ADD24RoundRect,0.225000X0.250000X-0.225000X0.250000X0.225000X-0.250000X0.225000X-0.250000X-0.225000X0*%
%ADD25RoundRect,0.250000X0.650000X-0.325000X0.650000X0.325000X-0.650000X0.325000X-0.650000X-0.325000X0*%
%ADD26R,2.500000X2.300000*%
%ADD27R,3.429000X2.413000*%
%ADD28R,2.500000X1.800000*%
%ADD29RoundRect,0.250000X-0.475000X0.337500X-0.475000X-0.337500X0.475000X-0.337500X0.475000X0.337500X0*%
%ADD30RoundRect,0.150000X0.150000X-0.587500X0.150000X0.587500X-0.150000X0.587500X-0.150000X-0.587500X0*%
%ADD31R,1.000000X3.000000*%
%ADD32RoundRect,0.250000X-0.650000X0.325000X-0.650000X-0.325000X0.650000X-0.325000X0.650000X0.325000X0*%
%ADD33R,0.650000X1.560000*%
%ADD34R,0.300000X1.425000*%
%ADD35R,1.150000X0.600000*%
%ADD36RoundRect,0.225000X0.225000X0.250000X-0.225000X0.250000X-0.225000X-0.250000X0.225000X-0.250000X0*%
%ADD37RoundRect,0.250000X-0.475000X0.250000X-0.475000X-0.250000X0.475000X-0.250000X0.475000X0.250000X0*%
%ADD38R,2.750000X3.050000*%
%ADD39R,1.200000X2.200000*%
%ADD40R,1.000000X1.500000*%
%ADD41RoundRect,0.160000X0.222500X0.160000X-0.222500X0.160000X-0.222500X-0.160000X0.222500X-0.160000X0*%
%ADD42RoundRect,0.250000X0.337500X0.475000X-0.337500X0.475000X-0.337500X-0.475000X0.337500X-0.475000X0*%
%ADD43R,0.875000X0.300000*%
%ADD44R,1.525000X0.250000*%
%ADD45R,1.525000X0.950000*%
%ADD46R,0.450000X0.600000*%
%ADD47R,0.300000X1.650000*%
%ADD48R,0.450000X0.875000*%
%ADD49R,0.300000X0.875000*%
%ADD50R,0.500000X0.350000*%
%ADD51R,0.600000X0.250000*%
%ADD52RoundRect,0.249999X0.450001X1.425001X-0.450001X1.425001X-0.450001X-1.425001X0.450001X-1.425001X0*%
%ADD53RoundRect,0.150000X0.150000X-0.825000X0.150000X0.825000X-0.150000X0.825000X-0.150000X-0.825000X0*%
%ADD54RoundRect,0.150000X0.587500X0.150000X-0.587500X0.150000X-0.587500X-0.150000X0.587500X-0.150000X0*%
G04 APERTURE END LIST*
D10*
X123250000Y-67300000D03*
X123250000Y-62300000D03*
D11*
X128925000Y-79900000D03*
X129575000Y-79900000D03*
X130225000Y-79900000D03*
X130875000Y-79900000D03*
X131525000Y-79900000D03*
X132175000Y-79900000D03*
X132825000Y-79900000D03*
X133475000Y-79900000D03*
X133475000Y-74100000D03*
X132825000Y-74100000D03*
X132175000Y-74100000D03*
X131525000Y-74100000D03*
X130875000Y-74100000D03*
X130225000Y-74100000D03*
X129575000Y-74100000D03*
X128925000Y-74100000D03*
D12*
X159000000Y-183000000D03*
X159000000Y-185000000D03*
D13*
X56200000Y-172625000D03*
X56200000Y-174175000D03*
D14*
X162062500Y-183050000D03*
X162062500Y-184950000D03*
X163937500Y-184000000D03*
D15*
X154800000Y-56800000D03*
X152800000Y-56800000D03*
D16*
X109220000Y-62650000D03*
X111220000Y-62650000D03*
D17*
X108962500Y-180800000D03*
X111037500Y-180800000D03*
D18*
X106000000Y-184522500D03*
X106000000Y-186397500D03*
D19*
X111307500Y-186220000D03*
X111307500Y-185270000D03*
X111307500Y-184320000D03*
X109032500Y-184320000D03*
X109032500Y-186220000D03*
D20*
X41000000Y-168000000D03*
X32600000Y-168000000D03*
D15*
X150600000Y-56800000D03*
X148600000Y-56800000D03*
D21*
X67000000Y-168000000D03*
X75400000Y-168000000D03*
D22*
X196320000Y-79720000D03*
X196320000Y-77720000D03*
D15*
X154800000Y-59000000D03*
X152800000Y-59000000D03*
D12*
X88090000Y-161600000D03*
X88090000Y-163600000D03*
D23*
X132800000Y-107800000D03*
X135600000Y-107800000D03*
D16*
X168216666Y-79600000D03*
X170216666Y-79600000D03*
D12*
X193320000Y-77720000D03*
X193320000Y-79720000D03*
D20*
X41000000Y-156600000D03*
X32600000Y-156600000D03*
D24*
X56200000Y-170775000D03*
X56200000Y-169225000D03*
D25*
X58600000Y-170675000D03*
X58600000Y-167725000D03*
D26*
X73175000Y-77750000D03*
X77475000Y-77750000D03*
D27*
X50800000Y-166479000D03*
X50800000Y-172321000D03*
D28*
X70150000Y-97400000D03*
X74150000Y-97400000D03*
D26*
X28545000Y-78250000D03*
X32845000Y-78250000D03*
X67100000Y-84250000D03*
X71400000Y-84250000D03*
D15*
X59300000Y-153300000D03*
X57300000Y-153300000D03*
D22*
X85550000Y-163600000D03*
X85550000Y-161600000D03*
D23*
X135600000Y-105200000D03*
X132800000Y-105200000D03*
D22*
X187320000Y-79720000D03*
X187320000Y-77720000D03*
D15*
X63500000Y-153300000D03*
X61500000Y-153300000D03*
D11*
X136325000Y-80000000D03*
X136975000Y-80000000D03*
X137625000Y-80000000D03*
X138275000Y-80000000D03*
X138925000Y-80000000D03*
X139575000Y-80000000D03*
X140225000Y-80000000D03*
X140875000Y-80000000D03*
X140875000Y-74200000D03*
X140225000Y-74200000D03*
X139575000Y-74200000D03*
X138925000Y-74200000D03*
X138275000Y-74200000D03*
X137625000Y-74200000D03*
X136975000Y-74200000D03*
X136325000Y-74200000D03*
D28*
X100950000Y-97350000D03*
X104950000Y-97350000D03*
D29*
X181320000Y-70682500D03*
X181320000Y-72757500D03*
D30*
X172499999Y-76537500D03*
X174399999Y-76537500D03*
X173449999Y-74662500D03*
D31*
X119970000Y-171180000D03*
X119970000Y-176220000D03*
X122510000Y-171180000D03*
X122510000Y-176220000D03*
X125050000Y-171180000D03*
X125050000Y-176220000D03*
X127590000Y-171180000D03*
X127590000Y-176220000D03*
X130130000Y-171180000D03*
X130130000Y-176220000D03*
X132670000Y-171180000D03*
X132670000Y-176220000D03*
X135210000Y-171180000D03*
X135210000Y-176220000D03*
X137750000Y-171180000D03*
X137750000Y-176220000D03*
X140290000Y-171180000D03*
X140290000Y-176220000D03*
X142830000Y-171180000D03*
X142830000Y-176220000D03*
X145370000Y-171180000D03*
X145370000Y-176220000D03*
X147910000Y-171180000D03*
X147910000Y-176220000D03*
X150450000Y-171180000D03*
X150450000Y-176220000D03*
X152990000Y-171180000D03*
X152990000Y-176220000D03*
X155530000Y-171180000D03*
X155530000Y-176220000D03*
X158070000Y-171180000D03*
X158070000Y-176220000D03*
X160610000Y-171180000D03*
X160610000Y-176220000D03*
X163150000Y-171180000D03*
X163150000Y-176220000D03*
X165690000Y-171180000D03*
X165690000Y-176220000D03*
X168230000Y-171180000D03*
X168230000Y-176220000D03*
D12*
X181320000Y-77720000D03*
X181320000Y-79720000D03*
D16*
X158600000Y-122030000D03*
X160600000Y-122030000D03*
X163983333Y-79600000D03*
X165983333Y-79600000D03*
X163983333Y-71800000D03*
X165983333Y-71800000D03*
X172449999Y-79600000D03*
X174449999Y-79600000D03*
D32*
X61400000Y-172725000D03*
X61400000Y-175675000D03*
D26*
X105675000Y-77750000D03*
X109975000Y-77750000D03*
D33*
X122430000Y-182060000D03*
X121480000Y-182060000D03*
X120530000Y-182060000D03*
X120530000Y-184760000D03*
X121480000Y-184760000D03*
X122430000Y-184760000D03*
D12*
X106000000Y-179840000D03*
X106000000Y-181840000D03*
D15*
X150600000Y-59000000D03*
X148600000Y-59000000D03*
D12*
X190320000Y-77720000D03*
X190320000Y-79720000D03*
D16*
X168216666Y-71800000D03*
X170216666Y-71800000D03*
D32*
X57700000Y-160925000D03*
X57700000Y-163875000D03*
D25*
X61400000Y-170675000D03*
X61400000Y-167725000D03*
D21*
X66800000Y-156600000D03*
X75200000Y-156600000D03*
D24*
X55200000Y-158775000D03*
X55200000Y-157225000D03*
D16*
X109170000Y-60450000D03*
X111170000Y-60450000D03*
D22*
X156000000Y-185000000D03*
X156000000Y-183000000D03*
D34*
X155950000Y-71988000D03*
X155450000Y-71988000D03*
X154950000Y-71988000D03*
X154450000Y-71988000D03*
X153950000Y-71988000D03*
X153450000Y-71988000D03*
X152950000Y-71988000D03*
X152450000Y-71988000D03*
X151950000Y-71988000D03*
X151450000Y-71988000D03*
X150950000Y-71988000D03*
X150450000Y-71988000D03*
X149950000Y-71988000D03*
X149450000Y-71988000D03*
X148950000Y-71988000D03*
X148450000Y-71988000D03*
X147950000Y-71988000D03*
X147450000Y-71988000D03*
X146950000Y-71988000D03*
X146450000Y-71988000D03*
X145950000Y-71988000D03*
X145450000Y-71988000D03*
X144950000Y-71988000D03*
X144450000Y-71988000D03*
X144450000Y-79612000D03*
X144950000Y-79612000D03*
X145450000Y-79612000D03*
X145950000Y-79612000D03*
X146450000Y-79612000D03*
X146950000Y-79612000D03*
X147450000Y-79612000D03*
X147950000Y-79612000D03*
X148450000Y-79612000D03*
X148950000Y-79612000D03*
X149450000Y-79612000D03*
X149950000Y-79612000D03*
X150450000Y-79612000D03*
X150950000Y-79612000D03*
X151450000Y-79612000D03*
X151950000Y-79612000D03*
X152450000Y-79612000D03*
X152950000Y-79612000D03*
X153450000Y-79612000D03*
X153950000Y-79612000D03*
X154450000Y-79612000D03*
X154950000Y-79612000D03*
X155450000Y-79612000D03*
X155950000Y-79612000D03*
D35*
X135500000Y-102150000D03*
X135500000Y-101200000D03*
X135500000Y-100250000D03*
X132900000Y-100250000D03*
X132900000Y-102150000D03*
D36*
X46675000Y-159100000D03*
X45125000Y-159100000D03*
D30*
X159800000Y-76537500D03*
X161700000Y-76537500D03*
X160750000Y-74662500D03*
D26*
X93545000Y-77750000D03*
X97845000Y-77750000D03*
D16*
X172449999Y-71800000D03*
X174449999Y-71800000D03*
D26*
X40675000Y-78250000D03*
X44975000Y-78250000D03*
D30*
X168266666Y-76537500D03*
X170166666Y-76537500D03*
X169216666Y-74662500D03*
D37*
X55200000Y-160850000D03*
X55200000Y-162750000D03*
D26*
X99600000Y-84250000D03*
X103900000Y-84250000D03*
D28*
X37000000Y-97400000D03*
X41000000Y-97400000D03*
D26*
X34600000Y-84250000D03*
X38900000Y-84250000D03*
D38*
X102425000Y-57455000D03*
X105475000Y-54105000D03*
X105475000Y-57455000D03*
X102425000Y-54105000D03*
D39*
X106230000Y-49480000D03*
X101670000Y-49480000D03*
D16*
X51900000Y-153300000D03*
X53900000Y-153300000D03*
D40*
X113785000Y-185805000D03*
X116985000Y-185805000D03*
X116985000Y-180905000D03*
X113785000Y-180905000D03*
D41*
X72372500Y-177600000D03*
X71227500Y-177600000D03*
D16*
X159750000Y-79600000D03*
X161750000Y-79600000D03*
D15*
X111230000Y-54750000D03*
X109230000Y-54750000D03*
D10*
X112400000Y-45900000D03*
X112400000Y-50900000D03*
D42*
X130637500Y-102200000D03*
X128562500Y-102200000D03*
D43*
X49188000Y-159450000D03*
X49188000Y-159950000D03*
D44*
X49513000Y-160450000D03*
D45*
X49513000Y-161500000D03*
D46*
X49475000Y-162275000D03*
D47*
X50800000Y-161750000D03*
D46*
X52125000Y-162275000D03*
D45*
X52087000Y-161500000D03*
D44*
X52087000Y-160450000D03*
D43*
X52412000Y-159950000D03*
X52412000Y-159450000D03*
D48*
X52125000Y-158663000D03*
D49*
X51550000Y-158663000D03*
X51050000Y-158663000D03*
X50550000Y-158663000D03*
X50050000Y-158663000D03*
D48*
X49475000Y-158663000D03*
D50*
X49000000Y-158925000D03*
D51*
X50800000Y-160800000D03*
D50*
X52600000Y-158925000D03*
D26*
X61045000Y-78250000D03*
X65345000Y-78250000D03*
D32*
X58600000Y-172725000D03*
X58600000Y-175675000D03*
X43900000Y-161025000D03*
X43900000Y-163975000D03*
D52*
X107950000Y-44500000D03*
X101850000Y-44500000D03*
D53*
X184510000Y-74195000D03*
X185780000Y-74195000D03*
X187050000Y-74195000D03*
X188320000Y-74195000D03*
X189590000Y-74195000D03*
X190860000Y-74195000D03*
X192130000Y-74195000D03*
X192130000Y-69245000D03*
X190860000Y-69245000D03*
X189590000Y-69245000D03*
X188320000Y-69245000D03*
X187050000Y-69245000D03*
X185780000Y-69245000D03*
X184510000Y-69245000D03*
D12*
X184320000Y-77720000D03*
X184320000Y-79720000D03*
D37*
X46400000Y-160950000D03*
X46400000Y-162850000D03*
D30*
X164033333Y-76537500D03*
X165933333Y-76537500D03*
X164983333Y-74662500D03*
D16*
X158600000Y-124980000D03*
X160600000Y-124980000D03*
X159750000Y-71800000D03*
X161750000Y-71800000D03*
D23*
X167000000Y-182600000D03*
X167000000Y-185400000D03*
D10*
X116200000Y-50900000D03*
X116200000Y-45900000D03*
X119200000Y-67250000D03*
X119200000Y-62250000D03*
D54*
X111097500Y-58600000D03*
X111097500Y-56700000D03*
X109222500Y-57650000D03*
D12*
X178320000Y-77720000D03*
X178320000Y-79720000D03*
M02*
