M48
; DRILL file {KiCad (6.0.1)} date Mon Jan 31 22:39:44 2022
; FORMAT={-:-/ absolute / metric / decimal}
; #@! TF.CreationDate,2022-01-31T22:39:44+01:00
; #@! TF.GenerationSoftware,Kicad,Pcbnew,(6.0.1)
; #@! TF.FileFunction,Plated,1,2,PTH
FMAT,2
METRIC
; #@! TA.AperFunction,Plated,PTH,ViaDrill
T1C0.300
; #@! TA.AperFunction,Plated,PTH,ComponentDrill
T2C0.750
; #@! TA.AperFunction,Plated,PTH,ComponentDrill
T3C0.800
; #@! TA.AperFunction,Plated,PTH,ComponentDrill
T4C0.950
; #@! TA.AperFunction,Plated,PTH,ComponentDrill
T5C1.000
; #@! TA.AperFunction,Plated,PTH,ComponentDrill
T6C1.020
; #@! TA.AperFunction,Plated,PTH,ComponentDrill
T7C1.350
; #@! TA.AperFunction,Plated,PTH,ComponentDrill
T8C1.400
; #@! TA.AperFunction,Plated,PTH,ComponentDrill
T9C1.500
; #@! TA.AperFunction,Plated,PTH,ComponentDrill
T10C4.500
; #@! TA.AperFunction,Plated,PTH,ComponentDrill
T11C5.000
%
G90
G05
T1
X20.984Y-187.599
X20.991Y-22.999
X20.991Y-27.999
X20.991Y-32.999
X20.991Y-37.999
X20.991Y-42.999
X20.991Y-47.999
X20.991Y-52.999
X20.991Y-57.999
X20.991Y-62.999
X20.991Y-67.999
X20.991Y-72.999
X20.991Y-77.999
X20.991Y-82.999
X20.991Y-87.999
X20.991Y-92.999
X20.991Y-97.999
X20.991Y-102.999
X20.991Y-107.999
X20.991Y-112.999
X20.991Y-117.999
X20.991Y-122.999
X20.991Y-127.999
X20.991Y-132.999
X20.991Y-137.999
X20.991Y-142.999
X20.991Y-147.999
X20.991Y-152.999
X20.991Y-157.999
X20.991Y-162.999
X20.991Y-167.999
X20.991Y-172.999
X20.991Y-177.999
X22.998Y-189.198
X23.0Y-21.0
X25.6Y-131.4
X27.2Y-160.4
X27.998Y-189.198
X28.0Y-21.0
X28.8Y-54.6
X29.2Y-119.0
X29.6Y-49.6
X29.8Y-85.8
X30.0Y-90.0
X30.0Y-95.0
X30.0Y-100.0
X30.0Y-105.0
X30.6Y-78.8
X31.2Y-108.0
X32.4Y-110.4
X32.998Y-189.198
X33.0Y-21.0
X33.4Y-64.4
X34.2Y-119.2
X34.6Y-61.6
X34.6Y-108.2
X34.8Y-161.6
X35.0Y-90.0
X35.0Y-95.0
X35.0Y-100.0
X35.0Y-105.0
X36.6Y-79.2
X36.8Y-84.2
X36.8Y-175.6
X37.998Y-189.198
X38.0Y-21.0
X40.8Y-65.4
X41.0Y-62.0
X42.0Y-130.0
X42.6Y-140.8
X42.8Y-79.0
X42.8Y-135.4
X42.8Y-170.6
X42.998Y-189.198
X43.0Y-21.0
X44.4Y-121.2
X45.2Y-97.8
X45.6Y-56.0
X46.6Y-179.8
X47.6Y-99.0
X47.998Y-189.198
X48.0Y-21.0
X48.2Y-94.8
X48.8Y-63.8
X49.8Y-59.0
X50.0Y-41.4
X50.0Y-91.8
X50.0Y-97.2
X50.0Y-120.0
X50.0Y-122.5
X50.0Y-125.0
X50.0Y-127.5
X50.0Y-130.0
X50.2Y-65.4
X50.8Y-140.2
X51.0Y-162.4
X52.5Y-120.0
X52.5Y-122.5
X52.5Y-125.0
X52.5Y-127.5
X52.5Y-130.0
X52.998Y-189.198
X53.0Y-21.0
X57.8Y-171.0
X57.998Y-189.198
X58.0Y-21.0
X59.2Y-85.0
X60.0Y-89.199
X60.0Y-95.0
X60.0Y-100.0
X60.0Y-105.0
X62.2Y-24.6
X62.66Y-88.188
X62.998Y-189.198
X63.2Y-79.0
X63.2Y-86.8
X63.2Y-179.4
X65.0Y-95.0
X65.0Y-100.0
X65.0Y-105.0
X65.6Y-72.2
X65.8Y-69.8
X65.991Y-28.997
X65.991Y-33.997
X65.991Y-38.997
X67.0Y-41.0
X67.998Y-189.198
X69.2Y-78.8
X70.0Y-90.0
X70.0Y-105.0
X72.0Y-41.0
X72.6Y-92.2
X72.8Y-72.0
X72.998Y-189.198
X73.0Y-88.2
X73.2Y-48.2
X73.2Y-69.8
X73.2Y-140.8
X75.0Y-90.0
X75.4Y-79.0
X76.8Y-85.8
X77.0Y-41.0
X77.998Y-189.198
X78.2Y-45.2
X79.2Y-52.6
X79.2Y-56.2
X79.6Y-48.6
X81.0Y-41.0
X82.5Y-120.0
X82.5Y-122.5
X82.5Y-125.0
X82.5Y-127.5
X82.5Y-130.0
X82.8Y-141.0
X82.998Y-189.198
X84.4Y-138.8
X84.8Y-92.2
X85.0Y-104.6
X85.4Y-103.0
X87.2Y-160.0
X87.998Y-189.198
X88.0Y-134.6
X90.0Y-120.0
X90.0Y-127.5
X90.4Y-133.0
X92.5Y-127.5
X92.998Y-189.198
X93.0Y-41.0
X94.2Y-84.8
X95.0Y-95.0
X95.0Y-100.0
X95.0Y-105.0
X95.0Y-120.0
X95.6Y-78.6
X97.0Y-41.0
X97.5Y-127.5
X97.8Y-67.8
X97.8Y-72.6
X97.998Y-189.198
X98.0Y-70.4
X98.4Y-47.6
X99.8Y-88.0
X100.0Y-95.0
X100.0Y-100.0
X100.0Y-105.0
X100.0Y-110.0
X100.0Y-120.0
X101.2Y-80.8
X101.8Y-44.8
X102.0Y-41.0
X102.998Y-189.198
X103.4Y-58.2
X105.0Y-67.6
X105.0Y-69.6
X105.0Y-80.8
X105.0Y-127.5
X105.2Y-71.6
X105.2Y-152.0
X106.0Y-67.8
X106.4Y-51.2
X106.4Y-70.4
X106.4Y-72.6
X106.4Y-87.4
X107.0Y-41.0
X107.0Y-151.8
X107.5Y-127.5
X107.8Y-78.8
X107.998Y-189.198
X108.8Y-182.8
X109.4Y-177.6
X109.8Y-86.4
X110.0Y-95.0
X110.0Y-100.0
X110.0Y-105.0
X111.4Y-52.4
X111.998Y-162.509
X112.0Y-41.0
X112.0Y-62.2
X112.998Y-189.198
X113.0Y-66.0
X113.4Y-168.0
X113.6Y-57.8
X113.6Y-150.4
X114.6Y-153.4
X114.8Y-130.2
X115.0Y-95.0
X115.0Y-100.0
X115.4Y-152.2
X115.4Y-180.8
X116.4Y-55.0
X116.4Y-57.4
X116.4Y-60.2
X116.6Y-52.8
X116.6Y-62.8
X117.0Y-41.0
X117.0Y-45.4
X117.0Y-48.6
X117.0Y-64.4
X117.998Y-189.198
X120.6Y-180.2
X120.8Y-167.4
X121.2Y-173.6
X121.4Y-186.4
X122.0Y-41.0
X122.2Y-49.2
X122.4Y-186.4
X122.998Y-189.198
X124.0Y-162.0
X124.1Y-156.9
X124.1Y-158.6
X126.0Y-67.4
X126.0Y-150.4
X126.0Y-164.0
X126.0Y-173.6
X126.2Y-102.4
X126.4Y-101.2
X126.4Y-179.4
X126.6Y-61.6
X126.7Y-103.748
X126.8Y-67.6
X126.85Y-149.493
X127.0Y-41.0
X127.8Y-85.0
X127.8Y-184.2
X127.998Y-189.198
X128.2Y-63.8
X128.2Y-157.7
X128.231Y-65.6
X128.8Y-100.0
X129.0Y-77.8
X129.0Y-156.0
X129.1Y-103.687
X129.2Y-72.6
X129.4Y-55.6
X129.8Y-173.6
X131.3Y-91.7
X131.4Y-116.8
X131.8Y-66.6
X131.8Y-119.8
X132.0Y-41.0
X132.0Y-180.8
X132.2Y-72.0
X132.2Y-184.8
X132.8Y-75.8
X132.875Y-71.163
X132.998Y-189.198
X133.2Y-95.8
X133.4Y-54.6
X133.8Y-70.4
X134.0Y-168.4
X134.0Y-180.8
X134.2Y-83.4
X134.4Y-118.4
X134.8Y-123.6
X135.0Y-72.8
X135.0Y-75.8
X135.0Y-80.0
X135.8Y-117.0
X136.0Y-185.8
X136.4Y-121.6
X137.0Y-41.0
X137.0Y-85.4
X137.4Y-69.4
X137.998Y-189.198
X138.6Y-180.4
X139.2Y-173.6
X139.6Y-72.2
X139.6Y-83.8
X139.6Y-88.2
X139.7Y-103.7
X140.3Y-107.1
X140.4Y-133.2
X140.6Y-72.0
X140.6Y-110.399
X141.4Y-58.4
X141.6Y-72.0
X142.0Y-41.0
X142.4Y-75.4
X142.8Y-79.4
X142.998Y-189.198
X143.0Y-60.8
X143.2Y-86.4
X143.6Y-69.4
X144.2Y-97.6
X144.4Y-70.4
X145.669Y-118.351
X146.0Y-67.6
X147.0Y-41.0
X147.0Y-69.4
X147.0Y-81.4
X147.2Y-73.8
X147.2Y-128.6
X147.6Y-70.4
X147.85Y-68.518
X147.998Y-189.198
X148.2Y-110.8
X148.43Y-164.749
X148.8Y-67.8
X149.0Y-83.0
X149.2Y-168.6
X149.2Y-179.0
X149.4Y-173.6
X149.8Y-81.4
X150.0Y-165.8
X150.176Y-67.376
X150.2Y-123.4
X150.6Y-182.8
X151.2Y-77.6
X151.4Y-67.0
X151.4Y-83.0
X151.6Y-50.6
X151.8Y-73.8
X152.0Y-41.0
X152.998Y-189.198
X153.0Y-55.6
X153.0Y-70.2
X153.6Y-179.6
X153.8Y-168.2
X154.0Y-55.6
X154.2Y-24.8
X154.2Y-29.4
X154.2Y-34.4
X154.2Y-39.4
X154.8Y-48.0
X155.0Y-124.8
X156.0Y-21.0
X156.0Y-101.0
X156.2Y-74.4
X156.6Y-83.6
X157.8Y-60.0
X157.8Y-79.8
X157.998Y-189.198
X158.4Y-70.4
X159.0Y-83.2
X159.0Y-143.6
X159.2Y-149.8
X159.8Y-166.2
X160.2Y-81.6
X160.6Y-110.2
X161.0Y-21.0
X161.6Y-84.2
X162.2Y-45.4
X162.998Y-189.198
X163.0Y-37.4
X164.2Y-90.2
X165.0Y-119.4
X165.2Y-70.4
X165.2Y-81.6
X165.2Y-118.4
X166.0Y-21.0
X166.8Y-61.8
X167.4Y-101.0
X167.6Y-102.2
X167.6Y-162.0
X167.6Y-167.6
X167.8Y-138.2
X167.8Y-152.6
X167.998Y-189.198
X169.4Y-70.4
X169.4Y-90.4
X169.6Y-81.6
X170.0Y-166.4
X171.0Y-21.0
X171.6Y-91.6
X171.8Y-137.0
X172.998Y-189.198
X173.0Y-70.2
X173.2Y-81.6
X175.0Y-34.6
X175.4Y-58.4
X175.4Y-98.2
X176.0Y-21.0
X176.0Y-63.5
X176.0Y-120.0
X176.0Y-128.0
X176.0Y-133.0
X176.0Y-138.0
X176.0Y-143.0
X176.0Y-148.0
X176.0Y-153.0
X176.0Y-158.0
X176.0Y-163.0
X176.0Y-168.0
X176.0Y-178.0
X176.5Y-67.5
X176.6Y-73.8
X177.998Y-189.198
X178.8Y-94.0
X179.0Y-46.2
X179.92Y-79.72
X181.0Y-21.0
X181.0Y-68.5
X181.0Y-120.0
X181.0Y-178.0
X182.0Y-83.6
X182.998Y-189.198
X183.4Y-61.8
X184.0Y-65.0
X184.6Y-83.6
X184.6Y-114.4
X185.72Y-71.92
X185.92Y-80.72
X186.0Y-21.0
X186.0Y-120.0
X186.0Y-178.0
X186.6Y-92.2
X186.8Y-30.6
X186.8Y-72.2
X187.4Y-41.0
X187.92Y-71.92
X187.998Y-189.198
X188.6Y-62.4
X188.6Y-115.8
X189.8Y-100.8
X191.0Y-21.0
X191.0Y-120.0
X192.998Y-189.198
X193.32Y-80.87
X194.2Y-103.4
X195.8Y-66.4
X196.0Y-21.0
X196.0Y-53.0
X196.0Y-120.0
X196.32Y-76.4
X199.0Y-23.6
X199.0Y-35.0
X199.0Y-40.0
X199.0Y-45.0
X199.0Y-50.0
X199.0Y-55.0
X199.0Y-60.0
X199.0Y-65.0
X199.0Y-70.0
X199.0Y-75.0
X199.0Y-80.0
X199.0Y-95.0
X199.0Y-100.0
X199.0Y-105.0
X199.0Y-110.0
X199.0Y-115.0
X199.0Y-120.0
T2
X38.2Y-30.6
X40.2Y-30.6
X42.2Y-30.6
X44.2Y-30.6
X46.2Y-30.6
T3
X130.3Y-64.74
X130.3Y-113.0
X132.84Y-64.74
X132.84Y-113.0
X135.38Y-64.74
X135.38Y-113.0
X137.92Y-64.74
X137.92Y-113.0
X140.46Y-64.74
X140.46Y-113.0
X143.0Y-64.74
X143.0Y-113.0
X145.54Y-113.0
X148.08Y-64.74
X148.08Y-113.0
X150.62Y-64.74
X152.144Y-113.0
X153.16Y-64.74
X154.684Y-113.0
X155.7Y-64.74
X157.224Y-113.0
X158.24Y-64.74
X159.764Y-113.0
X160.78Y-64.74
X162.304Y-113.0
X163.32Y-64.74
X164.844Y-113.0
X165.86Y-64.74
X167.384Y-113.0
X169.924Y-113.0
X172.464Y-113.0
X175.004Y-113.0
T4
X159.75Y-25.0
X159.75Y-32.968
X159.75Y-40.935
X159.75Y-48.902
X159.75Y-56.87
X162.25Y-25.0
X162.25Y-32.968
X162.25Y-40.935
X162.25Y-48.902
X162.25Y-56.87
X164.75Y-25.0
X164.75Y-32.968
X164.75Y-40.935
X164.75Y-48.902
X164.75Y-56.87
X167.25Y-25.0
X167.25Y-32.968
X167.25Y-40.935
X167.25Y-48.902
X167.25Y-56.87
X177.0Y-25.0
X177.0Y-32.968
X177.0Y-40.935
X177.0Y-48.902
X179.5Y-25.0
X179.5Y-32.968
X179.5Y-40.935
X179.5Y-48.902
X182.0Y-25.0
X182.0Y-32.968
X182.0Y-40.935
X182.0Y-48.902
X191.87Y-42.352
X191.87Y-44.852
X191.87Y-47.352
X191.87Y-49.852
T5
X25.35Y-124.0
X30.35Y-124.0
X36.35Y-124.0
X41.35Y-124.0
X57.85Y-124.0
X62.85Y-124.0
X68.85Y-124.0
X73.85Y-124.0
X76.65Y-183.35
X79.19Y-183.35
X81.73Y-183.35
X82.07Y-151.875
X82.07Y-167.115
X84.27Y-183.35
X84.61Y-151.875
X84.61Y-167.115
X86.81Y-183.35
X87.15Y-151.875
X87.15Y-167.115
X89.35Y-183.35
X89.69Y-151.875
X89.69Y-167.115
X90.35Y-124.0
X91.89Y-183.35
X92.23Y-151.875
X92.23Y-167.115
X94.43Y-183.35
X94.77Y-151.875
X94.77Y-167.115
X95.35Y-124.0
X96.97Y-183.35
X97.31Y-151.875
X97.31Y-167.115
X99.51Y-183.35
X99.85Y-151.875
X99.85Y-167.115
X101.35Y-124.0
X106.35Y-124.0
X138.82Y-183.3
X138.82Y-185.84
X141.36Y-183.3
X141.36Y-185.84
X143.9Y-183.3
X143.9Y-185.84
X172.0Y-183.0
X172.0Y-185.54
X178.25Y-56.87
X180.75Y-56.87
X190.32Y-56.87
X192.82Y-56.87
T6
X149.015Y-87.675
X149.015Y-105.455
X149.245Y-94.025
X149.245Y-96.565
X149.245Y-99.105
X151.555Y-87.675
X151.555Y-105.455
X154.095Y-87.675
X154.095Y-105.455
X156.635Y-87.675
X156.635Y-105.455
X159.175Y-87.675
X159.175Y-105.455
X161.715Y-87.675
X161.715Y-105.455
X164.255Y-87.675
X164.255Y-105.455
X166.795Y-87.675
X166.795Y-105.455
X169.335Y-87.675
X169.335Y-105.455
X171.875Y-87.675
X171.875Y-105.455
X174.415Y-87.675
X174.415Y-105.455
X176.955Y-87.675
X176.955Y-105.455
X179.495Y-87.675
X179.495Y-105.455
X182.035Y-87.675
X182.035Y-105.455
X184.575Y-87.675
X184.575Y-105.455
X187.115Y-87.675
X187.115Y-105.455
X189.655Y-87.675
X189.655Y-105.455
X192.195Y-87.675
X192.195Y-105.455
X194.735Y-87.675
X194.735Y-105.455
X197.275Y-87.675
X197.275Y-105.455
T7
X106.075Y-46.35
X106.075Y-55.7
X111.075Y-46.35
X111.075Y-55.7
X121.075Y-46.35
X121.075Y-55.7
X126.075Y-46.35
X126.075Y-55.7
T8
X33.25Y-45.25
X33.25Y-50.75
X37.45Y-45.25
X37.45Y-50.75
X41.65Y-45.25
X41.65Y-50.75
X45.85Y-45.25
X45.85Y-50.75
X50.05Y-45.25
X50.05Y-50.75
X54.25Y-45.25
X54.25Y-50.75
X58.45Y-45.25
X58.45Y-50.75
X62.65Y-45.25
X62.65Y-50.75
X66.85Y-45.25
X66.85Y-50.75
X71.05Y-45.25
X71.05Y-50.75
X75.25Y-45.25
X75.25Y-50.75
X83.0Y-45.25
X83.0Y-50.75
X87.2Y-45.25
X87.2Y-50.75
X91.4Y-45.25
X91.4Y-50.75
X95.6Y-45.25
X95.6Y-50.75
X136.4Y-45.25
X136.4Y-50.75
T9
X29.4Y-152.7
X29.4Y-171.1
X69.8Y-152.7
X69.8Y-171.1
T10
X146.3Y-46.9
X146.3Y-54.1
T11
X26.5Y-30.0
X26.5Y-182.5
X193.5Y-30.0
X193.5Y-182.5
T5
X24.06Y-68.595G85X24.06Y-68.595
G05
X24.06Y-71.135G85X24.06Y-71.135
G05
X24.06Y-73.675G85X24.06Y-73.675
G05
X24.06Y-76.215G85X24.06Y-76.215
G05
X24.06Y-78.755G85X24.06Y-78.755
G05
X24.06Y-81.295G85X24.06Y-81.295
G05
X24.06Y-93.995G85X24.06Y-93.995
G05
X24.06Y-96.535G85X24.06Y-96.535
G05
X24.06Y-99.075G85X24.06Y-99.075
G05
X24.06Y-101.615G85X24.06Y-101.615
G05
X24.06Y-104.155G85X24.06Y-104.155
G05
X24.06Y-106.695G85X24.06Y-106.695
G05
X24.06Y-109.235G85X24.06Y-109.235
G05
X24.06Y-111.775G85X24.06Y-111.775
G05
X24.06Y-114.315G85X24.06Y-114.315
G05
X26.6Y-114.315G85X26.6Y-114.315
G05
X27.87Y-68.595G85X27.87Y-68.595
G05
X27.87Y-71.135G85X27.87Y-71.135
G05
X29.14Y-114.315G85X29.14Y-114.315
G05
X30.41Y-68.595G85X30.41Y-68.595
G05
X30.41Y-71.135G85X30.41Y-71.135
G05
X31.68Y-114.315G85X31.68Y-114.315
G05
X34.22Y-114.315G85X34.22Y-114.315
G05
X35.49Y-68.595G85X35.49Y-68.595
G05
X35.49Y-71.135G85X35.49Y-71.135
G05
X36.76Y-114.315G85X36.76Y-114.315
G05
X38.03Y-68.595G85X38.03Y-68.595
G05
X38.03Y-71.135G85X38.03Y-71.135
G05
X43.11Y-68.595G85X43.11Y-68.595
G05
X43.11Y-71.135G85X43.11Y-71.135
G05
X45.65Y-68.595G85X45.65Y-68.595
G05
X45.65Y-71.135G85X45.65Y-71.135
G05
X49.46Y-68.595G85X49.46Y-68.595
G05
X49.46Y-71.135G85X49.46Y-71.135
G05
X49.46Y-73.675G85X49.46Y-73.675
G05
X49.46Y-76.215G85X49.46Y-76.215
G05
X49.46Y-78.755G85X49.46Y-78.755
G05
X49.46Y-81.295G85X49.46Y-81.295
G05
X49.46Y-104.155G85X49.46Y-104.155
G05
X49.46Y-106.695G85X49.46Y-106.695
G05
X49.46Y-109.235G85X49.46Y-109.235
G05
X49.46Y-111.775G85X49.46Y-111.775
G05
X49.46Y-114.315G85X49.46Y-114.315
G05
X56.56Y-68.595G85X56.56Y-68.595
G05
X56.56Y-71.135G85X56.56Y-71.135
G05
X56.56Y-73.675G85X56.56Y-73.675
G05
X56.56Y-76.215G85X56.56Y-76.215
G05
X56.56Y-78.755G85X56.56Y-78.755
G05
X56.56Y-81.295G85X56.56Y-81.295
G05
X56.56Y-93.995G85X56.56Y-93.995
G05
X56.56Y-96.535G85X56.56Y-96.535
G05
X56.56Y-99.075G85X56.56Y-99.075
G05
X56.56Y-101.615G85X56.56Y-101.615
G05
X56.56Y-104.155G85X56.56Y-104.155
G05
X56.56Y-106.695G85X56.56Y-106.695
G05
X56.56Y-109.235G85X56.56Y-109.235
G05
X56.56Y-111.775G85X56.56Y-111.775
G05
X56.56Y-114.315G85X56.56Y-114.315
G05
X59.1Y-114.315G85X59.1Y-114.315
G05
X60.37Y-68.595G85X60.37Y-68.595
G05
X60.37Y-71.135G85X60.37Y-71.135
G05
X61.64Y-114.315G85X61.64Y-114.315
G05
X62.91Y-68.595G85X62.91Y-68.595
G05
X62.91Y-71.135G85X62.91Y-71.135
G05
X64.18Y-114.315G85X64.18Y-114.315
G05
X66.72Y-114.315G85X66.72Y-114.315
G05
X67.99Y-68.595G85X67.99Y-68.595
G05
X67.99Y-71.135G85X67.99Y-71.135
G05
X69.26Y-114.315G85X69.26Y-114.315
G05
X70.53Y-68.595G85X70.53Y-68.595
G05
X70.53Y-71.135G85X70.53Y-71.135
G05
X75.61Y-68.595G85X75.61Y-68.595
G05
X75.61Y-71.135G85X75.61Y-71.135
G05
X78.15Y-68.595G85X78.15Y-68.595
G05
X78.15Y-71.135G85X78.15Y-71.135
G05
X81.96Y-68.595G85X81.96Y-68.595
G05
X81.96Y-71.135G85X81.96Y-71.135
G05
X81.96Y-73.675G85X81.96Y-73.675
G05
X81.96Y-76.215G85X81.96Y-76.215
G05
X81.96Y-78.755G85X81.96Y-78.755
G05
X81.96Y-81.295G85X81.96Y-81.295
G05
X81.96Y-104.155G85X81.96Y-104.155
G05
X81.96Y-106.695G85X81.96Y-106.695
G05
X81.96Y-109.235G85X81.96Y-109.235
G05
X81.96Y-111.775G85X81.96Y-111.775
G05
X81.96Y-114.315G85X81.96Y-114.315
G05
X89.06Y-68.595G85X89.06Y-68.595
G05
X89.06Y-71.135G85X89.06Y-71.135
G05
X89.06Y-73.675G85X89.06Y-73.675
G05
X89.06Y-76.215G85X89.06Y-76.215
G05
X89.06Y-78.755G85X89.06Y-78.755
G05
X89.06Y-81.295G85X89.06Y-81.295
G05
X89.06Y-93.995G85X89.06Y-93.995
G05
X89.06Y-96.535G85X89.06Y-96.535
G05
X89.06Y-99.075G85X89.06Y-99.075
G05
X89.06Y-101.615G85X89.06Y-101.615
G05
X89.06Y-104.155G85X89.06Y-104.155
G05
X89.06Y-106.695G85X89.06Y-106.695
G05
X89.06Y-109.235G85X89.06Y-109.235
G05
X89.06Y-111.775G85X89.06Y-111.775
G05
X89.06Y-114.315G85X89.06Y-114.315
G05
X91.6Y-114.315G85X91.6Y-114.315
G05
X92.87Y-68.595G85X92.87Y-68.595
G05
X92.87Y-71.135G85X92.87Y-71.135
G05
X94.14Y-114.315G85X94.14Y-114.315
G05
X95.41Y-68.595G85X95.41Y-68.595
G05
X95.41Y-71.135G85X95.41Y-71.135
G05
X96.68Y-114.315G85X96.68Y-114.315
G05
X99.22Y-114.315G85X99.22Y-114.315
G05
X100.49Y-68.595G85X100.49Y-68.595
G05
X100.49Y-71.135G85X100.49Y-71.135
G05
X101.76Y-114.315G85X101.76Y-114.315
G05
X103.03Y-68.595G85X103.03Y-68.595
G05
X103.03Y-71.135G85X103.03Y-71.135
G05
X108.11Y-68.595G85X108.11Y-68.595
G05
X108.11Y-71.135G85X108.11Y-71.135
G05
X110.65Y-68.595G85X110.65Y-68.595
G05
X110.65Y-71.135G85X110.65Y-71.135
G05
X114.46Y-68.595G85X114.46Y-68.595
G05
X114.46Y-71.135G85X114.46Y-71.135
G05
X114.46Y-73.675G85X114.46Y-73.675
G05
X114.46Y-76.215G85X114.46Y-76.215
G05
X114.46Y-78.755G85X114.46Y-78.755
G05
X114.46Y-81.295G85X114.46Y-81.295
G05
X114.46Y-104.155G85X114.46Y-104.155
G05
X114.46Y-106.695G85X114.46Y-106.695
G05
X114.46Y-109.235G85X114.46Y-109.235
G05
X114.46Y-111.775G85X114.46Y-111.775
G05
X114.46Y-114.315G85X114.46Y-114.315
G05
T0
M30
