%TF.GenerationSoftware,KiCad,Pcbnew,(6.0.1)*%
%TF.CreationDate,2022-04-09T13:05:06+02:00*%
%TF.ProjectId,OpenMowerMainboard,4f70656e-4d6f-4776-9572-4d61696e626f,rev?*%
%TF.SameCoordinates,Original*%
%TF.FileFunction,Legend,Bot*%
%TF.FilePolarity,Positive*%
%FSLAX46Y46*%
G04 Gerber Fmt 4.6, Leading zero omitted, Abs format (unit mm)*
G04 Created by KiCad (PCBNEW (6.0.1)) date 2022-04-09 13:05:06*
%MOMM*%
%LPD*%
G01*
G04 APERTURE LIST*
G04 Aperture macros list*
%AMRoundRect*
0 Rectangle with rounded corners*
0 $1 Rounding radius*
0 $2 $3 $4 $5 $6 $7 $8 $9 X,Y pos of 4 corners*
0 Add a 4 corners polygon primitive as box body*
4,1,4,$2,$3,$4,$5,$6,$7,$8,$9,$2,$3,0*
0 Add four circle primitives for the rounded corners*
1,1,$1+$1,$2,$3*
1,1,$1+$1,$4,$5*
1,1,$1+$1,$6,$7*
1,1,$1+$1,$8,$9*
0 Add four rect primitives between the rounded corners*
20,1,$1+$1,$2,$3,$4,$5,0*
20,1,$1+$1,$4,$5,$6,$7,0*
20,1,$1+$1,$6,$7,$8,$9,0*
20,1,$1+$1,$8,$9,$2,$3,0*%
G04 Aperture macros list end*
%ADD10C,0.150000*%
%ADD11C,0.120000*%
%ADD12C,0.900000*%
%ADD13C,10.000000*%
%ADD14RoundRect,0.250001X-1.099999X-1.399999X1.099999X-1.399999X1.099999X1.399999X-1.099999X1.399999X0*%
%ADD15O,2.700000X3.300000*%
%ADD16RoundRect,0.250000X-0.600000X-0.725000X0.600000X-0.725000X0.600000X0.725000X-0.600000X0.725000X0*%
%ADD17O,1.700000X1.950000*%
%ADD18RoundRect,0.249999X-0.350001X-0.625001X0.350001X-0.625001X0.350001X0.625001X-0.350001X0.625001X0*%
%ADD19O,1.200000X1.750000*%
%ADD20O,3.000000X1.700000*%
%ADD21O,1.700000X3.000000*%
%ADD22R,2.000000X2.000000*%
%ADD23C,2.000000*%
%ADD24C,6.950000*%
%ADD25C,2.350000*%
%ADD26R,1.700000X1.700000*%
%ADD27O,1.700000X1.700000*%
%ADD28R,3.048000X3.048000*%
%ADD29C,6.200000*%
%ADD30RoundRect,0.250000X-0.600000X-0.750000X0.600000X-0.750000X0.600000X0.750000X-0.600000X0.750000X0*%
%ADD31O,1.700000X2.000000*%
%ADD32RoundRect,0.250000X0.725000X-0.600000X0.725000X0.600000X-0.725000X0.600000X-0.725000X-0.600000X0*%
%ADD33O,1.950000X1.700000*%
%ADD34O,1.500000X1.500000*%
%ADD35O,1.800000X1.800000*%
%ADD36O,1.727200X2.500000*%
%ADD37R,1.500000X1.000000*%
G04 APERTURE END LIST*
D10*
X145052380Y-78766666D02*
X145766666Y-78766666D01*
X145909523Y-78719047D01*
X146004761Y-78623809D01*
X146052380Y-78480952D01*
X146052380Y-78385714D01*
X146052380Y-79242857D02*
X145052380Y-79242857D01*
X145052380Y-79623809D01*
X145100000Y-79719047D01*
X145147619Y-79766666D01*
X145242857Y-79814285D01*
X145385714Y-79814285D01*
X145480952Y-79766666D01*
X145528571Y-79719047D01*
X145576190Y-79623809D01*
X145576190Y-79242857D01*
X145052380Y-80147619D02*
X145052380Y-80766666D01*
X145433333Y-80433333D01*
X145433333Y-80576190D01*
X145480952Y-80671428D01*
X145528571Y-80719047D01*
X145623809Y-80766666D01*
X145861904Y-80766666D01*
X145957142Y-80719047D01*
X146004761Y-80671428D01*
X146052380Y-80576190D01*
X146052380Y-80290476D01*
X146004761Y-80195238D01*
X145957142Y-80147619D01*
X172809523Y-181122380D02*
X172809523Y-180122380D01*
X172476190Y-180836666D01*
X172142857Y-180122380D01*
X172142857Y-181122380D01*
X171142857Y-181122380D02*
X171714285Y-181122380D01*
X171428571Y-181122380D02*
X171428571Y-180122380D01*
X171523809Y-180265238D01*
X171619047Y-180360476D01*
X171714285Y-180408095D01*
X148052380Y-78766666D02*
X148766666Y-78766666D01*
X148909523Y-78719047D01*
X149004761Y-78623809D01*
X149052380Y-78480952D01*
X149052380Y-78385714D01*
X149052380Y-79242857D02*
X148052380Y-79242857D01*
X148052380Y-79623809D01*
X148100000Y-79719047D01*
X148147619Y-79766666D01*
X148242857Y-79814285D01*
X148385714Y-79814285D01*
X148480952Y-79766666D01*
X148528571Y-79719047D01*
X148576190Y-79623809D01*
X148576190Y-79242857D01*
X148147619Y-80195238D02*
X148100000Y-80242857D01*
X148052380Y-80338095D01*
X148052380Y-80576190D01*
X148100000Y-80671428D01*
X148147619Y-80719047D01*
X148242857Y-80766666D01*
X148338095Y-80766666D01*
X148480952Y-80719047D01*
X149052380Y-80147619D01*
X149052380Y-80766666D01*
D11*
X146600000Y-73750000D02*
X144600000Y-73750000D01*
X144100000Y-77400000D02*
X144100000Y-76800000D01*
X144400000Y-77100000D02*
X144100000Y-77400000D01*
X144600000Y-73750000D02*
X144600000Y-77850000D01*
X144400000Y-77100000D02*
X144100000Y-76800000D01*
X146600000Y-77850000D02*
X146600000Y-73750000D01*
X144600000Y-77850000D02*
X146600000Y-77850000D01*
X173330000Y-186870000D02*
X170670000Y-186870000D01*
X173330000Y-183000000D02*
X173330000Y-181670000D01*
X173330000Y-184270000D02*
X173330000Y-186870000D01*
X170670000Y-184270000D02*
X170670000Y-186870000D01*
X173330000Y-181670000D02*
X172000000Y-181670000D01*
X173330000Y-184270000D02*
X170670000Y-184270000D01*
X150100000Y-74200000D02*
X150100000Y-74800000D01*
X149800000Y-74500000D02*
X150100000Y-74200000D01*
X147600000Y-77850000D02*
X149600000Y-77850000D01*
X149600000Y-77850000D02*
X149600000Y-73750000D01*
X147600000Y-73750000D02*
X147600000Y-77850000D01*
X149600000Y-73750000D02*
X147600000Y-73750000D01*
X149800000Y-74500000D02*
X150100000Y-74800000D01*
%LPC*%
D12*
X193500000Y-186250000D03*
X193500000Y-178750000D03*
X196151650Y-179848350D03*
X189750000Y-182500000D03*
D13*
X193500000Y-182500000D03*
D12*
X197250000Y-182500000D03*
X190848350Y-179848350D03*
X196151650Y-185151650D03*
X190848350Y-185151650D03*
X193500000Y-33750000D03*
X193500000Y-26250000D03*
X196151650Y-27348350D03*
X189750000Y-30000000D03*
D13*
X193500000Y-30000000D03*
D12*
X197250000Y-30000000D03*
X190848350Y-27348350D03*
X196151650Y-32651650D03*
X190848350Y-32651650D03*
X26500000Y-186250000D03*
X26500000Y-178750000D03*
X29151650Y-179848350D03*
X22750000Y-182500000D03*
D13*
X26500000Y-182500000D03*
D12*
X30250000Y-182500000D03*
X23848350Y-179848350D03*
X29151650Y-185151650D03*
X23848350Y-185151650D03*
X26500000Y-33750000D03*
X26500000Y-26250000D03*
X29151650Y-27348350D03*
X22750000Y-30000000D03*
D13*
X26500000Y-30000000D03*
D12*
X30250000Y-30000000D03*
X23848350Y-27348350D03*
X29151650Y-32651650D03*
X23848350Y-32651650D03*
D14*
X33250000Y-45250000D03*
D15*
X37450000Y-45250000D03*
X41650000Y-45250000D03*
X45850000Y-45250000D03*
X50050000Y-45250000D03*
X54250000Y-45250000D03*
X58450000Y-45250000D03*
X62650000Y-45250000D03*
X66850000Y-45250000D03*
X71050000Y-45250000D03*
X75250000Y-45250000D03*
X33250000Y-50750000D03*
X37450000Y-50750000D03*
X41650000Y-50750000D03*
X45850000Y-50750000D03*
X50050000Y-50750000D03*
X54250000Y-50750000D03*
X58450000Y-50750000D03*
X62650000Y-50750000D03*
X66850000Y-50750000D03*
X71050000Y-50750000D03*
X75250000Y-50750000D03*
D14*
X83000000Y-45250000D03*
D15*
X87200000Y-45250000D03*
X91400000Y-45250000D03*
X95600000Y-45250000D03*
X83000000Y-50750000D03*
X87200000Y-50750000D03*
X91400000Y-50750000D03*
X95600000Y-50750000D03*
D14*
X151600000Y-45250000D03*
D15*
X151600000Y-50750000D03*
D16*
X177000000Y-40935000D03*
D17*
X179500000Y-40935000D03*
X182000000Y-40935000D03*
D16*
X177000000Y-48902500D03*
D17*
X179500000Y-48902500D03*
X182000000Y-48902500D03*
D16*
X159750000Y-25000000D03*
D17*
X162250000Y-25000000D03*
X164750000Y-25000000D03*
X167250000Y-25000000D03*
D16*
X159750000Y-32967500D03*
D17*
X162250000Y-32967500D03*
X164750000Y-32967500D03*
X167250000Y-32967500D03*
D16*
X159750000Y-40935000D03*
D17*
X162250000Y-40935000D03*
X164750000Y-40935000D03*
X167250000Y-40935000D03*
D16*
X159750000Y-48902500D03*
D17*
X162250000Y-48902500D03*
X164750000Y-48902500D03*
X167250000Y-48902500D03*
D16*
X159750000Y-56870000D03*
D17*
X162250000Y-56870000D03*
X164750000Y-56870000D03*
X167250000Y-56870000D03*
D16*
X177000000Y-32967500D03*
D17*
X179500000Y-32967500D03*
X182000000Y-32967500D03*
D18*
X38200000Y-34200000D03*
D19*
X40200000Y-34200000D03*
X42200000Y-34200000D03*
X44200000Y-34200000D03*
X46200000Y-34200000D03*
D16*
X177000000Y-25000000D03*
D17*
X179500000Y-25000000D03*
X182000000Y-25000000D03*
D20*
X56060000Y-111775000D03*
X56060000Y-109235000D03*
X56060000Y-104155000D03*
X56060000Y-101615000D03*
X56060000Y-99075000D03*
X56060000Y-76215000D03*
X82460000Y-73675000D03*
X82460000Y-76215000D03*
X56060000Y-106695000D03*
X56060000Y-73675000D03*
X56060000Y-96535000D03*
D21*
X59100000Y-114815000D03*
X61640000Y-114815000D03*
X66720000Y-114815000D03*
X69260000Y-114815000D03*
D20*
X82460000Y-114315000D03*
X82460000Y-111775000D03*
X82460000Y-109235000D03*
X82460000Y-106695000D03*
X82460000Y-68595000D03*
D21*
X64180000Y-114815000D03*
D20*
X82460000Y-71135000D03*
X56060000Y-93995000D03*
X56060000Y-114315000D03*
X82460000Y-104155000D03*
X56060000Y-68595000D03*
X56060000Y-71135000D03*
D21*
X75610000Y-71635000D03*
X78150000Y-71635000D03*
X78150000Y-68095000D03*
X75610000Y-68095000D03*
X70530000Y-68095000D03*
X67990000Y-71635000D03*
X70530000Y-71635000D03*
X67990000Y-68095000D03*
D20*
X56060000Y-78755000D03*
X56060000Y-81295000D03*
X82460000Y-81295000D03*
X82460000Y-78755000D03*
D21*
X60370000Y-68095000D03*
X62910000Y-71635000D03*
X62910000Y-68095000D03*
X60370000Y-71635000D03*
D22*
X62849646Y-124000000D03*
D23*
X57849646Y-124000000D03*
D24*
X132100000Y-161200000D03*
D25*
X128675000Y-55700000D03*
X123675000Y-55700000D03*
X143675000Y-55700000D03*
X138675000Y-55700000D03*
D22*
X30517323Y-136000000D03*
D23*
X25517323Y-136000000D03*
D20*
X23560000Y-111775000D03*
X23560000Y-109235000D03*
X23560000Y-104155000D03*
X23560000Y-101615000D03*
X23560000Y-99075000D03*
X23560000Y-76215000D03*
X49960000Y-73675000D03*
X23560000Y-106695000D03*
X23560000Y-73675000D03*
X49960000Y-76215000D03*
X23560000Y-96535000D03*
D21*
X26600000Y-114815000D03*
X29140000Y-114815000D03*
X34220000Y-114815000D03*
X36760000Y-114815000D03*
D20*
X49960000Y-114315000D03*
X49960000Y-111775000D03*
X49960000Y-109235000D03*
X49960000Y-106695000D03*
D21*
X31680000Y-114815000D03*
D20*
X23560000Y-71135000D03*
X23560000Y-114315000D03*
X49960000Y-71135000D03*
X49960000Y-68595000D03*
X23560000Y-93995000D03*
X49960000Y-104155000D03*
X23560000Y-68595000D03*
D21*
X45650000Y-68095000D03*
X43110000Y-71635000D03*
X45650000Y-71635000D03*
X43110000Y-68095000D03*
X38030000Y-71635000D03*
X35490000Y-71635000D03*
X35490000Y-68095000D03*
X38030000Y-68095000D03*
D20*
X23560000Y-81295000D03*
X23560000Y-78755000D03*
X49960000Y-81295000D03*
X49960000Y-78755000D03*
D21*
X30410000Y-71635000D03*
X27870000Y-71635000D03*
X30410000Y-68095000D03*
X27870000Y-68095000D03*
D26*
X76650000Y-183350000D03*
D27*
X79190000Y-183350000D03*
X81730000Y-183350000D03*
X84270000Y-183350000D03*
X86810000Y-183350000D03*
X89350000Y-183350000D03*
X91890000Y-183350000D03*
X94430000Y-183350000D03*
X96970000Y-183350000D03*
X99510000Y-183350000D03*
D24*
X132100000Y-137200000D03*
D22*
X95349646Y-136000000D03*
D23*
X90349646Y-136000000D03*
D20*
X88560000Y-111775000D03*
X88560000Y-109235000D03*
X88560000Y-104155000D03*
X88560000Y-101615000D03*
X88560000Y-99075000D03*
X114960000Y-76215000D03*
X114960000Y-73675000D03*
X88560000Y-73675000D03*
X88560000Y-76215000D03*
X88560000Y-106695000D03*
X88560000Y-96535000D03*
D21*
X91600000Y-114815000D03*
X94140000Y-114815000D03*
X99220000Y-114815000D03*
X101760000Y-114815000D03*
D20*
X114960000Y-114315000D03*
X114960000Y-111775000D03*
X114960000Y-109235000D03*
X114960000Y-106695000D03*
X114960000Y-104155000D03*
X88560000Y-93995000D03*
X114960000Y-68595000D03*
D21*
X96680000Y-114815000D03*
D20*
X88560000Y-114315000D03*
X88560000Y-68595000D03*
X88560000Y-71135000D03*
X114960000Y-71135000D03*
D21*
X110650000Y-71635000D03*
X108110000Y-71635000D03*
X110650000Y-68095000D03*
X108110000Y-68095000D03*
X100490000Y-68095000D03*
X100490000Y-71635000D03*
X103030000Y-68095000D03*
X103030000Y-71635000D03*
D20*
X88560000Y-81295000D03*
X114960000Y-78755000D03*
X114960000Y-81295000D03*
X88560000Y-78755000D03*
D21*
X95410000Y-68095000D03*
X92870000Y-68095000D03*
X95410000Y-71635000D03*
X92870000Y-71635000D03*
D24*
X156100000Y-161200000D03*
D25*
X123675000Y-46350000D03*
X128675000Y-46350000D03*
X138675000Y-46350000D03*
X143675000Y-46350000D03*
D22*
X95349646Y-124000000D03*
D23*
X90349646Y-124000000D03*
D22*
X30517323Y-124000000D03*
D23*
X25517323Y-124000000D03*
D16*
X37200000Y-28000000D03*
D17*
X39700000Y-28000000D03*
X42200000Y-28000000D03*
X44700000Y-28000000D03*
X47200000Y-28000000D03*
D28*
X29450000Y-171524000D03*
X29450000Y-153124000D03*
X69850000Y-153124000D03*
X69850000Y-171524000D03*
D29*
X115100000Y-124700000D03*
D22*
X62849646Y-136000000D03*
D23*
X57849646Y-136000000D03*
D30*
X190320000Y-56870000D03*
D31*
X192820000Y-56870000D03*
D29*
X173100000Y-124700000D03*
D30*
X178250000Y-56870000D03*
D31*
X180750000Y-56870000D03*
D32*
X191870000Y-49852500D03*
D33*
X191870000Y-47352500D03*
X191870000Y-44852500D03*
X191870000Y-42352500D03*
D29*
X115100000Y-173700000D03*
D24*
X156100000Y-137200000D03*
D34*
X194115000Y-94140000D03*
D35*
X197145000Y-99290000D03*
D34*
X194115000Y-98990000D03*
D35*
X197145000Y-93840000D03*
D27*
X197275000Y-87675000D03*
X194735000Y-87675000D03*
D26*
X192195000Y-87675000D03*
D27*
X189655000Y-87675000D03*
X187115000Y-87675000D03*
X184575000Y-87675000D03*
X182035000Y-87675000D03*
D26*
X179495000Y-87675000D03*
D27*
X176955000Y-87675000D03*
X174415000Y-87675000D03*
X171875000Y-87675000D03*
X169335000Y-87675000D03*
D26*
X166795000Y-87675000D03*
D27*
X164255000Y-87675000D03*
X161715000Y-87675000D03*
X159175000Y-87675000D03*
X156635000Y-87675000D03*
D26*
X154095000Y-87675000D03*
D27*
X151555000Y-87675000D03*
X149015000Y-87675000D03*
X149015000Y-105455000D03*
X151555000Y-105455000D03*
D26*
X154095000Y-105455000D03*
D27*
X156635000Y-105455000D03*
X159175000Y-105455000D03*
X161715000Y-105455000D03*
X164255000Y-105455000D03*
D26*
X166795000Y-105455000D03*
D27*
X169335000Y-105455000D03*
X171875000Y-105455000D03*
X174415000Y-105455000D03*
X176955000Y-105455000D03*
D26*
X179495000Y-105455000D03*
D27*
X182035000Y-105455000D03*
X184575000Y-105455000D03*
X187115000Y-105455000D03*
X189655000Y-105455000D03*
D26*
X192195000Y-105455000D03*
D27*
X194735000Y-105455000D03*
X197275000Y-105455000D03*
X149245000Y-94025000D03*
D26*
X149245000Y-96565000D03*
D27*
X149245000Y-99105000D03*
D26*
X83000000Y-149870000D03*
D27*
X85540000Y-149870000D03*
X88080000Y-149870000D03*
X90620000Y-149870000D03*
X93160000Y-149870000D03*
X95700000Y-149870000D03*
X98240000Y-149870000D03*
X100780000Y-149870000D03*
D26*
X83000000Y-167650000D03*
D27*
X85540000Y-167650000D03*
X88080000Y-167650000D03*
X90620000Y-167650000D03*
X93160000Y-167650000D03*
X95700000Y-167650000D03*
X98240000Y-167650000D03*
X100780000Y-167650000D03*
D26*
X138800000Y-185800000D03*
D27*
X138800000Y-183260000D03*
X141340000Y-185800000D03*
X141340000Y-183260000D03*
X143880000Y-185800000D03*
X143880000Y-183260000D03*
X146420000Y-185800000D03*
X146420000Y-183260000D03*
D29*
X173100000Y-173700000D03*
D36*
X165860000Y-64240000D03*
X158240000Y-64240000D03*
X155700000Y-64240000D03*
X143000000Y-64240000D03*
X140460000Y-64240000D03*
X137920000Y-64240000D03*
X135380000Y-64240000D03*
X132840000Y-64240000D03*
X130300000Y-64240000D03*
X169924000Y-113500000D03*
X130300000Y-113500000D03*
X132840000Y-113500000D03*
X135380000Y-113500000D03*
X137920000Y-113500000D03*
X140460000Y-113500000D03*
X143000000Y-113500000D03*
X145540000Y-113500000D03*
X148080000Y-113500000D03*
X152144000Y-113500000D03*
X154684000Y-113500000D03*
X157224000Y-113500000D03*
X159764000Y-113500000D03*
X162304000Y-113500000D03*
X164844000Y-113500000D03*
X167384000Y-113500000D03*
X153160000Y-64240000D03*
X150620000Y-64240000D03*
X163320000Y-64240000D03*
X160780000Y-64240000D03*
X175004000Y-113500000D03*
X172464000Y-113500000D03*
X148080000Y-64240000D03*
D37*
X145600000Y-77100000D03*
X145600000Y-75800000D03*
X145600000Y-74500000D03*
D26*
X172000000Y-183000000D03*
D27*
X172000000Y-185540000D03*
D37*
X148600000Y-74500000D03*
X148600000Y-75800000D03*
X148600000Y-77100000D03*
M02*
