%TF.GenerationSoftware,KiCad,Pcbnew,(6.0.1)*%
%TF.CreationDate,2022-01-31T22:39:25+01:00*%
%TF.ProjectId,OpenMowerMainboard,4f70656e-4d6f-4776-9572-4d61696e626f,rev?*%
%TF.SameCoordinates,Original*%
%TF.FileFunction,Profile,NP*%
%FSLAX46Y46*%
G04 Gerber Fmt 4.6, Leading zero omitted, Abs format (unit mm)*
G04 Created by KiCad (PCBNEW (6.0.1)) date 2022-01-31 22:39:25*
%MOMM*%
%LPD*%
G01*
G04 APERTURE LIST*
%TA.AperFunction,Profile*%
%ADD10C,0.050000*%
%TD*%
%TA.AperFunction,Profile*%
%ADD11C,0.100000*%
%TD*%
G04 APERTURE END LIST*
D10*
X20000000Y-188000000D02*
X20000000Y-22000000D01*
X67000000Y-40000000D02*
X67000000Y-27000000D01*
X153000000Y-40000000D02*
X67000000Y-40000000D01*
X153000000Y-22000000D02*
X153000000Y-40000000D01*
X177000000Y-176000000D02*
X177000000Y-122000000D01*
X20000000Y-22000000D02*
X22000000Y-20000000D01*
X177000000Y-122000000D02*
X178000000Y-121000000D01*
X200000000Y-178000000D02*
X199000000Y-177000000D01*
X178000000Y-177000000D02*
X177000000Y-176000000D01*
D11*
X157100000Y-149200000D02*
G75*
G03*
X157100000Y-149200000I-13000000J0D01*
G01*
D10*
X198000000Y-20000000D02*
X200000000Y-22000000D01*
X198000000Y-190000000D02*
X22000000Y-190000000D01*
X199000000Y-121000000D02*
X200000000Y-120000000D01*
X198000000Y-20000000D02*
X155000000Y-20000000D01*
X60000000Y-20000000D02*
X67000000Y-27000000D01*
X200000000Y-120000000D02*
X200000000Y-22000000D01*
X22000000Y-20000000D02*
X60000000Y-20000000D01*
X155000000Y-20000000D02*
X153000000Y-22000000D01*
X178000000Y-121000000D02*
X199000000Y-121000000D01*
X198000000Y-190000000D02*
X200000000Y-188000000D01*
X20000000Y-188000000D02*
X22000000Y-190000000D01*
X199000000Y-177000000D02*
X178000000Y-177000000D01*
X200000000Y-188000000D02*
X200000000Y-178000000D01*
M02*
