%TF.GenerationSoftware,KiCad,Pcbnew,6.0.5+dfsg-1~bpo11+1*%
%TF.CreationDate,2022-06-24T18:44:56+00:00*%
%TF.ProjectId,OpenMowerMainboard,4f70656e-4d6f-4776-9572-4d61696e626f,rev?*%
%TF.SameCoordinates,Original*%
%TF.FileFunction,Soldermask,Top*%
%TF.FilePolarity,Negative*%
%FSLAX46Y46*%
G04 Gerber Fmt 4.6, Leading zero omitted, Abs format (unit mm)*
G04 Created by KiCad (PCBNEW 6.0.5+dfsg-1~bpo11+1) date 2022-06-24 18:44:56*
%MOMM*%
%LPD*%
G01*
G04 APERTURE LIST*
G04 Aperture macros list*
%AMRoundRect*
0 Rectangle with rounded corners*
0 $1 Rounding radius*
0 $2 $3 $4 $5 $6 $7 $8 $9 X,Y pos of 4 corners*
0 Add a 4 corners polygon primitive as box body*
4,1,4,$2,$3,$4,$5,$6,$7,$8,$9,$2,$3,0*
0 Add four circle primitives for the rounded corners*
1,1,$1+$1,$2,$3*
1,1,$1+$1,$4,$5*
1,1,$1+$1,$6,$7*
1,1,$1+$1,$8,$9*
0 Add four rect primitives between the rounded corners*
20,1,$1+$1,$2,$3,$4,$5,0*
20,1,$1+$1,$4,$5,$6,$7,0*
20,1,$1+$1,$6,$7,$8,$9,0*
20,1,$1+$1,$8,$9,$2,$3,0*%
%AMFreePoly0*
4,1,22,0.500000,-0.750000,0.000000,-0.750000,0.000000,-0.745033,-0.079941,-0.743568,-0.215256,-0.701293,-0.333266,-0.622738,-0.424486,-0.514219,-0.481581,-0.384460,-0.499164,-0.250000,-0.500000,-0.250000,-0.500000,0.250000,-0.499164,0.250000,-0.499963,0.256109,-0.478152,0.396186,-0.417904,0.524511,-0.324060,0.630769,-0.204165,0.706417,-0.067858,0.745374,0.000000,0.744959,0.000000,0.750000,
0.500000,0.750000,0.500000,-0.750000,0.500000,-0.750000,$1*%
%AMFreePoly1*
4,1,20,0.000000,0.744959,0.073905,0.744508,0.209726,0.703889,0.328688,0.626782,0.421226,0.519385,0.479903,0.390333,0.500000,0.250000,0.500000,-0.250000,0.499851,-0.262216,0.476331,-0.402017,0.414519,-0.529596,0.319384,-0.634700,0.198574,-0.708877,0.061801,-0.746166,0.000000,-0.745033,0.000000,-0.750000,-0.500000,-0.750000,-0.500000,0.750000,0.000000,0.750000,0.000000,0.744959,
0.000000,0.744959,$1*%
G04 Aperture macros list end*
%ADD10RoundRect,0.250001X-1.099999X-1.399999X1.099999X-1.399999X1.099999X1.399999X-1.099999X1.399999X0*%
%ADD11O,2.700000X3.300000*%
%ADD12RoundRect,0.250000X-0.600000X-0.725000X0.600000X-0.725000X0.600000X0.725000X-0.600000X0.725000X0*%
%ADD13O,1.700000X1.950000*%
%ADD14RoundRect,0.249999X-0.350001X-0.625001X0.350001X-0.625001X0.350001X0.625001X-0.350001X0.625001X0*%
%ADD15O,1.200000X1.750000*%
%ADD16C,0.900000*%
%ADD17C,10.000000*%
%ADD18R,1.800000X3.500000*%
%ADD19C,2.000000*%
%ADD20O,3.000000X1.700000*%
%ADD21O,1.700000X3.000000*%
%ADD22R,0.400000X1.000000*%
%ADD23RoundRect,0.250000X-0.450000X0.350000X-0.450000X-0.350000X0.450000X-0.350000X0.450000X0.350000X0*%
%ADD24RoundRect,0.225000X-0.250000X0.225000X-0.250000X-0.225000X0.250000X-0.225000X0.250000X0.225000X0*%
%ADD25RoundRect,0.150000X-0.587500X-0.150000X0.587500X-0.150000X0.587500X0.150000X-0.587500X0.150000X0*%
%ADD26RoundRect,0.250000X0.350000X0.450000X-0.350000X0.450000X-0.350000X-0.450000X0.350000X-0.450000X0*%
%ADD27RoundRect,0.250000X-0.350000X-0.450000X0.350000X-0.450000X0.350000X0.450000X-0.350000X0.450000X0*%
%ADD28RoundRect,0.250000X-0.337500X-0.475000X0.337500X-0.475000X0.337500X0.475000X-0.337500X0.475000X0*%
%ADD29R,2.000000X2.000000*%
%ADD30RoundRect,0.243750X-0.456250X0.243750X-0.456250X-0.243750X0.456250X-0.243750X0.456250X0.243750X0*%
%ADD31C,6.950000*%
%ADD32RoundRect,0.150000X0.512500X0.150000X-0.512500X0.150000X-0.512500X-0.150000X0.512500X-0.150000X0*%
%ADD33RoundRect,0.250000X1.950000X1.000000X-1.950000X1.000000X-1.950000X-1.000000X1.950000X-1.000000X0*%
%ADD34C,2.350000*%
%ADD35RoundRect,0.250000X0.450000X-0.350000X0.450000X0.350000X-0.450000X0.350000X-0.450000X-0.350000X0*%
%ADD36R,1.100000X1.100000*%
%ADD37R,1.700000X1.700000*%
%ADD38O,1.700000X1.700000*%
%ADD39RoundRect,0.225000X0.250000X-0.225000X0.250000X0.225000X-0.250000X0.225000X-0.250000X-0.225000X0*%
%ADD40RoundRect,0.250000X0.650000X-0.325000X0.650000X0.325000X-0.650000X0.325000X-0.650000X-0.325000X0*%
%ADD41R,2.500000X2.300000*%
%ADD42R,3.429000X2.413000*%
%ADD43R,2.500000X1.800000*%
%ADD44RoundRect,0.250000X-0.475000X0.337500X-0.475000X-0.337500X0.475000X-0.337500X0.475000X0.337500X0*%
%ADD45RoundRect,0.150000X0.150000X-0.587500X0.150000X0.587500X-0.150000X0.587500X-0.150000X-0.587500X0*%
%ADD46R,3.048000X3.048000*%
%ADD47C,6.200000*%
%ADD48R,1.000000X3.000000*%
%ADD49FreePoly0,180.000000*%
%ADD50FreePoly1,180.000000*%
%ADD51RoundRect,0.250000X-0.650000X0.325000X-0.650000X-0.325000X0.650000X-0.325000X0.650000X0.325000X0*%
%ADD52R,0.650000X1.560000*%
%ADD53RoundRect,0.250000X-0.600000X-0.750000X0.600000X-0.750000X0.600000X0.750000X-0.600000X0.750000X0*%
%ADD54O,1.700000X2.000000*%
%ADD55RoundRect,0.250000X-1.950000X-1.000000X1.950000X-1.000000X1.950000X1.000000X-1.950000X1.000000X0*%
%ADD56R,1.500000X1.000000*%
%ADD57R,0.300000X1.425000*%
%ADD58R,1.150000X0.600000*%
%ADD59RoundRect,0.225000X0.225000X0.250000X-0.225000X0.250000X-0.225000X-0.250000X0.225000X-0.250000X0*%
%ADD60RoundRect,0.250000X0.725000X-0.600000X0.725000X0.600000X-0.725000X0.600000X-0.725000X-0.600000X0*%
%ADD61O,1.950000X1.700000*%
%ADD62RoundRect,0.250000X-0.475000X0.250000X-0.475000X-0.250000X0.475000X-0.250000X0.475000X0.250000X0*%
%ADD63R,1.200000X2.200000*%
%ADD64R,5.800000X6.400000*%
%ADD65R,1.000000X1.500000*%
%ADD66O,1.500000X1.500000*%
%ADD67O,1.800000X1.800000*%
%ADD68R,1.700000X3.500000*%
%ADD69R,3.500000X1.700000*%
%ADD70RoundRect,0.160000X0.222500X0.160000X-0.222500X0.160000X-0.222500X-0.160000X0.222500X-0.160000X0*%
%ADD71FreePoly0,90.000000*%
%ADD72FreePoly1,90.000000*%
%ADD73RoundRect,0.250000X0.337500X0.475000X-0.337500X0.475000X-0.337500X-0.475000X0.337500X-0.475000X0*%
%ADD74R,0.875000X0.300000*%
%ADD75R,1.525000X0.250000*%
%ADD76R,1.525000X0.950000*%
%ADD77R,0.450000X0.600000*%
%ADD78R,0.300000X1.650000*%
%ADD79R,0.450000X0.875000*%
%ADD80R,0.300000X0.875000*%
%ADD81R,0.500000X0.350000*%
%ADD82R,0.600000X0.250000*%
%ADD83RoundRect,0.249999X0.450001X1.425001X-0.450001X1.425001X-0.450001X-1.425001X0.450001X-1.425001X0*%
%ADD84RoundRect,0.150000X0.150000X-0.825000X0.150000X0.825000X-0.150000X0.825000X-0.150000X-0.825000X0*%
%ADD85O,1.727200X2.500000*%
%ADD86RoundRect,0.150000X0.587500X0.150000X-0.587500X0.150000X-0.587500X-0.150000X0.587500X-0.150000X0*%
G04 APERTURE END LIST*
D10*
%TO.C,J1*%
X33250000Y-45250000D03*
D11*
X37450000Y-45250000D03*
X41650000Y-45250000D03*
X45850000Y-45250000D03*
X50050000Y-45250000D03*
X54250000Y-45250000D03*
X58450000Y-45250000D03*
X62650000Y-45250000D03*
X66850000Y-45250000D03*
X71050000Y-45250000D03*
X75250000Y-45250000D03*
X33250000Y-50750000D03*
X37450000Y-50750000D03*
X41650000Y-50750000D03*
X45850000Y-50750000D03*
X50050000Y-50750000D03*
X54250000Y-50750000D03*
X58450000Y-50750000D03*
X62650000Y-50750000D03*
X66850000Y-50750000D03*
X71050000Y-50750000D03*
X75250000Y-50750000D03*
%TD*%
D10*
%TO.C,J2*%
X83000000Y-45250000D03*
D11*
X87200000Y-45250000D03*
X91400000Y-45250000D03*
X95600000Y-45250000D03*
X83000000Y-50750000D03*
X87200000Y-50750000D03*
X91400000Y-50750000D03*
X95600000Y-50750000D03*
%TD*%
D10*
%TO.C,J3*%
X151600000Y-45250000D03*
D11*
X151600000Y-50750000D03*
%TD*%
D12*
%TO.C,J13*%
X177000000Y-40935000D03*
D13*
X179500000Y-40935000D03*
X182000000Y-40935000D03*
%TD*%
D12*
%TO.C,J14*%
X177000000Y-48902500D03*
D13*
X179500000Y-48902500D03*
X182000000Y-48902500D03*
%TD*%
D12*
%TO.C,J5*%
X159750000Y-25000000D03*
D13*
X162250000Y-25000000D03*
X164750000Y-25000000D03*
X167250000Y-25000000D03*
%TD*%
D12*
%TO.C,J6*%
X159750000Y-32967500D03*
D13*
X162250000Y-32967500D03*
X164750000Y-32967500D03*
X167250000Y-32967500D03*
%TD*%
D12*
%TO.C,J7*%
X159750000Y-40935000D03*
D13*
X162250000Y-40935000D03*
X164750000Y-40935000D03*
X167250000Y-40935000D03*
%TD*%
D12*
%TO.C,J8*%
X159750000Y-48902500D03*
D13*
X162250000Y-48902500D03*
X164750000Y-48902500D03*
X167250000Y-48902500D03*
%TD*%
D12*
%TO.C,J9*%
X159750000Y-56870000D03*
D13*
X162250000Y-56870000D03*
X164750000Y-56870000D03*
X167250000Y-56870000D03*
%TD*%
D12*
%TO.C,J12*%
X177000000Y-32967500D03*
D13*
X179500000Y-32967500D03*
X182000000Y-32967500D03*
%TD*%
D14*
%TO.C,J10*%
X38200000Y-34200000D03*
D15*
X40200000Y-34200000D03*
X42200000Y-34200000D03*
X44200000Y-34200000D03*
X46200000Y-34200000D03*
%TD*%
D12*
%TO.C,J11*%
X177000000Y-25000000D03*
D13*
X179500000Y-25000000D03*
X182000000Y-25000000D03*
%TD*%
D16*
%TO.C,H1*%
X23848350Y-32651650D03*
X29151650Y-27348350D03*
X22750000Y-30000000D03*
X30250000Y-30000000D03*
X23848350Y-27348350D03*
X29151650Y-32651650D03*
X26500000Y-26250000D03*
X26500000Y-33750000D03*
D17*
X26500000Y-30000000D03*
%TD*%
D16*
%TO.C,H2*%
X30250000Y-182500000D03*
D17*
X26500000Y-182500000D03*
D16*
X23848350Y-179848350D03*
X22750000Y-182500000D03*
X29151650Y-179848350D03*
X26500000Y-186250000D03*
X29151650Y-185151650D03*
X26500000Y-178750000D03*
X23848350Y-185151650D03*
%TD*%
%TO.C,H3*%
X196151650Y-32651650D03*
X197250000Y-30000000D03*
X193500000Y-26250000D03*
D17*
X193500000Y-30000000D03*
D16*
X193500000Y-33750000D03*
X196151650Y-27348350D03*
X190848350Y-27348350D03*
X190848350Y-32651650D03*
X189750000Y-30000000D03*
%TD*%
%TO.C,H4*%
X193500000Y-186250000D03*
X196151650Y-179848350D03*
X197250000Y-182500000D03*
X190848350Y-185151650D03*
X190848350Y-179848350D03*
X196151650Y-185151650D03*
D17*
X193500000Y-182500000D03*
D16*
X189750000Y-182500000D03*
X193500000Y-178750000D03*
%TD*%
D18*
%TO.C,D15*%
X123250000Y-67300000D03*
X123250000Y-62300000D03*
%TD*%
D19*
%TO.C,FID16*%
X118200000Y-55950000D03*
%TD*%
D20*
%TO.C,U5*%
X56060000Y-111775000D03*
X56060000Y-109235000D03*
X56060000Y-104155000D03*
X56060000Y-101615000D03*
X56060000Y-99075000D03*
X56060000Y-76215000D03*
X82460000Y-73675000D03*
X82460000Y-76215000D03*
X56060000Y-106695000D03*
X56060000Y-73675000D03*
X56060000Y-96535000D03*
D21*
X59100000Y-114815000D03*
X61640000Y-114815000D03*
X66720000Y-114815000D03*
X69260000Y-114815000D03*
D20*
X82460000Y-114315000D03*
X82460000Y-111775000D03*
X82460000Y-109235000D03*
X82460000Y-106695000D03*
X82460000Y-68595000D03*
D21*
X64180000Y-114815000D03*
D20*
X82460000Y-71135000D03*
X56060000Y-93995000D03*
X56060000Y-114315000D03*
X82460000Y-104155000D03*
X56060000Y-68595000D03*
X56060000Y-71135000D03*
D21*
X75610000Y-71635000D03*
X78150000Y-71635000D03*
X78150000Y-68095000D03*
X75610000Y-68095000D03*
X70530000Y-68095000D03*
X67990000Y-71635000D03*
X70530000Y-71635000D03*
X67990000Y-68095000D03*
D20*
X56060000Y-78755000D03*
X56060000Y-81295000D03*
X82460000Y-81295000D03*
X82460000Y-78755000D03*
D21*
X60370000Y-68095000D03*
X62910000Y-71635000D03*
X62910000Y-68095000D03*
X60370000Y-71635000D03*
%TD*%
D22*
%TO.C,U9*%
X128925000Y-79900000D03*
X129575000Y-79900000D03*
X130225000Y-79900000D03*
X130875000Y-79900000D03*
X131525000Y-79900000D03*
X132175000Y-79900000D03*
X132825000Y-79900000D03*
X133475000Y-79900000D03*
X133475000Y-74100000D03*
X132825000Y-74100000D03*
X132175000Y-74100000D03*
X131525000Y-74100000D03*
X130875000Y-74100000D03*
X130225000Y-74100000D03*
X129575000Y-74100000D03*
X128925000Y-74100000D03*
%TD*%
D23*
%TO.C,R5*%
X159000000Y-183000000D03*
X159000000Y-185000000D03*
%TD*%
D24*
%TO.C,C19*%
X56200000Y-172625000D03*
X56200000Y-174175000D03*
%TD*%
D25*
%TO.C,Q3*%
X162062500Y-183050000D03*
X162062500Y-184950000D03*
X163937500Y-184000000D03*
%TD*%
D26*
%TO.C,R41*%
X154800000Y-56800000D03*
X152800000Y-56800000D03*
%TD*%
D27*
%TO.C,R26*%
X109220000Y-62650000D03*
X111220000Y-62650000D03*
%TD*%
D19*
%TO.C,FID6*%
X130000000Y-122000000D03*
%TD*%
D28*
%TO.C,C25*%
X108962500Y-180800000D03*
X111037500Y-180800000D03*
%TD*%
D29*
%TO.C,C3*%
X62849646Y-124000000D03*
D19*
X57849646Y-124000000D03*
%TD*%
D30*
%TO.C,D23*%
X106000000Y-184522500D03*
X106000000Y-186397500D03*
%TD*%
D31*
%TO.C,MH6*%
X132100000Y-161200000D03*
%TD*%
D32*
%TO.C,U7*%
X111307500Y-186220000D03*
X111307500Y-185270000D03*
X111307500Y-184320000D03*
X109032500Y-184320000D03*
X109032500Y-186220000D03*
%TD*%
D33*
%TO.C,C10*%
X41000000Y-168000000D03*
X32600000Y-168000000D03*
%TD*%
D34*
%TO.C,F4*%
X128675000Y-55700000D03*
X123675000Y-55700000D03*
X143675000Y-55700000D03*
X138675000Y-55700000D03*
%TD*%
D26*
%TO.C,R40*%
X150600000Y-56800000D03*
X148600000Y-56800000D03*
%TD*%
D35*
%TO.C,R50*%
X196320000Y-79720000D03*
X196320000Y-77720000D03*
%TD*%
D26*
%TO.C,R43*%
X154800000Y-59000000D03*
X152800000Y-59000000D03*
%TD*%
D23*
%TO.C,R13*%
X88090000Y-161600000D03*
X88090000Y-163600000D03*
%TD*%
D36*
%TO.C,D14*%
X132800000Y-107800000D03*
X135600000Y-107800000D03*
%TD*%
D29*
%TO.C,C2*%
X30517323Y-136000000D03*
D19*
X25517323Y-136000000D03*
%TD*%
D20*
%TO.C,U4*%
X23560000Y-111775000D03*
X23560000Y-109235000D03*
X23560000Y-104155000D03*
X23560000Y-101615000D03*
X23560000Y-99075000D03*
X23560000Y-76215000D03*
X49960000Y-73675000D03*
X23560000Y-106695000D03*
X23560000Y-73675000D03*
X49960000Y-76215000D03*
X23560000Y-96535000D03*
D21*
X26600000Y-114815000D03*
X29140000Y-114815000D03*
X34220000Y-114815000D03*
X36760000Y-114815000D03*
D20*
X49960000Y-114315000D03*
X49960000Y-111775000D03*
X49960000Y-109235000D03*
X49960000Y-106695000D03*
D21*
X31680000Y-114815000D03*
D20*
X23560000Y-71135000D03*
X23560000Y-114315000D03*
X49960000Y-71135000D03*
X49960000Y-68595000D03*
X23560000Y-93995000D03*
X49960000Y-104155000D03*
X23560000Y-68595000D03*
D21*
X45650000Y-68095000D03*
X43110000Y-71635000D03*
X45650000Y-71635000D03*
X43110000Y-68095000D03*
X38030000Y-71635000D03*
X35490000Y-71635000D03*
X35490000Y-68095000D03*
X38030000Y-68095000D03*
D20*
X23560000Y-81295000D03*
X23560000Y-78755000D03*
X49960000Y-81295000D03*
X49960000Y-78755000D03*
D21*
X30410000Y-71635000D03*
X27870000Y-71635000D03*
X30410000Y-68095000D03*
X27870000Y-68095000D03*
%TD*%
D37*
%TO.C,J20*%
X76650000Y-183350000D03*
D38*
X79190000Y-183350000D03*
X81730000Y-183350000D03*
X84270000Y-183350000D03*
X86810000Y-183350000D03*
X89350000Y-183350000D03*
X91890000Y-183350000D03*
X94430000Y-183350000D03*
X96970000Y-183350000D03*
X99510000Y-183350000D03*
%TD*%
D27*
%TO.C,R15*%
X168216666Y-79600000D03*
X170216666Y-79600000D03*
%TD*%
D31*
%TO.C,MH7*%
X132100000Y-137200000D03*
%TD*%
D29*
%TO.C,C4*%
X95349646Y-136000000D03*
D19*
X90349646Y-136000000D03*
%TD*%
%TO.C,FID5*%
X182000000Y-183000000D03*
%TD*%
D23*
%TO.C,R48*%
X193320000Y-77720000D03*
X193320000Y-79720000D03*
%TD*%
D33*
%TO.C,C9*%
X41000000Y-156600000D03*
X32600000Y-156600000D03*
%TD*%
D39*
%TO.C,C18*%
X56200000Y-170775000D03*
X56200000Y-169225000D03*
%TD*%
D19*
%TO.C,FID11*%
X80100000Y-155950000D03*
%TD*%
D40*
%TO.C,C16*%
X58600000Y-170675000D03*
X58600000Y-167725000D03*
%TD*%
D41*
%TO.C,D7*%
X73175000Y-77750000D03*
X77475000Y-77750000D03*
%TD*%
D42*
%TO.C,L1*%
X50800000Y-166479000D03*
X50800000Y-172321000D03*
%TD*%
D43*
%TO.C,D19*%
X70150000Y-97400000D03*
X74150000Y-97400000D03*
%TD*%
D41*
%TO.C,D5*%
X28545000Y-78250000D03*
X32845000Y-78250000D03*
%TD*%
D20*
%TO.C,U6*%
X88560000Y-111775000D03*
X88560000Y-109235000D03*
X88560000Y-104155000D03*
X88560000Y-101615000D03*
X88560000Y-99075000D03*
X114960000Y-76215000D03*
X114960000Y-73675000D03*
X88560000Y-73675000D03*
X88560000Y-76215000D03*
X88560000Y-106695000D03*
X88560000Y-96535000D03*
D21*
X91600000Y-114815000D03*
X94140000Y-114815000D03*
X99220000Y-114815000D03*
X101760000Y-114815000D03*
D20*
X114960000Y-114315000D03*
X114960000Y-111775000D03*
X114960000Y-109235000D03*
X114960000Y-106695000D03*
X114960000Y-104155000D03*
X88560000Y-93995000D03*
X114960000Y-68595000D03*
D21*
X96680000Y-114815000D03*
D20*
X88560000Y-114315000D03*
X88560000Y-68595000D03*
X88560000Y-71135000D03*
X114960000Y-71135000D03*
D21*
X110650000Y-71635000D03*
X108110000Y-71635000D03*
X110650000Y-68095000D03*
X108110000Y-68095000D03*
X100490000Y-68095000D03*
X100490000Y-71635000D03*
X103030000Y-68095000D03*
X103030000Y-71635000D03*
D20*
X88560000Y-81295000D03*
X114960000Y-78755000D03*
X114960000Y-81295000D03*
X88560000Y-78755000D03*
D21*
X95410000Y-68095000D03*
X92870000Y-68095000D03*
X95410000Y-71635000D03*
X92870000Y-71635000D03*
%TD*%
D41*
%TO.C,D9*%
X67100000Y-84250000D03*
X71400000Y-84250000D03*
%TD*%
D26*
%TO.C,R11*%
X59300000Y-153300000D03*
X57300000Y-153300000D03*
%TD*%
D35*
%TO.C,R7*%
X85550000Y-163600000D03*
X85550000Y-161600000D03*
%TD*%
D31*
%TO.C,MH5*%
X156100000Y-161200000D03*
%TD*%
D36*
%TO.C,D13*%
X135600000Y-105200000D03*
X132800000Y-105200000D03*
%TD*%
D35*
%TO.C,R44*%
X187320000Y-79720000D03*
X187320000Y-77720000D03*
%TD*%
D26*
%TO.C,R12*%
X63500000Y-153300000D03*
X61500000Y-153300000D03*
%TD*%
D34*
%TO.C,F2*%
X123675000Y-46350000D03*
X128675000Y-46350000D03*
X138675000Y-46350000D03*
X143675000Y-46350000D03*
%TD*%
D29*
%TO.C,C8*%
X95349646Y-124000000D03*
D19*
X90349646Y-124000000D03*
%TD*%
D29*
%TO.C,C6*%
X30517323Y-124000000D03*
D19*
X25517323Y-124000000D03*
%TD*%
D22*
%TO.C,U10*%
X136325000Y-80000000D03*
X136975000Y-80000000D03*
X137625000Y-80000000D03*
X138275000Y-80000000D03*
X138925000Y-80000000D03*
X139575000Y-80000000D03*
X140225000Y-80000000D03*
X140875000Y-80000000D03*
X140875000Y-74200000D03*
X140225000Y-74200000D03*
X139575000Y-74200000D03*
X138925000Y-74200000D03*
X138275000Y-74200000D03*
X137625000Y-74200000D03*
X136975000Y-74200000D03*
X136325000Y-74200000D03*
%TD*%
D43*
%TO.C,D20*%
X100950000Y-97350000D03*
X104950000Y-97350000D03*
%TD*%
D44*
%TO.C,C5*%
X181320000Y-70682500D03*
X181320000Y-72757500D03*
%TD*%
D19*
%TO.C,FID1*%
X91000000Y-176000000D03*
%TD*%
%TO.C,FID9*%
X109200000Y-175400000D03*
%TD*%
D45*
%TO.C,Q16*%
X172499999Y-76537500D03*
X174399999Y-76537500D03*
X173449999Y-74662500D03*
%TD*%
D12*
%TO.C,J4*%
X37200000Y-28000000D03*
D13*
X39700000Y-28000000D03*
X42200000Y-28000000D03*
X44700000Y-28000000D03*
X47200000Y-28000000D03*
%TD*%
D46*
%TO.C,U1*%
X29450000Y-171524000D03*
X29450000Y-153124000D03*
X69850000Y-153124000D03*
X69850000Y-171524000D03*
%TD*%
D19*
%TO.C,FID10*%
X62100000Y-92400000D03*
%TD*%
D47*
%TO.C,MH3*%
X115100000Y-124700000D03*
%TD*%
D48*
%TO.C,J21*%
X119970000Y-171180000D03*
X119970000Y-176220000D03*
X122510000Y-171180000D03*
X122510000Y-176220000D03*
X125050000Y-171180000D03*
X125050000Y-176220000D03*
X127590000Y-171180000D03*
X127590000Y-176220000D03*
X130130000Y-171180000D03*
X130130000Y-176220000D03*
X132670000Y-171180000D03*
X132670000Y-176220000D03*
X135210000Y-171180000D03*
X135210000Y-176220000D03*
X137750000Y-171180000D03*
X137750000Y-176220000D03*
X140290000Y-171180000D03*
X140290000Y-176220000D03*
X142830000Y-171180000D03*
X142830000Y-176220000D03*
X145370000Y-171180000D03*
X145370000Y-176220000D03*
X147910000Y-171180000D03*
X147910000Y-176220000D03*
X150450000Y-171180000D03*
X150450000Y-176220000D03*
X152990000Y-171180000D03*
X152990000Y-176220000D03*
X155530000Y-171180000D03*
X155530000Y-176220000D03*
X158070000Y-171180000D03*
X158070000Y-176220000D03*
X160610000Y-171180000D03*
X160610000Y-176220000D03*
X163150000Y-171180000D03*
X163150000Y-176220000D03*
X165690000Y-171180000D03*
X165690000Y-176220000D03*
X168230000Y-171180000D03*
X168230000Y-176220000D03*
%TD*%
D49*
%TO.C,JP6*%
X134050000Y-93800000D03*
D50*
X132750000Y-93800000D03*
%TD*%
D23*
%TO.C,R46*%
X181320000Y-77720000D03*
X181320000Y-79720000D03*
%TD*%
D27*
%TO.C,R2*%
X158600000Y-122030000D03*
X160600000Y-122030000D03*
%TD*%
%TO.C,R9*%
X163983333Y-79600000D03*
X165983333Y-79600000D03*
%TD*%
%TO.C,R10*%
X163983333Y-71800000D03*
X165983333Y-71800000D03*
%TD*%
D29*
%TO.C,C7*%
X62849646Y-136000000D03*
D19*
X57849646Y-136000000D03*
%TD*%
D27*
%TO.C,R19*%
X172449999Y-79600000D03*
X174449999Y-79600000D03*
%TD*%
D51*
%TO.C,C20*%
X61400000Y-172725000D03*
X61400000Y-175675000D03*
%TD*%
D41*
%TO.C,D10*%
X105675000Y-77750000D03*
X109975000Y-77750000D03*
%TD*%
D52*
%TO.C,U3*%
X122430000Y-182060000D03*
X121480000Y-182060000D03*
X120530000Y-182060000D03*
X120530000Y-184760000D03*
X121480000Y-184760000D03*
X122430000Y-184760000D03*
%TD*%
D23*
%TO.C,R18*%
X106000000Y-179840000D03*
X106000000Y-181840000D03*
%TD*%
D26*
%TO.C,R42*%
X150600000Y-59000000D03*
X148600000Y-59000000D03*
%TD*%
D23*
%TO.C,R49*%
X190320000Y-77720000D03*
X190320000Y-79720000D03*
%TD*%
D27*
%TO.C,R16*%
X168216666Y-71800000D03*
X170216666Y-71800000D03*
%TD*%
D51*
%TO.C,C11*%
X57700000Y-160925000D03*
X57700000Y-163875000D03*
%TD*%
D40*
%TO.C,C22*%
X61400000Y-170675000D03*
X61400000Y-167725000D03*
%TD*%
D53*
%TO.C,J18*%
X190320000Y-56870000D03*
D54*
X192820000Y-56870000D03*
%TD*%
D55*
%TO.C,C23*%
X66800000Y-156600000D03*
X75200000Y-156600000D03*
%TD*%
D47*
%TO.C,MH4*%
X173100000Y-124700000D03*
%TD*%
D56*
%TO.C,JP5*%
X57700000Y-155800000D03*
X57700000Y-157100000D03*
X57700000Y-158400000D03*
%TD*%
D39*
%TO.C,C17*%
X55200000Y-158775000D03*
X55200000Y-157225000D03*
%TD*%
D27*
%TO.C,R27*%
X109170000Y-60450000D03*
X111170000Y-60450000D03*
%TD*%
D35*
%TO.C,R4*%
X156000000Y-185000000D03*
X156000000Y-183000000D03*
%TD*%
D57*
%TO.C,IC1*%
X155950000Y-71988000D03*
X155450000Y-71988000D03*
X154950000Y-71988000D03*
X154450000Y-71988000D03*
X153950000Y-71988000D03*
X153450000Y-71988000D03*
X152950000Y-71988000D03*
X152450000Y-71988000D03*
X151950000Y-71988000D03*
X151450000Y-71988000D03*
X150950000Y-71988000D03*
X150450000Y-71988000D03*
X149950000Y-71988000D03*
X149450000Y-71988000D03*
X148950000Y-71988000D03*
X148450000Y-71988000D03*
X147950000Y-71988000D03*
X147450000Y-71988000D03*
X146950000Y-71988000D03*
X146450000Y-71988000D03*
X145950000Y-71988000D03*
X145450000Y-71988000D03*
X144950000Y-71988000D03*
X144450000Y-71988000D03*
X144450000Y-79612000D03*
X144950000Y-79612000D03*
X145450000Y-79612000D03*
X145950000Y-79612000D03*
X146450000Y-79612000D03*
X146950000Y-79612000D03*
X147450000Y-79612000D03*
X147950000Y-79612000D03*
X148450000Y-79612000D03*
X148950000Y-79612000D03*
X149450000Y-79612000D03*
X149950000Y-79612000D03*
X150450000Y-79612000D03*
X150950000Y-79612000D03*
X151450000Y-79612000D03*
X151950000Y-79612000D03*
X152450000Y-79612000D03*
X152950000Y-79612000D03*
X153450000Y-79612000D03*
X153950000Y-79612000D03*
X154450000Y-79612000D03*
X154950000Y-79612000D03*
X155450000Y-79612000D03*
X155950000Y-79612000D03*
%TD*%
D58*
%TO.C,IC2*%
X135500000Y-102150000D03*
X135500000Y-101200000D03*
X135500000Y-100250000D03*
X132900000Y-100250000D03*
X132900000Y-102150000D03*
%TD*%
D53*
%TO.C,J17*%
X178250000Y-56870000D03*
D54*
X180750000Y-56870000D03*
%TD*%
D59*
%TO.C,C15*%
X46675000Y-159100000D03*
X45125000Y-159100000D03*
%TD*%
D45*
%TO.C,Q13*%
X159800000Y-76537500D03*
X161700000Y-76537500D03*
X160750000Y-74662500D03*
%TD*%
D41*
%TO.C,D11*%
X93545000Y-77750000D03*
X97845000Y-77750000D03*
%TD*%
D19*
%TO.C,FID15*%
X24550000Y-156950000D03*
%TD*%
D27*
%TO.C,R20*%
X172449999Y-71800000D03*
X174449999Y-71800000D03*
%TD*%
D60*
%TO.C,J19*%
X191870000Y-49852500D03*
D61*
X191870000Y-47352500D03*
X191870000Y-44852500D03*
X191870000Y-42352500D03*
%TD*%
D41*
%TO.C,D4*%
X40675000Y-78250000D03*
X44975000Y-78250000D03*
%TD*%
D45*
%TO.C,Q15*%
X168266666Y-76537500D03*
X170166666Y-76537500D03*
X169216666Y-74662500D03*
%TD*%
D19*
%TO.C,FID13*%
X32550000Y-92400000D03*
%TD*%
D62*
%TO.C,C14*%
X55200000Y-160850000D03*
X55200000Y-162750000D03*
%TD*%
D19*
%TO.C,FID12*%
X76650000Y-57400000D03*
%TD*%
D41*
%TO.C,D12*%
X99600000Y-84250000D03*
X103900000Y-84250000D03*
%TD*%
D43*
%TO.C,D18*%
X37000000Y-97400000D03*
X41000000Y-97400000D03*
%TD*%
D47*
%TO.C,MH2*%
X115100000Y-173700000D03*
%TD*%
D41*
%TO.C,D6*%
X34600000Y-84250000D03*
X38900000Y-84250000D03*
%TD*%
D63*
%TO.C,Q6*%
X106230000Y-49480000D03*
D64*
X103950000Y-55780000D03*
D63*
X101670000Y-49480000D03*
%TD*%
D27*
%TO.C,R8*%
X51900000Y-153300000D03*
X53900000Y-153300000D03*
%TD*%
D65*
%TO.C,D25*%
X113785000Y-185805000D03*
X116985000Y-185805000D03*
X116985000Y-180905000D03*
X113785000Y-180905000D03*
%TD*%
D31*
%TO.C,MH8*%
X156100000Y-137200000D03*
%TD*%
D19*
%TO.C,TP5*%
X129600000Y-106400000D03*
%TD*%
D66*
%TO.C,U11*%
X194115000Y-94140000D03*
D67*
X197145000Y-99290000D03*
D66*
X194115000Y-98990000D03*
D67*
X197145000Y-93840000D03*
D38*
X197275000Y-87675000D03*
D68*
X197275000Y-86775000D03*
X194735000Y-86775000D03*
D38*
X194735000Y-87675000D03*
D37*
X192195000Y-87675000D03*
D68*
X192195000Y-86775000D03*
X189655000Y-86775000D03*
D38*
X189655000Y-87675000D03*
D68*
X187115000Y-86775000D03*
D38*
X187115000Y-87675000D03*
D68*
X184575000Y-86775000D03*
D38*
X184575000Y-87675000D03*
X182035000Y-87675000D03*
D68*
X182035000Y-86775000D03*
D37*
X179495000Y-87675000D03*
D68*
X179495000Y-86775000D03*
X176955000Y-86775000D03*
D38*
X176955000Y-87675000D03*
X174415000Y-87675000D03*
D68*
X174415000Y-86775000D03*
D38*
X171875000Y-87675000D03*
D68*
X171875000Y-86775000D03*
X169335000Y-86775000D03*
D38*
X169335000Y-87675000D03*
D37*
X166795000Y-87675000D03*
D68*
X166795000Y-86775000D03*
X164255000Y-86775000D03*
D38*
X164255000Y-87675000D03*
X161715000Y-87675000D03*
D68*
X161715000Y-86775000D03*
X159175000Y-86775000D03*
D38*
X159175000Y-87675000D03*
D68*
X156635000Y-86775000D03*
D38*
X156635000Y-87675000D03*
D37*
X154095000Y-87675000D03*
D68*
X154095000Y-86775000D03*
D38*
X151555000Y-87675000D03*
D68*
X151555000Y-86775000D03*
D38*
X149015000Y-87675000D03*
D68*
X149015000Y-86775000D03*
D38*
X149015000Y-105455000D03*
D68*
X149015000Y-106355000D03*
D38*
X151555000Y-105455000D03*
D68*
X151555000Y-106355000D03*
X154095000Y-106355000D03*
D37*
X154095000Y-105455000D03*
D38*
X156635000Y-105455000D03*
D68*
X156635000Y-106355000D03*
X159175000Y-106355000D03*
D38*
X159175000Y-105455000D03*
D68*
X161715000Y-106355000D03*
D38*
X161715000Y-105455000D03*
D68*
X164255000Y-106355000D03*
D38*
X164255000Y-105455000D03*
D68*
X166795000Y-106355000D03*
D37*
X166795000Y-105455000D03*
D38*
X169335000Y-105455000D03*
D68*
X169335000Y-106355000D03*
X171875000Y-106355000D03*
D38*
X171875000Y-105455000D03*
D68*
X174415000Y-106355000D03*
D38*
X174415000Y-105455000D03*
D68*
X176955000Y-106355000D03*
D38*
X176955000Y-105455000D03*
D68*
X179495000Y-106355000D03*
D37*
X179495000Y-105455000D03*
D38*
X182035000Y-105455000D03*
D68*
X182035000Y-106355000D03*
X184575000Y-106355000D03*
D38*
X184575000Y-105455000D03*
X187115000Y-105455000D03*
D68*
X187115000Y-106355000D03*
D38*
X189655000Y-105455000D03*
D68*
X189655000Y-106355000D03*
D37*
X192195000Y-105455000D03*
D68*
X192195000Y-106355000D03*
X194735000Y-106355000D03*
D38*
X194735000Y-105455000D03*
X197275000Y-105455000D03*
D68*
X197275000Y-106355000D03*
D69*
X148345000Y-94025000D03*
D38*
X149245000Y-94025000D03*
D69*
X148345000Y-96565000D03*
D37*
X149245000Y-96565000D03*
D38*
X149245000Y-99105000D03*
D69*
X148345000Y-99105000D03*
%TD*%
D70*
%TO.C,D17*%
X72372500Y-177600000D03*
X71227500Y-177600000D03*
%TD*%
D37*
%TO.C,J23*%
X83000000Y-149870000D03*
D38*
X85540000Y-149870000D03*
X88080000Y-149870000D03*
X90620000Y-149870000D03*
X93160000Y-149870000D03*
X95700000Y-149870000D03*
X98240000Y-149870000D03*
X100780000Y-149870000D03*
%TD*%
D27*
%TO.C,R3*%
X159750000Y-79600000D03*
X161750000Y-79600000D03*
%TD*%
D19*
%TO.C,FID4*%
X176000000Y-65000000D03*
%TD*%
D26*
%TO.C,R28*%
X111230000Y-54750000D03*
X109230000Y-54750000D03*
%TD*%
D37*
%TO.C,J16*%
X83000000Y-167650000D03*
D38*
X85540000Y-167650000D03*
X88080000Y-167650000D03*
X90620000Y-167650000D03*
X93160000Y-167650000D03*
X95700000Y-167650000D03*
X98240000Y-167650000D03*
X100780000Y-167650000D03*
%TD*%
D49*
%TO.C,JP9*%
X140850000Y-87000000D03*
D50*
X139550000Y-87000000D03*
%TD*%
D18*
%TO.C,D2*%
X112400000Y-45900000D03*
X112400000Y-50900000D03*
%TD*%
D19*
%TO.C,FID7*%
X51000000Y-178000000D03*
%TD*%
D71*
%TO.C,JP8*%
X152600000Y-185250000D03*
D72*
X152600000Y-183950000D03*
%TD*%
D73*
%TO.C,C1*%
X130637500Y-102200000D03*
X128562500Y-102200000D03*
%TD*%
D74*
%TO.C,IC3*%
X49188000Y-159450000D03*
X49188000Y-159950000D03*
D75*
X49513000Y-160450000D03*
D76*
X49513000Y-161500000D03*
D77*
X49475000Y-162275000D03*
D78*
X50800000Y-161750000D03*
D77*
X52125000Y-162275000D03*
D76*
X52087000Y-161500000D03*
D75*
X52087000Y-160450000D03*
D74*
X52412000Y-159950000D03*
X52412000Y-159450000D03*
D79*
X52125000Y-158663000D03*
D80*
X51550000Y-158663000D03*
X51050000Y-158663000D03*
X50550000Y-158663000D03*
X50050000Y-158663000D03*
D79*
X49475000Y-158663000D03*
D81*
X49000000Y-158925000D03*
D82*
X50800000Y-160800000D03*
D81*
X52600000Y-158925000D03*
%TD*%
D19*
%TO.C,FID14*%
X187650000Y-35950000D03*
%TD*%
D41*
%TO.C,D8*%
X61045000Y-78250000D03*
X65345000Y-78250000D03*
%TD*%
D19*
%TO.C,TP2*%
X196320000Y-69720000D03*
%TD*%
D51*
%TO.C,C21*%
X58600000Y-172725000D03*
X58600000Y-175675000D03*
%TD*%
D37*
%TO.C,J22*%
X138800000Y-185800000D03*
D38*
X138800000Y-183260000D03*
X141340000Y-185800000D03*
X141340000Y-183260000D03*
X143880000Y-185800000D03*
X143880000Y-183260000D03*
X146420000Y-185800000D03*
X146420000Y-183260000D03*
%TD*%
D19*
%TO.C,FID2*%
X170000000Y-144000000D03*
%TD*%
D51*
%TO.C,C12*%
X43900000Y-161025000D03*
X43900000Y-163975000D03*
%TD*%
D83*
%TO.C,R51*%
X107950000Y-44500000D03*
X101850000Y-44500000D03*
%TD*%
D19*
%TO.C,FID8*%
X181000000Y-112000000D03*
%TD*%
D65*
%TO.C,JP4*%
X46300000Y-153157500D03*
X47600000Y-153157500D03*
X48900000Y-153157500D03*
%TD*%
D47*
%TO.C,MH1*%
X173100000Y-173700000D03*
%TD*%
D71*
%TO.C,JP7*%
X149800000Y-185250000D03*
D72*
X149800000Y-183950000D03*
%TD*%
D84*
%TO.C,U2*%
X184510000Y-74195000D03*
X185780000Y-74195000D03*
X187050000Y-74195000D03*
X188320000Y-74195000D03*
X189590000Y-74195000D03*
X190860000Y-74195000D03*
X192130000Y-74195000D03*
X192130000Y-69245000D03*
X190860000Y-69245000D03*
X189590000Y-69245000D03*
X188320000Y-69245000D03*
X187050000Y-69245000D03*
X185780000Y-69245000D03*
X184510000Y-69245000D03*
%TD*%
D23*
%TO.C,R47*%
X184320000Y-77720000D03*
X184320000Y-79720000D03*
%TD*%
D62*
%TO.C,C13*%
X46400000Y-160950000D03*
X46400000Y-162850000D03*
%TD*%
D45*
%TO.C,Q14*%
X164033333Y-76537500D03*
X165933333Y-76537500D03*
X164983333Y-74662500D03*
%TD*%
D27*
%TO.C,R1*%
X158600000Y-124980000D03*
X160600000Y-124980000D03*
%TD*%
%TO.C,R6*%
X159750000Y-71800000D03*
X161750000Y-71800000D03*
%TD*%
D19*
%TO.C,TP1*%
X196320000Y-73720000D03*
%TD*%
D36*
%TO.C,D1*%
X167000000Y-182600000D03*
X167000000Y-185400000D03*
%TD*%
D85*
%TO.C,XA1*%
X165860000Y-64240000D03*
X158240000Y-64240000D03*
X155700000Y-64240000D03*
X143000000Y-64240000D03*
X140460000Y-64240000D03*
X137920000Y-64240000D03*
X135380000Y-64240000D03*
X132840000Y-64240000D03*
X130300000Y-64240000D03*
X169924000Y-113500000D03*
X130300000Y-113500000D03*
X132840000Y-113500000D03*
X135380000Y-113500000D03*
X137920000Y-113500000D03*
X140460000Y-113500000D03*
X143000000Y-113500000D03*
X145540000Y-113500000D03*
X148080000Y-113500000D03*
X152144000Y-113500000D03*
X154684000Y-113500000D03*
X157224000Y-113500000D03*
X159764000Y-113500000D03*
X162304000Y-113500000D03*
X164844000Y-113500000D03*
X167384000Y-113500000D03*
X153160000Y-64240000D03*
X150620000Y-64240000D03*
X163320000Y-64240000D03*
X160780000Y-64240000D03*
X175004000Y-113500000D03*
X172464000Y-113500000D03*
X148080000Y-64240000D03*
%TD*%
D18*
%TO.C,D3*%
X116200000Y-50900000D03*
X116200000Y-45900000D03*
%TD*%
%TO.C,D16*%
X119200000Y-67250000D03*
X119200000Y-62250000D03*
%TD*%
D86*
%TO.C,Q5*%
X111097500Y-58600000D03*
X111097500Y-56700000D03*
X109222500Y-57650000D03*
%TD*%
D19*
%TO.C,FID3*%
X129000000Y-94000000D03*
%TD*%
D23*
%TO.C,R45*%
X178320000Y-77720000D03*
X178320000Y-79720000D03*
%TD*%
D37*
%TO.C,M1*%
X172000000Y-183000000D03*
D38*
X172000000Y-185540000D03*
%TD*%
M02*
