%TF.GenerationSoftware,KiCad,Pcbnew,6.0.11+dfsg-1~bpo11+1*%
%TF.CreationDate,2023-03-23T17:02:29+00:00*%
%TF.ProjectId,OpenMowerMainboard,4f70656e-4d6f-4776-9572-4d61696e626f,rev?*%
%TF.SameCoordinates,Original*%
%TF.FileFunction,Soldermask,Top*%
%TF.FilePolarity,Negative*%
%FSLAX46Y46*%
G04 Gerber Fmt 4.6, Leading zero omitted, Abs format (unit mm)*
G04 Created by KiCad (PCBNEW 6.0.11+dfsg-1~bpo11+1) date 2023-03-23 17:02:29*
%MOMM*%
%LPD*%
G01*
G04 APERTURE LIST*
G04 Aperture macros list*
%AMRoundRect*
0 Rectangle with rounded corners*
0 $1 Rounding radius*
0 $2 $3 $4 $5 $6 $7 $8 $9 X,Y pos of 4 corners*
0 Add a 4 corners polygon primitive as box body*
4,1,4,$2,$3,$4,$5,$6,$7,$8,$9,$2,$3,0*
0 Add four circle primitives for the rounded corners*
1,1,$1+$1,$2,$3*
1,1,$1+$1,$4,$5*
1,1,$1+$1,$6,$7*
1,1,$1+$1,$8,$9*
0 Add four rect primitives between the rounded corners*
20,1,$1+$1,$2,$3,$4,$5,0*
20,1,$1+$1,$4,$5,$6,$7,0*
20,1,$1+$1,$6,$7,$8,$9,0*
20,1,$1+$1,$8,$9,$2,$3,0*%
%AMFreePoly0*
4,1,22,0.500000,-0.750000,0.000000,-0.750000,0.000000,-0.745033,-0.079941,-0.743568,-0.215256,-0.701293,-0.333266,-0.622738,-0.424486,-0.514219,-0.481581,-0.384460,-0.499164,-0.250000,-0.500000,-0.250000,-0.500000,0.250000,-0.499164,0.250000,-0.499963,0.256109,-0.478152,0.396186,-0.417904,0.524511,-0.324060,0.630769,-0.204165,0.706417,-0.067858,0.745374,0.000000,0.744959,0.000000,0.750000,
0.500000,0.750000,0.500000,-0.750000,0.500000,-0.750000,$1*%
%AMFreePoly1*
4,1,20,0.000000,0.744959,0.073905,0.744508,0.209726,0.703889,0.328688,0.626782,0.421226,0.519385,0.479903,0.390333,0.500000,0.250000,0.500000,-0.250000,0.499851,-0.262216,0.476331,-0.402017,0.414519,-0.529596,0.319384,-0.634700,0.198574,-0.708877,0.061801,-0.746166,0.000000,-0.745033,0.000000,-0.750000,-0.500000,-0.750000,-0.500000,0.750000,0.000000,0.750000,0.000000,0.744959,
0.000000,0.744959,$1*%
%AMFreePoly2*
4,1,57,1.881438,0.792513,1.914631,0.788760,1.924366,0.782642,1.935575,0.780064,1.961670,0.759195,1.989950,0.741421,2.341668,0.389704,2.359398,0.361385,2.380215,0.335261,2.382772,0.324050,2.388875,0.314303,2.392571,0.281098,2.400000,0.248529,2.400000,-0.248878,2.392513,-0.281438,2.388760,-0.314632,2.382641,-0.324367,2.380064,-0.335575,2.359196,-0.361669,2.341421,-0.389950,
1.989704,-0.741668,1.961385,-0.759398,1.935261,-0.780215,1.924050,-0.782772,1.914303,-0.788875,1.881098,-0.792571,1.848529,-0.800000,-0.248878,-0.800000,-0.281438,-0.792513,-0.314632,-0.788760,-0.324367,-0.782641,-0.335575,-0.780064,-0.361669,-0.759196,-0.389950,-0.741421,-0.741668,-0.389704,-0.759398,-0.361385,-0.780215,-0.335261,-0.782772,-0.324050,-0.788875,-0.314303,-0.792571,-0.281098,
-0.800000,-0.248529,-0.800000,0.248878,-0.792513,0.281438,-0.788760,0.314631,-0.782642,0.324366,-0.780064,0.335575,-0.759195,0.361670,-0.741421,0.389950,-0.389704,0.741668,-0.361385,0.759398,-0.335261,0.780215,-0.324050,0.782772,-0.314303,0.788875,-0.281098,0.792571,-0.248529,0.800000,1.848878,0.800000,1.881438,0.792513,1.881438,0.792513,$1*%
%AMFreePoly3*
4,1,57,0.281438,0.792513,0.314631,0.788760,0.324366,0.782642,0.335575,0.780064,0.361670,0.759195,0.389950,0.741421,0.741668,0.389704,0.759398,0.361385,0.780215,0.335261,0.782772,0.324050,0.788875,0.314303,0.792571,0.281098,0.800000,0.248529,0.800000,-0.248878,0.792513,-0.281438,0.788760,-0.314632,0.782641,-0.324367,0.780064,-0.335575,0.759196,-0.361669,0.741421,-0.389950,
0.389704,-0.741668,0.361385,-0.759398,0.335261,-0.780215,0.324050,-0.782772,0.314303,-0.788875,0.281098,-0.792571,0.248529,-0.800000,-0.248878,-0.800000,-0.281438,-0.792513,-0.314632,-0.788760,-0.324367,-0.782641,-0.335575,-0.780064,-0.361669,-0.759196,-0.389950,-0.741421,-0.741668,-0.389704,-0.759398,-0.361385,-0.780215,-0.335261,-0.782772,-0.324050,-0.788875,-0.314303,-0.792571,-0.281098,
-0.800000,-0.248529,-0.800000,0.248878,-0.792513,0.281438,-0.788760,0.314631,-0.782642,0.324366,-0.780064,0.335575,-0.759195,0.361670,-0.741421,0.389950,-0.389704,0.741668,-0.361385,0.759398,-0.335261,0.780215,-0.324050,0.782772,-0.314303,0.788875,-0.281098,0.792571,-0.248529,0.800000,0.248878,0.800000,0.281438,0.792513,0.281438,0.792513,$1*%
%AMFreePoly4*
4,1,57,0.281438,2.392513,0.314631,2.388760,0.324366,2.382642,0.335575,2.380064,0.361670,2.359195,0.389950,2.341421,0.741668,1.989704,0.759398,1.961385,0.780215,1.935261,0.782772,1.924050,0.788875,1.914303,0.792571,1.881098,0.800000,1.848529,0.800000,-0.248878,0.792513,-0.281438,0.788760,-0.314632,0.782641,-0.324367,0.780064,-0.335575,0.759196,-0.361669,0.741421,-0.389950,
0.389704,-0.741668,0.361385,-0.759398,0.335261,-0.780215,0.324050,-0.782772,0.314303,-0.788875,0.281098,-0.792571,0.248529,-0.800000,-0.248878,-0.800000,-0.281438,-0.792513,-0.314632,-0.788760,-0.324367,-0.782641,-0.335575,-0.780064,-0.361669,-0.759196,-0.389950,-0.741421,-0.741668,-0.389704,-0.759398,-0.361385,-0.780215,-0.335261,-0.782772,-0.324050,-0.788875,-0.314303,-0.792571,-0.281098,
-0.800000,-0.248529,-0.800000,1.848878,-0.792513,1.881438,-0.788760,1.914631,-0.782642,1.924366,-0.780064,1.935575,-0.759195,1.961670,-0.741421,1.989950,-0.389704,2.341668,-0.361385,2.359398,-0.335261,2.380215,-0.324050,2.382772,-0.314303,2.388875,-0.281098,2.392571,-0.248529,2.400000,0.248878,2.400000,0.281438,2.392513,0.281438,2.392513,$1*%
G04 Aperture macros list end*
%ADD10RoundRect,0.250001X-1.099999X-1.399999X1.099999X-1.399999X1.099999X1.399999X-1.099999X1.399999X0*%
%ADD11O,2.700000X3.300000*%
%ADD12RoundRect,0.250000X-0.600000X-0.725000X0.600000X-0.725000X0.600000X0.725000X-0.600000X0.725000X0*%
%ADD13O,1.700000X1.950000*%
%ADD14RoundRect,0.249999X0.350001X0.625001X-0.350001X0.625001X-0.350001X-0.625001X0.350001X-0.625001X0*%
%ADD15O,1.200000X1.750000*%
%ADD16C,0.900000*%
%ADD17C,10.000000*%
%ADD18R,1.800000X3.500000*%
%ADD19C,2.000000*%
%ADD20O,3.000000X1.700000*%
%ADD21O,1.700000X3.000000*%
%ADD22R,0.400000X1.000000*%
%ADD23RoundRect,0.250000X-0.450000X0.350000X-0.450000X-0.350000X0.450000X-0.350000X0.450000X0.350000X0*%
%ADD24RoundRect,0.225000X-0.250000X0.225000X-0.250000X-0.225000X0.250000X-0.225000X0.250000X0.225000X0*%
%ADD25RoundRect,0.150000X-0.587500X-0.150000X0.587500X-0.150000X0.587500X0.150000X-0.587500X0.150000X0*%
%ADD26RoundRect,0.250000X0.350000X0.450000X-0.350000X0.450000X-0.350000X-0.450000X0.350000X-0.450000X0*%
%ADD27RoundRect,0.250000X-0.350000X-0.450000X0.350000X-0.450000X0.350000X0.450000X-0.350000X0.450000X0*%
%ADD28R,1.700000X1.700000*%
%ADD29O,1.700000X1.700000*%
%ADD30R,0.475000X0.250000*%
%ADD31R,0.250000X0.475000*%
%ADD32RoundRect,0.250000X-0.337500X-0.475000X0.337500X-0.475000X0.337500X0.475000X-0.337500X0.475000X0*%
%ADD33R,2.000000X2.000000*%
%ADD34RoundRect,0.243750X-0.456250X0.243750X-0.456250X-0.243750X0.456250X-0.243750X0.456250X0.243750X0*%
%ADD35RoundRect,0.250000X0.450000X-0.350000X0.450000X0.350000X-0.450000X0.350000X-0.450000X-0.350000X0*%
%ADD36C,6.950000*%
%ADD37RoundRect,0.150000X0.512500X0.150000X-0.512500X0.150000X-0.512500X-0.150000X0.512500X-0.150000X0*%
%ADD38RoundRect,0.250000X1.950000X1.000000X-1.950000X1.000000X-1.950000X-1.000000X1.950000X-1.000000X0*%
%ADD39C,2.350000*%
%ADD40RoundRect,0.225000X0.250000X-0.225000X0.250000X0.225000X-0.250000X0.225000X-0.250000X-0.225000X0*%
%ADD41R,1.000000X1.500000*%
%ADD42R,1.100000X1.100000*%
%ADD43R,1.500000X1.000000*%
%ADD44RoundRect,0.250000X0.650000X-0.325000X0.650000X0.325000X-0.650000X0.325000X-0.650000X-0.325000X0*%
%ADD45R,2.500000X2.300000*%
%ADD46R,3.429000X2.413000*%
%ADD47R,2.500000X1.800000*%
%ADD48RoundRect,0.250000X-0.475000X0.337500X-0.475000X-0.337500X0.475000X-0.337500X0.475000X0.337500X0*%
%ADD49RoundRect,0.150000X0.150000X-0.587500X0.150000X0.587500X-0.150000X0.587500X-0.150000X-0.587500X0*%
%ADD50R,3.048000X3.048000*%
%ADD51C,6.200000*%
%ADD52C,1.300000*%
%ADD53R,1.020000X3.600000*%
%ADD54FreePoly0,180.000000*%
%ADD55FreePoly1,180.000000*%
%ADD56RoundRect,0.250000X-0.650000X0.325000X-0.650000X-0.325000X0.650000X-0.325000X0.650000X0.325000X0*%
%ADD57R,0.650000X1.560000*%
%ADD58RoundRect,0.250000X-0.600000X-0.750000X0.600000X-0.750000X0.600000X0.750000X-0.600000X0.750000X0*%
%ADD59O,1.700000X2.000000*%
%ADD60RoundRect,0.250000X-1.950000X-1.000000X1.950000X-1.000000X1.950000X1.000000X-1.950000X1.000000X0*%
%ADD61R,0.300000X1.425000*%
%ADD62R,1.150000X0.600000*%
%ADD63RoundRect,0.225000X0.225000X0.250000X-0.225000X0.250000X-0.225000X-0.250000X0.225000X-0.250000X0*%
%ADD64RoundRect,0.250000X0.725000X-0.600000X0.725000X0.600000X-0.725000X0.600000X-0.725000X-0.600000X0*%
%ADD65O,1.950000X1.700000*%
%ADD66C,1.200000*%
%ADD67R,0.600000X0.700000*%
%ADD68R,0.900000X0.700000*%
%ADD69RoundRect,0.250000X-0.475000X0.250000X-0.475000X-0.250000X0.475000X-0.250000X0.475000X0.250000X0*%
%ADD70R,1.200000X2.200000*%
%ADD71R,5.800000X6.400000*%
%ADD72O,1.800000X1.100000*%
%ADD73O,1.450000X1.050000*%
%ADD74FreePoly2,270.000000*%
%ADD75FreePoly3,270.000000*%
%ADD76C,1.600000*%
%ADD77O,1.600000X3.200000*%
%ADD78RoundRect,0.200000X-0.600000X0.600000X-0.600000X-0.600000X0.600000X-0.600000X0.600000X0.600000X0*%
%ADD79RoundRect,0.200000X-0.600000X1.400000X-0.600000X-1.400000X0.600000X-1.400000X0.600000X1.400000X0*%
%ADD80FreePoly4,270.000000*%
%ADD81RoundRect,0.200000X-1.400000X0.600000X-1.400000X-0.600000X1.400000X-0.600000X1.400000X0.600000X0*%
%ADD82O,3.200000X1.600000*%
%ADD83RoundRect,0.160000X0.222500X0.160000X-0.222500X0.160000X-0.222500X-0.160000X0.222500X-0.160000X0*%
%ADD84FreePoly0,90.000000*%
%ADD85FreePoly1,90.000000*%
%ADD86RoundRect,0.250000X0.337500X0.475000X-0.337500X0.475000X-0.337500X-0.475000X0.337500X-0.475000X0*%
%ADD87R,0.875000X0.300000*%
%ADD88R,1.525000X0.250000*%
%ADD89R,1.525000X0.950000*%
%ADD90R,0.450000X0.600000*%
%ADD91R,0.300000X1.650000*%
%ADD92R,0.450000X0.875000*%
%ADD93R,0.300000X0.875000*%
%ADD94R,0.500000X0.350000*%
%ADD95R,0.600000X0.250000*%
%ADD96RoundRect,0.249999X0.450001X1.425001X-0.450001X1.425001X-0.450001X-1.425001X0.450001X-1.425001X0*%
%ADD97RoundRect,0.150000X0.150000X-0.825000X0.150000X0.825000X-0.150000X0.825000X-0.150000X-0.825000X0*%
%ADD98O,1.727200X2.500000*%
%ADD99RoundRect,0.150000X0.587500X0.150000X-0.587500X0.150000X-0.587500X-0.150000X0.587500X-0.150000X0*%
G04 APERTURE END LIST*
D10*
%TO.C,J1*%
X33250000Y-45250000D03*
D11*
X37450000Y-45250000D03*
X41650000Y-45250000D03*
X45850000Y-45250000D03*
X50050000Y-45250000D03*
X54250000Y-45250000D03*
X58450000Y-45250000D03*
X62650000Y-45250000D03*
X66850000Y-45250000D03*
X71050000Y-45250000D03*
X75250000Y-45250000D03*
X33250000Y-50750000D03*
X37450000Y-50750000D03*
X41650000Y-50750000D03*
X45850000Y-50750000D03*
X50050000Y-50750000D03*
X54250000Y-50750000D03*
X58450000Y-50750000D03*
X62650000Y-50750000D03*
X66850000Y-50750000D03*
X71050000Y-50750000D03*
X75250000Y-50750000D03*
%TD*%
D10*
%TO.C,J2*%
X83000000Y-45250000D03*
D11*
X87200000Y-45250000D03*
X91400000Y-45250000D03*
X95600000Y-45250000D03*
X83000000Y-50750000D03*
X87200000Y-50750000D03*
X91400000Y-50750000D03*
X95600000Y-50750000D03*
%TD*%
D10*
%TO.C,J3*%
X151600000Y-45250000D03*
D11*
X151600000Y-50750000D03*
%TD*%
D12*
%TO.C,J13*%
X177000000Y-40935000D03*
D13*
X179500000Y-40935000D03*
X182000000Y-40935000D03*
%TD*%
D12*
%TO.C,J14*%
X177000000Y-48902500D03*
D13*
X179500000Y-48902500D03*
X182000000Y-48902500D03*
%TD*%
D12*
%TO.C,J5*%
X159750000Y-25000000D03*
D13*
X162250000Y-25000000D03*
X164750000Y-25000000D03*
X167250000Y-25000000D03*
%TD*%
D12*
%TO.C,J6*%
X159750000Y-32967500D03*
D13*
X162250000Y-32967500D03*
X164750000Y-32967500D03*
X167250000Y-32967500D03*
%TD*%
D12*
%TO.C,J7*%
X159750000Y-40935000D03*
D13*
X162250000Y-40935000D03*
X164750000Y-40935000D03*
X167250000Y-40935000D03*
%TD*%
D12*
%TO.C,J8*%
X159750000Y-48902500D03*
D13*
X162250000Y-48902500D03*
X164750000Y-48902500D03*
X167250000Y-48902500D03*
%TD*%
D12*
%TO.C,J9*%
X159750000Y-56870000D03*
D13*
X162250000Y-56870000D03*
X164750000Y-56870000D03*
X167250000Y-56870000D03*
%TD*%
D12*
%TO.C,J12*%
X177000000Y-32967500D03*
D13*
X179500000Y-32967500D03*
X182000000Y-32967500D03*
%TD*%
D14*
%TO.C,J10*%
X46196000Y-36195000D03*
D15*
X44196000Y-36195000D03*
X42196000Y-36195000D03*
X40196000Y-36195000D03*
X38196000Y-36195000D03*
%TD*%
D12*
%TO.C,J11*%
X177000000Y-25000000D03*
D13*
X179500000Y-25000000D03*
X182000000Y-25000000D03*
%TD*%
D16*
%TO.C,H1*%
X23848350Y-32651650D03*
X29151650Y-27348350D03*
X22750000Y-30000000D03*
X30250000Y-30000000D03*
X23848350Y-27348350D03*
X29151650Y-32651650D03*
X26500000Y-26250000D03*
X26500000Y-33750000D03*
D17*
X26500000Y-30000000D03*
%TD*%
D16*
%TO.C,H2*%
X30250000Y-182500000D03*
D17*
X26500000Y-182500000D03*
D16*
X23848350Y-179848350D03*
X22750000Y-182500000D03*
X29151650Y-179848350D03*
X26500000Y-186250000D03*
X29151650Y-185151650D03*
X26500000Y-178750000D03*
X23848350Y-185151650D03*
%TD*%
%TO.C,H3*%
X196151650Y-32651650D03*
X197250000Y-30000000D03*
X193500000Y-26250000D03*
D17*
X193500000Y-30000000D03*
D16*
X193500000Y-33750000D03*
X196151650Y-27348350D03*
X190848350Y-27348350D03*
X190848350Y-32651650D03*
X189750000Y-30000000D03*
%TD*%
%TO.C,H4*%
X193500000Y-186250000D03*
X196151650Y-179848350D03*
X197250000Y-182500000D03*
X190848350Y-185151650D03*
X190848350Y-179848350D03*
X196151650Y-185151650D03*
D17*
X193500000Y-182500000D03*
D16*
X189750000Y-182500000D03*
X193500000Y-178750000D03*
%TD*%
D18*
%TO.C,D15*%
X123250000Y-67300000D03*
X123250000Y-62300000D03*
%TD*%
D19*
%TO.C,FID16*%
X118200000Y-55950000D03*
%TD*%
D20*
%TO.C,U5*%
X56060000Y-111775000D03*
X56060000Y-109235000D03*
X56060000Y-104155000D03*
X56060000Y-101615000D03*
X56060000Y-99075000D03*
X56060000Y-76215000D03*
X82460000Y-73675000D03*
X82460000Y-76215000D03*
X56060000Y-106695000D03*
X56060000Y-73675000D03*
X56060000Y-96535000D03*
D21*
X59100000Y-114815000D03*
X61640000Y-114815000D03*
X66720000Y-114815000D03*
X69260000Y-114815000D03*
D20*
X82460000Y-114315000D03*
X82460000Y-111775000D03*
X82460000Y-109235000D03*
X82460000Y-106695000D03*
X82460000Y-68595000D03*
D21*
X64180000Y-114815000D03*
D20*
X82460000Y-71135000D03*
X56060000Y-93995000D03*
X56060000Y-114315000D03*
X82460000Y-104155000D03*
X56060000Y-68595000D03*
X56060000Y-71135000D03*
D21*
X75610000Y-71635000D03*
X78150000Y-71635000D03*
X78150000Y-68095000D03*
X75610000Y-68095000D03*
X70530000Y-68095000D03*
X67990000Y-71635000D03*
X70530000Y-71635000D03*
X67990000Y-68095000D03*
D20*
X56060000Y-78755000D03*
X56060000Y-81295000D03*
X82460000Y-81295000D03*
X82460000Y-78755000D03*
D21*
X60370000Y-68095000D03*
X62910000Y-71635000D03*
X62910000Y-68095000D03*
X60370000Y-71635000D03*
%TD*%
D22*
%TO.C,U9*%
X128925000Y-79900000D03*
X129575000Y-79900000D03*
X130225000Y-79900000D03*
X130875000Y-79900000D03*
X131525000Y-79900000D03*
X132175000Y-79900000D03*
X132825000Y-79900000D03*
X133475000Y-79900000D03*
X133475000Y-74100000D03*
X132825000Y-74100000D03*
X132175000Y-74100000D03*
X131525000Y-74100000D03*
X130875000Y-74100000D03*
X130225000Y-74100000D03*
X129575000Y-74100000D03*
X128925000Y-74100000D03*
%TD*%
D23*
%TO.C,R5*%
X159000000Y-183000000D03*
X159000000Y-185000000D03*
%TD*%
D24*
%TO.C,C19*%
X56200000Y-172625000D03*
X56200000Y-174175000D03*
%TD*%
D25*
%TO.C,Q3*%
X162062500Y-183050000D03*
X162062500Y-184950000D03*
X163937500Y-184000000D03*
%TD*%
D26*
%TO.C,R41*%
X154800000Y-56800000D03*
X152800000Y-56800000D03*
%TD*%
D27*
%TO.C,R26*%
X109220000Y-62650000D03*
X111220000Y-62650000D03*
%TD*%
D28*
%TO.C,J51*%
X126542800Y-180644800D03*
D29*
X126542800Y-183184800D03*
%TD*%
D30*
%TO.C,AC1201*%
X84162500Y-164750000D03*
X84162500Y-164250000D03*
X84162500Y-163750000D03*
X84162500Y-163250000D03*
D31*
X83500000Y-163087500D03*
X83000000Y-163087500D03*
X82500000Y-163087500D03*
D30*
X81837500Y-163250000D03*
X81837500Y-163750000D03*
X81837500Y-164250000D03*
X81837500Y-164750000D03*
D31*
X82500000Y-164912500D03*
X83000000Y-164912500D03*
X83500000Y-164912500D03*
%TD*%
D19*
%TO.C,FID6*%
X130000000Y-122000000D03*
%TD*%
D32*
%TO.C,C25*%
X108962500Y-180800000D03*
X111037500Y-180800000D03*
%TD*%
D33*
%TO.C,C3*%
X79235005Y-124612400D03*
D19*
X79235005Y-119612400D03*
%TD*%
D34*
%TO.C,D23*%
X106000000Y-184522500D03*
X106000000Y-186397500D03*
%TD*%
D35*
%TO.C,R14*%
X86223200Y-171352000D03*
X86223200Y-169352000D03*
%TD*%
D36*
%TO.C,MH6*%
X132100000Y-161200000D03*
%TD*%
D37*
%TO.C,U7*%
X111307500Y-186220000D03*
X111307500Y-185270000D03*
X111307500Y-184320000D03*
X109032500Y-184320000D03*
X109032500Y-186220000D03*
%TD*%
D38*
%TO.C,C10*%
X41000000Y-168000000D03*
X32600000Y-168000000D03*
%TD*%
D39*
%TO.C,F4*%
X128675000Y-55700000D03*
X123675000Y-55700000D03*
X143675000Y-55700000D03*
X138675000Y-55700000D03*
%TD*%
D26*
%TO.C,R40*%
X150600000Y-56800000D03*
X148600000Y-56800000D03*
%TD*%
D40*
%TO.C,C24*%
X81750000Y-160275000D03*
X81750000Y-158725000D03*
%TD*%
D35*
%TO.C,R50*%
X196320000Y-79720000D03*
X196320000Y-77720000D03*
%TD*%
D41*
%TO.C,JP1*%
X75946000Y-147980400D03*
X74646000Y-147980400D03*
X73346000Y-147980400D03*
%TD*%
D26*
%TO.C,R43*%
X154800000Y-59000000D03*
X152800000Y-59000000D03*
%TD*%
D23*
%TO.C,R13*%
X85344000Y-141748000D03*
X85344000Y-143748000D03*
%TD*%
D42*
%TO.C,D14*%
X132800000Y-107800000D03*
X135600000Y-107800000D03*
%TD*%
D33*
%TO.C,C2*%
X30428020Y-124612400D03*
D19*
X30428020Y-119612400D03*
%TD*%
D20*
%TO.C,U4*%
X23560000Y-111775000D03*
X23560000Y-109235000D03*
X23560000Y-104155000D03*
X23560000Y-101615000D03*
X23560000Y-99075000D03*
X23560000Y-76215000D03*
X49960000Y-73675000D03*
X23560000Y-106695000D03*
X23560000Y-73675000D03*
X49960000Y-76215000D03*
X23560000Y-96535000D03*
D21*
X26600000Y-114815000D03*
X29140000Y-114815000D03*
X34220000Y-114815000D03*
X36760000Y-114815000D03*
D20*
X49960000Y-114315000D03*
X49960000Y-111775000D03*
X49960000Y-109235000D03*
X49960000Y-106695000D03*
D21*
X31680000Y-114815000D03*
D20*
X23560000Y-71135000D03*
X23560000Y-114315000D03*
X49960000Y-71135000D03*
X49960000Y-68595000D03*
X23560000Y-93995000D03*
X49960000Y-104155000D03*
X23560000Y-68595000D03*
D21*
X45650000Y-68095000D03*
X43110000Y-71635000D03*
X45650000Y-71635000D03*
X43110000Y-68095000D03*
X38030000Y-71635000D03*
X35490000Y-71635000D03*
X35490000Y-68095000D03*
X38030000Y-68095000D03*
D20*
X23560000Y-81295000D03*
X23560000Y-78755000D03*
X49960000Y-81295000D03*
X49960000Y-78755000D03*
D21*
X30410000Y-71635000D03*
X27870000Y-71635000D03*
X30410000Y-68095000D03*
X27870000Y-68095000D03*
%TD*%
D28*
%TO.C,J20*%
X75392200Y-183083200D03*
D29*
X77932200Y-183083200D03*
X80472200Y-183083200D03*
X83012200Y-183083200D03*
X85552200Y-183083200D03*
X88092200Y-183083200D03*
X90632200Y-183083200D03*
X93172200Y-183083200D03*
X95712200Y-183083200D03*
X98252200Y-183083200D03*
%TD*%
D27*
%TO.C,R15*%
X168216666Y-79600000D03*
X170216666Y-79600000D03*
%TD*%
D36*
%TO.C,MH7*%
X132100000Y-137200000D03*
%TD*%
D19*
%TO.C,FID5*%
X182000000Y-183000000D03*
%TD*%
D23*
%TO.C,R48*%
X193320000Y-77720000D03*
X193320000Y-79720000D03*
%TD*%
D38*
%TO.C,C9*%
X41000000Y-156600000D03*
X32600000Y-156600000D03*
%TD*%
D40*
%TO.C,C18*%
X56200000Y-170775000D03*
X56200000Y-169225000D03*
%TD*%
D19*
%TO.C,FID11*%
X77414800Y-142183200D03*
%TD*%
D43*
%TO.C,JP10*%
X82163200Y-173452000D03*
X82163200Y-174752000D03*
X82163200Y-176052000D03*
%TD*%
D44*
%TO.C,C16*%
X58600000Y-170675000D03*
X58600000Y-167725000D03*
%TD*%
D45*
%TO.C,D7*%
X73175000Y-77750000D03*
X77475000Y-77750000D03*
%TD*%
D46*
%TO.C,L1*%
X50800000Y-166479000D03*
X50800000Y-172321000D03*
%TD*%
D47*
%TO.C,D19*%
X70150000Y-97400000D03*
X74150000Y-97400000D03*
%TD*%
D45*
%TO.C,D5*%
X28545000Y-78250000D03*
X32845000Y-78250000D03*
%TD*%
D20*
%TO.C,U6*%
X88560000Y-111775000D03*
X88560000Y-109235000D03*
X88560000Y-104155000D03*
X88560000Y-101615000D03*
X88560000Y-99075000D03*
X114960000Y-76215000D03*
X114960000Y-73675000D03*
X88560000Y-73675000D03*
X88560000Y-76215000D03*
X88560000Y-106695000D03*
X88560000Y-96535000D03*
D21*
X91600000Y-114815000D03*
X94140000Y-114815000D03*
X99220000Y-114815000D03*
X101760000Y-114815000D03*
D20*
X114960000Y-114315000D03*
X114960000Y-111775000D03*
X114960000Y-109235000D03*
X114960000Y-106695000D03*
X114960000Y-104155000D03*
X88560000Y-93995000D03*
X114960000Y-68595000D03*
D21*
X96680000Y-114815000D03*
D20*
X88560000Y-114315000D03*
X88560000Y-68595000D03*
X88560000Y-71135000D03*
X114960000Y-71135000D03*
D21*
X110650000Y-71635000D03*
X108110000Y-71635000D03*
X110650000Y-68095000D03*
X108110000Y-68095000D03*
X100490000Y-68095000D03*
X100490000Y-71635000D03*
X103030000Y-68095000D03*
X103030000Y-71635000D03*
D20*
X88560000Y-81295000D03*
X114960000Y-78755000D03*
X114960000Y-81295000D03*
X88560000Y-78755000D03*
D21*
X95410000Y-68095000D03*
X92870000Y-68095000D03*
X95410000Y-71635000D03*
X92870000Y-71635000D03*
%TD*%
D45*
%TO.C,D9*%
X67100000Y-84250000D03*
X71400000Y-84250000D03*
%TD*%
D26*
%TO.C,R11*%
X59300000Y-153300000D03*
X57300000Y-153300000D03*
%TD*%
D35*
%TO.C,R7*%
X82854800Y-143748000D03*
X82854800Y-141748000D03*
%TD*%
D36*
%TO.C,MH5*%
X156100000Y-161200000D03*
%TD*%
D42*
%TO.C,D13*%
X135600000Y-105200000D03*
X132800000Y-105200000D03*
%TD*%
D35*
%TO.C,R44*%
X187320000Y-79720000D03*
X187320000Y-77720000D03*
%TD*%
D26*
%TO.C,R12*%
X63500000Y-153300000D03*
X61500000Y-153300000D03*
%TD*%
D39*
%TO.C,F2*%
X123675000Y-46350000D03*
X128675000Y-46350000D03*
X138675000Y-46350000D03*
X143675000Y-46350000D03*
%TD*%
D33*
%TO.C,C6*%
X46697015Y-124612400D03*
D19*
X46697015Y-119612400D03*
%TD*%
D22*
%TO.C,U10*%
X136325000Y-80000000D03*
X136975000Y-80000000D03*
X137625000Y-80000000D03*
X138275000Y-80000000D03*
X138925000Y-80000000D03*
X139575000Y-80000000D03*
X140225000Y-80000000D03*
X140875000Y-80000000D03*
X140875000Y-74200000D03*
X140225000Y-74200000D03*
X139575000Y-74200000D03*
X138925000Y-74200000D03*
X138275000Y-74200000D03*
X137625000Y-74200000D03*
X136975000Y-74200000D03*
X136325000Y-74200000D03*
%TD*%
D47*
%TO.C,D20*%
X100950000Y-97350000D03*
X104950000Y-97350000D03*
%TD*%
D48*
%TO.C,C5*%
X181320000Y-70682500D03*
X181320000Y-72757500D03*
%TD*%
D19*
%TO.C,FID1*%
X105200000Y-177200000D03*
%TD*%
%TO.C,FID9*%
X109200000Y-175400000D03*
%TD*%
D49*
%TO.C,Q16*%
X172499999Y-76537500D03*
X174399999Y-76537500D03*
X173449999Y-74662500D03*
%TD*%
D12*
%TO.C,J4*%
X37200000Y-28000000D03*
D13*
X39700000Y-28000000D03*
X42200000Y-28000000D03*
X44700000Y-28000000D03*
X47200000Y-28000000D03*
%TD*%
D50*
%TO.C,U1*%
X29450000Y-171524000D03*
X29450000Y-153124000D03*
X69850000Y-153124000D03*
X69850000Y-171524000D03*
%TD*%
D19*
%TO.C,FID10*%
X62100000Y-92400000D03*
%TD*%
D51*
%TO.C,MH3*%
X115100000Y-124700000D03*
%TD*%
D52*
%TO.C,J21*%
X162200000Y-173700000D03*
X126000000Y-173700000D03*
D53*
X119970000Y-170800000D03*
X119970000Y-176600000D03*
X122510000Y-170800000D03*
X122510000Y-176600000D03*
X125050000Y-170800000D03*
X125050000Y-176600000D03*
X127590000Y-170800000D03*
X127590000Y-176600000D03*
X130130000Y-170800000D03*
X130130000Y-176600000D03*
X132670000Y-170800000D03*
X132670000Y-176600000D03*
X135210000Y-170800000D03*
X135210000Y-176600000D03*
X137750000Y-170800000D03*
X137750000Y-176600000D03*
X140290000Y-170800000D03*
X140290000Y-176600000D03*
X142830000Y-170800000D03*
X142830000Y-176600000D03*
X145370000Y-170800000D03*
X145370000Y-176600000D03*
X147910000Y-170800000D03*
X147910000Y-176600000D03*
X150450000Y-170800000D03*
X150450000Y-176600000D03*
X152990000Y-170800000D03*
X152990000Y-176600000D03*
X155530000Y-170800000D03*
X155530000Y-176600000D03*
X158070000Y-170800000D03*
X158070000Y-176600000D03*
X160610000Y-170800000D03*
X160610000Y-176600000D03*
X163150000Y-170800000D03*
X163150000Y-176600000D03*
X165690000Y-170800000D03*
X165690000Y-176600000D03*
X168230000Y-170800000D03*
X168230000Y-176600000D03*
%TD*%
D54*
%TO.C,JP6*%
X134050000Y-93800000D03*
D55*
X132750000Y-93800000D03*
%TD*%
D23*
%TO.C,R46*%
X181320000Y-77720000D03*
X181320000Y-79720000D03*
%TD*%
D27*
%TO.C,R2*%
X158600000Y-122030000D03*
X160600000Y-122030000D03*
%TD*%
%TO.C,R9*%
X163983333Y-79600000D03*
X165983333Y-79600000D03*
%TD*%
%TO.C,R10*%
X163983333Y-71800000D03*
X165983333Y-71800000D03*
%TD*%
D33*
%TO.C,C7*%
X62966010Y-124612400D03*
D19*
X62966010Y-119612400D03*
%TD*%
D27*
%TO.C,R19*%
X172449999Y-79600000D03*
X174449999Y-79600000D03*
%TD*%
D56*
%TO.C,C20*%
X61400000Y-172725000D03*
X61400000Y-175675000D03*
%TD*%
D45*
%TO.C,D10*%
X105675000Y-77750000D03*
X109975000Y-77750000D03*
%TD*%
D57*
%TO.C,U3*%
X122430000Y-182060000D03*
X121480000Y-182060000D03*
X120530000Y-182060000D03*
X120530000Y-184760000D03*
X121480000Y-184760000D03*
X122430000Y-184760000D03*
%TD*%
D23*
%TO.C,R18*%
X106000000Y-179840000D03*
X106000000Y-181840000D03*
%TD*%
D26*
%TO.C,R42*%
X150600000Y-59000000D03*
X148600000Y-59000000D03*
%TD*%
D23*
%TO.C,R49*%
X190320000Y-77720000D03*
X190320000Y-79720000D03*
%TD*%
D33*
%TO.C,C8*%
X95504000Y-124612400D03*
D19*
X95504000Y-119612400D03*
%TD*%
D27*
%TO.C,R16*%
X168216666Y-71800000D03*
X170216666Y-71800000D03*
%TD*%
D56*
%TO.C,C11*%
X57700000Y-160925000D03*
X57700000Y-163875000D03*
%TD*%
D44*
%TO.C,C22*%
X61400000Y-170675000D03*
X61400000Y-167725000D03*
%TD*%
D58*
%TO.C,J18*%
X190320000Y-56870000D03*
D59*
X192820000Y-56870000D03*
%TD*%
D60*
%TO.C,C23*%
X66800000Y-156600000D03*
X75200000Y-156600000D03*
%TD*%
D51*
%TO.C,MH4*%
X173100000Y-124700000D03*
%TD*%
D43*
%TO.C,JP5*%
X57700000Y-155800000D03*
X57700000Y-157100000D03*
X57700000Y-158400000D03*
%TD*%
D40*
%TO.C,C17*%
X55200000Y-158775000D03*
X55200000Y-157225000D03*
%TD*%
D27*
%TO.C,R27*%
X109170000Y-60450000D03*
X111170000Y-60450000D03*
%TD*%
D35*
%TO.C,R4*%
X156000000Y-185000000D03*
X156000000Y-183000000D03*
%TD*%
D61*
%TO.C,IC1*%
X155950000Y-71988000D03*
X155450000Y-71988000D03*
X154950000Y-71988000D03*
X154450000Y-71988000D03*
X153950000Y-71988000D03*
X153450000Y-71988000D03*
X152950000Y-71988000D03*
X152450000Y-71988000D03*
X151950000Y-71988000D03*
X151450000Y-71988000D03*
X150950000Y-71988000D03*
X150450000Y-71988000D03*
X149950000Y-71988000D03*
X149450000Y-71988000D03*
X148950000Y-71988000D03*
X148450000Y-71988000D03*
X147950000Y-71988000D03*
X147450000Y-71988000D03*
X146950000Y-71988000D03*
X146450000Y-71988000D03*
X145950000Y-71988000D03*
X145450000Y-71988000D03*
X144950000Y-71988000D03*
X144450000Y-71988000D03*
X144450000Y-79612000D03*
X144950000Y-79612000D03*
X145450000Y-79612000D03*
X145950000Y-79612000D03*
X146450000Y-79612000D03*
X146950000Y-79612000D03*
X147450000Y-79612000D03*
X147950000Y-79612000D03*
X148450000Y-79612000D03*
X148950000Y-79612000D03*
X149450000Y-79612000D03*
X149950000Y-79612000D03*
X150450000Y-79612000D03*
X150950000Y-79612000D03*
X151450000Y-79612000D03*
X151950000Y-79612000D03*
X152450000Y-79612000D03*
X152950000Y-79612000D03*
X153450000Y-79612000D03*
X153950000Y-79612000D03*
X154450000Y-79612000D03*
X154950000Y-79612000D03*
X155450000Y-79612000D03*
X155950000Y-79612000D03*
%TD*%
D62*
%TO.C,IC2*%
X135500000Y-102150000D03*
X135500000Y-101200000D03*
X135500000Y-100250000D03*
X132900000Y-100250000D03*
X132900000Y-102150000D03*
%TD*%
D58*
%TO.C,J17*%
X178250000Y-56870000D03*
D59*
X180750000Y-56870000D03*
%TD*%
D63*
%TO.C,C15*%
X46675000Y-159100000D03*
X45125000Y-159100000D03*
%TD*%
D49*
%TO.C,Q13*%
X159800000Y-76537500D03*
X161700000Y-76537500D03*
X160750000Y-74662500D03*
%TD*%
D45*
%TO.C,D11*%
X93545000Y-77750000D03*
X97845000Y-77750000D03*
%TD*%
D19*
%TO.C,FID15*%
X24550000Y-156950000D03*
%TD*%
D35*
%TO.C,R17*%
X82159200Y-171352000D03*
X82159200Y-169352000D03*
%TD*%
D27*
%TO.C,R20*%
X172449999Y-71800000D03*
X174449999Y-71800000D03*
%TD*%
D64*
%TO.C,J19*%
X191870000Y-49852500D03*
D65*
X191870000Y-47352500D03*
X191870000Y-44852500D03*
X191870000Y-42352500D03*
%TD*%
D45*
%TO.C,D4*%
X40675000Y-78250000D03*
X44975000Y-78250000D03*
%TD*%
D49*
%TO.C,Q15*%
X168266666Y-76537500D03*
X170166666Y-76537500D03*
X169216666Y-74662500D03*
%TD*%
D19*
%TO.C,FID13*%
X32550000Y-92400000D03*
%TD*%
D66*
%TO.C,SW1*%
X130500000Y-183097500D03*
X133500000Y-183097500D03*
D67*
X131000000Y-181907500D03*
X133000000Y-181907500D03*
D68*
X135000000Y-183167500D03*
X129000000Y-183167500D03*
D67*
X132000000Y-181907500D03*
%TD*%
D69*
%TO.C,C14*%
X55200000Y-160850000D03*
X55200000Y-162750000D03*
%TD*%
D19*
%TO.C,FID12*%
X76650000Y-57400000D03*
%TD*%
D45*
%TO.C,D12*%
X99600000Y-84250000D03*
X103900000Y-84250000D03*
%TD*%
D47*
%TO.C,D18*%
X37000000Y-97400000D03*
X41000000Y-97400000D03*
%TD*%
D51*
%TO.C,MH2*%
X115100000Y-173700000D03*
%TD*%
D45*
%TO.C,D6*%
X34600000Y-84250000D03*
X38900000Y-84250000D03*
%TD*%
D70*
%TO.C,Q6*%
X106230000Y-49480000D03*
D71*
X103950000Y-55780000D03*
D70*
X101670000Y-49480000D03*
%TD*%
D27*
%TO.C,R8*%
X51900000Y-153300000D03*
X53900000Y-153300000D03*
%TD*%
D41*
%TO.C,D25*%
X113785000Y-185805000D03*
X116985000Y-185805000D03*
X116985000Y-180905000D03*
X113785000Y-180905000D03*
%TD*%
D36*
%TO.C,MH8*%
X156100000Y-137200000D03*
%TD*%
D19*
%TO.C,TP5*%
X129600000Y-106400000D03*
%TD*%
D72*
%TO.C,U11*%
X197136544Y-99287104D03*
D73*
X194106544Y-94137104D03*
X194106544Y-98987104D03*
D72*
X197136544Y-93837104D03*
D74*
X197266544Y-86072104D03*
D75*
X197266544Y-87672104D03*
D76*
X194726544Y-87672104D03*
D77*
X194726544Y-86872104D03*
D78*
X192186544Y-87672104D03*
D79*
X192186544Y-86872104D03*
D77*
X189646544Y-86872104D03*
D76*
X189646544Y-87672104D03*
D77*
X187106544Y-86872104D03*
D76*
X187106544Y-87672104D03*
D77*
X184566544Y-86872104D03*
D76*
X184566544Y-87672104D03*
X182026544Y-87672104D03*
D77*
X182026544Y-86872104D03*
D79*
X179486544Y-86872104D03*
D78*
X179486544Y-87672104D03*
D76*
X176946544Y-87672104D03*
D77*
X176946544Y-86872104D03*
X174406544Y-86872104D03*
D76*
X174406544Y-87672104D03*
X171866544Y-87672104D03*
D77*
X171866544Y-86872104D03*
X169326544Y-86872104D03*
D76*
X169326544Y-87672104D03*
D78*
X166786544Y-87672104D03*
D79*
X166786544Y-86872104D03*
D77*
X164246544Y-86872104D03*
D76*
X164246544Y-87672104D03*
D77*
X161706544Y-86872104D03*
D76*
X161706544Y-87672104D03*
D77*
X159166544Y-86872104D03*
D76*
X159166544Y-87672104D03*
D77*
X156626544Y-86872104D03*
D76*
X156626544Y-87672104D03*
D78*
X154086544Y-87672104D03*
D79*
X154086544Y-86872104D03*
D76*
X151546544Y-87672104D03*
D77*
X151546544Y-86872104D03*
X149006544Y-86872104D03*
D76*
X149006544Y-87672104D03*
D77*
X149006544Y-106252104D03*
D76*
X149006544Y-105452104D03*
X151546544Y-105452104D03*
D77*
X151546544Y-106252104D03*
D78*
X154086544Y-105452104D03*
D79*
X154086544Y-106252104D03*
D76*
X156626544Y-105452104D03*
D77*
X156626544Y-106252104D03*
X159166544Y-106252104D03*
D76*
X159166544Y-105452104D03*
X161706544Y-105452104D03*
D77*
X161706544Y-106252104D03*
X164246544Y-106252104D03*
D76*
X164246544Y-105452104D03*
D78*
X166786544Y-105452104D03*
D79*
X166786544Y-106252104D03*
D76*
X169326544Y-105452104D03*
D77*
X169326544Y-106252104D03*
X171866544Y-106252104D03*
D76*
X171866544Y-105452104D03*
X174406544Y-105452104D03*
D77*
X174406544Y-106252104D03*
X176946544Y-106252104D03*
D76*
X176946544Y-105452104D03*
D78*
X179486544Y-105452104D03*
D79*
X179486544Y-106252104D03*
D77*
X182026544Y-106252104D03*
D76*
X182026544Y-105452104D03*
D77*
X184566544Y-106252104D03*
D76*
X184566544Y-105452104D03*
D77*
X187106544Y-106252104D03*
D76*
X187106544Y-105452104D03*
D77*
X189646544Y-106252104D03*
D76*
X189646544Y-105452104D03*
D78*
X192186544Y-105452104D03*
D79*
X192186544Y-106252104D03*
D77*
X194726544Y-106252104D03*
D76*
X194726544Y-105452104D03*
D77*
X197266544Y-106252104D03*
D76*
X197266544Y-105452104D03*
D75*
X149236544Y-94022104D03*
D80*
X147636544Y-94022104D03*
D81*
X148436544Y-96562104D03*
D78*
X149236544Y-96562104D03*
D82*
X148436544Y-99102104D03*
D76*
X149236544Y-99102104D03*
%TD*%
D83*
%TO.C,D17*%
X72372500Y-177600000D03*
X71227500Y-177600000D03*
%TD*%
D28*
%TO.C,J23*%
X80314800Y-132689600D03*
D29*
X82854800Y-132689600D03*
X85394800Y-132689600D03*
X87934800Y-132689600D03*
X90474800Y-132689600D03*
X93014800Y-132689600D03*
X95554800Y-132689600D03*
X98094800Y-132689600D03*
%TD*%
D27*
%TO.C,R3*%
X159750000Y-79600000D03*
X161750000Y-79600000D03*
%TD*%
D19*
%TO.C,FID4*%
X176000000Y-65000000D03*
%TD*%
D26*
%TO.C,R28*%
X111230000Y-54750000D03*
X109230000Y-54750000D03*
%TD*%
D28*
%TO.C,J16*%
X80314800Y-150469600D03*
D29*
X82854800Y-150469600D03*
X85394800Y-150469600D03*
X87934800Y-150469600D03*
X90474800Y-150469600D03*
X93014800Y-150469600D03*
X95554800Y-150469600D03*
X98094800Y-150469600D03*
%TD*%
D54*
%TO.C,JP9*%
X140850000Y-87000000D03*
D55*
X139550000Y-87000000D03*
%TD*%
D40*
%TO.C,C26*%
X84500000Y-160275000D03*
X84500000Y-158725000D03*
%TD*%
D18*
%TO.C,D2*%
X112400000Y-45900000D03*
X112400000Y-50900000D03*
%TD*%
D19*
%TO.C,FID7*%
X51000000Y-178000000D03*
%TD*%
D84*
%TO.C,JP8*%
X152600000Y-185250000D03*
D85*
X152600000Y-183950000D03*
%TD*%
D86*
%TO.C,C1*%
X130637500Y-102200000D03*
X128562500Y-102200000D03*
%TD*%
D87*
%TO.C,IC3*%
X49188000Y-159450000D03*
X49188000Y-159950000D03*
D88*
X49513000Y-160450000D03*
D89*
X49513000Y-161500000D03*
D90*
X49475000Y-162275000D03*
D91*
X50800000Y-161750000D03*
D90*
X52125000Y-162275000D03*
D89*
X52087000Y-161500000D03*
D88*
X52087000Y-160450000D03*
D87*
X52412000Y-159950000D03*
X52412000Y-159450000D03*
D92*
X52125000Y-158663000D03*
D93*
X51550000Y-158663000D03*
X51050000Y-158663000D03*
X50550000Y-158663000D03*
X50050000Y-158663000D03*
D92*
X49475000Y-158663000D03*
D94*
X49000000Y-158925000D03*
D95*
X50800000Y-160800000D03*
D94*
X52600000Y-158925000D03*
%TD*%
D19*
%TO.C,FID14*%
X187650000Y-35950000D03*
%TD*%
D45*
%TO.C,D8*%
X61045000Y-78250000D03*
X65345000Y-78250000D03*
%TD*%
D19*
%TO.C,TP2*%
X196320000Y-69720000D03*
%TD*%
D56*
%TO.C,C21*%
X58600000Y-172725000D03*
X58600000Y-175675000D03*
%TD*%
D28*
%TO.C,J22*%
X138800000Y-185800000D03*
D29*
X138800000Y-183260000D03*
X141340000Y-185800000D03*
X141340000Y-183260000D03*
X143880000Y-185800000D03*
X143880000Y-183260000D03*
X146420000Y-185800000D03*
X146420000Y-183260000D03*
%TD*%
D19*
%TO.C,FID2*%
X170000000Y-144000000D03*
%TD*%
D56*
%TO.C,C12*%
X43900000Y-161025000D03*
X43900000Y-163975000D03*
%TD*%
D96*
%TO.C,R51*%
X107950000Y-44500000D03*
X101850000Y-44500000D03*
%TD*%
D19*
%TO.C,FID8*%
X181000000Y-112000000D03*
%TD*%
D43*
%TO.C,JP11*%
X86227200Y-173452000D03*
X86227200Y-174752000D03*
X86227200Y-176052000D03*
%TD*%
D41*
%TO.C,JP4*%
X46300000Y-153157500D03*
X47600000Y-153157500D03*
X48900000Y-153157500D03*
%TD*%
D51*
%TO.C,MH1*%
X173100000Y-173700000D03*
%TD*%
D77*
%TO.C,WT901*%
X89154000Y-178103200D03*
X91694000Y-178103200D03*
X94234000Y-178103200D03*
X96774000Y-178103200D03*
X99314000Y-178103200D03*
X101854000Y-178103200D03*
X89154000Y-164503200D03*
X91694000Y-164503200D03*
X94234000Y-164503200D03*
X96774000Y-164503200D03*
X99314000Y-164503200D03*
X101854000Y-164503200D03*
%TD*%
D84*
%TO.C,JP7*%
X149800000Y-185250000D03*
D85*
X149800000Y-183950000D03*
%TD*%
D97*
%TO.C,U2*%
X184510000Y-74195000D03*
X185780000Y-74195000D03*
X187050000Y-74195000D03*
X188320000Y-74195000D03*
X189590000Y-74195000D03*
X190860000Y-74195000D03*
X192130000Y-74195000D03*
X192130000Y-69245000D03*
X190860000Y-69245000D03*
X189590000Y-69245000D03*
X188320000Y-69245000D03*
X187050000Y-69245000D03*
X185780000Y-69245000D03*
X184510000Y-69245000D03*
%TD*%
D23*
%TO.C,R47*%
X184320000Y-77720000D03*
X184320000Y-79720000D03*
%TD*%
D69*
%TO.C,C13*%
X46400000Y-160950000D03*
X46400000Y-162850000D03*
%TD*%
D49*
%TO.C,Q14*%
X164033333Y-76537500D03*
X165933333Y-76537500D03*
X164983333Y-74662500D03*
%TD*%
D27*
%TO.C,R1*%
X158600000Y-124980000D03*
X160600000Y-124980000D03*
%TD*%
%TO.C,R6*%
X159750000Y-71800000D03*
X161750000Y-71800000D03*
%TD*%
D19*
%TO.C,TP1*%
X196320000Y-73720000D03*
%TD*%
D42*
%TO.C,D1*%
X167000000Y-182600000D03*
X167000000Y-185400000D03*
%TD*%
D98*
%TO.C,XA1*%
X165860000Y-64240000D03*
X158240000Y-64240000D03*
X155700000Y-64240000D03*
X143000000Y-64240000D03*
X140460000Y-64240000D03*
X137920000Y-64240000D03*
X135380000Y-64240000D03*
X132840000Y-64240000D03*
X130300000Y-64240000D03*
X169924000Y-113500000D03*
X130300000Y-113500000D03*
X132840000Y-113500000D03*
X135380000Y-113500000D03*
X137920000Y-113500000D03*
X140460000Y-113500000D03*
X143000000Y-113500000D03*
X145540000Y-113500000D03*
X148080000Y-113500000D03*
X152144000Y-113500000D03*
X154684000Y-113500000D03*
X157224000Y-113500000D03*
X159764000Y-113500000D03*
X162304000Y-113500000D03*
X164844000Y-113500000D03*
X167384000Y-113500000D03*
X153160000Y-64240000D03*
X150620000Y-64240000D03*
X163320000Y-64240000D03*
X160780000Y-64240000D03*
X175004000Y-113500000D03*
X172464000Y-113500000D03*
X148080000Y-64240000D03*
%TD*%
D18*
%TO.C,D3*%
X116200000Y-50900000D03*
X116200000Y-45900000D03*
%TD*%
%TO.C,D16*%
X119200000Y-67250000D03*
X119200000Y-62250000D03*
%TD*%
D99*
%TO.C,Q5*%
X111097500Y-58600000D03*
X111097500Y-56700000D03*
X109222500Y-57650000D03*
%TD*%
D19*
%TO.C,FID3*%
X129000000Y-94000000D03*
%TD*%
D23*
%TO.C,R45*%
X178320000Y-77720000D03*
X178320000Y-79720000D03*
%TD*%
D28*
%TO.C,M1*%
X172000000Y-183000000D03*
D29*
X172000000Y-185540000D03*
%TD*%
M02*
