%TF.GenerationSoftware,KiCad,Pcbnew,6.0.11+dfsg-1~bpo11+1*%
%TF.CreationDate,2023-03-23T17:02:29+00:00*%
%TF.ProjectId,OpenMowerMainboard,4f70656e-4d6f-4776-9572-4d61696e626f,rev?*%
%TF.SameCoordinates,Original*%
%TF.FileFunction,Soldermask,Bot*%
%TF.FilePolarity,Negative*%
%FSLAX46Y46*%
G04 Gerber Fmt 4.6, Leading zero omitted, Abs format (unit mm)*
G04 Created by KiCad (PCBNEW 6.0.11+dfsg-1~bpo11+1) date 2023-03-23 17:02:29*
%MOMM*%
%LPD*%
G01*
G04 APERTURE LIST*
G04 Aperture macros list*
%AMRoundRect*
0 Rectangle with rounded corners*
0 $1 Rounding radius*
0 $2 $3 $4 $5 $6 $7 $8 $9 X,Y pos of 4 corners*
0 Add a 4 corners polygon primitive as box body*
4,1,4,$2,$3,$4,$5,$6,$7,$8,$9,$2,$3,0*
0 Add four circle primitives for the rounded corners*
1,1,$1+$1,$2,$3*
1,1,$1+$1,$4,$5*
1,1,$1+$1,$6,$7*
1,1,$1+$1,$8,$9*
0 Add four rect primitives between the rounded corners*
20,1,$1+$1,$2,$3,$4,$5,0*
20,1,$1+$1,$4,$5,$6,$7,0*
20,1,$1+$1,$6,$7,$8,$9,0*
20,1,$1+$1,$8,$9,$2,$3,0*%
%AMFreePoly0*
4,1,57,0.281438,0.792513,0.314631,0.788760,0.324366,0.782642,0.335575,0.780064,0.361670,0.759195,0.389950,0.741421,0.741668,0.389704,0.759398,0.361385,0.780215,0.335261,0.782772,0.324050,0.788875,0.314303,0.792571,0.281098,0.800000,0.248529,0.800000,-0.248878,0.792513,-0.281438,0.788760,-0.314632,0.782641,-0.324367,0.780064,-0.335575,0.759196,-0.361669,0.741421,-0.389950,
0.389704,-0.741668,0.361385,-0.759398,0.335261,-0.780215,0.324050,-0.782772,0.314303,-0.788875,0.281098,-0.792571,0.248529,-0.800000,-0.248878,-0.800000,-0.281438,-0.792513,-0.314632,-0.788760,-0.324367,-0.782641,-0.335575,-0.780064,-0.361669,-0.759196,-0.389950,-0.741421,-0.741668,-0.389704,-0.759398,-0.361385,-0.780215,-0.335261,-0.782772,-0.324050,-0.788875,-0.314303,-0.792571,-0.281098,
-0.800000,-0.248529,-0.800000,0.248878,-0.792513,0.281438,-0.788760,0.314631,-0.782642,0.324366,-0.780064,0.335575,-0.759195,0.361670,-0.741421,0.389950,-0.389704,0.741668,-0.361385,0.759398,-0.335261,0.780215,-0.324050,0.782772,-0.314303,0.788875,-0.281098,0.792571,-0.248529,0.800000,0.248878,0.800000,0.281438,0.792513,0.281438,0.792513,$1*%
G04 Aperture macros list end*
%ADD10RoundRect,0.250001X-1.099999X-1.399999X1.099999X-1.399999X1.099999X1.399999X-1.099999X1.399999X0*%
%ADD11O,2.700000X3.300000*%
%ADD12RoundRect,0.250000X-0.600000X-0.725000X0.600000X-0.725000X0.600000X0.725000X-0.600000X0.725000X0*%
%ADD13O,1.700000X1.950000*%
%ADD14RoundRect,0.249999X0.350001X0.625001X-0.350001X0.625001X-0.350001X-0.625001X0.350001X-0.625001X0*%
%ADD15O,1.200000X1.750000*%
%ADD16C,0.900000*%
%ADD17C,10.000000*%
%ADD18O,3.000000X1.700000*%
%ADD19O,1.700000X3.000000*%
%ADD20R,1.700000X1.700000*%
%ADD21O,1.700000X1.700000*%
%ADD22R,2.000000X2.000000*%
%ADD23C,2.000000*%
%ADD24C,6.950000*%
%ADD25C,2.350000*%
%ADD26R,3.048000X3.048000*%
%ADD27C,6.200000*%
%ADD28C,1.300000*%
%ADD29RoundRect,0.250000X-0.600000X-0.750000X0.600000X-0.750000X0.600000X0.750000X-0.600000X0.750000X0*%
%ADD30O,1.700000X2.000000*%
%ADD31RoundRect,0.250000X0.725000X-0.600000X0.725000X0.600000X-0.725000X0.600000X-0.725000X-0.600000X0*%
%ADD32O,1.950000X1.700000*%
%ADD33C,1.200000*%
%ADD34O,1.800000X1.100000*%
%ADD35O,1.450000X1.050000*%
%ADD36FreePoly0,270.000000*%
%ADD37C,1.600000*%
%ADD38RoundRect,0.200000X-0.600000X0.600000X-0.600000X-0.600000X0.600000X-0.600000X0.600000X0.600000X0*%
%ADD39O,1.727200X2.500000*%
%ADD40R,1.500000X1.000000*%
G04 APERTURE END LIST*
D10*
%TO.C,J1*%
X33250000Y-45250000D03*
D11*
X37450000Y-45250000D03*
X41650000Y-45250000D03*
X45850000Y-45250000D03*
X50050000Y-45250000D03*
X54250000Y-45250000D03*
X58450000Y-45250000D03*
X62650000Y-45250000D03*
X66850000Y-45250000D03*
X71050000Y-45250000D03*
X75250000Y-45250000D03*
X33250000Y-50750000D03*
X37450000Y-50750000D03*
X41650000Y-50750000D03*
X45850000Y-50750000D03*
X50050000Y-50750000D03*
X54250000Y-50750000D03*
X58450000Y-50750000D03*
X62650000Y-50750000D03*
X66850000Y-50750000D03*
X71050000Y-50750000D03*
X75250000Y-50750000D03*
%TD*%
D10*
%TO.C,J2*%
X83000000Y-45250000D03*
D11*
X87200000Y-45250000D03*
X91400000Y-45250000D03*
X95600000Y-45250000D03*
X83000000Y-50750000D03*
X87200000Y-50750000D03*
X91400000Y-50750000D03*
X95600000Y-50750000D03*
%TD*%
D10*
%TO.C,J3*%
X151600000Y-45250000D03*
D11*
X151600000Y-50750000D03*
%TD*%
D12*
%TO.C,J13*%
X177000000Y-40935000D03*
D13*
X179500000Y-40935000D03*
X182000000Y-40935000D03*
%TD*%
D12*
%TO.C,J14*%
X177000000Y-48902500D03*
D13*
X179500000Y-48902500D03*
X182000000Y-48902500D03*
%TD*%
D12*
%TO.C,J5*%
X159750000Y-25000000D03*
D13*
X162250000Y-25000000D03*
X164750000Y-25000000D03*
X167250000Y-25000000D03*
%TD*%
D12*
%TO.C,J6*%
X159750000Y-32967500D03*
D13*
X162250000Y-32967500D03*
X164750000Y-32967500D03*
X167250000Y-32967500D03*
%TD*%
D12*
%TO.C,J7*%
X159750000Y-40935000D03*
D13*
X162250000Y-40935000D03*
X164750000Y-40935000D03*
X167250000Y-40935000D03*
%TD*%
D12*
%TO.C,J8*%
X159750000Y-48902500D03*
D13*
X162250000Y-48902500D03*
X164750000Y-48902500D03*
X167250000Y-48902500D03*
%TD*%
D12*
%TO.C,J9*%
X159750000Y-56870000D03*
D13*
X162250000Y-56870000D03*
X164750000Y-56870000D03*
X167250000Y-56870000D03*
%TD*%
D12*
%TO.C,J12*%
X177000000Y-32967500D03*
D13*
X179500000Y-32967500D03*
X182000000Y-32967500D03*
%TD*%
D14*
%TO.C,J10*%
X46196000Y-36195000D03*
D15*
X44196000Y-36195000D03*
X42196000Y-36195000D03*
X40196000Y-36195000D03*
X38196000Y-36195000D03*
%TD*%
D12*
%TO.C,J11*%
X177000000Y-25000000D03*
D13*
X179500000Y-25000000D03*
X182000000Y-25000000D03*
%TD*%
D16*
%TO.C,H1*%
X23848350Y-32651650D03*
X29151650Y-27348350D03*
X22750000Y-30000000D03*
X30250000Y-30000000D03*
X23848350Y-27348350D03*
X29151650Y-32651650D03*
X26500000Y-26250000D03*
X26500000Y-33750000D03*
D17*
X26500000Y-30000000D03*
%TD*%
D16*
%TO.C,H2*%
X30250000Y-182500000D03*
D17*
X26500000Y-182500000D03*
D16*
X23848350Y-179848350D03*
X22750000Y-182500000D03*
X29151650Y-179848350D03*
X26500000Y-186250000D03*
X29151650Y-185151650D03*
X26500000Y-178750000D03*
X23848350Y-185151650D03*
%TD*%
%TO.C,H3*%
X196151650Y-32651650D03*
X197250000Y-30000000D03*
X193500000Y-26250000D03*
D17*
X193500000Y-30000000D03*
D16*
X193500000Y-33750000D03*
X196151650Y-27348350D03*
X190848350Y-27348350D03*
X190848350Y-32651650D03*
X189750000Y-30000000D03*
%TD*%
%TO.C,H4*%
X193500000Y-186250000D03*
X196151650Y-179848350D03*
X197250000Y-182500000D03*
X190848350Y-185151650D03*
X190848350Y-179848350D03*
X196151650Y-185151650D03*
D17*
X193500000Y-182500000D03*
D16*
X189750000Y-182500000D03*
X193500000Y-178750000D03*
%TD*%
D18*
%TO.C,U5*%
X56060000Y-111775000D03*
X56060000Y-109235000D03*
X56060000Y-104155000D03*
X56060000Y-101615000D03*
X56060000Y-99075000D03*
X56060000Y-76215000D03*
X82460000Y-73675000D03*
X82460000Y-76215000D03*
X56060000Y-106695000D03*
X56060000Y-73675000D03*
X56060000Y-96535000D03*
D19*
X59100000Y-114815000D03*
X61640000Y-114815000D03*
X66720000Y-114815000D03*
X69260000Y-114815000D03*
D18*
X82460000Y-114315000D03*
X82460000Y-111775000D03*
X82460000Y-109235000D03*
X82460000Y-106695000D03*
X82460000Y-68595000D03*
D19*
X64180000Y-114815000D03*
D18*
X82460000Y-71135000D03*
X56060000Y-93995000D03*
X56060000Y-114315000D03*
X82460000Y-104155000D03*
X56060000Y-68595000D03*
X56060000Y-71135000D03*
D19*
X75610000Y-71635000D03*
X78150000Y-71635000D03*
X78150000Y-68095000D03*
X75610000Y-68095000D03*
X70530000Y-68095000D03*
X67990000Y-71635000D03*
X70530000Y-71635000D03*
X67990000Y-68095000D03*
D18*
X56060000Y-78755000D03*
X56060000Y-81295000D03*
X82460000Y-81295000D03*
X82460000Y-78755000D03*
D19*
X60370000Y-68095000D03*
X62910000Y-71635000D03*
X62910000Y-68095000D03*
X60370000Y-71635000D03*
%TD*%
D20*
%TO.C,J51*%
X126542800Y-180644800D03*
D21*
X126542800Y-183184800D03*
%TD*%
D22*
%TO.C,C3*%
X79235005Y-124612400D03*
D23*
X79235005Y-119612400D03*
%TD*%
D24*
%TO.C,MH6*%
X132100000Y-161200000D03*
%TD*%
D25*
%TO.C,F4*%
X128675000Y-55700000D03*
X123675000Y-55700000D03*
X143675000Y-55700000D03*
X138675000Y-55700000D03*
%TD*%
D22*
%TO.C,C2*%
X30428020Y-124612400D03*
D23*
X30428020Y-119612400D03*
%TD*%
D18*
%TO.C,U4*%
X23560000Y-111775000D03*
X23560000Y-109235000D03*
X23560000Y-104155000D03*
X23560000Y-101615000D03*
X23560000Y-99075000D03*
X23560000Y-76215000D03*
X49960000Y-73675000D03*
X23560000Y-106695000D03*
X23560000Y-73675000D03*
X49960000Y-76215000D03*
X23560000Y-96535000D03*
D19*
X26600000Y-114815000D03*
X29140000Y-114815000D03*
X34220000Y-114815000D03*
X36760000Y-114815000D03*
D18*
X49960000Y-114315000D03*
X49960000Y-111775000D03*
X49960000Y-109235000D03*
X49960000Y-106695000D03*
D19*
X31680000Y-114815000D03*
D18*
X23560000Y-71135000D03*
X23560000Y-114315000D03*
X49960000Y-71135000D03*
X49960000Y-68595000D03*
X23560000Y-93995000D03*
X49960000Y-104155000D03*
X23560000Y-68595000D03*
D19*
X45650000Y-68095000D03*
X43110000Y-71635000D03*
X45650000Y-71635000D03*
X43110000Y-68095000D03*
X38030000Y-71635000D03*
X35490000Y-71635000D03*
X35490000Y-68095000D03*
X38030000Y-68095000D03*
D18*
X23560000Y-81295000D03*
X23560000Y-78755000D03*
X49960000Y-81295000D03*
X49960000Y-78755000D03*
D19*
X30410000Y-71635000D03*
X27870000Y-71635000D03*
X30410000Y-68095000D03*
X27870000Y-68095000D03*
%TD*%
D20*
%TO.C,J20*%
X75392200Y-183083200D03*
D21*
X77932200Y-183083200D03*
X80472200Y-183083200D03*
X83012200Y-183083200D03*
X85552200Y-183083200D03*
X88092200Y-183083200D03*
X90632200Y-183083200D03*
X93172200Y-183083200D03*
X95712200Y-183083200D03*
X98252200Y-183083200D03*
%TD*%
D24*
%TO.C,MH7*%
X132100000Y-137200000D03*
%TD*%
D18*
%TO.C,U6*%
X88560000Y-111775000D03*
X88560000Y-109235000D03*
X88560000Y-104155000D03*
X88560000Y-101615000D03*
X88560000Y-99075000D03*
X114960000Y-76215000D03*
X114960000Y-73675000D03*
X88560000Y-73675000D03*
X88560000Y-76215000D03*
X88560000Y-106695000D03*
X88560000Y-96535000D03*
D19*
X91600000Y-114815000D03*
X94140000Y-114815000D03*
X99220000Y-114815000D03*
X101760000Y-114815000D03*
D18*
X114960000Y-114315000D03*
X114960000Y-111775000D03*
X114960000Y-109235000D03*
X114960000Y-106695000D03*
X114960000Y-104155000D03*
X88560000Y-93995000D03*
X114960000Y-68595000D03*
D19*
X96680000Y-114815000D03*
D18*
X88560000Y-114315000D03*
X88560000Y-68595000D03*
X88560000Y-71135000D03*
X114960000Y-71135000D03*
D19*
X110650000Y-71635000D03*
X108110000Y-71635000D03*
X110650000Y-68095000D03*
X108110000Y-68095000D03*
X100490000Y-68095000D03*
X100490000Y-71635000D03*
X103030000Y-68095000D03*
X103030000Y-71635000D03*
D18*
X88560000Y-81295000D03*
X114960000Y-78755000D03*
X114960000Y-81295000D03*
X88560000Y-78755000D03*
D19*
X95410000Y-68095000D03*
X92870000Y-68095000D03*
X95410000Y-71635000D03*
X92870000Y-71635000D03*
%TD*%
D24*
%TO.C,MH5*%
X156100000Y-161200000D03*
%TD*%
D25*
%TO.C,F2*%
X123675000Y-46350000D03*
X128675000Y-46350000D03*
X138675000Y-46350000D03*
X143675000Y-46350000D03*
%TD*%
D22*
%TO.C,C6*%
X46697015Y-124612400D03*
D23*
X46697015Y-119612400D03*
%TD*%
D12*
%TO.C,J4*%
X37200000Y-28000000D03*
D13*
X39700000Y-28000000D03*
X42200000Y-28000000D03*
X44700000Y-28000000D03*
X47200000Y-28000000D03*
%TD*%
D26*
%TO.C,U1*%
X29450000Y-171524000D03*
X29450000Y-153124000D03*
X69850000Y-153124000D03*
X69850000Y-171524000D03*
%TD*%
D27*
%TO.C,MH3*%
X115100000Y-124700000D03*
%TD*%
D28*
%TO.C,J21*%
X162200000Y-173700000D03*
X126000000Y-173700000D03*
%TD*%
D22*
%TO.C,C7*%
X62966010Y-124612400D03*
D23*
X62966010Y-119612400D03*
%TD*%
D22*
%TO.C,C8*%
X95504000Y-124612400D03*
D23*
X95504000Y-119612400D03*
%TD*%
D29*
%TO.C,J18*%
X190320000Y-56870000D03*
D30*
X192820000Y-56870000D03*
%TD*%
D27*
%TO.C,MH4*%
X173100000Y-124700000D03*
%TD*%
D29*
%TO.C,J17*%
X178250000Y-56870000D03*
D30*
X180750000Y-56870000D03*
%TD*%
D31*
%TO.C,J19*%
X191870000Y-49852500D03*
D32*
X191870000Y-47352500D03*
X191870000Y-44852500D03*
X191870000Y-42352500D03*
%TD*%
D33*
%TO.C,SW1*%
X130500000Y-183097500D03*
X133500000Y-183097500D03*
%TD*%
D27*
%TO.C,MH2*%
X115100000Y-173700000D03*
%TD*%
D24*
%TO.C,MH8*%
X156100000Y-137200000D03*
%TD*%
D34*
%TO.C,U11*%
X197136544Y-99287104D03*
D35*
X194106544Y-94137104D03*
X194106544Y-98987104D03*
D34*
X197136544Y-93837104D03*
D36*
X197266544Y-87672104D03*
D37*
X194726544Y-87672104D03*
D38*
X192186544Y-87672104D03*
D37*
X189646544Y-87672104D03*
X187106544Y-87672104D03*
X184566544Y-87672104D03*
X182026544Y-87672104D03*
D38*
X179486544Y-87672104D03*
D37*
X176946544Y-87672104D03*
X174406544Y-87672104D03*
X171866544Y-87672104D03*
X169326544Y-87672104D03*
D38*
X166786544Y-87672104D03*
D37*
X164246544Y-87672104D03*
X161706544Y-87672104D03*
X159166544Y-87672104D03*
X156626544Y-87672104D03*
D38*
X154086544Y-87672104D03*
D37*
X151546544Y-87672104D03*
X149006544Y-87672104D03*
X149006544Y-105452104D03*
X151546544Y-105452104D03*
D38*
X154086544Y-105452104D03*
D37*
X156626544Y-105452104D03*
X159166544Y-105452104D03*
X161706544Y-105452104D03*
X164246544Y-105452104D03*
D38*
X166786544Y-105452104D03*
D37*
X169326544Y-105452104D03*
X171866544Y-105452104D03*
X174406544Y-105452104D03*
X176946544Y-105452104D03*
D38*
X179486544Y-105452104D03*
D37*
X182026544Y-105452104D03*
X184566544Y-105452104D03*
X187106544Y-105452104D03*
X189646544Y-105452104D03*
D38*
X192186544Y-105452104D03*
D37*
X194726544Y-105452104D03*
X197266544Y-105452104D03*
D36*
X149236544Y-94022104D03*
D38*
X149236544Y-96562104D03*
D37*
X149236544Y-99102104D03*
%TD*%
D20*
%TO.C,J23*%
X80314800Y-132689600D03*
D21*
X82854800Y-132689600D03*
X85394800Y-132689600D03*
X87934800Y-132689600D03*
X90474800Y-132689600D03*
X93014800Y-132689600D03*
X95554800Y-132689600D03*
X98094800Y-132689600D03*
%TD*%
D20*
%TO.C,J16*%
X80314800Y-150469600D03*
D21*
X82854800Y-150469600D03*
X85394800Y-150469600D03*
X87934800Y-150469600D03*
X90474800Y-150469600D03*
X93014800Y-150469600D03*
X95554800Y-150469600D03*
X98094800Y-150469600D03*
%TD*%
D20*
%TO.C,J22*%
X138800000Y-185800000D03*
D21*
X138800000Y-183260000D03*
X141340000Y-185800000D03*
X141340000Y-183260000D03*
X143880000Y-185800000D03*
X143880000Y-183260000D03*
X146420000Y-185800000D03*
X146420000Y-183260000D03*
%TD*%
D27*
%TO.C,MH1*%
X173100000Y-173700000D03*
%TD*%
D39*
%TO.C,XA1*%
X165860000Y-64240000D03*
X158240000Y-64240000D03*
X155700000Y-64240000D03*
X143000000Y-64240000D03*
X140460000Y-64240000D03*
X137920000Y-64240000D03*
X135380000Y-64240000D03*
X132840000Y-64240000D03*
X130300000Y-64240000D03*
X169924000Y-113500000D03*
X130300000Y-113500000D03*
X132840000Y-113500000D03*
X135380000Y-113500000D03*
X137920000Y-113500000D03*
X140460000Y-113500000D03*
X143000000Y-113500000D03*
X145540000Y-113500000D03*
X148080000Y-113500000D03*
X152144000Y-113500000D03*
X154684000Y-113500000D03*
X157224000Y-113500000D03*
X159764000Y-113500000D03*
X162304000Y-113500000D03*
X164844000Y-113500000D03*
X167384000Y-113500000D03*
X153160000Y-64240000D03*
X150620000Y-64240000D03*
X163320000Y-64240000D03*
X160780000Y-64240000D03*
X175004000Y-113500000D03*
X172464000Y-113500000D03*
X148080000Y-64240000D03*
%TD*%
D40*
%TO.C,JP3*%
X145600000Y-77100000D03*
X145600000Y-75800000D03*
X145600000Y-74500000D03*
%TD*%
D20*
%TO.C,M1*%
X172000000Y-183000000D03*
D21*
X172000000Y-185540000D03*
%TD*%
D40*
%TO.C,JP2*%
X148600000Y-74500000D03*
X148600000Y-75800000D03*
X148600000Y-77100000D03*
%TD*%
M02*
