%TF.GenerationSoftware,KiCad,Pcbnew,6.0.10+dfsg-1~bpo11+1*%
%TF.CreationDate,2023-02-16T22:59:16+00:00*%
%TF.ProjectId,OpenMowerMainboard,4f70656e-4d6f-4776-9572-4d61696e626f,rev?*%
%TF.SameCoordinates,Original*%
%TF.FileFunction,Plated,1,2,PTH,Mixed*%
%TF.FilePolarity,Positive*%
%FSLAX46Y46*%
G04 Gerber Fmt 4.6, Leading zero omitted, Abs format (unit mm)*
G04 Created by KiCad (PCBNEW 6.0.10+dfsg-1~bpo11+1) date 2023-02-16 22:59:16*
%MOMM*%
%LPD*%
G01*
G04 APERTURE LIST*
%TA.AperFunction,ViaDrill*%
%ADD10C,0.300000*%
%TD*%
%TA.AperFunction,ComponentDrill*%
%ADD11C,0.600000*%
%TD*%
%TA.AperFunction,ComponentDrill*%
%ADD12C,0.750000*%
%TD*%
%TA.AperFunction,ComponentDrill*%
%ADD13C,0.900000*%
%TD*%
%TA.AperFunction,ComponentDrill*%
%ADD14C,0.950000*%
%TD*%
G04 aperture for slot hole*
%TA.AperFunction,ComponentDrill*%
%ADD15O,1.000000X1.000000*%
%TD*%
%TA.AperFunction,ComponentDrill*%
%ADD16C,1.000000*%
%TD*%
%TA.AperFunction,ComponentDrill*%
%ADD17C,1.016000*%
%TD*%
%TA.AperFunction,ComponentDrill*%
%ADD18C,1.350000*%
%TD*%
%TA.AperFunction,ComponentDrill*%
%ADD19C,1.400000*%
%TD*%
%TA.AperFunction,ComponentDrill*%
%ADD20C,1.500000*%
%TD*%
%TA.AperFunction,ComponentDrill*%
%ADD21C,5.000000*%
%TD*%
G04 APERTURE END LIST*
D10*
X20984129Y-187598534D03*
X20990822Y-22999444D03*
X20990822Y-27999444D03*
X20990822Y-32999444D03*
X20990822Y-37999444D03*
X20990822Y-42999444D03*
X20990822Y-47999444D03*
X20990822Y-52999444D03*
X20990822Y-57999444D03*
X20990822Y-62999444D03*
X20990822Y-67999444D03*
X20990822Y-72999444D03*
X20990822Y-77999444D03*
X20990822Y-82999444D03*
X20990822Y-87999444D03*
X20990822Y-92999444D03*
X20990822Y-97999444D03*
X20990822Y-102999444D03*
X20990822Y-107999444D03*
X20990822Y-112999444D03*
X20990822Y-117999444D03*
X20990822Y-122999444D03*
X20990822Y-127999444D03*
X20990822Y-132999444D03*
X20990822Y-137999444D03*
X20990822Y-142999444D03*
X20990822Y-147999444D03*
X20990822Y-152999444D03*
X20990822Y-157999444D03*
X20990822Y-162999444D03*
X20990822Y-167999444D03*
X20990822Y-172999444D03*
X20990822Y-177999444D03*
X22997832Y-189198418D03*
X23000000Y-21000000D03*
X24384000Y-120142000D03*
X24800000Y-130600000D03*
X25000000Y-161000000D03*
X25000000Y-163000000D03*
X25000000Y-165000000D03*
X26000000Y-162000000D03*
X26000000Y-164000000D03*
X27000000Y-161000000D03*
X27000000Y-163000000D03*
X27000000Y-165000000D03*
X27997832Y-189198418D03*
X28000000Y-21000000D03*
X28000000Y-162000000D03*
X28000000Y-164000000D03*
X28800000Y-54600000D03*
X29000000Y-161000000D03*
X29000000Y-163000000D03*
X29000000Y-165000000D03*
X29200000Y-119000000D03*
X29600000Y-49600000D03*
X29800000Y-85800000D03*
X30000000Y-90000000D03*
X30000000Y-95000000D03*
X30000000Y-100000000D03*
X30000000Y-105000000D03*
X30000000Y-162000000D03*
X30000000Y-164000000D03*
X30600000Y-78800000D03*
X31000000Y-161000000D03*
X31000000Y-163000000D03*
X31000000Y-165000000D03*
X31200000Y-108000000D03*
X32400000Y-110400000D03*
X32997832Y-189198418D03*
X33000000Y-21000000D03*
X33400000Y-64400000D03*
X34200000Y-119200000D03*
X34600000Y-61600000D03*
X34600000Y-108200000D03*
X35000000Y-90000000D03*
X35000000Y-95000000D03*
X35000000Y-100000000D03*
X35000000Y-105000000D03*
X36600000Y-79200000D03*
X36800000Y-84200000D03*
X37997832Y-189198418D03*
X38000000Y-21000000D03*
X39000000Y-152000000D03*
X39000000Y-153000000D03*
X39000000Y-154000000D03*
X39000000Y-160000000D03*
X39000000Y-161000000D03*
X40000000Y-152000000D03*
X40000000Y-153000000D03*
X40000000Y-154000000D03*
X40800000Y-65400000D03*
X41000000Y-62000000D03*
X41000000Y-152000000D03*
X41000000Y-153000000D03*
X41000000Y-154000000D03*
X41000000Y-160000000D03*
X41000000Y-161000000D03*
X42000000Y-152000000D03*
X42000000Y-153000000D03*
X42000000Y-154000000D03*
X42800000Y-79000000D03*
X42997832Y-189198418D03*
X43000000Y-21000000D03*
X43000000Y-152000000D03*
X43000000Y-153000000D03*
X43000000Y-154000000D03*
X44720000Y-140002000D03*
X44720000Y-142002000D03*
X44720000Y-144002000D03*
X44720000Y-146002000D03*
X44800000Y-166200000D03*
X44800000Y-167200000D03*
X44800000Y-168200000D03*
X44800000Y-169200000D03*
X44945500Y-121200000D03*
X45200000Y-97800000D03*
X45200000Y-157800000D03*
X45600000Y-56000000D03*
X45720000Y-141002000D03*
X45720000Y-143002000D03*
X45720000Y-145002000D03*
X45800000Y-164200000D03*
X45800000Y-165200000D03*
X45800000Y-166200000D03*
X45800000Y-167200000D03*
X45800000Y-168200000D03*
X45800000Y-169200000D03*
X46000000Y-155000000D03*
X46000000Y-156000000D03*
X46338000Y-140002000D03*
X46338000Y-142002000D03*
X46338000Y-144002000D03*
X46720000Y-146002000D03*
X46800000Y-164200000D03*
X46800000Y-165200000D03*
X46800000Y-166200000D03*
X46800000Y-167200000D03*
X46800000Y-168200000D03*
X46800000Y-169200000D03*
X47600000Y-99000000D03*
X47800000Y-164200000D03*
X47997832Y-189198418D03*
X48000000Y-21000000D03*
X48100000Y-163000000D03*
X48200000Y-94800000D03*
X48800000Y-63800000D03*
X49800000Y-59000000D03*
X50000000Y-41910000D03*
X50000000Y-91800000D03*
X50000000Y-97200000D03*
X50000000Y-120000000D03*
X50200000Y-65400000D03*
X50600000Y-156000000D03*
X51000000Y-159800000D03*
X52500000Y-120000000D03*
X52997832Y-189198418D03*
X53000000Y-21000000D03*
X54000000Y-164000000D03*
X54000000Y-165000000D03*
X55000000Y-155000000D03*
X55000000Y-165000000D03*
X55000000Y-166000000D03*
X56000000Y-155000000D03*
X56000000Y-166000000D03*
X56642000Y-118618000D03*
X57000000Y-166000000D03*
X57997832Y-189198418D03*
X58000000Y-21000000D03*
X58000000Y-166000000D03*
X58928000Y-31750000D03*
X58928000Y-180086000D03*
X59000000Y-166000000D03*
X59200000Y-85000000D03*
X59690000Y-121158000D03*
X60000000Y-89199010D03*
X60000000Y-95000000D03*
X60000000Y-100000000D03*
X60000000Y-105000000D03*
X60000000Y-157000000D03*
X60000000Y-160000000D03*
X60000000Y-161000000D03*
X60000000Y-162000000D03*
X60000000Y-164000000D03*
X60000000Y-166000000D03*
X61000000Y-156000000D03*
X61000000Y-157000000D03*
X61000000Y-158000000D03*
X61000000Y-160000000D03*
X61000000Y-161000000D03*
X61000000Y-162000000D03*
X61000000Y-165000000D03*
X61000000Y-166000000D03*
X62000000Y-157000000D03*
X62000000Y-158000000D03*
X62000000Y-160000000D03*
X62000000Y-161000000D03*
X62000000Y-162000000D03*
X62000000Y-164000000D03*
X62000000Y-166000000D03*
X62200000Y-24600000D03*
X62200000Y-182600000D03*
X62246000Y-140002000D03*
X62246000Y-142002000D03*
X62246000Y-144002000D03*
X62246000Y-146002000D03*
X62660156Y-88187667D03*
X62997832Y-189198418D03*
X63000000Y-158000000D03*
X63000000Y-160000000D03*
X63000000Y-161000000D03*
X63000000Y-162000000D03*
X63000000Y-165000000D03*
X63000000Y-166000000D03*
X63200000Y-79000000D03*
X63200000Y-86800000D03*
X63246000Y-141002000D03*
X63246000Y-143002000D03*
X63246000Y-145002000D03*
X63864000Y-140002000D03*
X63864000Y-142002000D03*
X63864000Y-144002000D03*
X64000000Y-164000000D03*
X64246000Y-146002000D03*
X65000000Y-95000000D03*
X65000000Y-100000000D03*
X65000000Y-105000000D03*
X65600000Y-72200000D03*
X65800000Y-69800000D03*
X65991231Y-28997250D03*
X65991231Y-33997250D03*
X65991231Y-38997250D03*
X67000000Y-41000000D03*
X67997832Y-189198418D03*
X68600000Y-108800000D03*
X69200000Y-78800000D03*
X70000000Y-90000000D03*
X70000000Y-105000000D03*
X70300000Y-181300000D03*
X71000000Y-182000000D03*
X71302823Y-116640000D03*
X71700000Y-182700000D03*
X72000000Y-41000000D03*
X72400000Y-183400000D03*
X72600000Y-92200000D03*
X72600000Y-110600000D03*
X72800000Y-72000000D03*
X72943657Y-166304301D03*
X72997832Y-189198418D03*
X73000000Y-88200000D03*
X73000000Y-151000000D03*
X73000000Y-153000000D03*
X73000000Y-163000000D03*
X73000000Y-165000000D03*
X73000000Y-168000000D03*
X73000000Y-170000000D03*
X73000000Y-172000000D03*
X73200000Y-48200000D03*
X73200000Y-69800000D03*
X73400000Y-183400000D03*
X73914000Y-120904000D03*
X74000000Y-152000000D03*
X74000000Y-154000000D03*
X74000000Y-164000000D03*
X74000000Y-167000000D03*
X74000000Y-169000000D03*
X74000000Y-171000000D03*
X75000000Y-90000000D03*
X75000000Y-151000000D03*
X75000000Y-153000000D03*
X75000000Y-163000000D03*
X75000000Y-165000000D03*
X75000000Y-166349500D03*
X75000000Y-168000000D03*
X75000000Y-170000000D03*
X75000000Y-172000000D03*
X75400000Y-79000000D03*
X76000000Y-152000000D03*
X76000000Y-154000000D03*
X76000000Y-164000000D03*
X76000000Y-167000000D03*
X76000000Y-169000000D03*
X76000000Y-171000000D03*
X76600000Y-179800000D03*
X76800000Y-85800000D03*
X77000000Y-41000000D03*
X77000000Y-151144500D03*
X77000000Y-153000000D03*
X77000000Y-163000000D03*
X77000000Y-165000000D03*
X77000000Y-166349500D03*
X77000000Y-168000000D03*
X77000000Y-170000000D03*
X77000000Y-172000000D03*
X77997832Y-189198418D03*
X78000000Y-152000000D03*
X78000000Y-154000000D03*
X78000000Y-164000000D03*
X78000000Y-167000000D03*
X78000000Y-169000000D03*
X78000000Y-171000000D03*
X78000000Y-173750000D03*
X78172000Y-116639998D03*
X78200000Y-45200000D03*
X78435200Y-151144500D03*
X79000000Y-112600000D03*
X79000000Y-153000000D03*
X79000000Y-163000000D03*
X79000000Y-165000000D03*
X79000000Y-166349500D03*
X79000000Y-168000000D03*
X79000000Y-170000000D03*
X79000000Y-172000000D03*
X79200000Y-52600000D03*
X79200000Y-56200000D03*
X79248000Y-121412000D03*
X79500000Y-157500000D03*
X79518000Y-140002000D03*
X79518000Y-142002000D03*
X79518000Y-144002000D03*
X79518000Y-146002000D03*
X79600000Y-48600000D03*
X79800000Y-110600000D03*
X80375700Y-177752000D03*
X80518000Y-141002000D03*
X80518000Y-143002000D03*
X80518000Y-145002000D03*
X81000000Y-41000000D03*
X81136000Y-140002000D03*
X81136000Y-142002000D03*
X81136000Y-144002000D03*
X81518000Y-146002000D03*
X81850500Y-167000000D03*
X82000000Y-157250000D03*
X82000000Y-161750000D03*
X82350500Y-156000000D03*
X82500000Y-120000000D03*
X82997832Y-189198418D03*
X83000000Y-161749500D03*
X83000000Y-178500000D03*
X84000000Y-157250000D03*
X84000000Y-173500000D03*
X84324750Y-168175250D03*
X84359200Y-174752000D03*
X84500000Y-171500000D03*
X84750000Y-167250000D03*
X84800000Y-92200000D03*
X85750000Y-163000000D03*
X85750000Y-164000000D03*
X85897200Y-154185600D03*
X85897200Y-156185600D03*
X86709266Y-166290734D03*
X86897200Y-155185600D03*
X87000000Y-167500000D03*
X87000000Y-178000000D03*
X87325200Y-179882800D03*
X87897200Y-154185600D03*
X87897200Y-155803600D03*
X87997832Y-189198418D03*
X88595200Y-115976400D03*
X88897200Y-155185600D03*
X89000000Y-167500000D03*
X89897200Y-154185600D03*
X89897200Y-155803600D03*
X89999500Y-157901997D03*
X90000000Y-120000000D03*
X90170000Y-140208000D03*
X90897200Y-155185600D03*
X91897200Y-154185600D03*
X91897200Y-155803600D03*
X91948000Y-118110000D03*
X92000000Y-172000000D03*
X92997832Y-189198418D03*
X93000000Y-41000000D03*
X93000000Y-167500000D03*
X94200000Y-84800000D03*
X95000000Y-95000000D03*
X95000000Y-100000000D03*
X95000000Y-105000000D03*
X95600000Y-78600000D03*
X96000000Y-175000000D03*
X96451023Y-157251023D03*
X96457182Y-154817000D03*
X97000000Y-41000000D03*
X97786139Y-67813861D03*
X97800000Y-72600000D03*
X97997832Y-189198418D03*
X98000000Y-70400000D03*
X98094800Y-120853200D03*
X98501200Y-116639998D03*
X99060000Y-170942000D03*
X99568000Y-167894000D03*
X99800000Y-88000000D03*
X100000000Y-95000000D03*
X100000000Y-100000000D03*
X100000000Y-105000000D03*
X100000000Y-110000000D03*
X100000000Y-120000000D03*
X100634800Y-183794400D03*
X101092000Y-175006000D03*
X101200000Y-80800000D03*
X102000000Y-41000000D03*
X102410000Y-142002000D03*
X102410000Y-144002000D03*
X102870000Y-167640000D03*
X102997832Y-189198418D03*
X103410000Y-143002000D03*
X104410000Y-142002000D03*
X104410000Y-143620000D03*
X105000000Y-67600000D03*
X105000000Y-69600000D03*
X105000000Y-80800000D03*
X105200000Y-71600000D03*
X105410000Y-143002000D03*
X105600000Y-163600000D03*
X106000000Y-67800000D03*
X106000000Y-157000000D03*
X106400000Y-70400000D03*
X106400000Y-72600000D03*
X106400000Y-87400000D03*
X106410000Y-142002000D03*
X106410000Y-143620000D03*
X107000000Y-41000000D03*
X107410000Y-143002000D03*
X107442002Y-186400000D03*
X107800000Y-78800000D03*
X107997832Y-189198418D03*
X108074287Y-157946730D03*
X108204000Y-121158000D03*
X108204000Y-171450000D03*
X108410000Y-142002000D03*
X108410000Y-143620000D03*
X108458000Y-118364000D03*
X109000000Y-115200000D03*
X109423911Y-177623911D03*
X109800000Y-86400000D03*
X110000000Y-95000000D03*
X110000000Y-100000000D03*
X110000000Y-105000000D03*
X110000000Y-182600000D03*
X111874500Y-152654000D03*
X112000000Y-41000000D03*
X112014000Y-149098000D03*
X112014000Y-153670000D03*
X112600000Y-64400000D03*
X112776000Y-150973468D03*
X112776000Y-151892000D03*
X112997832Y-189198418D03*
X113000500Y-58400000D03*
X113200000Y-60600000D03*
X113371378Y-162572500D03*
X113400000Y-168000000D03*
X113538000Y-119888000D03*
X114800000Y-117800000D03*
X115000000Y-92200000D03*
X115000000Y-95000000D03*
X115000000Y-100000000D03*
X115400000Y-179000000D03*
X116200000Y-168600000D03*
X116634000Y-142002000D03*
X116634000Y-144002000D03*
X117000000Y-41000000D03*
X117094000Y-150977600D03*
X117634000Y-143002000D03*
X117997832Y-189198418D03*
X118634000Y-142002000D03*
X118634000Y-143620000D03*
X119400000Y-158200000D03*
X119634000Y-143002000D03*
X120203199Y-155203199D03*
X120600000Y-180200000D03*
X120634000Y-142002000D03*
X120634000Y-143620000D03*
X120800000Y-167400000D03*
X121158000Y-147320000D03*
X121200000Y-173600000D03*
X121400000Y-186400000D03*
X121634000Y-143002000D03*
X122000000Y-41000000D03*
X122368001Y-155203199D03*
X122400000Y-186400000D03*
X122634000Y-142002000D03*
X122634000Y-143620000D03*
X122997832Y-189198418D03*
X124100000Y-158600000D03*
X124460000Y-182372000D03*
X125508000Y-163322000D03*
X126000000Y-67400000D03*
X126400000Y-179400000D03*
X126500000Y-184000000D03*
X126600000Y-108600000D03*
X126800000Y-67600000D03*
X126999501Y-68799501D03*
X127000000Y-41000000D03*
X127203200Y-147370800D03*
X127783000Y-164317000D03*
X127800000Y-85000000D03*
X127997832Y-189198418D03*
X128200000Y-63800000D03*
X128230814Y-65600000D03*
X128800000Y-90600000D03*
X128800000Y-100000000D03*
X129000000Y-77800000D03*
X129100000Y-103687184D03*
X129200000Y-72600000D03*
X129962411Y-173437589D03*
X130149600Y-145745200D03*
X130726256Y-127435927D03*
X130801000Y-95749000D03*
X131300000Y-91700000D03*
X131409500Y-116800000D03*
X131600000Y-50400000D03*
X131800000Y-66600000D03*
X131800000Y-119800000D03*
X132000000Y-41000000D03*
X132000000Y-186000000D03*
X132200000Y-72000000D03*
X132200000Y-183000000D03*
X132534575Y-179850500D03*
X132800000Y-75800000D03*
X132842000Y-126085600D03*
X132875500Y-71163365D03*
X132997832Y-189198418D03*
X133000000Y-55000000D03*
X133200000Y-95800000D03*
X133800000Y-70400000D03*
X134000000Y-169198003D03*
X134200000Y-83400000D03*
X134400000Y-118400000D03*
X134580359Y-123611569D03*
X135000000Y-72800000D03*
X135000000Y-75800000D03*
X135000000Y-80000000D03*
X135800000Y-47600000D03*
X135800000Y-117000000D03*
X136000000Y-185800000D03*
X136480966Y-121681216D03*
X137000000Y-41000000D03*
X137000000Y-85400000D03*
X137400000Y-69400000D03*
X137997832Y-189198418D03*
X138000000Y-180400000D03*
X138400000Y-88800000D03*
X139000000Y-119200000D03*
X139200000Y-173600000D03*
X139600000Y-72200000D03*
X139600000Y-83800000D03*
X139700000Y-103700000D03*
X139735500Y-107204011D03*
X140600000Y-72000000D03*
X141600000Y-72000000D03*
X141605000Y-100330000D03*
X142000000Y-41000000D03*
X142400000Y-75400000D03*
X142600000Y-179400000D03*
X142800000Y-79400000D03*
X142875000Y-168021000D03*
X142997832Y-189198418D03*
X143200000Y-86400000D03*
X143600000Y-69400000D03*
X143800000Y-53200000D03*
X144400000Y-70400000D03*
X144595123Y-97550967D03*
X145669003Y-118350990D03*
X146000000Y-67600000D03*
X146200000Y-58400000D03*
X146400000Y-62200000D03*
X147000000Y-41000000D03*
X147000000Y-69400000D03*
X147000000Y-81400000D03*
X147200000Y-73800000D03*
X147200000Y-128600000D03*
X147200000Y-180400000D03*
X147600000Y-70400000D03*
X147850500Y-68518023D03*
X147997832Y-189198418D03*
X148400000Y-61000000D03*
X148598058Y-186800208D03*
X148800000Y-67800000D03*
X148800000Y-181400000D03*
X149000000Y-82999500D03*
X149200000Y-168600000D03*
X149200000Y-179000000D03*
X149400000Y-173600000D03*
X149600000Y-186800000D03*
X149800000Y-81400000D03*
X150176089Y-67376089D03*
X150200000Y-123400000D03*
X151200000Y-77600000D03*
X151400000Y-67000000D03*
X151400000Y-82999500D03*
X151800000Y-73800000D03*
X152000000Y-41000000D03*
X152349200Y-165949500D03*
X152400000Y-182400000D03*
X152806400Y-167182800D03*
X152997832Y-189198418D03*
X153000000Y-70358000D03*
X153600000Y-179600000D03*
X153600000Y-181400000D03*
X154200000Y-24800000D03*
X154200000Y-29400000D03*
X154200000Y-34400000D03*
X154200000Y-39400000D03*
X154600000Y-55000000D03*
X154800000Y-48000000D03*
X155000000Y-124800000D03*
X155448002Y-168200000D03*
X155600000Y-45400000D03*
X156000000Y-21000000D03*
X156200000Y-74400000D03*
X156600000Y-83784500D03*
X156800000Y-180400000D03*
X156845000Y-102235000D03*
X157480000Y-84200000D03*
X157800000Y-79800000D03*
X157997832Y-189198418D03*
X158115000Y-102235000D03*
X158400000Y-70400000D03*
X159300000Y-127800000D03*
X159800000Y-166200000D03*
X159837755Y-93616223D03*
X160000000Y-167400000D03*
X160274000Y-95504000D03*
X161000000Y-21000000D03*
X161290000Y-81280000D03*
X162031411Y-93873589D03*
X162200000Y-45400000D03*
X162560000Y-95250000D03*
X162560000Y-96520000D03*
X162560000Y-97790000D03*
X162560000Y-99695000D03*
X162584160Y-98871337D03*
X162997832Y-189198418D03*
X163000000Y-37400000D03*
X163830000Y-90170000D03*
X164465000Y-91440000D03*
X165000000Y-119400000D03*
X165100000Y-92710000D03*
X165200000Y-70400000D03*
X165200000Y-118400000D03*
X165735000Y-81280000D03*
X166000000Y-21000000D03*
X166800000Y-61800000D03*
X167600000Y-162000000D03*
X167600000Y-167600000D03*
X167800000Y-138200000D03*
X167800000Y-152600000D03*
X167997832Y-189198418D03*
X169400000Y-70400000D03*
X169600000Y-81600000D03*
X170000000Y-166400000D03*
X170815000Y-83200000D03*
X171000000Y-21000000D03*
X171800000Y-137000000D03*
X172997832Y-189198418D03*
X173000000Y-70200000D03*
X173200000Y-81600000D03*
X175000000Y-34600000D03*
X175260000Y-102235000D03*
X175400000Y-58400000D03*
X175452437Y-98024615D03*
X176000000Y-21000000D03*
X176000000Y-63500000D03*
X176000000Y-120000000D03*
X176000000Y-128000000D03*
X176000000Y-133000000D03*
X176000000Y-138000000D03*
X176000000Y-143000000D03*
X176000000Y-148000000D03*
X176000000Y-153000000D03*
X176000000Y-158000000D03*
X176000000Y-163000000D03*
X176000000Y-168000000D03*
X176000000Y-178000000D03*
X176300000Y-43100000D03*
X176500000Y-67500000D03*
X176600000Y-73800000D03*
X177400000Y-45000000D03*
X177900000Y-35800000D03*
X177997832Y-189198418D03*
X178800000Y-94000000D03*
X179000000Y-46200000D03*
X179920000Y-79720000D03*
X181000000Y-21000000D03*
X181000000Y-68500000D03*
X181000000Y-120000000D03*
X181000000Y-178000000D03*
X182000000Y-83600000D03*
X182997832Y-189198418D03*
X183400000Y-61800000D03*
X184000000Y-65000000D03*
X184600000Y-83600000D03*
X184600000Y-114400000D03*
X185720000Y-71920000D03*
X185920000Y-80720000D03*
X186000000Y-21000000D03*
X186000000Y-120000000D03*
X186000000Y-178000000D03*
X186600000Y-92200000D03*
X186800000Y-30600000D03*
X186800000Y-72200000D03*
X187400000Y-41000000D03*
X187920000Y-71920000D03*
X187997832Y-189198418D03*
X188600000Y-62400000D03*
X188600000Y-115800000D03*
X189800000Y-100800000D03*
X191000000Y-21000000D03*
X191000000Y-120000000D03*
X192997832Y-189198418D03*
X193320000Y-80870500D03*
X194200000Y-103400000D03*
X195800000Y-66400000D03*
X196000000Y-21000000D03*
X196000000Y-53000000D03*
X196000000Y-120000000D03*
X196320000Y-76400000D03*
X199000000Y-23600000D03*
X199000000Y-35000000D03*
X199000000Y-40000000D03*
X199000000Y-45000000D03*
X199000000Y-50000000D03*
X199000000Y-55000000D03*
X199000000Y-60000000D03*
X199000000Y-65000000D03*
X199000000Y-70000000D03*
X199000000Y-75000000D03*
X199000000Y-80000000D03*
X199000000Y-95000000D03*
X199000000Y-100000000D03*
X199000000Y-105000000D03*
X199000000Y-110000000D03*
X199000000Y-115000000D03*
X199000000Y-120000000D03*
D11*
%TO.C,H1*%
X22750000Y-30000000D03*
%TO.C,H2*%
X22750000Y-182500000D03*
%TO.C,H1*%
X23848350Y-27348350D03*
X23848350Y-32651650D03*
%TO.C,H2*%
X23848350Y-179848350D03*
X23848350Y-185151650D03*
%TO.C,H1*%
X26500000Y-26250000D03*
X26500000Y-33750000D03*
%TO.C,H2*%
X26500000Y-178750000D03*
X26500000Y-186250000D03*
%TO.C,H1*%
X29151650Y-27348350D03*
X29151650Y-32651650D03*
%TO.C,H2*%
X29151650Y-179848350D03*
X29151650Y-185151650D03*
%TO.C,H1*%
X30250000Y-30000000D03*
%TO.C,H2*%
X30250000Y-182500000D03*
%TO.C,H3*%
X189750000Y-30000000D03*
%TO.C,H4*%
X189750000Y-182500000D03*
%TO.C,H3*%
X190848350Y-27348350D03*
X190848350Y-32651650D03*
%TO.C,H4*%
X190848350Y-179848350D03*
X190848350Y-185151650D03*
%TO.C,H3*%
X193500000Y-26250000D03*
X193500000Y-33750000D03*
%TO.C,H4*%
X193500000Y-178750000D03*
X193500000Y-186250000D03*
%TO.C,H3*%
X196151650Y-27348350D03*
X196151650Y-32651650D03*
%TO.C,H4*%
X196151650Y-179848350D03*
X196151650Y-185151650D03*
%TO.C,H3*%
X197250000Y-30000000D03*
%TO.C,H4*%
X197250000Y-182500000D03*
D12*
%TO.C,J10*%
X38196000Y-36195000D03*
X40196000Y-36195000D03*
X42196000Y-36195000D03*
X44196000Y-36195000D03*
X46196000Y-36195000D03*
D13*
%TO.C,SW1*%
X130500000Y-183097500D03*
X133500000Y-183097500D03*
D14*
%TO.C,J4*%
X37200000Y-28000000D03*
X39700000Y-28000000D03*
X42200000Y-28000000D03*
X44700000Y-28000000D03*
X47200000Y-28000000D03*
%TO.C,J5*%
X159750000Y-25000000D03*
%TO.C,J6*%
X159750000Y-32967500D03*
%TO.C,J7*%
X159750000Y-40935000D03*
%TO.C,J8*%
X159750000Y-48902500D03*
%TO.C,J9*%
X159750000Y-56870000D03*
%TO.C,J5*%
X162250000Y-25000000D03*
%TO.C,J6*%
X162250000Y-32967500D03*
%TO.C,J7*%
X162250000Y-40935000D03*
%TO.C,J8*%
X162250000Y-48902500D03*
%TO.C,J9*%
X162250000Y-56870000D03*
%TO.C,J5*%
X164750000Y-25000000D03*
%TO.C,J6*%
X164750000Y-32967500D03*
%TO.C,J7*%
X164750000Y-40935000D03*
%TO.C,J8*%
X164750000Y-48902500D03*
%TO.C,J9*%
X164750000Y-56870000D03*
%TO.C,J5*%
X167250000Y-25000000D03*
%TO.C,J6*%
X167250000Y-32967500D03*
%TO.C,J7*%
X167250000Y-40935000D03*
%TO.C,J8*%
X167250000Y-48902500D03*
%TO.C,J9*%
X167250000Y-56870000D03*
%TO.C,J11*%
X177000000Y-25000000D03*
%TO.C,J12*%
X177000000Y-32967500D03*
%TO.C,J13*%
X177000000Y-40935000D03*
%TO.C,J14*%
X177000000Y-48902500D03*
%TO.C,J11*%
X179500000Y-25000000D03*
%TO.C,J12*%
X179500000Y-32967500D03*
%TO.C,J13*%
X179500000Y-40935000D03*
%TO.C,J14*%
X179500000Y-48902500D03*
%TO.C,J11*%
X182000000Y-25000000D03*
%TO.C,J12*%
X182000000Y-32967500D03*
%TO.C,J13*%
X182000000Y-40935000D03*
%TO.C,J14*%
X182000000Y-48902500D03*
%TO.C,J19*%
X191870000Y-42352500D03*
X191870000Y-44852500D03*
X191870000Y-47352500D03*
X191870000Y-49852500D03*
D15*
%TO.C,U4*%
X24060000Y-68595000D03*
X24060000Y-71135000D03*
X24060000Y-73675000D03*
X24060000Y-76215000D03*
X24060000Y-78755000D03*
X24060000Y-81295000D03*
X24060000Y-93995000D03*
X24060000Y-96535000D03*
X24060000Y-99075000D03*
X24060000Y-101615000D03*
X24060000Y-104155000D03*
X24060000Y-106695000D03*
X24060000Y-109235000D03*
X24060000Y-111775000D03*
X24060000Y-114315000D03*
X26600000Y-114315000D03*
X27870000Y-68595000D03*
X27870000Y-71135000D03*
X29140000Y-114315000D03*
X30410000Y-68595000D03*
X30410000Y-71135000D03*
D16*
%TO.C,C2*%
X30428020Y-119612400D03*
X30428020Y-124612400D03*
D15*
%TO.C,U4*%
X31680000Y-114315000D03*
X34220000Y-114315000D03*
X35490000Y-68595000D03*
X35490000Y-71135000D03*
X36760000Y-114315000D03*
X38030000Y-68595000D03*
X38030000Y-71135000D03*
X43110000Y-68595000D03*
X43110000Y-71135000D03*
X45650000Y-68595000D03*
X45650000Y-71135000D03*
D16*
%TO.C,C6*%
X46697015Y-119612400D03*
X46697015Y-124612400D03*
D15*
%TO.C,U4*%
X49460000Y-68595000D03*
X49460000Y-71135000D03*
X49460000Y-73675000D03*
X49460000Y-76215000D03*
X49460000Y-78755000D03*
X49460000Y-81295000D03*
X49460000Y-104155000D03*
X49460000Y-106695000D03*
X49460000Y-109235000D03*
X49460000Y-111775000D03*
X49460000Y-114315000D03*
%TO.C,U5*%
X56560000Y-68595000D03*
X56560000Y-71135000D03*
X56560000Y-73675000D03*
X56560000Y-76215000D03*
X56560000Y-78755000D03*
X56560000Y-81295000D03*
X56560000Y-93995000D03*
X56560000Y-96535000D03*
X56560000Y-99075000D03*
X56560000Y-101615000D03*
X56560000Y-104155000D03*
X56560000Y-106695000D03*
X56560000Y-109235000D03*
X56560000Y-111775000D03*
X56560000Y-114315000D03*
X59100000Y-114315000D03*
X60370000Y-68595000D03*
X60370000Y-71135000D03*
X61640000Y-114315000D03*
X62910000Y-68595000D03*
X62910000Y-71135000D03*
D16*
%TO.C,C7*%
X62966010Y-119612400D03*
X62966010Y-124612400D03*
D15*
%TO.C,U5*%
X64180000Y-114315000D03*
X66720000Y-114315000D03*
X67990000Y-68595000D03*
X67990000Y-71135000D03*
X69260000Y-114315000D03*
X70530000Y-68595000D03*
X70530000Y-71135000D03*
D16*
%TO.C,J20*%
X75392200Y-183083200D03*
D15*
%TO.C,U5*%
X75610000Y-68595000D03*
X75610000Y-71135000D03*
D16*
%TO.C,J20*%
X77932200Y-183083200D03*
D15*
%TO.C,U5*%
X78150000Y-68595000D03*
X78150000Y-71135000D03*
D16*
%TO.C,C3*%
X79235005Y-119612400D03*
X79235005Y-124612400D03*
%TO.C,J23*%
X80314800Y-132689600D03*
%TO.C,J16*%
X80314800Y-150469600D03*
%TO.C,J20*%
X80472200Y-183083200D03*
D15*
%TO.C,U5*%
X81960000Y-68595000D03*
X81960000Y-71135000D03*
X81960000Y-73675000D03*
X81960000Y-76215000D03*
X81960000Y-78755000D03*
X81960000Y-81295000D03*
X81960000Y-104155000D03*
X81960000Y-106695000D03*
X81960000Y-109235000D03*
X81960000Y-111775000D03*
X81960000Y-114315000D03*
D16*
%TO.C,J23*%
X82854800Y-132689600D03*
%TO.C,J16*%
X82854800Y-150469600D03*
%TO.C,J20*%
X83012200Y-183083200D03*
%TO.C,J23*%
X85394800Y-132689600D03*
%TO.C,J16*%
X85394800Y-150469600D03*
%TO.C,J20*%
X85552200Y-183083200D03*
%TO.C,J23*%
X87934800Y-132689600D03*
%TO.C,J16*%
X87934800Y-150469600D03*
%TO.C,J20*%
X88092200Y-183083200D03*
D15*
%TO.C,U6*%
X89060000Y-68595000D03*
X89060000Y-71135000D03*
X89060000Y-73675000D03*
X89060000Y-76215000D03*
X89060000Y-78755000D03*
X89060000Y-81295000D03*
X89060000Y-93995000D03*
X89060000Y-96535000D03*
X89060000Y-99075000D03*
X89060000Y-101615000D03*
X89060000Y-104155000D03*
X89060000Y-106695000D03*
X89060000Y-109235000D03*
X89060000Y-111775000D03*
X89060000Y-114315000D03*
D16*
%TO.C,J23*%
X90474800Y-132689600D03*
%TO.C,J16*%
X90474800Y-150469600D03*
%TO.C,J20*%
X90632200Y-183083200D03*
D15*
%TO.C,U6*%
X91600000Y-114315000D03*
X92870000Y-68595000D03*
X92870000Y-71135000D03*
D16*
%TO.C,J23*%
X93014800Y-132689600D03*
%TO.C,J16*%
X93014800Y-150469600D03*
%TO.C,J20*%
X93172200Y-183083200D03*
D15*
%TO.C,U6*%
X94140000Y-114315000D03*
X95410000Y-68595000D03*
X95410000Y-71135000D03*
D16*
%TO.C,C8*%
X95504000Y-119612400D03*
X95504000Y-124612400D03*
%TO.C,J23*%
X95554800Y-132689600D03*
%TO.C,J16*%
X95554800Y-150469600D03*
%TO.C,J20*%
X95712200Y-183083200D03*
D15*
%TO.C,U6*%
X96680000Y-114315000D03*
D16*
%TO.C,J23*%
X98094800Y-132689600D03*
%TO.C,J16*%
X98094800Y-150469600D03*
%TO.C,J20*%
X98252200Y-183083200D03*
D15*
%TO.C,U6*%
X99220000Y-114315000D03*
X100490000Y-68595000D03*
X100490000Y-71135000D03*
X101760000Y-114315000D03*
X103030000Y-68595000D03*
X103030000Y-71135000D03*
X108110000Y-68595000D03*
X108110000Y-71135000D03*
X110650000Y-68595000D03*
X110650000Y-71135000D03*
X114460000Y-68595000D03*
X114460000Y-71135000D03*
X114460000Y-73675000D03*
X114460000Y-76215000D03*
X114460000Y-78755000D03*
X114460000Y-81295000D03*
X114460000Y-104155000D03*
X114460000Y-106695000D03*
X114460000Y-109235000D03*
X114460000Y-111775000D03*
X114460000Y-114315000D03*
D16*
%TO.C,J22*%
X138800000Y-183260000D03*
X138800000Y-185800000D03*
X141340000Y-183260000D03*
X141340000Y-185800000D03*
X143880000Y-183260000D03*
X143880000Y-185800000D03*
X146420000Y-183260000D03*
X146420000Y-185800000D03*
%TO.C,U11*%
X149006544Y-87672104D03*
X149006544Y-105452104D03*
X149236544Y-94022104D03*
X149236544Y-96562104D03*
X149236544Y-99102104D03*
X151546544Y-87672104D03*
X151546544Y-105452104D03*
X154086544Y-87672104D03*
X154086544Y-105452104D03*
X156626544Y-87672104D03*
X156626544Y-105452104D03*
X159166544Y-87672104D03*
X159166544Y-105452104D03*
X161706544Y-87672104D03*
X161706544Y-105452104D03*
X164246544Y-87672104D03*
X164246544Y-105452104D03*
X166786544Y-87672104D03*
X166786544Y-105452104D03*
X169326544Y-87672104D03*
X169326544Y-105452104D03*
X171866544Y-87672104D03*
X171866544Y-105452104D03*
%TO.C,M1*%
X172000000Y-183000000D03*
X172000000Y-185540000D03*
%TO.C,U11*%
X174406544Y-87672104D03*
X174406544Y-105452104D03*
X176946544Y-87672104D03*
X176946544Y-105452104D03*
%TO.C,J17*%
X178250000Y-56870000D03*
%TO.C,U11*%
X179486544Y-87672104D03*
X179486544Y-105452104D03*
%TO.C,J17*%
X180750000Y-56870000D03*
%TO.C,U11*%
X182026544Y-87672104D03*
X182026544Y-105452104D03*
X184566544Y-87672104D03*
X184566544Y-105452104D03*
X187106544Y-87672104D03*
X187106544Y-105452104D03*
X189646544Y-87672104D03*
X189646544Y-105452104D03*
%TO.C,J18*%
X190320000Y-56870000D03*
%TO.C,U11*%
X192186544Y-87672104D03*
X192186544Y-105452104D03*
%TO.C,J18*%
X192820000Y-56870000D03*
%TO.C,U11*%
X194726544Y-87672104D03*
X194726544Y-105452104D03*
X197266544Y-87672104D03*
X197266544Y-105452104D03*
D17*
%TO.C,XA1*%
X130300000Y-64740000D03*
X130300000Y-113000000D03*
X132840000Y-64740000D03*
X132840000Y-113000000D03*
X135380000Y-64740000D03*
X135380000Y-113000000D03*
X137920000Y-64740000D03*
X137920000Y-113000000D03*
X140460000Y-64740000D03*
X140460000Y-113000000D03*
X143000000Y-64740000D03*
X143000000Y-113000000D03*
X145540000Y-113000000D03*
X148080000Y-64740000D03*
X148080000Y-113000000D03*
X150620000Y-64740000D03*
X152144000Y-113000000D03*
X153160000Y-64740000D03*
X154684000Y-113000000D03*
X155700000Y-64740000D03*
X157224000Y-113000000D03*
X158240000Y-64740000D03*
X159764000Y-113000000D03*
X160780000Y-64740000D03*
X162304000Y-113000000D03*
X163320000Y-64740000D03*
X164844000Y-113000000D03*
X165860000Y-64740000D03*
X167384000Y-113000000D03*
X169924000Y-113000000D03*
X172464000Y-113000000D03*
X175004000Y-113000000D03*
D18*
%TO.C,F2*%
X123675000Y-46350000D03*
%TO.C,F4*%
X123675000Y-55700000D03*
%TO.C,F2*%
X128675000Y-46350000D03*
%TO.C,F4*%
X128675000Y-55700000D03*
%TO.C,F2*%
X138675000Y-46350000D03*
%TO.C,F4*%
X138675000Y-55700000D03*
%TO.C,F2*%
X143675000Y-46350000D03*
%TO.C,F4*%
X143675000Y-55700000D03*
D19*
%TO.C,J1*%
X33250000Y-45250000D03*
X33250000Y-50750000D03*
X37450000Y-45250000D03*
X37450000Y-50750000D03*
X41650000Y-45250000D03*
X41650000Y-50750000D03*
X45850000Y-45250000D03*
X45850000Y-50750000D03*
X50050000Y-45250000D03*
X50050000Y-50750000D03*
X54250000Y-45250000D03*
X54250000Y-50750000D03*
X58450000Y-45250000D03*
X58450000Y-50750000D03*
X62650000Y-45250000D03*
X62650000Y-50750000D03*
X66850000Y-45250000D03*
X66850000Y-50750000D03*
X71050000Y-45250000D03*
X71050000Y-50750000D03*
X75250000Y-45250000D03*
X75250000Y-50750000D03*
%TO.C,J2*%
X83000000Y-45250000D03*
X83000000Y-50750000D03*
X87200000Y-45250000D03*
X87200000Y-50750000D03*
X91400000Y-45250000D03*
X91400000Y-50750000D03*
X95600000Y-45250000D03*
X95600000Y-50750000D03*
%TO.C,J3*%
X151600000Y-45250000D03*
X151600000Y-50750000D03*
D20*
%TO.C,U1*%
X29450000Y-153124000D03*
X29450000Y-171524000D03*
X69850000Y-153124000D03*
X69850000Y-171524000D03*
D21*
%TO.C,H1*%
X26500000Y-30000000D03*
%TO.C,H2*%
X26500000Y-182500000D03*
%TO.C,H3*%
X193500000Y-30000000D03*
%TO.C,H4*%
X193500000Y-182500000D03*
M02*
